<?xml version="1.0" encoding="UTF-8" standalone="no"?>
<!-- Created with Inkscape (http://www.inkscape.org/) -->
<svg id="svg2" xmlns:rdf="http://www.w3.org/1999/02/22-rdf-syntax-ns#" xmlns="http://www.w3.org/2000/svg" height="600" width="600" version="1.0" xmlns:cc="http://creativecommons.org/ns#" xmlns:xlink="http://www.w3.org/1999/xlink" xmlns:dc="http://purl.org/dc/elements/1.1/">
 <metadata id="metadata7">
  <rdf:RDF>
   <cc:Work rdf:about="">
    <dc:format>image/svg+xml</dc:format>
    <dc:type rdf:resource="http://purl.org/dc/dcmitype/StillImage"/>
   </cc:Work>
  </rdf:RDF>
 </metadata>
 <g id="layer1">
  <g id="g2616" transform="scale(2.3438)">
   <rect id="rect2611" style="color:#000000" fill-rule="evenodd" height="256" width="256" y="-.0000076294" x="0" fill="#ffe000"/>
   <g id="g2567" transform="translate(3.8079 3.3981)">
    <path id="path2560" d="m62.531 49.727l-3.915 4.681c-8.853-10.776-19.326-9.543-30.28-13.602-14.574-5.399-14.659-22.694 2.267-23.802-9.361 5.676-12.009 10.748-1.06 15.632 7.687 3.429 24.827 5.259 32.988 17.091z" fill-rule="evenodd" stroke="#000" stroke-width=".5" fill="#f00"/>
    <path id="path2495" d="m89.716 118.43c1.926-15.98 2.667-31.017-7.511-38.1-21.72 5.43-29.041 18.884-35.472 18.884-5.391 0-7.523-3.977-3.281-7.16 1.775-1.333 5.681-3.601 7.222-11.161l-3.294 0.535c-6.637 1.261-8.421-5.613-9.456-10.179-5.229 5.671-10.243-0.373-13.189-2.524 1.031 6.049-3 8.179-8.405 5.343 2.247 4.849-2.673 5.97-5.75 8.05 8.67 5.472-0.376 9.377 9.127 14.728-0.214 14.024 21.467 31.984 27.964 23.834 1.896 1.8 3.767 3.37 5.068-0.19 1.762 2.19 3.334 2.27 4.692 0 2.205 1.83 4.228 2.61 5.63-0.18 1.824 1.32 3.648 2.65 4.88-0.57 2.133 2.46 3.965 3.58 4.692-0.18 2.336 2.07 4.659 4.05 6.006 0 2.723 2.46 4.54 2.4 5.443-0.19 2.705 2.31 5.118 3.34 5.634-0.94z" fill-rule="evenodd"/>
    <path id="path1612" d="m7.0197 84.118c5.2073-1.113 11.008 1.327 11.05-1.516 0.066-4.392-7.225-5.101-11.05 1.516z" fill-rule="evenodd" fill="#f00"/>
    <path id="path2487" d="m12.145 73.724c6.348 1.158 7.454 6.403 9.991 4.959 3.817-2.172-3.107-8.281-9.991-4.959z" fill-rule="evenodd" fill="#f00"/>
    <path id="path2489" d="m19.001 67.07c6.259 3.691 6.793 10.216 10.874 8.044 5.307-2.822 0.051-8.843-10.874-8.044z" fill-rule="evenodd" fill="#f00"/>
    <path id="path2491" d="m35.506 65.172c1.299 5.871-4.961 14.77 1.967 14.77 6.31 0 4.932-10.511-1.967-14.77z" fill-rule="evenodd" fill="#f00"/>
    <path id="path2493" d="m50.8 74.846c-3.233 5.07-12.423 6.339-8.358 11.371 2.828 3.5 10.224-3.481 8.358-11.371z" fill-rule="evenodd" fill="#f00"/>
    <path id="path2497" d="m33.448 93.374c0 11.026 8.167 8.526 8.167 17.536" stroke="#fff" stroke-linecap="round" stroke-width="1.5" fill="none"/>
    <path id="path2548" d="m39.794 28.371l-0.164 8.68 4.913-6.878" fill-rule="evenodd" stroke="#000" stroke-width=".5" fill="#fff"/>
    <use id="use2550" xlink:href="#path2548" transform="translate(5.7317 2.4564)" height="256" width="256" y="0" x="0"/>
    <use id="use2552" xlink:href="#path2548" transform="translate(10.972 4.7491)" height="256" width="256" y="0" x="0"/>
    <path id="path2554" d="m40.777 48.678l2.456-4.094 0.655 6.223" fill-rule="evenodd" stroke="#000" stroke-width=".5" fill="#fff"/>
    <use id="use2558" xlink:href="#path2554" transform="translate(4.5853 2.4564)" height="256" width="256" y="0" x="0"/>
    <path id="path2499" d="m181.76 194.87c0.51 9.17-6.92 6.61-12.97 11.56-2.46 2.01-7.77 8.6-15.67 2.76 0.9 1.37 1.98 2.62 3.83 3.35-6.39 4.31-13.52 5.87-21.19 5.39l-2.86-3.44c0.32-2.06-0.59-3.59-5.53-3.4l0.57-5.1c0.87-1.56 2.14-3.26-1.42-4.68l-1.42-3.26c6.49-2.83 7.03-5.1 4.11-7.51l1.7-3.26c3.2-0.74 6.58-1.34 6.84-4.28l6 0.25c2.14 1.36 2.04 7.28 2.47 7.71 0.58 0.59 1.02 1.1 1.92 1.1 1.18 0 2.04-0.71 3.01-1.05 0.76-0.27 1.35-0.96 2.43-0.95 1 0 1.48 0.12 2.2-0.26 0.53-0.27 0.08-1.51 0.31-1.57-4.46-5.54-13.45-15.53-16.47-25.79-3.14-10.66 0.35-21.37 16.47-23.47 19.85-2.59 4.8-10.62-28.36-11.42 3.1-5.45 3.58-10.75 3.16-15.45-0.81 3.58-1.21 7.34-4.21 9.95 0.4 1.74-0.17 3.49-1.82 5.23 0.72 2.32-0.14 4.89-2.65 5.31 0.97 1.72 1.47 3.34-1.93 4.09 1.85 3.24-0.11 4.27-2.89 4.82 2.07 3.13 0.09 4.11-1.93 5.07 1.3 3.19-1.11 4-3.13 5.06 1.88 1.77 0.39 5.07-1.93 3.86 0.36 2.27-1.35 4.21-2.9 4.58 1.03 3.92-1.06 4.72-3.37 5.3 0.25 2.62-1.35 4.37-3.28 4.68-4.032 13.52-11.152-1.82-18.331 3.79-4.914 3.85-13.882 0.02-16.759-5.46-1.639-3.12-4.191-5.83-9.472-7.83l-1.093-3.1c1.921-1.82 1.171-3.64-1.275-5.46l-0.182-3.47c2.281-1.3 4.997-2.49 4.007-4.73l0.182-2.92c2.459-1 5.514-0.22 7.105-3.82l5.1 0.18c2.308 2.85 4.615 2.6 6.922 1.09 0 0 6.074 6.65 6.074 8.95 0 1.82-2.033 2.15-2.033 5.16 0 10.85 14.027-3.49 14.027-41.03 0-14.523-4.399-49.13-39.607-49.13-13.296 0-16.795-2.777-18.177-7.861-1.316-4.839 0.396-9.852 6.059-5.731 8.813 6.413 12.205 6.413 16.048 1.965 6.646-7.691-0.566-11.179-5.015-14.772-4.259-3.44-21.996-3.774-15.31-14.714-0.095-2.972 1.168-5.361 4.537-6.847-0.122-6.8224 7.963-9.3191 11.703-4.087 5.016 7.016 10.99 3.158 18.949 3.158 7.938 0 12.879 1.418 18.451 9.631 3.29 4.849 6.044 2.682 3.223 0.029-3.535-3.323-6.131-6.334-6.131-8.878 0-2.379 5.066-2.886 8.14-2.886 7.878 0 17.188 7.375 10.998 17.032 9.87 0 15.18 10.04 7.24 18.194 8.57-0.655 15.33 1.495 18.72 8.832 3.75-0.518 7.73 0.362 12.01 3.046l-1.8 3.204c24.44 6.711 107.11 71.725 71.63 74.545 1.56 1.64 4.06 3.07 1.58 5.6 0.63 1.53 3.31 3.05 0.77 4.58 1.82 1.67 3.03 3.38 0.76 5.33 1.52 1.48 2.5 3.05 1.01 5.08 1.94 1.52 2.14 3.04 0.76 4.57 1.24 1.39 1.96 3.09 1.27 5.58 1.7 1.08 1.34 3.46 0.51 4.57 1.34 1.73 3.11 3.31 1.53 6.1 2.38 2.28 3.27 4.57 1.52 6.85 1.61 1.34 3.53 4.16 1.78 7.11 2.22 1.87 3.13 4.14 1.77 7.11 2.24 1.35 2.64 4.11 2.29 6.35 4.11 2.15 6.16 16.76-2.54 16.76-1.4 0-5.8 4.73-9.51 9.88-4.13 5.74-7.75 11.64-11.82 11.64-4.53 0-9.59-5.7-12.19-5.7-3.02 0-3.7 1.53-3.7 1.53l-5.22-2.06c-0.62-1.75-1.76-2.79-3.64-2.85l-1.27-4.74c1.17-1.84 1.94-3.53-0.63-4.12l-1.42-4.43c1.05-1.63 3.51-3.27 0.63-4.91l0.31-4.58c2.04-4.8 8.98 0.77 8.23-4.54l0.8-3.91c4.58-0.23 9-0.71 12.1 10.82 4.08 15.15 11.65 2.93 5.42-4.12-15.22-17.21-21.21-40.41-29.37-63.06 0.13 1.08 1.07 4.34 0.93 4.9-0.3 1.2 0.52 1.83 0.59 3.38 0.1 2.29-0.12 4.3-0.99 5.71-0.63 1.02-0.12 2.28-0.6 3.23-0.4 0.81-1.51 1.72-1.19 2.98 0.28 1.12 0.12 2.8 0.4 4.18 0.22 1.09 0.25 2.16 0 3.18-0.25 0.98-0.31 2.36 0.2 3.37 0.31 0.64 0.46 2.82 1.19 3.18 1.38 0.69 1.39 1.34 1.39 2.99 0 1.58 1.39 1.78 1.39 2.58 0 1.27 1.19 1.91 1.19 2.78 0 1.48 0.83 1.25 0.4 2.98-0.24 0.98-1.1 1.05-1.39 1.99l-0.27 0.87z" fill-rule="evenodd"/>
    <path id="path2501" d="m51.303 160.99c4.304-0.32 11.398 1.16 9.903-2.89-1.268-3.44-8.268-2.66-9.903 2.89z" fill-rule="evenodd" fill="#f00"/>
    <path id="path2503" d="m48.736 152.78c4.304-0.33 11.086 2.1 11.444-2.21 0.271-3.27-9.284-6-11.444 2.21z" fill-rule="evenodd" fill="#f00"/>
    <path id="path2505" d="m51.579 142.91c6.978 0.13 10.239 6.32 11.579 1.32 0.714-2.66-7.666-7.17-11.579-1.32z" fill-rule="evenodd" fill="#f00"/>
    <path id="path2509" d="m59.615 133.47c5.977 3.6 8.089 10.3 11.749 6.64 1.95-1.95-4.69-11.09-11.749-6.64z" fill-rule="evenodd" fill="#f00"/>
    <path id="path2511" d="m77.374 132.39c0.314 3.1-4.727 9.77 1.166 11.11 2.691 0.61 6.217-7.22-1.166-11.11z" fill-rule="evenodd" fill="#f00"/>
    <path id="path2513" style="color:#000000" d="m83.619 29.749c0 3.0273-2.4541 5.4813-5.4813 5.4813-3.0273 0-5.4813-2.4541-5.4813-5.4813 0-3.0273 2.4541-5.4813 5.4813-5.4813 3.0273 0 5.4813 2.4541 5.4813 5.4813z" fill-rule="evenodd" fill="#fff"/>
    <path id="path2515" style="color:#000000" d="m79.304 27.184c0 1.9323-1.5664 3.4987-3.4987 3.4987s-3.4987-1.5664-3.4987-3.4987 1.5664-3.4987 3.4987-3.4987 3.4987 1.5664 3.4987 3.4987z" fill-rule="evenodd"/>
    <path id="path2519" d="m80.552 19.554c2.353 5.949 5.356 16.695 7.817 17.37-1.471-6.264-1.626-17.176-7.817-17.37z" fill-rule="evenodd" fill="#fff"/>
    <path id="path2521" d="m109.67 34.756c-4.42 3.715-13.824 1.661-11.634 6.919 2.794 6.7 12.404-0.82 11.634-6.919z" fill-rule="evenodd" fill="#fff"/>
    <path id="path2523" d="m133.34 178.45c5.98 3.6 2.97 11.16 10.13 9.19 4.88-1.35-3.07-13.64-10.13-9.19z" fill-rule="evenodd" fill="#f00"/>
    <path id="path2525" d="m123.22 191.31c6.59-1.85 11.27 3.27 11.27-0.99 0-5.81-11.23-4.75-11.27 0.99z" fill-rule="evenodd" fill="#f00"/>
    <path id="path2527" d="m121.23 202.77c5.85-2.23 10.2 1.56 10.2-3.51s-10.16-2.24-10.2 3.51z" fill-rule="evenodd" fill="#f00"/>
    <path id="path2529" d="m123.68 215.14c4.32-4.97 9.95-5.21 7.75-8.86-2.23-3.7-9.85 0.21-7.75 8.86z" fill-rule="evenodd" fill="#f00"/>
    <path id="path2531" d="m133.61 224.58c2.04-4.68 5.81-8.72 2.49-10.45-5.03-2.62-8.76 5.48-2.49 10.45z" fill-rule="evenodd" fill="#f00"/>
    <path id="path2533" d="m191.07 244.53c0.56-5.41 6.73-7.05 1.57-10.07-4.9-2.87-8.95 4.73-1.57 10.07z" fill-rule="evenodd" fill="#f00"/>
    <path id="path2535" d="m179.84 238.97c4.32-4.97 9.22-6.31 7.02-9.96-2.23-3.71-9.12 1.31-7.02 9.96z" fill-rule="evenodd" fill="#f00"/>
    <path id="path2537" d="m176.15 230.66c4.32-4.98 11.06-5.95 8.86-9.6-2.23-3.7-10.96 0.95-8.86 9.6z" fill-rule="evenodd" fill="#f00"/>
    <path id="path2542" d="m176.29 217.55c5.85-2.23 10.57 0.64 10.57-4.44 0-5.06-9.98-3.34-10.57 4.44z" fill-rule="evenodd" fill="#f00"/>
    <path id="path2544" d="m182.85 203.76c6.91 2.68 6.91 7.1 10.32 4.76 4.51-3.11-1.78-10.51-10.32-4.76z" fill-rule="evenodd" fill="#f00"/>
    <path id="path2546" d="m138.85 198.82c11.22 8.06 18.3-1.09 26.92-3.44-9.63-0.73-16.26 7.14-26.92 3.44z" fill-rule="evenodd" fill="#fff"/>
   </g>
   <path id="path2605" d="m3.4803e-17 130.4v125.6h157l-157-125.6z" fill-rule="evenodd" fill="#f00"/>
   <use id="use2608" xlink:href="#path2605" transform="matrix(-1,0,0,-1,256,256)" height="256" width="256" y="0" x="0"/>
  </g>
  <path id="path7432" fill="#f00" d="m425 343.74-3.7871-11.782c-7.1806-3.7244-18.065-2.4274-26.236 5.2768 10.518-0.97292 19.351-2.5352 30.024 6.5052z"/>
 </g>
</svg>
