<?xml version="1.0" encoding="UTF-8" standalone="no"?>
<!-- Created with Inkscape (http://www.inkscape.org/) -->
<svg
   xmlns:dc="http://purl.org/dc/elements/1.1/"
   xmlns:cc="http://web.resource.org/cc/"
   xmlns:rdf="http://www.w3.org/1999/02/22-rdf-syntax-ns#"
   xmlns:svg="http://www.w3.org/2000/svg"
   xmlns="http://www.w3.org/2000/svg"
   xmlns:sodipodi="http://inkscape.sourceforge.net/DTD/sodipodi-0.dtd"
   xmlns:inkscape="http://www.inkscape.org/namespaces/inkscape"
   width="600"
   height="600"
   id="svg2"
   sodipodi:version="0.32"
   inkscape:version="0.43"
   version="1.0"
   sodipodi:docbase="C:\Documents and Settings\David Nelson\Archives\Svg"
   sodipodi:docname="Flag_of_Canton_of_Graubünden.svg">
  <defs
     id="defs4" />
  <sodipodi:namedview
     id="base"
     pagecolor="#ffffff"
     bordercolor="#666666"
     borderopacity="1.0"
     inkscape:pageopacity="0.0"
     inkscape:pageshadow="2"
     inkscape:zoom="0.62166667"
     inkscape:cx="300"
     inkscape:cy="300"
     inkscape:document-units="px"
     inkscape:current-layer="layer1"
     inkscape:window-width="756"
     inkscape:window-height="540"
     inkscape:window-x="42"
     inkscape:window-y="78" />
  <metadata
     id="metadata7">
    <rdf:RDF>
      <cc:Work
         rdf:about="">
        <dc:format>image/svg+xml</dc:format>
        <dc:type
           rdf:resource="http://purl.org/dc/dcmitype/StillImage" />
      </cc:Work>
    </rdf:RDF>
  </metadata>
  <g
     inkscape:label="Layer 1"
     inkscape:groupmode="layer"
     id="layer1">
    <rect
       style="opacity:1;color:#000000;fill:#ffffff;fill-opacity:1;fill-rule:evenodd;stroke:none;stroke-width:1;stroke-linecap:round;stroke-linejoin:miter;marker:none;marker-start:none;marker-mid:none;marker-end:none;stroke-miterlimit:4;stroke-dasharray:none;stroke-dashoffset:0;stroke-opacity:1;visibility:visible;display:inline;overflow:visible"
       id="rect2214"
       width="600"
       height="600"
       x="0"
       y="8.9406967e-006" />
    <g
       id="g2216"
       transform="matrix(2.34375,0,0,2.34375,0,8.940697e-6)">
      <path
         sodipodi:nodetypes="ccssc"
         id="path2194"
         d="M 104.64004,153.60294 C 101.68155,151.06753 105.51919,144.75237 90.304451,148.04425 C 90.304451,148.04425 92.521588,151.16492 95.765628,151.16492 C 97.683007,151.16492 95.610287,149.99466 97.91109,149.99466 C 100.43182,149.99466 104.64004,153.60294 104.64004,153.60294 z "
         style="fill:#ff0000;fill-opacity:1;fill-rule:evenodd;stroke:none;stroke-width:1px;stroke-linecap:butt;stroke-linejoin:miter;stroke-opacity:1" />
      <path
         sodipodi:nodetypes="ccscscsccccc"
         id="path1350"
         d="M 31.685127,146.10671 C 38.171725,144.87193 42.606318,140.51537 50.232518,147.65232 C 50.232518,147.65232 53.012992,146.33745 66.306924,146.26127 C 79.894261,146.1834 75.273711,149.60642 98.455735,170.06375 C 97.861732,171.58653 97.051087,173.57688 96.918447,176.33615 C 96.802712,178.74379 97.329644,181.82117 97.329644,184.59254 C 86.511755,181.6294 82.533637,173.96133 79.290098,168.05445 C 72.202979,155.14794 75.296209,153.60818 51.778134,157.23514 L 49.768833,151.05268 C 44.204616,158.1789 40.186014,155.74924 33.076181,152.90742 C 33.159927,151.11323 34.488624,150.06601 36.631098,149.50706 C 33.193868,149.14014 32.278513,147.69242 31.685127,146.10671 z "
         style="fill:#000000;fill-opacity:1;fill-rule:evenodd;stroke:none;stroke-width:1px;stroke-linecap:butt;stroke-linejoin:miter;stroke-opacity:1" />
      <path
         sodipodi:nodetypes="cccccccscscsccsccsscssssccccccssssscscssscssssssscccccccccsccscsssc"
         id="path2225"
         d="M 120.00919,250.31329 L 115.49904,248.15626 C 113.39866,252.79046 112.46862,256.08537 102.55687,253.64688 C 103.45236,253.17952 104.16491,252.62069 104.51781,251.88204 C 102.16431,252.08039 97.350793,252.22849 97.350793,250.15407 C 108.45417,245.95484 102.7628,237.63172 117.97466,240.49968 C 118.69226,237.48573 121.08578,235.80894 124.43312,234.04121 C 128.90671,231.67871 136.72316,227.34951 130.4095,225.5256 C 116.75181,221.58012 110.47244,211.66638 123.05978,205.46367 C 126.76235,203.63914 132.87718,203.5614 140.68233,202.66337 C 121.6082,199.375 117.26383,206.12762 117.49441,194.42929 C 117.25647,198.54225 118.66807,201.81144 108.30168,201.81144 C 100.53675,201.81144 93.15891,197.44823 87.834711,205.88594 C 80.06412,204.3579 76.416397,205.7631 70.788776,208.9275 C 66.493936,211.34248 68.074619,219.46222 59.246045,216.06578 C 59.348375,229.62563 54.314656,222.69554 45.315987,232.85992 C 43.287503,230.2888 44.455132,227.71768 45.55703,225.14656 C 43.869733,226.33799 42.182435,226.75774 40.495138,225.3876 C 52.689651,203.51783 51.454926,218.81251 65.804599,201.04231 C 71.403138,194.10925 81.134438,190.43644 88.22155,190.43644 C 103.5022,190.43644 98.00309,183.35039 98.00309,177.67039 C 98.00309,167.79907 106.95344,167.01026 109.68363,167.01026 C 112.53467,165.82559 116.48828,163.72045 119.11331,163.72045 C 120.96364,163.72045 121.54061,163.26488 121.54061,163.26488 C 120.33421,162.55406 118.8155,159.3622 116.1512,159.3622 C 112.86068,159.3622 108.0214,165.35136 101.46969,162.70736 C 105.85494,161.40122 105.60435,158.76742 103.62051,157.35087 C 101.94845,156.15694 101.51264,153.19078 103.64643,153.19078 C 117.64863,153.19078 105.85605,148.55565 101.97201,148.66985 C 101.69997,145.53831 103.44028,141.17914 110.74707,141.17914 C 132.21058,141.17914 124.88728,135.59652 135.49164,135.59652 C 140.2562,135.59652 140.0237,138.48826 145.12891,138.48826 C 150.74579,138.48826 157.66051,135.16595 171.43457,135.16595 C 195.86391,135.16595 223.77892,144.69272 222.98199,176.56151 C 215.33229,166.5136 211.04824,146.37047 182.16188,147.20888 C 194.1474,152.37136 212.35069,164.59677 212.75219,191.13933 C 201.61419,170.45816 187.248,152.67409 152.49157,153.18894 C 162.04587,158.7518 155.93874,159.91643 161.80023,164.33209 C 150.50235,172.13003 145.03062,153.62065 139.69792,158.52315 C 143.6467,161.66199 146.09406,166.03891 141.53978,171.27449 C 137.27947,176.17213 139.0164,177.76925 142.9014,178.32176 C 156.72304,180.28742 164.95811,193.248 174.489,195.32906 C 177.78215,196.04812 177.49148,192.09517 183.45357,192.2875 C 188.41597,192.44758 191.96476,195.62539 198.34117,196.44963 C 216.43626,198.78867 217.73439,214.23284 214.66949,217.42032 C 215.41271,214.97091 211.61855,211.02758 208.60302,211.02758 C 206.71788,211.02758 209.08868,213.91471 212.12901,216.80262 C 201.23205,213.86059 195.20062,208.83291 192.4623,202.39473 C 189.68764,195.87112 179.33009,199.71687 179.33009,202.61001 C 179.33009,205.71483 184.15579,213.00021 188.21331,213.00021 C 192.66064,213.00021 195.92114,210.78731 197.61095,211.90637 C 200.006,213.49247 198.31357,215.29356 198.31357,217.06888 C 198.31357,221.06635 210.85513,237.47637 210.85513,240.32304 C 210.85513,241.73933 208.70756,243.33119 206.15779,244.0783 C 203.2273,244.93696 205.05907,249.2161 205.05907,253.54541 C 204.15227,254.49619 200.37628,254.49057 195.86949,254.24135 C 198.46241,247.26572 194.45016,253.58186 191.25304,253.58186 C 191.25304,245.87986 201.5851,237.92036 201.5851,236.43503 C 201.5851,235.41513 198.99351,232.62844 196.68361,229.48181 C 194.33632,226.28424 192.26059,222.7343 191.04549,222.7343 C 183.284,229.8328 176.07251,231.2939 169.70311,224.12351 C 171.50227,230.49676 161.9148,230.52932 158.71629,225.65762 C 156.89539,222.88417 159.62481,222.95581 158.5986,213.41092 C 152.67512,218.20719 141.32452,217.97301 141.32452,222.3357 C 141.32452,231.65439 147.49408,224.44374 147.49408,231.30879 C 147.49408,234.88608 144.30742,234.46314 139.46063,236.65383 C 131.92964,240.05774 125.3244,246.82524 120.00919,250.31329 z "
         style="fill:#000000;fill-opacity:1;fill-rule:evenodd;stroke:none;stroke-width:1px;stroke-linecap:butt;stroke-linejoin:miter;stroke-opacity:1" />
      <path
         sodipodi:nodetypes="csscc"
         id="path2227"
         d="M 134.83179,145.32486 C 133.85685,148.24825 125.15872,156.33664 122.32516,148.83699 C 120.6353,144.36441 125.39604,144.73083 125.32332,147.12376 C 125.25357,149.41917 128.37721,148.32801 129.69208,145.32486 L 134.83179,145.32486 z "
         style="fill:#ffffff;fill-opacity:1;fill-rule:evenodd;stroke:none;stroke-width:1px;stroke-linecap:butt;stroke-linejoin:miter;stroke-opacity:1" />
      <path
         sodipodi:nodetypes="czzzzz"
         id="path2231"
         d="M 151.25617,136.21993 C 153.32134,137.57298 152.64482,142.09499 156.81077,142.91394 C 160.97672,143.73289 161.79567,140.10103 165.21389,140.77755 C 168.63211,141.45407 167.20786,144.97911 170.48365,145.62003 C 173.75944,146.26095 174.93445,142.84273 178.31706,143.34122 C 181.69967,143.83971 180.75701,147.46221 184.64412,147.72854"
         style="fill:none;fill-opacity:0.75;fill-rule:evenodd;stroke:#ffffff;stroke-width:0.5;stroke-linecap:butt;stroke-linejoin:miter;stroke-miterlimit:4;stroke-dasharray:none;stroke-opacity:1" />
      <path
         sodipodi:nodetypes="ccc"
         id="path1317"
         d="M 148.71033,207.9755 C 152.53447,208.17499 159.52965,209.06664 159.52965,211.83954 C 154.69479,211.64346 150.89841,210.52428 148.71033,207.9755 z "
         style="fill:#ff0000;fill-opacity:1;fill-rule:evenodd;stroke:none;stroke-width:1px;stroke-linecap:butt;stroke-linejoin:miter;stroke-opacity:1" />
      <path
         sodipodi:nodetypes="cc"
         id="path2192"
         d="M 145.6191,199.3087 C 169.89007,199.78661 161.66364,219.96773 173.7368,228.49419"
         style="fill:none;fill-opacity:0.75;fill-rule:evenodd;stroke:#ffffff;stroke-width:1;stroke-linecap:round;stroke-linejoin:miter;stroke-miterlimit:4;stroke-dasharray:none;stroke-opacity:1" />
    </g>
    <rect
       style="opacity:1;color:#000000;fill:#000000;fill-opacity:1;fill-rule:evenodd;stroke:none;stroke-width:1;stroke-linecap:round;stroke-linejoin:miter;marker:none;marker-start:none;marker-mid:none;marker-end:none;stroke-miterlimit:4;stroke-dasharray:none;stroke-dashoffset:0;stroke-opacity:1;visibility:visible;display:inline;overflow:visible"
       id="rect2196"
       width="150"
       height="300"
       x="0"
       y="8.9406967e-006" />
    <g
       id="g2225"
       transform="matrix(2.34375,0,0,2.34375,0,8.940697e-6)">
      <rect
         y="0"
         x="128"
         height="128"
         width="128"
         id="rect2198"
         style="opacity:1;color:#000000;fill:#0039ad;fill-opacity:1;fill-rule:evenodd;stroke:none;stroke-width:1;stroke-linecap:round;stroke-linejoin:miter;marker:none;marker-start:none;marker-mid:none;marker-end:none;stroke-miterlimit:4;stroke-dasharray:none;stroke-dashoffset:0;stroke-opacity:1;visibility:visible;display:inline;overflow:visible" />
      <rect
         style="opacity:1;color:#000000;fill:#ffe000;fill-opacity:1;fill-rule:evenodd;stroke:none;stroke-width:1;stroke-linecap:round;stroke-linejoin:miter;marker:none;marker-start:none;marker-mid:none;marker-end:none;stroke-miterlimit:4;stroke-dasharray:none;stroke-dashoffset:0;stroke-opacity:1;visibility:visible;display:inline;overflow:visible"
         id="rect2200"
         width="64"
         height="64"
         x="128"
         y="0" />
      <rect
         y="64"
         x="192"
         height="64"
         width="64"
         id="rect2202"
         style="opacity:1;color:#000000;fill:#ffe000;fill-opacity:1;fill-rule:evenodd;stroke:none;stroke-width:1;stroke-linecap:round;stroke-linejoin:miter;marker:none;marker-start:none;marker-mid:none;marker-end:none;stroke-miterlimit:4;stroke-dasharray:none;stroke-dashoffset:0;stroke-opacity:1;visibility:visible;display:inline;overflow:visible" />
      <rect
         y="85.447723"
         x="128"
         height="42.55228"
         width="42.55228"
         id="rect2206"
         style="opacity:1;color:#000000;fill:#ffe000;fill-opacity:1;fill-rule:evenodd;stroke:none;stroke-width:1;stroke-linecap:round;stroke-linejoin:miter;marker:none;marker-start:none;marker-mid:none;marker-end:none;stroke-miterlimit:4;stroke-dasharray:none;stroke-dashoffset:0;stroke-opacity:1;visibility:visible;display:inline;overflow:visible" />
      <rect
         style="opacity:1;color:#000000;fill:#ffe000;fill-opacity:1;fill-rule:evenodd;stroke:none;stroke-width:1;stroke-linecap:round;stroke-linejoin:miter;marker:none;marker-start:none;marker-mid:none;marker-end:none;stroke-miterlimit:4;stroke-dasharray:none;stroke-dashoffset:0;stroke-opacity:1;visibility:visible;display:inline;overflow:visible"
         id="rect2208"
         width="42.55228"
         height="42.55228"
         x="213.44772"
         y="0" />
      <rect
         transform="scale(1,-1)"
         style="opacity:1;color:#000000;fill:#0039ad;fill-opacity:1;fill-rule:evenodd;stroke:none;stroke-width:1;stroke-linecap:round;stroke-linejoin:miter;marker:none;marker-start:none;marker-mid:none;marker-end:none;stroke-miterlimit:4;stroke-dasharray:none;stroke-dashoffset:0;stroke-opacity:1;visibility:visible;display:inline;overflow:visible"
         id="rect2210"
         width="42.55228"
         height="42.55228"
         x="128"
         y="-42.55228" />
      <rect
         transform="scale(1,-1)"
         y="-128"
         x="213.44772"
         height="42.55228"
         width="42.55228"
         id="rect2212"
         style="opacity:1;color:#000000;fill:#0039ad;fill-opacity:1;fill-rule:evenodd;stroke:none;stroke-width:1;stroke-linecap:round;stroke-linejoin:miter;marker:none;marker-start:none;marker-mid:none;marker-end:none;stroke-miterlimit:4;stroke-dasharray:none;stroke-dashoffset:0;stroke-opacity:1;visibility:visible;display:inline;overflow:visible" />
    </g>
  </g>
</svg>
