<?xml version="1.0" encoding="UTF-8" standalone="no"?>
<!-- Created with Inkscape (http://www.inkscape.org/) -->
<svg
   xmlns:dc="http://purl.org/dc/elements/1.1/"
   xmlns:cc="http://web.resource.org/cc/"
   xmlns:rdf="http://www.w3.org/1999/02/22-rdf-syntax-ns#"
   xmlns:svg="http://www.w3.org/2000/svg"
   xmlns="http://www.w3.org/2000/svg"
   xmlns:sodipodi="http://inkscape.sourceforge.net/DTD/sodipodi-0.dtd"
   xmlns:inkscape="http://www.inkscape.org/namespaces/inkscape"
   width="600"
   height="600"
   id="svg2"
   sodipodi:version="0.32"
   inkscape:version="0.43"
   version="1.0"
   sodipodi:docbase="C:\Documents and Settings\David Nelson\Archives\Svg"
   sodipodi:docname="Flag_of_Canton_of_Nidwalden.svg">
  <defs
     id="defs4" />
  <sodipodi:namedview
     id="base"
     pagecolor="#ffffff"
     bordercolor="#666666"
     borderopacity="1.0"
     inkscape:pageopacity="0.0"
     inkscape:pageshadow="2"
     inkscape:zoom="0.62166667"
     inkscape:cx="300"
     inkscape:cy="300"
     inkscape:document-units="px"
     inkscape:current-layer="layer1"
     inkscape:window-width="756"
     inkscape:window-height="540"
     inkscape:window-x="44"
     inkscape:window-y="60" />
  <metadata
     id="metadata7">
    <rdf:RDF>
      <cc:Work
         rdf:about="">
        <dc:format>image/svg+xml</dc:format>
        <dc:type
           rdf:resource="http://purl.org/dc/dcmitype/StillImage" />
      </cc:Work>
    </rdf:RDF>
  </metadata>
  <g
     inkscape:label="Layer 1"
     inkscape:groupmode="layer"
     id="layer1">
    <rect
       style="opacity:1;color:#000000;fill:#ff0000;fill-opacity:1;fill-rule:evenodd;stroke:none;stroke-width:1;stroke-linecap:square;stroke-linejoin:miter;marker:none;marker-start:none;marker-mid:none;marker-end:none;stroke-miterlimit:4;stroke-dasharray:none;stroke-dashoffset:0;stroke-opacity:1;visibility:visible;display:inline;overflow:visible"
       id="rect2514"
       width="600"
       height="600"
       x="0"
       y="0" />
    <g
       id="g2518"
       transform="scale(2.34375,2.34375)">
      <path
         sodipodi:nodetypes="ccccccccccccccccccccccccccccccccccccc"
         id="rect2469"
         d="M 58.625,15.21875 L 58.625,28.8125 L 71.25,28.8125 L 71.25,44.375 L 58.625,44.375 L 58.625,58.9375 L 75.46875,58.9375 L 75.46875,46.3125 L 89.0625,46.3125 L 89.0625,58.9375 L 104.9375,58.9375 L 104.9375,72.53125 L 89.0625,72.53125 L 89.0625,85.1875 L 75.46875,85.1875 L 75.46875,72.53125 L 58.625,72.53125 L 58.625,87.125 L 71.25,87.125 L 71.25,102.65625 L 58.625,102.65625 L 58.625,116.25 L 75.46875,116.25 L 75.46875,103.46875 L 89.0625,103.46875 L 89.0625,116.25 L 104.9375,116.25 L 104.9375,103.46875 L 117.5625,103.46875 L 117.5625,28 L 104.9375,28 L 104.9375,15.21875 L 89.0625,15.21875 L 89.0625,28 L 75.46875,28 L 75.46875,15.21875 L 58.625,15.21875 z "
         style="opacity:1;color:#000000;fill:#ffffff;fill-opacity:1;fill-rule:evenodd;stroke:#000000;stroke-width:1;stroke-linecap:square;stroke-linejoin:miter;marker:none;marker-start:none;marker-mid:none;marker-end:none;stroke-miterlimit:4;stroke-dasharray:none;stroke-dashoffset:0;stroke-opacity:1;visibility:visible;display:inline;overflow:visible" />
      <path
         style="opacity:1;color:#000000;fill:#ffffff;fill-opacity:1;fill-rule:evenodd;stroke:#000000;stroke-width:1;stroke-linecap:square;stroke-linejoin:miter;marker:none;marker-start:none;marker-mid:none;marker-end:none;stroke-miterlimit:4;stroke-dasharray:none;stroke-dashoffset:0;stroke-opacity:1;visibility:visible;display:inline;overflow:visible"
         d="M 197.375,15.21875 L 197.375,28.8125 L 184.75,28.8125 L 184.75,44.375 L 197.375,44.375 L 197.375,58.9375 L 180.53125,58.9375 L 180.53125,46.3125 L 166.9375,46.3125 L 166.9375,58.9375 L 151.0625,58.9375 L 151.0625,72.53125 L 166.9375,72.53125 L 166.9375,85.1875 L 180.53125,85.1875 L 180.53125,72.53125 L 197.375,72.53125 L 197.375,87.125 L 184.75,87.125 L 184.75,102.65625 L 197.375,102.65625 L 197.375,116.25 L 180.53125,116.25 L 180.53125,103.46875 L 166.9375,103.46875 L 166.9375,116.25 L 151.0625,116.25 L 151.0625,103.46875 L 138.4375,103.46875 L 138.4375,28 L 151.0625,28 L 151.0625,15.21875 L 166.9375,15.21875 L 166.9375,28 L 180.53125,28 L 180.53125,15.21875 L 197.375,15.21875 z "
         id="path2512"
         sodipodi:nodetypes="ccccccccccccccccccccccccccccccccccccc" />
      <path
         id="path2457"
         style="fill:none;fill-opacity:0.75;fill-rule:evenodd;stroke:#000000;stroke-width:10;stroke-linecap:square;stroke-linejoin:miter;stroke-miterlimit:4;stroke-dasharray:none;stroke-opacity:1"
         d="M 119.07775,15.785523 C 119.07775,15.785523 119.07775,89.073298 119.07775,121.43997 C 119.07775,128.71872 119.87812,141.43806 113.48143,145.1312 C 104.82778,150.12738 101.23634,142.84216 86.640496,142.84216 C 72.044649,142.84216 58.020562,156.3962 58.020562,170.26744 C 58.020562,184.13868 71.860959,198.32714 86.640496,198.32714 C 101.42003,198.32714 106.0183,188.58537 112.7198,195.28686 C 119.47894,202.046 107.72895,211.76329 107.72895,223.30384 C 107.72895,236.55935 120.73111,238.84182 128,238.84182 C 135.26889,238.84182 148.27105,236.55935 148.27105,223.30384 C 148.27105,211.76329 136.52106,202.046 143.2802,195.28686 C 149.9817,188.58537 154.57997,198.32714 169.3595,198.32714 C 184.13904,198.32714 197.97944,184.13868 197.97944,170.26744 C 197.97944,156.3962 183.95535,142.84216 169.3595,142.84216 C 154.76366,142.84216 151.17222,150.12738 142.51857,145.1312 C 136.12188,141.43806 136.92225,128.71872 136.92225,121.43997 C 136.92225,89.073298 136.92225,15.785523 136.92225,15.785523"
         sodipodi:nodetypes="cssssssszsssssssc" />
      <path
         sodipodi:nodetypes="cssssssszsssssssc"
         d="M 119.07775,15.785523 C 119.07775,15.785523 119.07775,89.073298 119.07775,121.43997 C 119.07775,128.71872 119.87812,141.43806 113.48143,145.1312 C 104.82778,150.12738 101.23634,142.84216 86.640496,142.84216 C 72.044649,142.84216 58.020562,156.3962 58.020562,170.26744 C 58.020562,184.13868 71.860959,198.32714 86.640496,198.32714 C 101.42003,198.32714 106.0183,188.58537 112.7198,195.28686 C 119.47894,202.046 107.72895,211.76329 107.72895,223.30384 C 107.72895,236.55935 120.73111,238.84182 128,238.84182 C 135.26889,238.84182 148.27105,236.55935 148.27105,223.30384 C 148.27105,211.76329 136.52106,202.046 143.2802,195.28686 C 149.9817,188.58537 154.57997,198.32714 169.3595,198.32714 C 184.13904,198.32714 197.97944,184.13868 197.97944,170.26744 C 197.97944,156.3962 183.95535,142.84216 169.3595,142.84216 C 154.76366,142.84216 151.17222,150.12738 142.51857,145.1312 C 136.12188,141.43806 136.92225,128.71872 136.92225,121.43997 C 136.92225,89.073298 136.92225,15.785523 136.92225,15.785523"
         style="fill:none;fill-opacity:0.75;fill-rule:evenodd;stroke:#ffffff;stroke-width:8;stroke-linecap:square;stroke-linejoin:miter;stroke-miterlimit:4;stroke-dasharray:none;stroke-opacity:1"
         id="path1577" />
      <rect
         ry="1.5360646"
         y="123.9276"
         x="110.55284"
         height="3.0721292"
         width="34.894314"
         id="rect2461"
         style="opacity:1;color:#000000;fill:#ffffff;fill-opacity:1;fill-rule:evenodd;stroke:#000000;stroke-width:1.00000012;stroke-linecap:square;stroke-linejoin:miter;marker:none;marker-start:none;marker-mid:none;marker-end:none;stroke-miterlimit:4;stroke-dasharray:none;stroke-dashoffset:0;stroke-opacity:1;visibility:visible;display:inline;overflow:visible" />
      <rect
         ry="4.0962892"
         style="opacity:1;color:#000000;fill:#ffffff;fill-opacity:1;fill-rule:evenodd;stroke:#000000;stroke-width:1;stroke-linecap:square;stroke-linejoin:miter;marker:none;marker-start:none;marker-mid:none;marker-end:none;stroke-miterlimit:4;stroke-dasharray:none;stroke-dashoffset:0;stroke-opacity:1;visibility:visible;display:inline;overflow:visible"
         id="rect2465"
         width="37.625172"
         height="8.1925783"
         x="109.18741"
         y="127.13247" />
      <rect
         style="opacity:1;color:#000000;fill:#ffffff;fill-opacity:1;fill-rule:evenodd;stroke:#000000;stroke-width:1.00000012;stroke-linecap:square;stroke-linejoin:miter;marker:none;marker-start:none;marker-mid:none;marker-end:none;stroke-miterlimit:4;stroke-dasharray:none;stroke-dashoffset:0;stroke-opacity:1;visibility:visible;display:inline;overflow:visible"
         id="rect2467"
         width="34.894314"
         height="3.0721292"
         x="110.55284"
         y="135.32504"
         ry="1.5360646" />
    </g>
  </g>
</svg>
