<?xml version="1.0" encoding="UTF-8" standalone="no"?>
<!-- Created with Inkscape (http://www.inkscape.org/) -->
<svg
   xmlns:dc="http://purl.org/dc/elements/1.1/"
   xmlns:cc="http://web.resource.org/cc/"
   xmlns:rdf="http://www.w3.org/1999/02/22-rdf-syntax-ns#"
   xmlns:svg="http://www.w3.org/2000/svg"
   xmlns="http://www.w3.org/2000/svg"
   xmlns:xlink="http://www.w3.org/1999/xlink"
   xmlns:sodipodi="http://inkscape.sourceforge.net/DTD/sodipodi-0.dtd"
   xmlns:inkscape="http://www.inkscape.org/namespaces/inkscape"
   width="600"
   height="600"
   id="svg2426"
   sodipodi:version="0.32"
   inkscape:version="0.43"
   version="1.0"
   sodipodi:docbase="C:\Documents and Settings\David Nelson\Archives\Svg"
   sodipodi:docname="Flag_of_Canton_of_Obwalden.svg">
  <defs
     id="defs2428" />
  <sodipodi:namedview
     id="base"
     pagecolor="#ffffff"
     bordercolor="#666666"
     borderopacity="1.0"
     inkscape:pageopacity="0.0"
     inkscape:pageshadow="2"
     inkscape:zoom="0.62166667"
     inkscape:cx="300"
     inkscape:cy="297.21918"
     inkscape:document-units="px"
     inkscape:current-layer="layer1"
     inkscape:window-width="756"
     inkscape:window-height="540"
     inkscape:window-x="-3"
     inkscape:window-y="34" />
  <metadata
     id="metadata2431">
    <rdf:RDF>
      <cc:Work
         rdf:about="">
        <dc:format>image/svg+xml</dc:format>
        <dc:type
           rdf:resource="http://purl.org/dc/dcmitype/StillImage" />
      </cc:Work>
    </rdf:RDF>
  </metadata>
  <g
     inkscape:label="Layer 1"
     inkscape:groupmode="layer"
     id="layer1">
    <rect
       style="opacity:1;color:#000000;fill:#ffffff;fill-opacity:1;fill-rule:evenodd;stroke:none;stroke-width:2.77699995;stroke-linecap:round;stroke-linejoin:miter;marker:none;marker-start:none;marker-mid:none;marker-end:none;stroke-miterlimit:4;stroke-dasharray:none;stroke-dashoffset:0;stroke-opacity:1;visibility:visible;display:inline;overflow:visible"
       id="rect2660"
       width="600"
       height="600"
       x="0"
       y="-7.6293945e-006" />
    <rect
       style="opacity:1;color:#000000;fill:#ff0000;fill-opacity:1;fill-rule:evenodd;stroke:none;stroke-width:2.77699995;stroke-linecap:round;stroke-linejoin:miter;marker:none;marker-start:none;marker-mid:none;marker-end:none;stroke-miterlimit:4;stroke-dasharray:none;stroke-dashoffset:0;stroke-opacity:1;visibility:visible;display:inline;overflow:visible"
       id="rect2658"
       width="600"
       height="300"
       x="0"
       y="0" />
    <g
       id="g2662"
       transform="translate(10.39185,0)">
      <path
         id="path2492"
         d="M 245.09253,458.5625 C 244.97318,458.5664 244.86821,458.58709 244.74878,458.59375 C 229.37143,459.45086 213.37378,483.00154 213.37378,499.03125 C 213.37378,546.28665 259.27379,575.5 289.62378,575.5 C 319.97377,575.5 365.84253,546.28665 365.84253,499.03125 C 365.84254,475.13436 330.36312,434.57324 314.28003,477.3125 C 314.27528,477.32513 314.25353,477.3311 314.24878,477.34375 C 314.21726,477.42767 314.1864,477.50918 314.15503,477.59375 C 314.12817,477.6551 314.11793,477.71913 314.09253,477.78125 C 314.08872,477.79057 314.09631,477.80316 314.09253,477.8125 C 314.08782,477.82533 314.06598,477.83091 314.06128,477.84375 C 313.68435,478.78887 313.46753,479.79595 313.46753,480.875 C 313.46752,485.43337 317.15917,489.15625 321.71753,489.15625 C 326.27589,489.15626 329.99878,485.43336 329.99878,480.875 C 329.99877,476.31665 326.27589,472.625 321.71753,472.625 C 320.79161,472.625 319.92377,472.78102 319.09253,473.0625 C 330.72708,465.51397 348.65503,472.90215 348.65503,497.5625 C 348.65504,515.80685 322.69876,541.15625 289.62378,541.15625 C 256.5488,541.15625 230.59253,515.80685 230.59253,497.5625 C 230.59253,472.85938 248.58473,465.48015 260.21753,473.09375 C 259.35909,472.79119 258.46031,472.625 257.49878,472.625 C 252.94042,472.625 249.21753,476.31665 249.21753,480.875 C 249.21753,485.43336 252.94041,489.15626 257.49878,489.15625 C 262.05714,489.15625 265.74878,485.43337 265.74878,480.875 C 265.74878,479.77102 265.51742,478.74413 265.12378,477.78125 C 265.14174,477.80565 265.1684,477.81923 265.18628,477.84375 C 259.96153,463.5845 252.61147,458.31676 245.09253,458.5625 z "
         style="fill:#ff0000;fill-opacity:1;fill-rule:evenodd;stroke:none;stroke-width:1px;stroke-linecap:butt;stroke-linejoin:miter;stroke-opacity:1" />
      <use
         style="fill:#ff0000;fill-opacity:1"
         height="600"
         width="600"
         transform="matrix(0.5,0.866026,0.866026,-0.5,-207.3934,412.1321)"
         id="use2526"
         xlink:href="#path2492"
         y="0"
         x="0" />
      <use
         style="fill:#ff0000;fill-opacity:1"
         x="0"
         y="0"
         xlink:href="#path2492"
         id="use2528"
         transform="matrix(-0.5,0.866026,-0.866026,-0.5,786.6097,412.1321)"
         width="600"
         height="600" />
      <path
         d="M 211.60192 503.06195 A 17.171885 17.171885 0 1 1  177.25815,503.06195 A 17.171885 17.171885 0 1 1  211.60192 503.06195 z"
         sodipodi:ry="17.171885"
         sodipodi:rx="17.171885"
         sodipodi:cy="503.06195"
         sodipodi:cx="194.43004"
         id="path2530"
         style="opacity:1;color:#000000;fill:#ff0000;fill-opacity:1;fill-rule:evenodd;stroke:none;stroke-width:2.77749991;stroke-linecap:round;stroke-linejoin:miter;marker:none;marker-start:none;marker-mid:none;marker-end:none;stroke-miterlimit:4;stroke-dasharray:none;stroke-dashoffset:0;stroke-opacity:1;visibility:visible;display:inline;overflow:visible"
         sodipodi:type="arc" />
      <path
         transform="matrix(-1,0,0,1,579.2163,0)"
         sodipodi:type="arc"
         style="opacity:1;color:#000000;fill:#ff0000;fill-opacity:1;fill-rule:evenodd;stroke:none;stroke-width:2.77749991;stroke-linecap:round;stroke-linejoin:miter;marker:none;marker-start:none;marker-mid:none;marker-end:none;stroke-miterlimit:4;stroke-dasharray:none;stroke-dashoffset:0;stroke-opacity:1;visibility:visible;display:inline;overflow:visible"
         id="path2532"
         sodipodi:cx="194.43004"
         sodipodi:cy="503.06195"
         sodipodi:rx="17.171885"
         sodipodi:ry="17.171885"
         d="M 211.60192 503.06195 A 17.171885 17.171885 0 1 1  177.25815,503.06195 A 17.171885 17.171885 0 1 1  211.60192 503.06195 z" />
      <path
         transform="translate(41.48668,-62.23002)"
         sodipodi:type="arc"
         style="opacity:1;color:#000000;fill:#ff0000;fill-opacity:1;fill-rule:evenodd;stroke:none;stroke-width:2.77749991;stroke-linecap:round;stroke-linejoin:miter;marker:none;marker-start:none;marker-mid:none;marker-end:none;stroke-miterlimit:4;stroke-dasharray:none;stroke-dashoffset:0;stroke-opacity:1;visibility:visible;display:inline;overflow:visible"
         id="path2534"
         sodipodi:cx="194.43004"
         sodipodi:cy="503.06195"
         sodipodi:rx="17.171885"
         sodipodi:ry="17.171885"
         d="M 211.60192 503.06195 A 17.171885 17.171885 0 1 1  177.25815,503.06195 A 17.171885 17.171885 0 1 1  211.60192 503.06195 z" />
      <path
         d="M 211.60192 503.06195 A 17.171885 17.171885 0 1 1  177.25815,503.06195 A 17.171885 17.171885 0 1 1  211.60192 503.06195 z"
         sodipodi:ry="17.171885"
         sodipodi:rx="17.171885"
         sodipodi:cy="503.06195"
         sodipodi:cx="194.43004"
         id="path2536"
         style="opacity:1;color:#000000;fill:#ff0000;fill-opacity:1;fill-rule:evenodd;stroke:none;stroke-width:2.77749991;stroke-linecap:round;stroke-linejoin:miter;marker:none;marker-start:none;marker-mid:none;marker-end:none;stroke-miterlimit:4;stroke-dasharray:none;stroke-dashoffset:0;stroke-opacity:1;visibility:visible;display:inline;overflow:visible"
         sodipodi:type="arc"
         transform="matrix(-1,0,0,1,537.7296,-62.23002)" />
      <path
         d="M 211.60192 503.06195 A 17.171885 17.171885 0 1 1  177.25815,503.06195 A 17.171885 17.171885 0 1 1  211.60192 503.06195 z"
         sodipodi:ry="17.171885"
         sodipodi:rx="17.171885"
         sodipodi:cy="503.06195"
         sodipodi:cx="194.43004"
         id="path2538"
         style="opacity:1;color:#000000;fill:#ff0000;fill-opacity:1;fill-rule:evenodd;stroke:none;stroke-width:2.77749991;stroke-linecap:round;stroke-linejoin:miter;marker:none;marker-start:none;marker-mid:none;marker-end:none;stroke-miterlimit:4;stroke-dasharray:none;stroke-dashoffset:0;stroke-opacity:1;visibility:visible;display:inline;overflow:visible"
         sodipodi:type="arc"
         transform="translate(95.17812,-113.2905)" />
      <path
         sodipodi:nodetypes="ccccc"
         id="path2540"
         d="M 277.9325,372.32378 L 272.41193,372.32378 C 268.40584,356.22478 252.80436,346.30336 252.80436,340.34251 C 252.80436,331.57033 266.32149,330.63391 275.64813,330.63391 C 275.64813,336.29531 268.03354,345.03817 277.9325,372.32378 z "
         style="fill:#ff0000;fill-opacity:1;fill-rule:evenodd;stroke:none;stroke-width:1px;stroke-linecap:butt;stroke-linejoin:miter;stroke-opacity:1" />
      <use
         style="fill:#ff0000;fill-opacity:1"
         height="600"
         width="600"
         transform="matrix(-1,0,0,1,579.2163,0)"
         id="use2542"
         xlink:href="#path2540"
         y="0"
         x="0" />
      <path
         transform="matrix(1.318182,0,0,1,-90.81317,0.150689)"
         d="M 299.2216 350.04492 A 10.626109 19.561701 0 1 1  277.96938,350.04492 A 10.626109 19.561701 0 1 1  299.2216 350.04492 z"
         sodipodi:ry="19.561701"
         sodipodi:rx="10.626109"
         sodipodi:cy="350.04492"
         sodipodi:cx="288.59549"
         id="path2546"
         style="opacity:1;color:#000000;fill:#ff0000;fill-opacity:1;fill-rule:evenodd;stroke:none;stroke-width:2.77749991;stroke-linecap:round;stroke-linejoin:miter;marker:none;marker-start:none;marker-mid:none;marker-end:none;stroke-miterlimit:4;stroke-dasharray:none;stroke-dashoffset:0;stroke-opacity:1;visibility:visible;display:inline;overflow:visible"
         sodipodi:type="arc" />
      <rect
         ry="7.4502611"
         y="302.62814"
         x="258.74283"
         height="25.118023"
         width="61.730736"
         id="rect2548"
         style="opacity:1;color:#000000;fill:#ff0000;fill-opacity:1;fill-rule:evenodd;stroke:none;stroke-width:2.77749991;stroke-linecap:round;stroke-linejoin:miter;marker:none;marker-start:none;marker-mid:none;marker-end:none;stroke-miterlimit:4;stroke-dasharray:none;stroke-dashoffset:0;stroke-opacity:1;visibility:visible;display:inline;overflow:visible" />
      <rect
         ry="5.747344"
         y="309.43982"
         x="255.12415"
         height="11.494688"
         width="68.968132"
         id="rect2552"
         style="opacity:1;color:#000000;fill:#ff0000;fill-opacity:1;fill-rule:evenodd;stroke:#ffffff;stroke-width:2.77699995;stroke-linecap:round;stroke-linejoin:miter;marker:none;marker-start:none;marker-mid:none;marker-end:none;stroke-miterlimit:4;stroke-dasharray:none;stroke-dashoffset:0;stroke-opacity:1;visibility:visible;display:inline;overflow:visible" />
      <rect
         ry="5.6950955"
         y="27.531284"
         x="275.11447"
         height="269.34857"
         width="24.71088"
         id="rect2554"
         style="opacity:1;color:#000000;fill:#ffffff;fill-opacity:1;fill-rule:evenodd;stroke:none;stroke-width:2.77699995;stroke-linecap:round;stroke-linejoin:miter;marker:none;marker-start:none;marker-mid:none;marker-end:none;stroke-miterlimit:4;stroke-dasharray:none;stroke-dashoffset:0;stroke-opacity:1;visibility:visible;display:inline;overflow:visible" />
      <path
         sodipodi:nodetypes="cccccccccccccccccccssscssccccccccccccccsscsssccccccccccccccccccccccccc"
         id="rect2556"
         d="M 242.56434,50.425352 C 240.32818,50.705842 238.5956,52.643105 238.59559,54.956602 L 238.59559,71.394102 C 238.59559,73.679382 236.53229,75.425352 234.22059,75.425352 L 218.78309,75.425352 C 216.35771,75.425352 214.4081,73.475732 214.40809,71.050352 L 214.40809,57.394102 C 214.40809,54.698222 211.63428,52.675363 208.81434,52.675352 L 169.84559,52.675352 C 166.70687,52.675362 164.18935,55.192893 164.18934,58.331602 L 164.18934,77.737852 C 164.18934,80.876572 166.70688,83.394112 169.84559,83.394102 L 201.34559,83.456602 C 203.59377,83.456602 205.40809,85.239692 205.40809,87.487852 L 205.40809,101.3941 C 205.40809,103.64227 203.59377,105.45661 201.34559,105.4566 L 169.84559,105.5191 C 166.70687,105.5191 164.18935,108.06789 164.18934,111.2066 L 164.18934,130.61285 C 164.18934,133.58183 166.61376,136.2691 169.34559,136.2691 C 169.34847,136.2691 169.37043,136.26919 169.37684,136.2691 C 169.39735,136.26902 169.41876,136.26945 169.43934,136.2691 C 169.44575,136.26904 208.81434,136.2691 208.81434,136.2691 C 211.63428,136.2691 214.4081,134.23791 214.40809,131.55035 C 214.40809,131.54757 214.4081,115.42535 214.40809,115.42535 C 214.40809,112.99998 216.35773,111.05035 218.78309,111.05035 L 234.22059,111.05035 C 236.53228,111.05035 238.42448,112.81552 238.59559,115.0816 L 238.59559,131.7691 C 238.59559,134.27599 240.61995,136.30035 243.12684,136.30035 L 259.62684,136.30035 C 261.76298,136.30035 263.37683,138.08341 263.37684,140.30035 L 263.37684,155.23785 C 263.37683,157.45479 261.76298,159.23785 259.62684,159.23785 L 243.12684,159.23785 C 240.61995,159.23785 238.59559,161.26221 238.59559,163.7691 L 238.59559,180.4566 C 238.42448,182.72268 236.53228,184.48785 234.22059,184.48785 L 218.78309,184.48785 C 216.35773,184.48785 214.40809,182.53822 214.40809,180.11285 C 214.4081,180.11285 214.40809,163.99063 214.40809,163.98785 C 214.4081,161.30029 211.63428,159.2691 208.81434,159.2691 C 208.81434,159.2691 169.44575,159.26916 169.43934,159.2691 C 169.41876,159.26875 169.39735,159.26918 169.37684,159.2691 C 169.37043,159.26901 169.34847,159.2691 169.34559,159.2691 C 166.61376,159.2691 164.18934,161.95637 164.18934,164.92535 L 164.18934,184.3316 C 164.18935,187.47031 166.70687,190.0191 169.84559,190.0191 L 201.34559,190.0816 C 203.59377,190.08159 205.40809,191.89593 205.40809,194.1441 L 205.40809,208.05035 C 205.40809,210.29851 203.59377,212.0816 201.34559,212.0816 L 169.84559,212.1441 C 166.70688,212.14409 164.18934,214.66163 164.18934,217.80035 L 164.18934,237.2066 C 164.18935,240.34531 166.70687,242.86284 169.84559,242.86285 L 208.81434,242.86285 C 211.63428,242.86284 214.40809,240.83998 214.40809,238.1441 L 214.40809,224.48785 C 214.4081,222.06247 216.35771,220.11285 218.78309,220.11285 L 234.22059,220.11285 C 236.53229,220.11285 238.59559,221.85882 238.59559,224.1441 L 238.59559,240.5816 C 238.5956,242.93182 240.37008,244.88127 242.65809,245.11285 L 268.00184,245.11285 C 270.28987,244.88127 272.06435,242.93181 272.06434,240.5816 L 272.06434,54.956602 C 272.06435,52.606392 270.28987,50.656933 268.00184,50.425352 L 242.65809,50.425352 C 242.62234,50.42897 242.59984,50.4209 242.56434,50.425352 z "
         style="opacity:1;color:#000000;fill:#ffffff;fill-opacity:1;fill-rule:evenodd;stroke:none;stroke-width:2.77699995;stroke-linecap:round;stroke-linejoin:miter;marker:none;marker-start:none;marker-mid:none;marker-end:none;stroke-miterlimit:4;stroke-dasharray:none;stroke-dashoffset:0;stroke-opacity:1;visibility:visible;display:inline;overflow:visible" />
    </g>
  </g>
</svg>
