<?xml version="1.0" encoding="UTF-8"?>
<svg xmlns="http://www.w3.org/2000/svg" width="700" height="700">
	<rect width="700" height="700" fill="#fff"/>
	<g fill="#f00">
		<path d="M 146.44534,362.28401 L 275.46119,362.28401 L 314.16592,618.16545 L 263.09715,559.03318 L 212.02838,618.16545 L 160.95962,559.03318 L 109.89086,618.16545 z"/>
		<rect x="115.71185" y="297.79769" width="191.37351" height="34.40423" rx="18.85618"/>
		<rect x="137.59464" y="273.82989" width="147.29309" height="19.35238" rx="18.85618"/>
		<rect x="136.66155" y="336.30794" width="147.29309" height="19.35238" rx="18.85618"/>
		<path d="M 156.12153,269.82267 L 261.48446,269.82267 C 261.48446,269.82267 249.35322,167.45926 213.10353,119.30417 C 176.67146,70.9068 85.44675,80.81089 55.05912,119.30417 C 24.70862,157.75043 37.17755,212.1836 56.9597,233.89797 C 76.91334,255.80057 119.02947,250.1567 128.1681,235.41844 C 137.30673,220.68016 144.25087,202.22384 128.1681,184.88722 C 120.6434,176.77589 106.31039,174.89337 101.50418,180.09691 C 96.93259,185.04645 97.41549,185.93075 94.90421,192.72804 C 105.40695,193.77814 106.37303,198.04342 107.04557,203.09925 C 107.67755,207.85015 103.70015,219.97564 90.53847,210.6904 C 77.12181,201.22527 82.20489,174.15369 93.76387,165.53486 C 105.14332,157.04988 122.10718,156.1832 134.61889,164.45973 C 148.16865,173.42294 153.97127,180.93979 159.34693,204.23961 C 164.87125,228.18377 156.12153,269.82267 156.12153,269.82267 z"/>
		<rect x="350" width="350" height="100"/>
		<rect x="350" y="200" width="350" height="100"/>
		<rect x="350" y="400" width="350" height="100"/>
		<rect x="350" y="600" width="350" height="100"/>
	</g>
</svg>