<?xml version="1.0" encoding="UTF-8" standalone="no"?>
<!-- Created with Inkscape (http://www.inkscape.org/) -->
<svg
   xmlns:dc="http://purl.org/dc/elements/1.1/"
   xmlns:cc="http://web.resource.org/cc/"
   xmlns:rdf="http://www.w3.org/1999/02/22-rdf-syntax-ns#"
   xmlns:svg="http://www.w3.org/2000/svg"
   xmlns="http://www.w3.org/2000/svg"
   xmlns:sodipodi="http://inkscape.sourceforge.net/DTD/sodipodi-0.dtd"
   xmlns:inkscape="http://www.inkscape.org/namespaces/inkscape"
   width="600"
   height="600"
   id="svg2"
   sodipodi:version="0.32"
   inkscape:version="0.43"
   version="1.0"
   sodipodi:docbase="C:\Documents and Settings\David Nelson\Archives\Svg"
   sodipodi:docname="Flag_of_Canton_of_Thurgau.svg">
  <defs
     id="defs4" />
  <sodipodi:namedview
     id="base"
     pagecolor="#ffffff"
     bordercolor="#666666"
     borderopacity="1.0"
     inkscape:pageopacity="0.0"
     inkscape:pageshadow="2"
     inkscape:zoom="0.62166667"
     inkscape:cx="300"
     inkscape:cy="300"
     inkscape:document-units="px"
     inkscape:current-layer="layer1"
     inkscape:window-width="756"
     inkscape:window-height="540"
     inkscape:window-x="28"
     inkscape:window-y="30"
     showguides="true"
     inkscape:guide-bbox="true" />
  <metadata
     id="metadata7">
    <rdf:RDF>
      <cc:Work
         rdf:about="">
        <dc:format>image/svg+xml</dc:format>
        <dc:type
           rdf:resource="http://purl.org/dc/dcmitype/StillImage" />
      </cc:Work>
    </rdf:RDF>
  </metadata>
  <g
     inkscape:label="Layer 1"
     inkscape:groupmode="layer"
     id="layer1">
    <rect
       style="opacity:1;color:#000000;fill:#ffffff;fill-opacity:1;fill-rule:nonzero;stroke:none;stroke-width:1;stroke-linecap:square;stroke-linejoin:miter;marker:none;marker-start:none;marker-mid:none;marker-end:none;stroke-miterlimit:4;stroke-dasharray:none;stroke-dashoffset:0;stroke-opacity:1;visibility:visible;display:inline;overflow:visible"
       id="rect2628"
       width="600"
       height="600"
       x="9.3258734e-015"
       y="0" />
    <path
       style="fill:#008000;fill-opacity:1;fill-rule:evenodd;stroke:none;stroke-width:1px;stroke-linecap:butt;stroke-linejoin:miter;stroke-opacity:1"
       d="M -5.2458038e-015,1.1368684e-013 L -5.2458038e-015,600 L 600,600 L -5.2458038e-015,1.1368684e-013 z "
       id="path2547" />
    <g
       id="g2649"
       transform="scale(2.777778,2.777778)"
       style="stroke:#000000;stroke-opacity:1;stroke-width:0.35999997;stroke-miterlimit:4;stroke-dasharray:none">
      <path
         id="path2528"
         d="M 79.65625,151.03125 C 64.489912,151.53112 56.055558,158.76445 67.125,185.5 C 58.011676,187.67835 49.915885,186.75772 43.96875,179.4375 C 48.374087,177.23333 45.28432,169.65711 39.375,170.5625 C 40.814605,171.7561 41.374968,172.5911 41.4375,173.25 C 41.443882,173.3366 41.447137,173.44957 41.4375,173.53125 C 41.431849,173.57185 41.415225,173.64009 41.40625,173.6875 C 41.404638,173.69483 41.407985,173.7122 41.40625,173.71875 C 41.006536,175.11815 38.415457,175.97184 39,179.15625 C 37.151302,173.81161 29.69256,167.54602 27.25,176.59375 C 27.389726,176.53786 27.516524,176.49339 27.65625,176.4375 C 28.298624,176.18056 28.519906,175.63067 29.09375,175.34375 C 29.634103,175.07357 30.220377,175.09375 30.84375,175.09375 C 30.849609,175.09375 30.868649,175.09396 30.875,175.09375 C 30.888382,175.09311 30.923669,175.09426 30.9375,175.09375 C 30.9443,175.09367 30.962218,175.09356 30.96875,175.09375 C 30.974863,175.09431 30.994458,175.09272 31,175.09375 C 31.005477,175.09497 31.025028,175.0918 31.03125,175.09375 C 31.071708,175.10877 31.125373,175.14368 31.15625,175.15625 C 31.213131,175.18151 31.292317,175.21375 31.34375,175.25 C 31.354637,175.26093 31.395479,175.30139 31.40625,175.3125 C 31.423896,175.32762 31.451843,175.35878 31.46875,175.375 C 31.691916,175.60069 31.873335,175.93836 31.9375,176.15625 C 31.939628,176.16405 31.935622,176.17999 31.9375,176.1875 C 32.079643,176.75607 31.96773,176.94158 31.84375,177.4375 C 31.843831,177.4402 31.843498,177.46578 31.84375,177.46875 C 31.836453,177.49106 31.823354,177.53448 31.8125,177.5625 C 31.804,177.58319 31.79009,177.60859 31.78125,177.625 C 31.77604,177.63583 31.755419,177.6767 31.75,177.6875 C 31.502138,178.0617 30.990868,178.40801 30.78125,178.6875 C 30.775429,178.6931 30.755617,178.71309 30.75,178.71875 C 30.749864,178.72091 30.749948,178.74778 30.75,178.75 C 30.754683,178.76052 30.775044,178.8015 30.78125,178.8125 C 30.784636,178.81569 30.809662,178.84099 30.8125,178.84375 C 30.81898,178.85005 30.840946,178.87193 30.84375,178.875 C 31.157086,179.19543 32.161515,179.72138 32.28125,179.78125 C 33.00294,180.14209 33.590673,180.18596 34.28125,180.53125 C 34.462733,180.62199 34.565179,180.66608 34.65625,180.71875 C 34.667105,180.72392 34.707741,180.74448 34.71875,180.75 C 34.805704,180.81387 34.927859,180.92338 35.125,181.125 C 25.474868,180.19868 27.902689,184.93189 28.34375,188.4375 C 28.419587,188.22373 28.633777,187.76798 28.6875,187.59375 C 28.687488,187.59094 28.68768,187.56569 28.6875,187.5625 C 28.687803,187.56043 28.687576,187.53817 28.6875,187.53125 C 28.692898,187.52085 28.712703,187.47977 28.71875,187.46875 C 28.718553,187.46562 28.718782,187.44025 28.71875,187.4375 C 28.724195,187.42675 28.74429,187.38599 28.75,187.375 C 29.008547,186.69768 30.38655,185.0153 31.21875,184.6875 C 31.262857,184.67144 31.328378,184.63785 31.375,184.625 C 31.3884,184.62197 31.425442,184.62639 31.4375,184.625 C 31.448742,184.62481 31.48199,184.62533 31.5,184.625 C 31.504007,184.62509 31.527826,184.62478 31.53125,184.625 C 31.542236,184.63044 31.582951,184.65042 31.59375,184.65625 C 31.604582,184.66104 31.645869,184.68178 31.65625,184.6875 C 31.664581,184.69578 31.683594,184.71521 31.6875,184.71875 C 31.692491,184.72391 31.713981,184.74439 31.71875,184.75 C 32.15754,185.33505 32.728996,186.604 33.4375,187.3125 C 33.455205,187.33021 33.483438,187.36012 33.5,187.375 C 33.540091,187.4092 33.590311,187.44401 33.625,187.46875 C 33.635436,187.47504 33.676238,187.49412 33.6875,187.5 C 33.709944,187.51101 33.733916,187.52546 33.75,187.53125 C 33.761129,187.53533 33.799299,187.55727 33.8125,187.5625 C 33.816434,187.56367 33.840326,187.56186 33.84375,187.5625 C 33.847706,187.55739 33.871144,187.53571 33.875,187.53125 C 33.877788,187.53134 33.902942,187.53099 33.90625,187.53125 C 33.917244,187.52639 33.957977,187.50567 33.96875,187.5 C 33.971399,187.49675 33.997353,187.47253 34,187.46875 C 34.007869,187.45568 34.02365,187.4181 34.03125,187.40625 C 34.134281,187.2548 34.259157,186.99613 34.4375,186.78125 C 34.445194,186.77032 34.461248,186.73181 34.46875,186.71875 C 34.471402,186.71476 34.497214,186.69106 34.5,186.6875 C 34.651785,186.53571 34.812921,186.40527 34.9375,186.3125 C 35.003822,186.26498 35.093766,186.21806 35.15625,186.1875 C 35.196202,186.16941 35.264871,186.13857 35.3125,186.125 C 35.319862,186.1231 35.33719,186.12647 35.34375,186.125 C 35.349219,186.12399 35.368865,186.12642 35.375,186.125 C 35.401457,186.11831 35.442125,186.0983 35.46875,186.09375 C 35.471849,186.09344 35.49705,186.0939 35.5,186.09375 C 35.570351,186.10045 35.677996,186.13252 35.75,186.15625 C 35.944353,186.22631 36.164757,186.35794 36.4375,186.5625 C 36.930435,186.9322 37.53125,187.4356 37.53125,188.28125 C 37.53125,188.93564 37.629796,189.3901 37.875,189.71875 C 38.065385,189.96053 38.356557,190.15512 38.75,190.3125 C 39.756402,190.71505 41.096767,190.54708 41.375,190.5625 C 41.37678,190.56277 41.399242,190.56265 41.40625,190.5625 C 41.40625,190.57397 41.406014,190.60935 41.40625,190.625 C 41.412006,190.63064 41.431692,190.65077 41.4375,190.65625 C 41.437432,190.65905 41.437856,190.6844 41.4375,190.6875 C 41.43734,190.69462 41.437275,190.71735 41.4375,190.71875 C 41.43761,190.72223 41.437512,190.74715 41.4375,190.75 C 41.383691,190.82865 41.21733,191.00142 40.8125,191.40625 C 40.806857,191.41189 40.78694,191.43126 40.78125,191.4375 C 40.74726,191.4775 40.711547,191.52957 40.6875,191.5625 C 40.672452,191.58439 40.642226,191.62811 40.625,191.65625 C 40.612798,191.67705 40.601098,191.70241 40.59375,191.71875 C 40.592106,191.72372 40.5952,191.74473 40.59375,191.75 C 40.58726,191.77728 40.568384,191.8207 40.5625,191.84375 C 40.555829,191.86481 40.537039,191.91624 40.53125,191.9375 C 40.490794,192.24081 40.566919,192.60733 40.4375,193.125 C 40.385039,193.33484 40.321632,193.512 40.25,193.65625 C 40.224093,193.70588 40.18644,193.77039 40.15625,193.8125 C 40.104596,193.88064 40.03609,193.95143 39.96875,194 C 39.948008,194.01401 39.897438,194.05016 39.875,194.0625 C 39.853963,194.07092 39.803326,194.08625 39.78125,194.09375 C 39.611135,194.15813 39.39828,194.1875 39.125,194.1875 C 38.346442,194.1875 37.433953,194.44243 36.6875,194.3125 C 36.544411,194.28759 36.394891,194.27052 36.25,194.25 C 40.182223,197.20854 45.058578,199.70031 46.28125,192.625 C 56.932004,198.43055 66.920465,198.86921 75.25,198.5 C 75.616606,198.48375 76.316017,198.70186 76.84375,198.5625 C 76.867878,198.55558 76.91412,198.53972 76.9375,198.53125 C 76.983719,198.51323 77.051211,198.46251 77.09375,198.4375 C 77.104671,198.43232 77.145448,198.41164 77.15625,198.40625 C 77.192984,198.37476 77.25085,198.31504 77.28125,198.28125 C 77.305932,198.252 77.350478,198.19336 77.375,198.15625 C 77.538617,197.86693 77.62079,197.40194 77.5,196.6875 C 75.759843,186.3949 78.454336,166.09049 87.65625,165.53125 C 87.646,165.50421 87.635106,165.46466 87.625,165.4375 C 87.618842,165.42095 87.599855,165.42285 87.59375,165.40625 C 87.590374,165.3971 87.59711,165.38416 87.59375,165.375 C 87.583632,165.34729 87.572474,165.30908 87.5625,165.28125 C 87.541824,165.22373 87.520064,165.18302 87.5,165.125 C 87.493215,165.10536 87.475467,165.08219 87.46875,165.0625 C 87.465574,165.05319 87.47191,165.04057 87.46875,165.03125 C 87.457548,164.99823 87.448514,164.97066 87.4375,164.9375 C 87.4305,164.91644 87.413175,164.89611 87.40625,164.875 C 87.400228,164.8566 87.412216,164.83094 87.40625,164.8125 C 87.402364,164.80051 87.378862,164.79326 87.375,164.78125 C 87.353114,164.7132 87.333634,164.63108 87.3125,164.5625 C 87.308771,164.5504 87.316207,164.54337 87.3125,164.53125 C 87.306366,164.51114 87.287323,164.4889 87.28125,164.46875 C 87.251163,164.36867 87.247344,164.25725 87.21875,164.15625 C 87.211904,164.13222 87.194265,164.11783 87.1875,164.09375 C 87.179486,164.06508 87.164149,164.02873 87.15625,164 C 87.124985,163.88629 87.092039,163.77081 87.0625,163.65625 C 87.035533,163.55167 86.994365,163.44886 86.96875,163.34375 C 86.963985,163.32419 86.97347,163.30082 86.96875,163.28125 C 86.962683,163.25625 86.943495,163.24377 86.9375,163.21875 C 86.917651,163.13551 86.92532,163.05219 86.90625,162.96875 C 86.904007,162.95893 86.908483,162.94732 86.90625,162.9375 C 86.890083,162.86682 86.859395,162.78951 86.84375,162.71875 C 86.821105,162.61554 86.802838,162.50949 86.78125,162.40625 C 86.75041,162.25876 86.716374,162.11591 86.6875,161.96875 C 86.685575,161.95894 86.689417,161.94731 86.6875,161.9375 C 86.676664,161.8826 86.635587,161.83606 86.625,161.78125 C 86.619295,161.75142 86.630633,161.7173 86.625,161.6875 C 86.611548,161.61711 86.606823,161.53892 86.59375,161.46875 C 86.586123,161.42731 86.570001,161.3851 86.5625,161.34375 C 86.555229,161.30409 86.538411,161.25832 86.53125,161.21875 C 86.52194,161.16672 86.509127,161.11435 86.5,161.0625 C 86.494323,161.0306 86.505612,161.00057 86.5,160.96875 C 86.485692,160.88673 86.482647,160.80022 86.46875,160.71875 C 86.461861,160.67888 86.444299,160.63348 86.4375,160.59375 C 86.422932,160.50738 86.389175,160.42935 86.375,160.34375 C 86.369719,160.31234 86.380233,160.2813 86.375,160.25 C 86.373308,160.23973 86.376687,160.22901 86.375,160.21875 C 86.324058,159.90892 86.26632,159.60841 86.21875,159.3125 C 86.21714,159.30249 86.220357,159.29124 86.21875,159.28125 C 86.194043,159.12995 86.180547,158.99041 86.15625,158.84375 C 86.145864,158.78004 86.135351,158.71901 86.125,158.65625 C 86.123332,158.6463 86.126667,158.63492 86.125,158.625 C 86.109065,158.52861 86.078442,158.4377 86.0625,158.34375 C 86.054746,158.29875 86.03902,158.26316 86.03125,158.21875 C 86.02956,158.20896 86.032941,158.19726 86.03125,158.1875 C 86.019996,158.12344 86.01132,158.06275 86,158 C 85.994898,157.97127 86.005121,157.93469 86,157.90625 C 85.991221,157.85825 85.977593,157.82842 85.96875,157.78125 C 85.958473,157.72531 85.947888,157.67975 85.9375,157.625 C 85.923431,157.55199 85.920561,157.47702 85.90625,157.40625 C 85.90183,157.38411 85.879448,157.36567 85.875,157.34375 C 85.865877,157.29927 85.852995,157.26228 85.84375,157.21875 C 85.834505,157.17522 85.821881,157.13629 85.8125,157.09375 C 85.800773,157.04057 85.793215,156.98909 85.78125,156.9375 C 85.763946,156.86156 85.767896,156.79115 85.75,156.71875 C 85.740364,156.67977 85.728578,156.63167 85.71875,156.59375 C 85.680139,156.4448 85.635853,156.31889 85.59375,156.1875 C 85.591163,156.17959 85.596351,156.16409 85.59375,156.15625 C 85.583713,156.12559 85.572765,156.09211 85.5625,156.0625 C 85.54561,156.01397 85.51753,155.98314 85.5,155.9375 C 85.487791,155.90496 85.4813,155.87482 85.46875,155.84375 C 85.465753,155.83648 85.471767,155.81969 85.46875,155.8125 C 85.4597,155.79093 85.446729,155.77081 85.4375,155.75 C 85.428895,155.73029 85.41502,155.73778 85.40625,155.71875 C 85.378768,155.65912 85.340492,155.5901 85.3125,155.53125 C 85.292604,155.48941 85.3014,155.44772 85.28125,155.40625 C 85.27441,155.39214 85.25687,155.38906 85.25,155.375 C 85.221059,155.31599 85.185706,155.24575 85.15625,155.1875 C 85.147187,155.16958 85.134112,155.14285 85.125,155.125 C 85.117963,155.11119 85.100816,155.10751 85.09375,155.09375 C 85.078894,155.06481 85.077484,155.02875 85.0625,155 C 85.038525,154.954 85.024301,154.92051 85,154.875 C 84.994328,154.8644 84.97444,154.85432 84.96875,154.84375 C 84.962654,154.8324 84.943616,154.82382 84.9375,154.8125 C 84.912529,154.76638 84.900312,154.70185 84.875,154.65625 C 84.839367,154.59186 84.817551,154.53215 84.78125,154.46875 C 84.77022,154.44958 84.761092,154.42533 84.75,154.40625 C 84.686517,154.29651 84.596732,154.20054 84.53125,154.09375 C 84.51824,154.07268 84.513088,154.0522 84.5,154.03125 C 84.48985,154.01493 84.478947,153.985 84.46875,153.96875 C 84.461377,153.95708 84.444898,153.94913 84.4375,153.9375 C 84.432515,153.9296 84.442497,153.91413 84.4375,153.90625 C 84.422676,153.88304 84.389921,153.86682 84.375,153.84375 C 84.361677,153.82315 84.35715,153.80173 84.34375,153.78125 C 84.316766,153.73971 84.277298,153.69733 84.25,153.65625 C 84.230467,153.62711 84.207193,153.5914 84.1875,153.5625 C 84.170268,153.53708 84.142354,153.49399 84.125,153.46875 C 84.111213,153.44885 84.107613,153.42604 84.09375,153.40625 C 84.082996,153.39083 84.0733,153.3591 84.0625,153.34375 C 84.054694,153.33273 84.03908,153.32348 84.03125,153.3125 C 84.006614,153.27767 83.993622,153.25323 83.96875,153.21875 C 83.934929,153.17208 83.909258,153.13977 83.875,153.09375 C 83.852552,153.06332 83.835135,153.03015 83.8125,153 C 83.78081,152.95779 83.750805,152.91666 83.71875,152.875 C 83.699357,152.84997 83.675776,152.83733 83.65625,152.8125 C 83.613847,152.75815 83.57428,152.70967 83.53125,152.65625 C 83.48019,152.59319 83.426934,152.53053 83.375,152.46875 C 83.317921,152.40049 83.245629,152.31669 83.1875,152.25 C 83.15664,152.21506 83.1249,152.15951 83.09375,152.125 C 83.064338,152.09217 83.029672,152.06369 83,152.03125 C 82.98952,152.01989 82.979262,152.01132 82.96875,152 C 82.651333,151.65535 82.314931,151.33288 81.96875,151.03125 C 81.311845,151.02576 80.666247,151.01483 80.03125,151.03125 C 79.911003,151.03436 79.77567,151.02731 79.65625,151.03125 z "
         style="fill:#ffe000;fill-opacity:1;fill-rule:evenodd;stroke:#000000;stroke-width:0.35999997;stroke-linecap:butt;stroke-linejoin:miter;stroke-opacity:1;stroke-miterlimit:4;stroke-dasharray:none" />
      <path
         id="path2524"
         d="M 80.03125,151.03125 C 77.510218,151.09642 75.165962,151.36101 73.0625,151.84375 L 70.5625,156 C 78.132047,155.12094 85.105591,156.85131 88.53125,160.46875 L 88.46875,158.03125 L 85,151.125 C 83.278769,151.03716 81.623481,150.99009 80.03125,151.03125 z "
         style="fill:#ff0000;fill-opacity:1;fill-rule:evenodd;stroke:#000000;stroke-width:0.35999997;stroke-linecap:butt;stroke-linejoin:miter;stroke-opacity:1;stroke-miterlimit:4;stroke-dasharray:none" />
      <path
         id="path2549"
         d="M 59.276614,85.458244 L 51.506271,90.120449 L 58.166565,99.88888 L 67.490976,91.452508 L 61.718721,82.128097 L 59.276614,85.458244 z "
         style="fill:#000000;fill-opacity:1;fill-rule:evenodd;stroke:#000000;stroke-width:0.35999997;stroke-linecap:butt;stroke-linejoin:miter;stroke-opacity:1;stroke-miterlimit:4;stroke-dasharray:none" />
      <path
         id="path1615"
         d="M 50.09375,73.4375 C 49.90039,73.442902 49.706809,73.456652 49.5,73.46875 C 53.108412,74.160892 52.913955,83.832757 54.75,93.15625 C 54.754593,93.159547 54.745409,93.184213 54.75,93.1875 C 57.176426,94.92473 59.325428,95.300522 60.9375,94.875 C 49.940154,84.304748 61.474876,73.119521 50.09375,73.4375 z "
         style="fill:#ff0000;fill-opacity:1;fill-rule:evenodd;stroke:#000000;stroke-width:0.35999997;stroke-linecap:butt;stroke-linejoin:miter;stroke-opacity:1;stroke-miterlimit:4;stroke-dasharray:none" />
      <path
         sodipodi:nodetypes="ccscssssscccccscccc"
         id="path2506"
         d="M 19.78125,31.59375 C 19.690822,31.604204 19.624832,31.637544 19.53125,31.65625 C 22.711907,37.548838 15.28066,40.02675 14.78125,34.21875 C 14.48265,30.746104 8.317509,31.42121 7.125,34.375 C 8.435397,33.900952 10.179735,33.78244 10.8125,34.34375 C 10.838108,34.367967 10.8847,34.410716 10.90625,34.4375 C 10.9575,34.506086 11.00819,34.602143 11.03125,34.6875 C 11.06132,34.818127 11.044092,34.985115 11,35.15625 C 9.2632388,41.897087 11.612863,40.721767 11.40625,44.375 C 11.190246,48.194276 7.0155201,48.515331 4.8125,45.78125 C 4.1137614,50.016118 5.1997311,52.858117 11.40625,51.78125 C 11.027531,65.177211 9.9573383,79.387634 14.84375,86.53125 L 19.795266,97.40418 L 37.970881,100.16606 C 37.970881,100.16606 30.055436,87.389223 24.875,75.28125 C 21.360196,67.066275 19.473163,59.025386 20.5,50.28125 C 25.812986,49.774712 28.650737,47.329018 29.53125,43.375 C 24.352723,45.924088 26.120692,42.22397 21.15625,44.9375 C 24.894517,40.798697 24.32075,31.068978 19.78125,31.59375 z "
         style="fill:#ffe000;fill-opacity:1;fill-rule:evenodd;stroke:#000000;stroke-width:0.35999997;stroke-linecap:butt;stroke-linejoin:miter;stroke-opacity:1;stroke-miterlimit:4;stroke-dasharray:none" />
      <path
         id="path2510"
         d="M 36.15625,52.0625 C 35.870767,52.076664 35.586976,52.099415 35.28125,52.125 C 39.50445,54.091648 36.40209,55.756898 37.25,58 C 40.131521,65.622898 31.258589,67.341167 32.84375,57.40625 C 29.534537,60.899411 29.262825,65.640478 30.4375,69.6875 C 22.33324,77.740629 9.5967248,90.766024 10.03125,95.65625 C 10.662476,102.76018 18.268865,112.05363 20.65625,115.3125 C 21.168024,113.72071 21.837091,112.041 22.6875,110.25 L 24,110.59375 L 31.71875,99.25 L 24.625,97.3125 C 31.636462,87.967827 37.398316,69.5 44.59375,69.5 C 45.960913,69.5 47.584808,70.170526 49.5625,69.34375 C 51.456573,68.55193 50.765567,67.388241 51.65625,66.6875 C 54.450011,64.48953 55.115363,62.646886 53.65625,59.875 C 51.401149,63.837857 48.97241,63.688549 46.59375,64.5625 C 51.578266,61.679821 52.270452,55.794544 45.90625,53.25 C 47.602573,58.254087 44.524935,58.770883 42.34375,61.625 C 43.609705,53.924342 41.961079,51.774498 36.15625,52.0625 z "
         style="fill:#ffe000;fill-opacity:1;fill-rule:evenodd;stroke:#000000;stroke-width:0.35999997;stroke-linecap:butt;stroke-linejoin:miter;stroke-opacity:1;stroke-miterlimit:4;stroke-dasharray:none" />
      <path
         sodipodi:nodetypes="cccssssssccccccccccccssssssscccccccccscccccs"
         id="path2515"
         d="M 121.45643,205.5997 C 116.62761,206.33142 116.36045,207.91845 116.55048,209.59121 M 132.17656,143.45403 C 162.48867,160.56638 131.52811,191.06057 113.76527,151.6979 C 120.51075,161.71918 112.61332,178.94878 139.04644,177.25386 C 140.50378,186.45392 138.66809,194.1904 133.53035,200.45931 C 133.85949,200.45931 133.94113,200.50224 134.24761,200.57886 C 134.86377,200.7329 135.23928,201.06427 135.68214,201.65475 C 136.16273,202.29554 136.31181,202.90583 135.92122,203.687 C 135.61286,204.30373 135.40311,204.92238 134.84533,205.48015 C 134.56018,205.7653 133.29126,206.32779 133.29126,206.79513 C 133.29126,207.47111 133.27658,208.49322 132.93263,209.06646 C 132.41408,209.93071 131.68562,210.64632 131.01993,210.97916 C 130.28234,211.34796 129.83237,211.90235 128.7486,212.29414 C 131.24191,203.12003 122.23575,210.13185 116.63298,213.66293 C 116.16478,211.69518 115.9743,211.99704 116.55048,209.59121 C 112.51601,212.51099 108.72953,205.86579 106.71374,210.6345 C 106.22055,207.00627 107.04052,200.68575 116.69952,203.48051 C 114.37142,200.20309 111.91472,197.82587 108.80032,200.05256 C 109.63451,192.22186 121.16033,197.47764 120.12748,200.79776 C 126.67374,198.89299 129.06702,194.17257 129.65993,187.50512 C 106.92294,185.97434 97.674745,174.83018 90.005563,169.02397 C 86.27781,166.20175 86.52983,158.13906 85.407277,155.70339 C 79.739977,143.4067 63.181177,147.80839 48.230668,143.81161 C 37.948215,141.06276 9.7508916,137.50385 22.696785,110.23929 L 66.198956,121.11483 C 71.772698,126.25069 79.64804,131.47848 94.097087,135.45794 C 120.33204,142.68339 120.4591,159.32666 133.45428,164.92222 C 140.22037,167.83561 143.79169,155.88147 130.77463,148.45469 C 119.74751,142.16325 107.2882,137.05401 100.44934,126.44932 C 87.884773,126.43301 92.399744,118.28008 85.009567,116.45888 C 87.017518,114.9649 89.745124,112.73051 93.728497,117.36711 C 89.721171,112.09011 93.459425,108.15448 91.436983,101.5361 C 94.768767,104.50031 98.077773,108.30089 97.696727,115.39696 C 98.734487,112.55964 99.603347,109.55342 99.261664,105.33666 C 101.20324,108.58505 102.14968,112.29273 101.49729,116.73834 C 103.59786,115.06252 103.94707,113.3867 104.73864,111.71088 C 106.71395,119.36363 103.53991,120.66611 103.53991,124.14766 C 103.53991,127.12954 111.32006,132.69044 111.32006,132.69044 C 111.04984,129.66343 111.30977,126.78102 115.21842,124.8937 C 114.44008,128.6088 114.60661,132.05394 116.51788,135.00058 C 117.02756,132.23045 117.35242,129.32172 120.8494,128.79207 C 122.30704,133.03036 123.04042,143.42486 125.90284,135.7225 C 125.75817,138.70621 128.12829,141.16862 132.17656,143.45403 z "
         style="fill:#ffe000;fill-opacity:1;fill-rule:nonzero;stroke:#000000;stroke-width:0.35999997;stroke-linecap:butt;stroke-linejoin:miter;stroke-opacity:1;stroke-miterlimit:4;stroke-dasharray:none" />
      <path
         id="path2542"
         d="M 132.17656,143.45403 C 128.12829,141.16862 125.75817,138.70621 125.90284,135.7225 C 123.04042,143.42486 122.30704,133.03036 120.8494,128.79207 C 117.35242,129.32172 117.02756,132.23045 116.51788,135.00058 C 114.60661,132.05394 114.44008,128.6088 115.21842,124.8937 C 111.30977,126.78102 111.04984,129.66343 111.32006,132.69044 C 111.32006,132.69044 103.53991,127.12954 103.53991,124.14766 C 103.53991,120.66611 106.71395,119.36363 104.73864,111.71088 C 103.94707,113.3867 103.59786,115.06252 101.49729,116.73834 C 102.14968,112.29273 101.20324,108.58505 99.261664,105.33666 C 99.603347,109.55342 98.734487,112.55964 97.696727,115.39696 C 98.077773,108.30089 94.768767,104.50031 91.436983,101.5361 C 93.459425,108.15448 89.721171,112.09011 93.728497,117.36711 C 89.745124,112.73051 87.017518,114.9649 85.009567,116.45888 C 92.399744,118.28008 87.884773,126.43301 100.44934,126.44932 C 107.2882,137.05401 119.74751,142.16325 130.77463,148.45469 C 143.79169,155.88147 140.22037,167.83561 133.45428,164.92222 C 120.4591,159.32666 120.33204,142.68339 94.097087,135.45794 C 79.64804,131.47848 71.772698,126.25069 66.198956,121.11483 L 22.696785,110.23929 C 9.7508916,137.50385 37.948215,141.06276 48.230668,143.81161 C 63.181177,147.80839 79.739977,143.4067 85.407277,155.70339 C 86.52983,158.13906 86.27781,166.20175 90.005563,169.02397 C 97.674745,174.83018 106.92294,185.97434 129.65993,187.50512 C 129.06702,194.17257 126.67374,198.89299 120.12748,200.79776 C 121.16033,197.47764 109.63451,192.22186 108.80032,200.05256 C 111.91472,197.82587 114.37142,200.20309 116.69952,203.48051 C 107.04052,200.68575 106.22055,207.00627 106.71374,210.6345 C 108.72953,205.86579 112.51601,212.51099 116.55048,209.59121 C 115.9743,211.99704 116.16478,211.69518 116.63298,213.66293 C 122.23575,210.13185 131.24191,203.12003 128.7486,212.29414 C 129.83237,211.90235 130.28234,211.34796 131.01993,210.97916 C 131.68562,210.64632 132.41408,209.93071 132.93263,209.06646 C 133.27658,208.49322 133.29126,207.47111 133.29126,206.79513 C 133.29126,206.32779 134.56018,205.7653 134.84533,205.48015 C 135.40311,204.92238 135.61286,204.30373 135.92122,203.687 C 136.31181,202.90583 136.16273,202.29554 135.68214,201.65475 C 135.23928,201.06427 134.86377,200.7329 134.24761,200.57886 C 133.94113,200.50224 133.85949,200.45931 133.53035,200.45931 C 138.66809,194.1904 140.50378,186.45392 139.04644,177.25386 C 112.61332,178.94878 120.51075,161.71918 113.76527,151.6979 C 131.52811,191.06057 162.48867,160.56638 132.17656,143.45403 z "
         style="fill:#ffe000;fill-opacity:1;fill-rule:nonzero;stroke:#000000;stroke-width:0.35999997;stroke-linecap:butt;stroke-linejoin:miter;stroke-opacity:1;stroke-miterlimit:4;stroke-dasharray:none" />
      <path
         id="path2577"
         d="M 116.55048,209.59121 C 117.06389,207.96241 116.62761,206.33142 121.45643,205.5997"
         style="fill:#ffe000;fill-opacity:1;fill-rule:nonzero;stroke:#000000;stroke-width:0.35999997;stroke-linecap:butt;stroke-linejoin:miter;stroke-opacity:1;stroke-miterlimit:4;stroke-dasharray:none" />
      <path
         sodipodi:nodetypes="cccccccccccccccccccccccccsccc"
         id="path1610"
         d="M 63.459092,76.661688 C 70.037537,78.747449 77.344539,84.804601 79.76051,97.42659 C 89.781434,96.8699 86.781967,113.21571 77.431736,105.18917 C 81.589888,109.31937 73.503531,123.58905 72.968252,114.69833 C 72.739419,118.50187 65.925883,128.2378 66.370059,119.16181 C 66.985863,121.64823 57.549871,133.86134 58.607479,124.40156 C 57.990356,127.88495 49.359629,133.96464 51.233028,126.3422 C 51.193068,128.34298 43.510561,132.99627 42.500126,127.89472 C 38.571888,128.4306 31.753818,129.05101 37.260384,125.37188 C 32.719601,126.35271 29.76921,126.00822 28.333417,124.40156 L 32.990965,121.29652 C 29.474728,122.18362 26.236836,122.51403 24.258063,120.3262 L 28.527482,116.83304 C 26.015388,117.17819 23.37028,118.0554 21.347095,116.44491 L 24.258063,112.56362 L 19.40645,112.36956 L 23.093676,107.51794 L 18.630192,107.32388 C 19.941763,103.74927 22.030381,100.00554 27.363095,99.949428 L 19.794579,99.17317 C 23.211017,96.214565 26.376298,92.711785 32.796901,96.262203 L 28.836432,91.604655 C 33.613662,90.932533 36.815524,91.761704 39.006965,94.709687 L 39.201029,91.022461 C 41.949621,90.953844 44.863466,91.87674 48.127996,94.903751 C 50.42268,102.01349 55.984779,97.21289 53.367738,94.709687 C 49.953395,91.443864 48.358447,92.799365 51.233028,89.858074 C 61.891401,102.44512 69.675834,88.530446 58.801544,85.394591 C 57.85822,80.700881 60.926649,78.872708 63.459092,76.661688 z "
         style="fill:#ffe000;fill-opacity:1;fill-rule:evenodd;stroke:#000000;stroke-width:0.35999997;stroke-linecap:butt;stroke-linejoin:miter;stroke-opacity:1;stroke-miterlimit:4;stroke-dasharray:none" />
      <path
         sodipodi:nodetypes="cc"
         id="path1613"
         d="M 77.990642,100.26769 C 79.948058,99.320164 83.610031,99.911275 81.949558,104.22661"
         style="fill:none;fill-opacity:0.75;fill-rule:evenodd;stroke:#000000;stroke-width:0.35999997;stroke-linecap:butt;stroke-linejoin:miter;stroke-opacity:1;stroke-miterlimit:4;stroke-dasharray:none" />
      <path
         sodipodi:nodetypes="cc"
         id="path1617"
         d="M 66.835814,80.418777 C 64.666531,80.688618 62.604829,80.635715 61.10703,78.891101"
         style="fill:none;fill-opacity:0.75;fill-rule:evenodd;stroke:#000000;stroke-width:0.35999997;stroke-linecap:butt;stroke-linejoin:miter;stroke-opacity:1;stroke-miterlimit:4;stroke-dasharray:none" />
      <path
         transform="matrix(1.430801,0,0,1.430801,-31.09639,-38.6481)"
         d="M 73.455741 89.712135 A 1.2730632 1.2730632 0 1 1  70.909615,89.712135 A 1.2730632 1.2730632 0 1 1  73.455741 89.712135 z"
         sodipodi:ry="1.2730632"
         sodipodi:rx="1.2730632"
         sodipodi:cy="89.712135"
         sodipodi:cx="72.182678"
         id="path1619"
         style="opacity:1;color:#000000;fill:#ff0000;fill-opacity:1;fill-rule:evenodd;stroke:#000000;stroke-width:0.2516073;stroke-linecap:square;stroke-linejoin:miter;marker:none;marker-start:none;marker-mid:none;marker-end:none;stroke-miterlimit:4;stroke-dasharray:none;stroke-dashoffset:0;stroke-opacity:1;visibility:visible;display:inline;overflow:visible"
         sodipodi:type="arc" />
      <path
         transform="matrix(1.8,0,0,1.8,-57.33876,-71.05679)"
         d="M 72.309986 88.820992 A 0.63653159 0.63653159 0 1 1  71.036923,88.820992 A 0.63653159 0.63653159 0 1 1  72.309986 88.820992 z"
         sodipodi:ry="0.63653159"
         sodipodi:rx="0.63653159"
         sodipodi:cy="88.820992"
         sodipodi:cx="71.673454"
         id="path2494"
         style="opacity:1;color:#000000;fill:#000000;fill-opacity:1;fill-rule:evenodd;stroke:none;stroke-width:0.19999998;stroke-linecap:square;stroke-linejoin:miter;marker:none;marker-start:none;marker-mid:none;marker-end:none;stroke-miterlimit:4;stroke-dasharray:none;stroke-dashoffset:0;stroke-opacity:1;visibility:visible;display:inline;overflow:visible"
         sodipodi:type="arc" />
      <path
         sodipodi:nodetypes="ccc"
         id="path2496"
         d="M 70.273085,84.619885 C 72.396355,87.179691 75.081644,88.503053 75.61995,94.549778 C 74.213584,94.449915 73.181802,95.286514 71.164229,93.658633"
         style="fill:none;fill-opacity:0.75;fill-rule:evenodd;stroke:#000000;stroke-width:0.35999997;stroke-linecap:butt;stroke-linejoin:miter;stroke-opacity:1;stroke-miterlimit:4;stroke-dasharray:none" />
      <path
         id="path2498"
         d="M 78.5625,91.4375 C 78.415931,91.446651 78.274843,91.45537 78.125,91.46875 C 78.804814,93.269966 79.332868,95.258235 79.75,97.4375 C 81.726783,97.327684 83.204112,97.861177 84.21875,98.75 C 85.246535,92.565434 82.513766,91.190792 78.5625,91.4375 z "
         style="fill:#ffe000;fill-opacity:1;fill-rule:evenodd;stroke:#000000;stroke-width:0.35999997;stroke-linecap:butt;stroke-linejoin:miter;stroke-opacity:1;stroke-miterlimit:4;stroke-dasharray:none" />
      <path
         sodipodi:nodetypes="cc"
         id="path2508"
         d="M 17.551193,37.532075 C 15.895564,39.974924 18.763188,41.093553 16.442697,44.183053"
         style="fill:none;fill-opacity:0.75;fill-rule:evenodd;stroke:#000000;stroke-width:0.35999997;stroke-linecap:butt;stroke-linejoin:miter;stroke-opacity:1;stroke-miterlimit:4;stroke-dasharray:none" />
      <path
         sodipodi:nodetypes="cc"
         id="path2522"
         d="M 72.191994,141.20909 C 79.228287,144.63319 82.773867,150.27866 85.619705,156.36941"
         style="fill:none;fill-opacity:0.75;fill-rule:evenodd;stroke:#000000;stroke-width:0.35999997;stroke-linecap:butt;stroke-linejoin:miter;stroke-opacity:1;stroke-miterlimit:4;stroke-dasharray:none" />
    </g>
    <g
       id="g2687"
       transform="scale(2.777778,2.777778)"
       style="stroke:#000000;stroke-opacity:1;stroke-width:0.35999997;stroke-miterlimit:4;stroke-dasharray:none">
      <path
         id="path2614"
         d="M 173.59375,86.34375 C 175.63255,91.340267 174.4375,95.68918 174.4375,101.34375 C 174.4375,113.29838 176.92385,123.7907 193.5625,132.125 C 194.3116,141.97995 188.6312,154.57637 186.53125,144.59375 C 184.14118,140.75986 181.31168,138.54967 177.4375,140.28125 C 179.5109,141.52676 180.96524,143.07893 180.8125,145.4375 C 176.18574,141.80834 173.93905,144.64198 171.875,147.96875 C 176.30215,145.50673 178.10387,149.02884 178.15625,151.4375 C 178.19116,153.04306 176.23485,154.48742 177.3125,156.34375 C 180.81267,150.70797 182.38749,156.34375 185.28125,156.34375 C 187.44332,156.34375 188.3746,155.84878 189.0625,154.53125 C 189.33699,156.334 190.3021,157.74498 193.8125,157.75 C 191.15097,159.91147 191.85312,161.31332 193.15625,162.59375 C 195.82949,160.16579 200.27462,156.54127 194.71875,152.25 C 202.7927,145.00671 203.24693,135.71148 204.21875,126.53125 C 188.30751,121.53314 201.71703,95.371222 192.5,86.71875 C 201.5763,85.253735 205.5625,79.648998 205.5625,73.3125 C 205.5625,64.760985 194.60274,62.706836 200.125,54.375 C 197.2176,54.727879 195.73715,56.50812 195.3125,59.34375 C 193.47048,56.162721 193.11036,52.477003 193.75,48.46875 C 191.51448,49.919923 190.51083,52.362829 190.34375,55.46875 C 188.37144,53.77504 185.83524,53.464088 186.625,45.0625 C 184.21099,47.443026 183.39149,49.838225 183.03125,52.21875 C 172.60512,46.087425 174.60672,38.956706 179.78125,31.59375 C 186.4462,34.885084 191.23626,30.782761 196.5625,32.09375 C 196.55364,28.72626 194.02436,28.308416 190.96875,28.46875 C 195.9787,27.484971 194.58068,23.612301 201.96875,24.09375 C 199.74354,21.916332 196.77475,20.728014 191.59375,22.3125 C 196.10907,19.925228 194.02592,16.707379 200.6875,15.5625 C 197.83327,15.250321 195.2227,13.113334 191.75,16.34375 C 189.17048,18.743298 185.05589,19.431682 181.4375,20.65625 C 186.30282,18.556447 187.04332,14.814065 187.375,11.125 C 185.80289,16.260015 169.62691,16.855824 178.21875,29.46875 C 169.14893,36.551328 165.5301,49.273994 185.1875,58.59375 C 192.79923,62.20254 200.3125,68.987227 200.3125,75.03125 C 200.3125,80.26814 191.735,84.257647 187.375,78.75 C 180.01056,69.447079 164.21712,74.16952 145.53125,58.1875 C 144.68371,63.305541 141.78889,67.065629 139.96875,60.9375 C 140.89055,68.433915 130.81703,73.15321 131.53125,66.28125 C 131.09905,67.984893 128.00095,71.901323 126.34375,71.6875 C 125.57248,71.563158 125.08949,70.517649 125.375,67.875 C 124.86384,69.470837 121.25371,73.190506 119.65625,72.96875 C 119.5887,72.957141 119.49721,72.933008 119.4375,72.90625 C 119.41242,72.893821 119.36727,72.859112 119.34375,72.84375 C 119.28246,72.800132 119.20543,72.721893 119.15625,72.65625 C 118.78746,72.125395 118.78747,70.897387 119.46875,68.65625 C 117.06391,72.462317 114.12305,74.442114 110.3125,73.46875 C 110.11724,72.164799 111.29862,70.866449 112.4375,69.5625 C 110.43697,71.380641 108.5775,72.309599 106.84375,72.59375 C 113.35793,79.947634 124.48227,86.620648 134.9375,86.59375 C 145.97009,86.56537 154.15899,84.34375 162.5,84.34375 C 168.24595,84.343751 170.12616,85.290787 173.59375,86.34375 z "
         style="fill:#ffe000;fill-opacity:1;fill-rule:nonzero;stroke:#000000;stroke-width:0.35999997;stroke-linecap:butt;stroke-linejoin:miter;stroke-opacity:1;stroke-miterlimit:4;stroke-dasharray:none" />
      <path
         id="path2596"
         d="M 165.43559,79.84375 C 168.41543,81.279342 171.89652,82.247396 173.59375,86.34375"
         style="fill:none;fill-opacity:1;fill-rule:nonzero;stroke:#000000;stroke-width:0.35999997;stroke-linecap:butt;stroke-linejoin:miter;stroke-opacity:1;stroke-miterlimit:4;stroke-dasharray:none" />
      <path
         id="path2565"
         d="M 150.1875,18.75 C 149.04351,18.850933 147.80716,19.423373 146.75,20.5 C 147.98583,21.595252 148.94971,22.830404 149.59375,24.1875 C 151.16979,23.922159 152.50278,23.929978 153.59375,24.15625 C 154.76022,20.541092 152.70628,18.527771 150.1875,18.75 z "
         style="fill:#ffe000;fill-opacity:1;fill-rule:evenodd;stroke:#000000;stroke-width:0.35999997;stroke-linecap:butt;stroke-linejoin:miter;stroke-opacity:1;stroke-miterlimit:4;stroke-dasharray:none" />
      <path
         sodipodi:nodetypes="ccccc"
         id="path2575"
         d="M 128.28129,20.308462 C 125.23076,23.657259 123.24521,27.386406 124.00256,32.095163 L 135.6278,35.082204 L 137.08095,24.183542 L 128.28129,20.308462 z "
         style="fill:#ffffff;fill-opacity:1;fill-rule:evenodd;stroke:#000000;stroke-width:0.35999997;stroke-linecap:butt;stroke-linejoin:miter;stroke-opacity:1;stroke-miterlimit:4;stroke-dasharray:none" />
      <path
         sodipodi:nodetypes="ccc"
         id="path2563"
         d="M 134.41684,31.72256 C 110.35469,20.652895 122.76216,21.83363 116.60948,13.570542 C 125.32485,14.799299 115.27937,19.072213 134.41684,31.72256 z "
         style="fill:#ff0000;fill-opacity:1;fill-rule:evenodd;stroke:#000000;stroke-width:0.35999997;stroke-linecap:butt;stroke-linejoin:miter;stroke-opacity:1;stroke-miterlimit:4;stroke-dasharray:none" />
      <path
         style="fill:#ffe000;fill-opacity:1;fill-rule:evenodd;stroke:#000000;stroke-width:0.35999997;stroke-linecap:butt;stroke-linejoin:miter;stroke-opacity:1;stroke-miterlimit:4;stroke-dasharray:none"
         d="M 119.47542,68.65381 C 116.6624,77.907537 125.17251,69.738438 125.41845,67.62915 C 124.32442,76.673994 131.41488,68.176259 131.56642,65.989693 C 130.45234,73.826994 142.45863,67.776251 139.55877,59.226933 C 141.99669,70.968995 147.44742,58.773849 145.29687,51.644445 C 148.69884,63.580002 151.55419,49.760326 149.60044,45.29155 C 153.18779,53.250783 154.88354,43.538643 150.42017,38.938654 C 155.04023,42.836049 154.05591,37.218636 152.26456,33.200555 C 159.54669,33.022217 159.94576,22.441817 149.60044,24.183542 C 146.94116,18.580049 138.65627,15.367264 129.54348,13.235199 C 126.52522,16.586573 123.5618,21.039379 130.47655,23.317238 C 138.95431,26.109985 131.59453,35.956837 123.82557,30.163834 C 122.6406,31.050703 122.33069,32.229261 122.29324,33.498638 C 132.75325,33.487303 130.1676,42.806712 123.59269,39.707149 C 119.44562,36.190012 116.06312,37.664827 120.8494,41.439757 C 117.31597,39.073014 108.35079,38.244039 113.19705,43.749901 C 109.82809,43.716885 106.45913,43.640807 103.09017,45.482509 C 105.4553,45.475654 107.64242,45.646808 108.86553,46.781965 C 104.70439,46.802669 101.31015,47.654176 100.50368,51.309102 C 102.71694,51.150214 104.02368,51.71654 104.83209,52.681526 C 101.03344,52.316331 99.00701,55.938613 97.442115,60.599357 C 99.166443,59.170059 100.89077,58.617187 102.6151,58.593507 C 99.755831,61.479981 97.607831,64.579836 97.547686,68.306047 C 99.101437,68.010832 100.49822,67.087732 101.77053,65.66677 C 103.44097,67.90992 102.77132,69.651621 100.50368,71.050895 C 104.05404,73.175737 107.8697,73.775106 112.53878,69.467329 C 111.37427,70.804563 110.12155,72.141796 110.32179,73.47903 C 114.13234,74.452391 117.07058,72.459877 119.47542,68.65381 z "
         id="path2567"
         sodipodi:nodetypes="ccccccccccsccccccccccccccccc" />
      <path
         sodipodi:nodetypes="cc"
         id="path2553"
         d="M 126.50056,17.73439 C 127.70289,16.73905 130.02766,16.446974 132.49016,16.459775"
         style="fill:none;fill-opacity:0.75;fill-rule:evenodd;stroke:#000000;stroke-width:0.35999997;stroke-linecap:butt;stroke-linejoin:miter;stroke-opacity:1;stroke-miterlimit:4;stroke-dasharray:none" />
      <path
         sodipodi:nodetypes="cc"
         id="path2555"
         d="M 148.87387,26.877157 C 153.09966,24.806926 155.2817,27.028156 154.65078,30.002372"
         style="fill:none;fill-opacity:0.75;fill-rule:evenodd;stroke:#000000;stroke-width:0.35999997;stroke-linecap:butt;stroke-linejoin:miter;stroke-opacity:1;stroke-miterlimit:4;stroke-dasharray:none" />
      <path
         sodipodi:type="arc"
         style="color:#000000;fill:#ff0000;fill-opacity:1;fill-rule:evenodd;stroke:#000000;stroke-width:0.2516073;stroke-linecap:square;stroke-linejoin:miter;marker:none;marker-start:none;marker-mid:none;marker-end:none;stroke-miterlimit:4;stroke-dasharray:none;stroke-dashoffset:0;stroke-opacity:1;visibility:visible;display:inline;overflow:visible"
         id="path2557"
         sodipodi:cx="72.182678"
         sodipodi:cy="89.712135"
         sodipodi:rx="1.2730632"
         sodipodi:ry="1.2730632"
         d="M 73.455741 89.712135 A 1.2730632 1.2730632 0 1 1  70.909615,89.712135 A 1.2730632 1.2730632 0 1 1  73.455741 89.712135 z"
         transform="matrix(1.430801,0,0,1.430801,37.13514,-105.6671)" />
      <path
         sodipodi:type="arc"
         style="color:#000000;fill:#000000;fill-opacity:1;fill-rule:evenodd;stroke:none;stroke-width:0.19999998;stroke-linecap:square;stroke-linejoin:miter;marker:none;marker-start:none;marker-mid:none;marker-end:none;stroke-miterlimit:4;stroke-dasharray:none;stroke-dashoffset:0;stroke-opacity:1;visibility:visible;display:inline;overflow:visible"
         id="path2559"
         sodipodi:cx="71.673454"
         sodipodi:cy="88.820992"
         sodipodi:rx="0.63653159"
         sodipodi:ry="0.63653159"
         d="M 72.309986 88.820992 A 0.63653159 0.63653159 0 1 1  71.036923,88.820992 A 0.63653159 0.63653159 0 1 1  72.309986 88.820992 z"
         transform="matrix(1.8,0,0,1.8,10.56208,-137.5247)" />
      <path
         sodipodi:nodetypes="ccc"
         id="path2561"
         d="M 137.1741,18.395762 C 140.38845,20.313612 143.8573,21.913328 145.90545,25.288933 C 143.85671,25.327254 143.49623,26.040879 142.91841,26.667568"
         style="fill:none;fill-opacity:0.75;fill-rule:evenodd;stroke:#000000;stroke-width:0.35999997;stroke-linecap:butt;stroke-linejoin:miter;stroke-opacity:1;stroke-miterlimit:4;stroke-dasharray:none" />
      <path
         sodipodi:nodetypes="ccsssccsssssssssscccsccccccccccsssssssscc"
         id="path2581"
         d="M 98.0625,14.96875 C 97.626419,14.997018 97.174203,15.063639 96.71875,15.125 C 97.709945,15.468163 98.317799,15.833348 98.625,16.21875 C 98.687976,16.301616 98.742614,16.414479 98.78125,16.5 C 98.861427,16.690737 98.894605,16.919083 98.875,17.125 C 98.665848,18.934027 95.197282,21.397773 97.28125,25.375 C 93.739958,19.828027 90.005196,15.933657 85.15625,21.96875 C 86.937315,21.052847 89.687501,21.15622 89.6875,22.75 C 89.6875,23.58201 89.224664,24.046745 89.125,24.65625 C 89.111947,24.746551 89.119124,24.869935 89.125,24.96875 C 89.163684,25.448027 89.442074,26.063051 90.28125,26.96875 C 91.932722,28.75114 92.178244,29.974759 91.75,30.65625 C 91.73394,30.680425 91.705257,30.727195 91.6875,30.75 C 91.675295,30.7649 91.637924,30.798206 91.625,30.8125 C 91.611725,30.826491 91.576463,30.861613 91.5625,30.875 C 91.548201,30.888086 91.514955,30.925016 91.5,30.9375 C 91.477086,30.955775 91.43056,30.983074 91.40625,31 C 90.126981,31.851328 87.058337,30.915153 87,28.5 C 85.92065,30.835621 85.629316,32.820409 86.75,34 C 87.780999,35.054463 89.986014,35.462458 93.78125,34.90625 C 87.719068,36.508751 86.692469,67.890278 90.875,70.8125 C 93.110786,72.374583 97.307282,71.928027 101.8125,71.75 C 101.37041,71.542326 100.93313,71.32172 100.5,71.0625 C 102.76764,69.663226 103.45169,67.899399 101.78125,65.65625 C 100.50894,67.077212 99.116253,68.017286 97.5625,68.3125 C 97.622645,64.586289 99.765734,61.480225 102.625,58.59375 C 100.90067,58.61743 99.161827,59.164451 97.4375,60.59375 C 99.002395,55.933006 101.0451,52.322305 104.84375,52.6875 C 104.03534,51.722514 102.71326,51.153613 100.5,51.3125 C 100.72682,50.284552 101.1543,49.472074 101.75,48.84375 C 93.902365,12.127675 111.09551,44.925535 110.34375,22.375 C 109.58752,23.882196 108.98519,24.699778 108.46875,25.0625 C 108.40455,25.105874 108.3119,25.157312 108.25,25.1875 C 108.206,25.207776 108.13673,25.235935 108.09375,25.25 C 108.05952,25.260294 108.00241,25.274672 107.96875,25.28125 C 107.93522,25.286928 107.87678,25.279052 107.84375,25.28125 C 107.81084,25.282608 107.75124,25.283136 107.71875,25.28125 C 107.69446,25.279249 107.64909,25.284956 107.625,25.28125 C 107.60097,25.276993 107.55511,25.255856 107.53125,25.25 C 106.24565,24.905965 105.1516,22.325636 102.375,23.78125 C 103.85814,15.848371 101.34765,14.755799 98.0625,14.96875 z "
         style="fill:#ffe000;fill-opacity:1;fill-rule:evenodd;stroke:#000000;stroke-width:0.35999997;stroke-linecap:butt;stroke-linejoin:miter;stroke-opacity:1;stroke-miterlimit:4;stroke-dasharray:none" />
      <path
         id="path2586"
         d="M 70.34375,15.53125 C 72.188295,19.42126 72.771234,22.533174 67.53125,22.09375 C 65.089008,12.857191 60.900426,15.483395 56.5,19.5625 C 59.420295,19.216964 61.713238,19.612886 61.09375,23.59375 C 55.496983,23.411914 53.384664,25.225812 53.34375,28.21875 C 53.577502,28.043436 53.64682,27.89534 53.9375,27.75 C 54.552195,27.442653 55.208164,27.067666 56.1875,27.3125 C 57.258665,27.580291 57.418123,27.793121 58.125,28.5 C 58.746535,29.121535 58.893826,30.023186 59.53125,30.28125 C 59.54475,30.286346 59.579796,30.307976 59.59375,30.3125 C 59.636312,30.325196 59.702952,30.336577 59.75,30.34375 C 59.781895,30.347889 59.840896,30.342264 59.875,30.34375 C 59.935687,30.345153 60.025588,30.351134 60.09375,30.34375 C 60.172942,30.333811 60.284829,30.303793 60.375,30.28125 C 60.538263,30.195138 62.472362,29.066924 62.84375,29.0625 C 62.846561,29.062828 62.872449,29.061984 62.875,29.0625 C 62.877929,29.065101 62.904464,29.090327 62.90625,29.09375 C 62.90625,29.434001 62.906248,30.710586 62.90625,31.5 C 62.90625,32.032414 62.88045,32.424769 62.96875,32.71875 C 63.080681,33.055654 63.347856,33.290089 63.9375,33.4375 C 64.708299,33.6302 64.943307,34.550883 64.53125,35.375 C 64.071367,36.294766 63.882771,36.687501 62.59375,36.6875 C 61.919864,36.6875 61.024922,36.849981 60.375,36.6875 C 60.176278,36.637819 59.979972,36.612181 59.78125,36.5625 C 64.021823,42.499968 66.255382,38.843108 68.5625,35.5 C 73.746187,43.840942 75.319876,54.9301 88.34375,57.3125 C 88.33551,53.131619 88.654136,48.627611 89.3125,44.75 C 87.461233,42.352384 84.143503,38.779764 78.84375,35.5 C 60.334296,24.045379 84.822585,24.772311 70.34375,15.53125 z "
         style="fill:#ffe000;fill-opacity:1;fill-rule:evenodd;stroke:#000000;stroke-width:0.35999997;stroke-linecap:butt;stroke-linejoin:miter;stroke-opacity:1;stroke-miterlimit:4;stroke-dasharray:none" />
      <path
         id="path2604"
         d="M 139.625,59.5 C 139.65925,59.656753 139.71466,59.789685 139.75,59.9375 C 139.71381,59.793053 139.66969,59.646049 139.625,59.5 z "
         style="fill:#ffe000;fill-opacity:1;fill-rule:nonzero;stroke:#000000;stroke-width:0.35999997;stroke-linecap:butt;stroke-linejoin:miter;stroke-opacity:1;stroke-miterlimit:4;stroke-dasharray:none" />
      <path
         id="path2602"
         d="M 139.75,60 C 139.8073,60.236816 139.84633,60.473424 139.90625,60.6875 C 139.87014,60.449965 139.80895,60.24255 139.75,60 z "
         style="fill:#ffe000;fill-opacity:1;fill-rule:nonzero;stroke:#000000;stroke-width:0.35999997;stroke-linecap:butt;stroke-linejoin:miter;stroke-opacity:1;stroke-miterlimit:4;stroke-dasharray:none" />
      <path
         id="path2600"
         d="M 125.40625,67.75 C 125.39967,67.777387 125.38371,67.814862 125.375,67.84375 C 125.37854,67.811298 125.40249,67.782931 125.40625,67.75 z "
         style="fill:#ffe000;fill-opacity:1;fill-rule:nonzero;stroke:#000000;stroke-width:0.35999997;stroke-linecap:butt;stroke-linejoin:miter;stroke-opacity:1;stroke-miterlimit:4;stroke-dasharray:none" />
      <path
         id="path2618"
         d="M 166.625,84.5625 C 163.45181,89.722616 152.15625,88.827858 152.15625,100.4375 C 152.15625,107.82711 154.09811,105.44089 153.15625,112.59375 C 146.98528,110.00498 142.36055,106.09061 137.46875,102.6875 C 133.59956,99.995787 138.3125,98.679479 138.3125,94.65625 C 138.3125,91.274458 135.92607,90.114016 133.21875,90.125 C 136.37522,94.065007 131.1491,94.386651 132.0625,98.90625 C 128.95489,91.522978 125.69929,88.824501 122.21875,93.375 C 127.74841,94.690344 122.73539,97.791385 129.0625,100.375 C 126.34183,99.340073 124.79513,99.178405 123.90625,99.53125 C 123.84011,99.558791 123.74655,99.591544 123.6875,99.625 C 123.66261,99.639691 123.61741,99.671766 123.59375,99.6875 C 122.48522,100.45381 122.7391,102.4017 122.375,104.3125 C 122.54892,104.09511 122.73233,103.90489 122.90625,103.6875 C 122.91163,103.68078 122.93163,103.66284 122.9375,103.65625 C 122.95018,103.64332 122.98549,103.60618 123,103.59375 C 123.45359,103.23422 124.67692,103.07087 125.1875,102.96875 C 125.19178,102.96847 125.21445,102.96876 125.21875,102.96875 C 125.22308,102.96902 125.24565,102.96822 125.25,102.96875 C 125.26318,102.97191 125.29914,102.99458 125.3125,103 C 125.31697,103.00205 125.33926,102.99771 125.34375,103 C 125.35276,103.00505 125.36593,103.02529 125.375,103.03125 C 125.88461,103.38994 126.49677,105.13257 126.59375,105.375 C 126.59597,105.38055 126.59136,105.4008 126.59375,105.40625 C 126.60142,105.42228 126.61587,105.45363 126.625,105.46875 C 126.6282,105.47369 126.65289,105.49516 126.65625,105.5 C 126.66327,105.50949 126.67987,105.52214 126.6875,105.53125 C 127.15076,106.05297 128.62374,105.9375 129.28125,105.9375 C 130.17236,105.95893 131.08954,107.33954 131.53125,107.78125 C 131.53696,107.78696 131.55705,107.8067 131.5625,107.8125 C 131.56769,107.81839 131.58881,107.83778 131.59375,107.84375 C 131.61249,107.86795 131.64142,107.91208 131.65625,107.9375 C 131.67014,107.96321 131.67728,108.0045 131.6875,108.03125 C 131.69216,108.04475 131.71496,108.08003 131.71875,108.09375 C 131.72212,108.10758 131.71622,108.14222 131.71875,108.15625 C 131.72513,108.19863 131.7506,108.26869 131.75,108.3125 C 131.74943,108.32717 131.72003,108.36022 131.71875,108.375 C 131.65028,108.99792 130.96933,109.72087 130.5625,109.875 C 130.5344,109.8841 130.49354,109.90321 130.46875,109.90625 C 130.46472,109.90658 130.44142,109.9061 130.4375,109.90625 C 130.43379,109.90604 130.40984,109.90664 130.40625,109.90625 C 129.94828,109.82993 129.30099,109.44022 128.90625,109.03125 C 128.82772,108.94724 128.74223,108.83483 128.6875,108.75 C 128.67028,108.72178 128.63898,108.68419 128.625,108.65625 C 131.21602,120.21076 132.34122,104.59306 143.96875,117.09375 C 148.648,122.12439 149.22904,123.23365 150.75,125.03125 C 155.61504,130.78117 161.06461,118.5776 163.03125,112.4375 C 165.23505,105.55693 168.91775,101.16354 174.46875,99.5 C 174.6564,94.711557 175.40564,90.784164 173.59375,86.34375 C 171.11948,85.592417 169.46395,84.9004 166.625,84.5625 z M 128.625,108.65625 C 128.61568,108.63762 128.60153,108.6122 128.59375,108.59375 C 128.59908,108.61769 128.61968,108.63254 128.625,108.65625 z "
         style="fill:#ffe000;fill-opacity:1;fill-rule:evenodd;stroke:#000000;stroke-width:0.35999997;stroke-linecap:butt;stroke-linejoin:miter;stroke-opacity:1;stroke-miterlimit:4;stroke-dasharray:none" />
      <path
         id="path2623"
         d="M 166.625,84.5625 C 165.64577,86.15488 163.89307,87.171674 161.9375,88.15625 C 166.74149,88.614868 170.96445,90.254517 174.78125,92.6875 C 174.75799,90.586708 174.48554,88.529266 173.59375,86.34375 C 171.11948,85.592417 169.46395,84.9004 166.625,84.5625 z "
         style="fill:#ff0000;fill-opacity:1;fill-rule:evenodd;stroke:#000000;stroke-width:0.35999997;stroke-linecap:butt;stroke-linejoin:miter;stroke-opacity:1;stroke-miterlimit:4;stroke-dasharray:none" />
    </g>
  </g>
</svg>
