<?xml version="1.0" encoding="UTF-8" standalone="no"?>
<!-- Created with Inkscape (http://www.inkscape.org/) -->
<svg
   xmlns:dc="http://purl.org/dc/elements/1.1/"
   xmlns:cc="http://web.resource.org/cc/"
   xmlns:rdf="http://www.w3.org/1999/02/22-rdf-syntax-ns#"
   xmlns:svg="http://www.w3.org/2000/svg"
   xmlns="http://www.w3.org/2000/svg"
   xmlns:xlink="http://www.w3.org/1999/xlink"
   xmlns:sodipodi="http://inkscape.sourceforge.net/DTD/sodipodi-0.dtd"
   xmlns:inkscape="http://www.inkscape.org/namespaces/inkscape"
   width="600"
   height="600"
   id="svg2"
   sodipodi:version="0.32"
   inkscape:version="0.43"
   version="1.0"
   sodipodi:docbase="C:\Documents and Settings\David Nelson\Archives\Svg"
   sodipodi:docname="Flag_of_Canton_of_Glarus.svg">
  <defs
     id="defs4" />
  <sodipodi:namedview
     id="base"
     pagecolor="#ffffff"
     bordercolor="#666666"
     borderopacity="1.0"
     inkscape:pageopacity="0.0"
     inkscape:pageshadow="2"
     inkscape:zoom="0.62166667"
     inkscape:cx="300"
     inkscape:cy="300"
     inkscape:document-units="px"
     inkscape:current-layer="layer1"
     showguides="true"
     inkscape:guide-bbox="true"
     inkscape:window-width="756"
     inkscape:window-height="540"
     inkscape:window-x="30"
     inkscape:window-y="15" />
  <metadata
     id="metadata7">
    <rdf:RDF>
      <cc:Work
         rdf:about="">
        <dc:format>image/svg+xml</dc:format>
        <dc:type
           rdf:resource="http://purl.org/dc/dcmitype/StillImage" />
      </cc:Work>
    </rdf:RDF>
  </metadata>
  <g
     inkscape:label="Layer 1"
     inkscape:groupmode="layer"
     id="layer1">
    <g
       id="g2337"
       transform="scale(2.34375,2.34375)">
      <rect
         y="0"
         x="0"
         height="256"
         width="256"
         id="rect2303"
         style="opacity:1;color:#000000;fill:#ff0000;fill-opacity:1;fill-rule:evenodd;stroke:none;stroke-width:1;stroke-linecap:butt;stroke-linejoin:miter;marker:none;marker-start:none;marker-mid:none;marker-end:none;stroke-miterlimit:4;stroke-dasharray:none;stroke-dashoffset:0;stroke-opacity:1;visibility:visible;display:inline;overflow:visible" />
      <g
         id="g2305">
        <path
           style="fill:#ffff00;fill-opacity:1;fill-rule:evenodd;stroke:#000000;stroke-width:1.00000024;stroke-linecap:butt;stroke-linejoin:miter;stroke-miterlimit:4;stroke-dasharray:none;stroke-opacity:1"
           d="M 53.4375,28.534456 L 49.5,29.131996 L 81.75,243.93208 L 85.71875,243.33454 L 53.4375,28.534456 z "
           id="path2299" />
        <path
           sodipodi:type="arc"
           style="opacity:1;color:#000000;fill:#ffff00;fill-opacity:1;fill-rule:evenodd;stroke:#000000;stroke-width:0.49281913;stroke-linecap:butt;stroke-linejoin:miter;marker:none;marker-start:none;marker-mid:none;marker-end:none;stroke-miterlimit:4;stroke-dasharray:none;stroke-dashoffset:0;stroke-opacity:1;visibility:visible;display:inline;overflow:visible"
           id="path2291"
           sodipodi:cx="154.61127"
           sodipodi:cy="36.643978"
           sodipodi:rx="27.776926"
           sodipodi:ry="27.776926"
           d="M 182.38819 36.643978 A 27.776926 27.776926 0 1 1  126.83434,36.643978 A 27.776926 27.776926 0 1 1  182.38819 36.643978 z"
           transform="matrix(1.014571,0,0,1.014571,-1.640121,-0.53394)" />
        <path
           transform="matrix(0.722556,0,0,0.722556,43.50854,10.16662)"
           d="M 182.38819 36.643978 A 27.776926 27.776926 0 1 1  126.83434,36.643978 A 27.776926 27.776926 0 1 1  182.38819 36.643978 z"
           sodipodi:ry="27.776926"
           sodipodi:rx="27.776926"
           sodipodi:cy="36.643978"
           sodipodi:cx="154.61127"
           id="path2293"
           style="opacity:1;color:#000000;fill:#000000;fill-opacity:1;fill-rule:evenodd;stroke:none;stroke-width:0.64597231;stroke-linecap:butt;stroke-linejoin:miter;marker:none;marker-start:none;marker-mid:none;marker-end:none;stroke-miterlimit:4;stroke-dasharray:none;stroke-dashoffset:0;stroke-opacity:1;visibility:visible;display:inline;overflow:visible"
           sodipodi:type="arc" />
        <path
           style="fill:#000000;fill-opacity:1;fill-rule:evenodd;stroke:none;stroke-width:0.5;stroke-linecap:butt;stroke-linejoin:miter;stroke-miterlimit:4;stroke-dasharray:none;stroke-opacity:1"
           d="M 156.03125,44.46875 C 150.38866,44.250322 144.54294,47.138373 141.5625,53.78125 C 131.13985,77.011484 108.26506,89.576561 77.75,94.625 L 79.875,108.96875 C 97.934539,108.73586 114.81649,106.17245 131.15625,102.5 L 111.90625,227.90625 L 174.09375,227.90625 L 174.09375,234.71875 C 165.88048,240.07669 158.25768,245.23038 160.0625,253.59375 C 166.9184,253.59375 179.43314,244.98982 189.125,240.6875 L 187.6875,227.90625 L 189,227.90625 L 177.84375,110.84375 C 203.85169,110.84375 204.44634,114.71605 189.5625,70.96875 C 186.23714,61.194698 182.3558,57.149177 169.375,53.78125 C 167.11942,48.012083 161.67384,44.687178 156.03125,44.46875 z "
           id="path2237" />
        <path
           style="fill:#ffff00;fill-opacity:1;fill-rule:evenodd;stroke:none;stroke-width:1px;stroke-linecap:butt;stroke-linejoin:miter;stroke-opacity:1"
           d="M 165.28125,48.03125 C 163.00714,56.146644 160.42668,60.281248 154.625,60.28125 C 148.95465,60.28125 146.77036,55.701837 144.59375,49.1875 C 143.4222,50.451948 142.37374,51.973142 141.5625,53.78125 C 141.34577,54.264293 141.13372,54.744912 140.90625,55.21875 C 147.70702,65.139774 164.83668,65.535689 170.09375,53.96875 C 169.86312,53.90687 169.61163,53.842645 169.375,53.78125 C 168.46454,51.45255 167.03743,49.519238 165.28125,48.03125 z "
           id="path2235" />
        <path
           style="fill:#ffffff;fill-opacity:1;fill-rule:evenodd;stroke:#000000;stroke-width:0.5;stroke-linecap:butt;stroke-linejoin:miter;stroke-miterlimit:4;stroke-dasharray:none;stroke-opacity:1"
           d="M 79.875,108.96875 L 77.75,94.625 C 77.729346,94.628417 77.708161,94.62159 77.6875,94.625 L 56.9375,94.625 C 55.734433,94.624999 55.71875,95.809627 55.71875,98 C 55.096793,97.999997 54.625,98.14602 54.625,98.875 L 54.625,100.46875 C 54.624999,101.19834 54.904067,101.59375 55.71875,101.59375 L 55.71875,108.15625 C 55.718751,109.61045 56.511627,110.40625 57.75,110.40625 C 57.75,110.40625 63.195648,110.40625 68.53125,110.40625 C 73.789632,110.40625 79.84375,108.96875 79.84375,108.96875 C 79.85431,108.96862 79.864441,108.96889 79.875,108.96875 z "
           id="path2259" />
        <g
           id="g2248">
          <path
             sodipodi:nodetypes="ccsssc"
             id="path1350"
             d="M 142.14331,33.129542 C 150.03331,23.605733 157.92331,25.764083 165.81331,30.910479 C 166.06796,38.60921 165.67198,49.057012 163.4947,51.983984 C 161.88238,54.151458 157.64146,55.927472 154.83794,55.927472 C 152.13256,55.927472 149.35232,54.645597 147.53342,52.731569 C 143.75123,48.75159 142.14331,38.89173 142.14331,33.129542 z "
             style="fill:#ffffff;fill-opacity:1;fill-rule:evenodd;stroke:none;stroke-width:1px;stroke-linecap:butt;stroke-linejoin:miter;stroke-opacity:1" />
          <path
             sodipodi:nodetypes="cc"
             id="path2225"
             d="M 150.89628,51.106527 C 153.14726,49.503483 155.59036,49.629502 158.16987,50.983246"
             style="fill:none;fill-opacity:0.75;fill-rule:evenodd;stroke:#000000;stroke-width:2.5;stroke-linecap:round;stroke-linejoin:miter;stroke-miterlimit:4;stroke-dasharray:none;stroke-opacity:1" />
          <path
             sodipodi:nodetypes="ccc"
             id="path2227"
             d="M 145.94295,34.759798 C 154.48471,30.581766 152.9203,38.543065 152.9203,46.243357 L 157.13578,46.243357"
             style="fill:none;fill-opacity:0.75;fill-rule:evenodd;stroke:#000000;stroke-width:1px;stroke-linecap:butt;stroke-linejoin:miter;stroke-opacity:1" />
          <path
             style="fill:none;fill-opacity:0.75;fill-rule:evenodd;stroke:#000000;stroke-width:1px;stroke-linecap:butt;stroke-linejoin:miter;stroke-opacity:1"
             d="M 163.82241,34.759798 C 160.17243,32.974484 158.36778,33.405735 157.49786,35.086027"
             id="path2229"
             sodipodi:nodetypes="cc" />
          <path
             d="M 151.03059 38.103111 A 2.0350609 1.453615 0 1 1  146.96047,38.103111 A 2.0350609 1.453615 0 1 1  151.03059 38.103111 z"
             sodipodi:ry="1.453615"
             sodipodi:rx="2.0350609"
             sodipodi:cy="38.103111"
             sodipodi:cx="148.99553"
             id="path2231"
             style="opacity:1;color:#000000;fill:#000000;fill-opacity:1;fill-rule:nonzero;stroke:none;stroke-width:2.5;stroke-linecap:round;stroke-linejoin:miter;marker:none;marker-start:none;marker-mid:none;marker-end:none;stroke-miterlimit:4;stroke-dasharray:none;stroke-dashoffset:0;stroke-opacity:1;visibility:visible;display:inline;overflow:visible"
             sodipodi:type="arc" />
          <path
             transform="translate(10.46603,0)"
             sodipodi:type="arc"
             style="opacity:1;color:#000000;fill:#000000;fill-opacity:1;fill-rule:nonzero;stroke:none;stroke-width:2.5;stroke-linecap:round;stroke-linejoin:miter;marker:none;marker-start:none;marker-mid:none;marker-end:none;stroke-miterlimit:4;stroke-dasharray:none;stroke-dashoffset:0;stroke-opacity:1;visibility:visible;display:inline;overflow:visible"
             id="path2233"
             sodipodi:cx="148.99553"
             sodipodi:cy="38.103111"
             sodipodi:rx="2.0350609"
             sodipodi:ry="1.453615"
             d="M 151.03059 38.103111 A 2.0350609 1.453615 0 1 1  146.96047,38.103111 A 2.0350609 1.453615 0 1 1  151.03059 38.103111 z" />
        </g>
        <path
           style="fill:none;fill-opacity:0.75;fill-rule:evenodd;stroke:#000000;stroke-width:0.5;stroke-linecap:butt;stroke-linejoin:miter;stroke-miterlimit:4;stroke-dasharray:none;stroke-opacity:1"
           d="M 55.829856,97.98285 L 69.320875,97.98285 C 71.258839,97.98285 73.485745,103.65809 74.774691,107.0247"
           id="path2239"
           sodipodi:nodetypes="ccc" />
        <path
           style="fill:none;fill-opacity:0.75;fill-rule:evenodd;stroke:#000000;stroke-width:0.5;stroke-linecap:butt;stroke-linejoin:miter;stroke-miterlimit:4;stroke-dasharray:none;stroke-opacity:1"
           d="M 69.112391,97.978319 C 70.038426,97.978319 70.131944,101.5724 68.582117,101.5724 C 71.06933,101.5724 70.999012,104.57728 69.524826,104.57728 C 71.068774,104.57728 71.036731,107.58217 69.524826,107.58217 C 70.931867,107.58217 70.808012,110.4103 69.465907,110.4103 M 69.524826,107.58217 L 55.914458,107.58217 M 69.524826,104.57728 L 55.914458,104.57728 M 68.582117,101.5724 L 55.914458,101.5724"
           id="path2243"
           sodipodi:nodetypes="ccccccccccc" />
        <path
           style="fill:#000000;fill-opacity:1;fill-rule:evenodd;stroke:none;stroke-width:0.5;stroke-linecap:butt;stroke-linejoin:miter;stroke-miterlimit:4;stroke-dasharray:none;stroke-opacity:1"
           d="M 94.189877,243.51917 L 129.38762,243.51917 L 128.57951,229.69148 L 115.9191,229.69148 C 115.9191,241.00062 94.189877,228.70813 94.189877,243.51917 z "
           id="path2261"
           sodipodi:nodetypes="ccccc" />
        <path
           style="fill:none;fill-opacity:0.75;fill-rule:evenodd;stroke:#ff0000;stroke-width:2;stroke-linecap:butt;stroke-linejoin:miter;stroke-miterlimit:4;stroke-dasharray:none;stroke-opacity:1"
           d="M 135.30212,116.08128 L 155.18904,233.62721"
           id="path2263" />
        <rect
           y="85.086662"
           x="148.89433"
           height="15.959358"
           width="21.252218"
           id="rect2275"
           style="opacity:1;color:#000000;fill:#ffff00;fill-opacity:1;fill-rule:evenodd;stroke:#000000;stroke-width:0.50000006;stroke-linecap:butt;stroke-linejoin:miter;marker:none;marker-start:none;marker-mid:none;marker-end:none;stroke-miterlimit:4;stroke-dasharray:none;stroke-dashoffset:0;stroke-opacity:1;visibility:visible;display:inline;overflow:visible" />
        <rect
           style="opacity:1;color:#000000;fill:#ffff00;fill-opacity:1;fill-rule:evenodd;stroke:#000000;stroke-width:0.50000006;stroke-linecap:butt;stroke-linejoin:miter;marker:none;marker-start:none;marker-mid:none;marker-end:none;stroke-miterlimit:4;stroke-dasharray:none;stroke-dashoffset:0;stroke-opacity:1;visibility:visible;display:inline;overflow:visible"
           id="rect2277"
           width="21.252218"
           height="15.959358"
           x="150.16087"
           y="84.27092" />
        <rect
           y="83.455177"
           x="151.42743"
           height="15.959358"
           width="21.252218"
           id="rect2279"
           style="opacity:1;color:#000000;fill:#ffff00;fill-opacity:1;fill-rule:evenodd;stroke:#000000;stroke-width:0.50000006;stroke-linecap:butt;stroke-linejoin:miter;marker:none;marker-start:none;marker-mid:none;marker-end:none;stroke-miterlimit:4;stroke-dasharray:none;stroke-dashoffset:0;stroke-opacity:1;visibility:visible;display:inline;overflow:visible" />
        <rect
           style="opacity:1;color:#000000;fill:#ffff00;fill-opacity:1;fill-rule:evenodd;stroke:#000000;stroke-width:0.50000006;stroke-linecap:butt;stroke-linejoin:miter;marker:none;marker-start:none;marker-mid:none;marker-end:none;stroke-miterlimit:4;stroke-dasharray:none;stroke-dashoffset:0;stroke-opacity:1;visibility:visible;display:inline;overflow:visible"
           id="rect2281"
           width="21.252218"
           height="15.959358"
           x="152.69397"
           y="82.639442" />
        <rect
           y="81.8237"
           x="153.96051"
           height="15.959358"
           width="21.252218"
           id="rect2283"
           style="opacity:1;color:#000000;fill:#ffff00;fill-opacity:1;fill-rule:evenodd;stroke:#000000;stroke-width:0.50000006;stroke-linecap:butt;stroke-linejoin:miter;marker:none;marker-start:none;marker-mid:none;marker-end:none;stroke-miterlimit:4;stroke-dasharray:none;stroke-dashoffset:0;stroke-opacity:1;visibility:visible;display:inline;overflow:visible" />
        <rect
           style="opacity:1;color:#000000;fill:#ffff00;fill-opacity:1;fill-rule:evenodd;stroke:#000000;stroke-width:0.50000006;stroke-linecap:butt;stroke-linejoin:miter;marker:none;marker-start:none;marker-mid:none;marker-end:none;stroke-miterlimit:4;stroke-dasharray:none;stroke-dashoffset:0;stroke-opacity:1;visibility:visible;display:inline;overflow:visible"
           id="rect2285"
           width="21.252218"
           height="15.959358"
           x="155.22707"
           y="81.00795" />
        <rect
           style="opacity:1;color:#000000;fill:#000000;fill-opacity:1;fill-rule:evenodd;stroke:none;stroke-width:0.5;stroke-linecap:butt;stroke-linejoin:miter;marker:none;marker-start:none;marker-mid:none;marker-end:none;stroke-miterlimit:4;stroke-dasharray:none;stroke-dashoffset:0;stroke-opacity:1;visibility:visible;display:inline;overflow:visible"
           id="rect2289"
           width="17.645782"
           height="8.5008879"
           x="162.41847"
           y="96.157547" />
        <rect
           style="opacity:1;color:#000000;fill:#ffff00;fill-opacity:1;fill-rule:evenodd;stroke:#000000;stroke-width:0.50000006;stroke-linecap:butt;stroke-linejoin:miter;marker:none;marker-start:none;marker-mid:none;marker-end:none;stroke-miterlimit:4;stroke-dasharray:none;stroke-dashoffset:0;stroke-opacity:1;visibility:visible;display:inline;overflow:visible"
           id="rect2269"
           width="21.252218"
           height="15.959358"
           x="156.49361"
           y="80.192215" />
        <g
           id="g2271">
          <path
             sodipodi:nodetypes="cccccccccssscccc"
             id="path2265"
             d="M 165.1601,96.203552 L 169.61295,110.0681 L 149.47394,110.0681 C 148.14337,110.0681 147.90575,107.43687 149.47394,107.43687 L 157.67123,107.43687 L 148.36073,107.43687 C 146.6308,107.43687 146.60696,105.00804 148.36073,105.00804 L 157.46882,105.00804 L 148.15833,105.00804 C 146.41719,105.00804 146.5237,101.36481 148.15833,101.36481 C 151.51155,101.36481 147.85985,101.86285 146.23551,97.316764 C 145.5649,95.439898 147.88634,94.992082 148.36073,96.102351 C 150.12373,100.2285 152.0432,99.543187 158.37963,99.543187 L 152.81358,99.543187 C 151.09305,99.543187 150.49475,96.102351 152.81358,96.102351 L 165.1601,96.203552 z "
             style="fill:#ffffff;fill-opacity:1;fill-rule:evenodd;stroke:#000000;stroke-width:0.5;stroke-linecap:butt;stroke-linejoin:miter;stroke-miterlimit:4;stroke-dasharray:none;stroke-opacity:1" />
          <path
             sodipodi:nodetypes="cc"
             id="path2267"
             d="M 149.42917,101.33143 C 152.67822,101.33143 155.52295,102.52414 158.54487,102.52414"
             style="opacity:1;color:#000000;fill:none;fill-opacity:0.75;fill-rule:evenodd;stroke:#000000;stroke-width:0.5;stroke-linecap:butt;stroke-linejoin:miter;marker:none;marker-start:none;marker-mid:none;marker-end:none;stroke-miterlimit:4;stroke-dasharray:none;stroke-dashoffset:0;stroke-opacity:1;visibility:visible;display:inline;overflow:visible" />
        </g>
        <use
           x="0"
           y="0"
           xlink:href="#path2295"
           id="use2297"
           transform="translate(8.180724,56.32114)"
           width="256"
           height="256" />
        <path
           sodipodi:type="arc"
           style="opacity:1;color:#000000;fill:#ffff00;fill-opacity:1;fill-rule:evenodd;stroke:#000000;stroke-width:1.00000024;stroke-linecap:butt;stroke-linejoin:miter;marker:none;marker-start:none;marker-mid:none;marker-end:none;stroke-miterlimit:4;stroke-dasharray:none;stroke-dashoffset:0;stroke-opacity:1;visibility:visible;display:inline;overflow:visible"
           id="path2295"
           sodipodi:cx="51.28685"
           sodipodi:cy="25.995789"
           sodipodi:rx="10.112782"
           sodipodi:ry="5.4080229"
           d="M 61.399632 25.995789 A 10.112782 5.4080229 0 1 1  41.174068,25.995789 A 10.112782 5.4080229 0 1 1  61.399632 25.995789 z"
           transform="matrix(0.985554,-0.16936,0.16936,0.985554,-3.661774,9.061483)" />
      </g>
    </g>
  </g>
</svg>
