<?xml version="1.0" encoding="UTF-8" standalone="no"?>
<!-- Created with Inkscape (http://www.inkscape.org/) -->
<svg
   xmlns:dc="http://purl.org/dc/elements/1.1/"
   xmlns:cc="http://web.resource.org/cc/"
   xmlns:rdf="http://www.w3.org/1999/02/22-rdf-syntax-ns#"
   xmlns:svg="http://www.w3.org/2000/svg"
   xmlns="http://www.w3.org/2000/svg"
   xmlns:sodipodi="http://inkscape.sourceforge.net/DTD/sodipodi-0.dtd"
   xmlns:inkscape="http://www.inkscape.org/namespaces/inkscape"
   width="600"
   height="600"
   id="svg2381"
   sodipodi:version="0.32"
   inkscape:version="0.43"
   version="1.0"
   sodipodi:docbase="E:\"
   sodipodi:docname="Flag_of_Canton_of_Uri.svg">
  <defs
     id="defs2383" />
  <sodipodi:namedview
     id="base"
     pagecolor="#ffffff"
     bordercolor="#666666"
     borderopacity="1.0"
     inkscape:pageopacity="0.0"
     inkscape:pageshadow="2"
     inkscape:zoom="0.625"
     inkscape:cx="300"
     inkscape:cy="300"
     inkscape:document-units="px"
     inkscape:current-layer="layer1"
     inkscape:window-width="756"
     inkscape:window-height="542"
     inkscape:window-x="-2"
     inkscape:window-y="23"
     showguides="true"
     inkscape:guide-bbox="true"
     showgrid="false"
     gridspacingx="16px"
     gridspacingy="16px"
     gridempspacing="4"
     gridtolerance="8px"
     inkscape:grid-points="false"
     inkscape:grid-bbox="false" />
  <metadata
     id="metadata2386">
    <rdf:RDF>
      <cc:Work
         rdf:about="">
        <dc:format>image/svg+xml</dc:format>
        <dc:type
           rdf:resource="http://purl.org/dc/dcmitype/StillImage" />
      </cc:Work>
    </rdf:RDF>
  </metadata>
  <g
     inkscape:label="Layer 1"
     inkscape:groupmode="layer"
     id="layer1">
    <rect
       style="opacity:1;color:#000000;fill:#ffff00;fill-opacity:1;fill-rule:evenodd;stroke:none;stroke-width:16;stroke-linecap:round;stroke-linejoin:miter;marker:none;marker-start:none;marker-mid:none;marker-end:none;stroke-miterlimit:4;stroke-dasharray:none;stroke-dashoffset:0;stroke-opacity:1;visibility:visible;display:inline;overflow:visible"
       id="rect3423"
       width="600"
       height="600"
       x="0"
       y="0" />
    <g
       id="g3425"
       transform="matrix(2.34375,0,0,2.34375,0,1.985807)">
      <path
         sodipodi:nodetypes="csscccsssssssssssssssssssssscccsszsscccsssssssssssssssssssssscccsssssccssssszsssssccsssc"
         id="path2447"
         d="M 46.28125,6.3125 C 27.073061,6.9739066 17.499991,21.202071 17.5,29.25 C 17.500011,40.079778 25.226455,51.635616 43.875,56.59375 C 51.623253,58.653796 58.373887,64.061467 58,65.5625 C 57.704446,66.483308 54.500498,65.834578 46.84375,61.75 C 28.870673,50.862179 14.242509,54.03102 4.1875,75.28125 C 15.249488,81.2928 14.115341,90.121742 20.09375,89.625 C 20.093749,89.625003 22.946539,88.563686 25,89.4375 C 27.053462,90.311313 26.34642,92.688094 28.3125,93.125 C 30.27858,93.561908 31.052433,90.925356 32.84375,91.1875 C 32.997691,91.210028 33.132659,91.260478 33.21875,91.3125 C 33.248089,91.332292 33.290569,91.383125 33.3125,91.40625 C 33.317548,91.412229 33.339124,91.431327 33.34375,91.4375 C 33.352179,91.450225 33.368147,91.486542 33.375,91.5 C 33.381099,91.513813 33.401589,91.548004 33.40625,91.5625 C 33.420169,91.614388 33.438097,91.690864 33.4375,91.75 C 33.417029,92.273334 32.937614,93.062663 33.3125,93.59375 C 33.530578,93.876865 34.002588,94.088666 34.9375,94.15625 C 38.025162,94.379456 37.996491,92.747616 38.875,92.3125 C 39.073339,92.221457 39.318671,92.187195 39.65625,92.25 C 41.035921,92.506681 41.072337,94.116329 41.8125,95 C 42.077859,95.304794 42.459328,95.528708 43,95.5625 C 45.097153,95.693573 45.834276,92.562797 48.0625,92.78125 C 50.290723,92.999705 49.765407,96.219046 51.90625,96.4375 C 54.047095,96.65595 54.396776,93.787322 56.625,93.65625 C 58.853224,93.525176 58.453204,95.818869 60.8125,95.90625 C 63.171794,95.993631 63.85538,93.516368 66.0625,94 C 68.644204,94.56571 69.479942,96.128531 69.3125,99.34375 C 68.510818,114.73757 81.067686,128.46684 89.71875,135.4375 C 103.28418,144.76431 92.897095,147.66654 90.71875,139.53125 C 86.727983,147.68582 90.637503,154.0634 102.1875,152.28125 C 79.127822,157.73548 82.363779,170.16287 93.9375,183.375 C 98.012665,188.02705 100.14861,193.51182 101.59375,201.90625 C 102.89402,209.45914 111.75523,213.3125 128,213.3125 C 144.24477,213.3125 153.10598,209.45914 154.40625,201.90625 C 155.85139,193.51182 157.98733,188.02705 162.0625,183.375 C 173.63622,170.16287 176.87218,157.73548 153.8125,152.28125 C 165.3625,154.0634 169.27203,147.68582 165.28125,139.53125 C 163.1029,147.66654 152.71582,144.76431 166.28125,135.4375 C 174.93231,128.46684 187.48917,114.73757 186.6875,99.34375 C 186.52006,96.128531 187.3558,94.56571 189.9375,94 C 192.14462,93.516368 192.82821,95.993631 195.1875,95.90625 C 197.5468,95.818869 197.14676,93.525176 199.375,93.65625 C 201.60322,93.787322 201.95291,96.65595 204.09375,96.4375 C 206.23459,96.219046 205.70926,92.999705 207.9375,92.78125 C 210.16572,92.562797 210.90285,95.693573 213,95.5625 C 213.54067,95.528708 213.92214,95.304794 214.1875,95 C 214.92767,94.116329 214.96409,92.506681 216.34375,92.25 C 216.68133,92.187195 216.92666,92.221457 217.125,92.3125 C 218.00351,92.747616 217.97484,94.379456 221.0625,94.15625 C 221.99741,94.088666 222.46942,93.876865 222.6875,93.59375 C 223.06238,93.062663 222.58297,92.273334 222.5625,91.75 C 222.5619,91.690864 222.57983,91.614388 222.59375,91.5625 C 222.59841,91.548004 222.6189,91.513813 222.625,91.5 C 222.63185,91.486542 222.64782,91.450225 222.65625,91.4375 C 222.66088,91.431327 222.68245,91.412229 222.6875,91.40625 C 222.70943,91.383125 222.75191,91.332292 222.78125,91.3125 C 222.86734,91.260478 223.00231,91.210028 223.15625,91.1875 C 224.94757,90.925356 225.72142,93.561908 227.6875,93.125 C 229.65358,92.688094 228.94654,90.311313 231,89.4375 C 233.05346,88.563686 235.90626,89.625003 235.90625,89.625 C 241.88466,90.121742 240.75052,81.2928 251.8125,75.28125 C 241.75749,54.03102 227.12934,50.862179 209.15625,61.75 C 201.4995,65.834578 198.29555,66.483308 198,65.5625 C 197.62611,64.061467 204.37675,58.653796 212.125,56.59375 C 230.77355,51.635616 238.49998,40.079778 238.5,29.25 C 238.50001,21.008921 228.45531,6.3125001 208.3125,6.3125 C 191.80629,6.3125 180.43385,16.029224 198.25,16.96875 C 217.65858,17.992253 220.06477,29.437499 210.53125,29.4375 C 201.07276,29.4375 192.82185,26.418338 183.96875,27.21875 C 184.18294,25.773345 184.33772,24.351655 185.59375,22.90625 C 177.15208,19.924985 176.20877,23.068537 173.09375,23.28125 C 167.8322,23.640541 164.88096,18.496962 160.1875,17.8125 C 155.49404,17.128037 157.85174,20.297372 154.625,19.90625 C 151.39825,19.515128 151.29025,16.34778 147.28125,16.25 C 143.27225,16.15222 141.89988,19.655794 138.15625,19.40625 C 134.51158,19.163303 131.81228,14.25 128,14.25 C 124.18772,14.25 121.48842,19.163303 117.84375,19.40625 C 114.10013,19.655794 112.72775,16.15222 108.71875,16.25 C 104.70975,16.34778 104.60175,19.515128 101.375,19.90625 C 98.148246,20.297372 100.50596,17.128037 95.8125,17.8125 C 91.119036,18.496962 88.1678,23.640541 82.90625,23.28125 C 79.791222,23.068537 78.847928,19.924985 70.40625,22.90625 C 71.662284,24.351655 71.81706,25.773345 72.03125,27.21875 C 63.178141,26.418338 54.927246,29.4375 45.46875,29.4375 C 35.935236,29.437499 38.341413,17.992253 57.75,16.96875 C 75.566148,16.029224 64.193705,6.3125 47.6875,6.3125 C 47.215403,6.3125 46.742247,6.2966262 46.28125,6.3125 z "
         style="fill:#000000;fill-opacity:1;fill-rule:evenodd;stroke:none;stroke-width:1px;stroke-linecap:butt;stroke-linejoin:miter;stroke-opacity:1" />
      <path
         sodipodi:nodetypes="ccc"
         id="path3322"
         d="M 16.212878,71.013717 C 34.496358,70.471211 34.78715,82.36074 48.638635,79.917511 C 35.786882,73.56426 28.14266,61.026871 16.212878,71.013717 z "
         style="fill:#ffff00;fill-opacity:1;fill-rule:evenodd;stroke:none;stroke-width:1px;stroke-linecap:butt;stroke-linejoin:miter;stroke-opacity:1" />
      <path
         sodipodi:nodetypes="csc"
         id="path3324"
         d="M 48.49664,12.288 C 35.026201,9.6029879 27.370074,16.035699 29.9008,19.00544 C 32.717296,22.310525 44.284533,15.921614 48.49664,12.288 z "
         style="fill:#ffff00;fill-opacity:1;fill-rule:evenodd;stroke:none;stroke-width:1px;stroke-linecap:butt;stroke-linejoin:miter;stroke-opacity:1" />
      <path
         sodipodi:nodetypes="ccc"
         id="path3326"
         d="M 66.704725,33.42518 C 66.834235,34.892458 65.072599,38.526065 62.528626,39.520028 C 60.900378,37.381586 63.50375,33.890096 66.704725,33.42518 z "
         style="fill:#ffff00;fill-opacity:1;fill-rule:evenodd;stroke:none;stroke-width:1px;stroke-linecap:butt;stroke-linejoin:miter;stroke-opacity:1" />
      <path
         sodipodi:nodetypes="ccc"
         id="path3328"
         d="M 72.201058,40.004869 C 76.61619,41.787333 84.665141,35.885009 83.409124,33.989518 C 77.570171,33.314433 73.664848,35.896788 72.201058,40.004869 z "
         style="fill:#ffff00;fill-opacity:1;fill-rule:evenodd;stroke:none;stroke-width:1px;stroke-linecap:butt;stroke-linejoin:miter;stroke-opacity:1" />
      <path
         sodipodi:nodetypes="csc"
         id="path3330"
         d="M 61.636608,44.214955 C 59.144299,45.620689 56.455307,48.790771 58.419883,50.025814 C 60.960657,51.623087 61.363485,46.399995 61.636608,44.214955 z "
         style="fill:#ffff00;fill-opacity:1;fill-rule:evenodd;stroke:none;stroke-width:1px;stroke-linecap:butt;stroke-linejoin:miter;stroke-opacity:1" />
      <path
         sodipodi:nodetypes="csc"
         id="path3332"
         d="M 79.313124,59.959979 C 77.723311,67.240456 83.089317,77.254448 88.080384,73.008924 C 90.337339,71.089102 81.985942,66.886366 79.313124,59.959979 z "
         style="fill:#ffff00;fill-opacity:1;fill-rule:evenodd;stroke:none;stroke-width:1px;stroke-linecap:butt;stroke-linejoin:miter;stroke-opacity:1" />
      <path
         sodipodi:nodetypes="csc"
         id="path3334"
         d="M 101.24584,73.081742 C 105.76333,75.604529 107.09356,79.489403 104.8576,80.887808 C 102.25579,82.515017 100.24299,76.663017 101.24584,73.081742 z "
         style="fill:#ffff00;fill-opacity:1;fill-rule:evenodd;stroke:none;stroke-width:1px;stroke-linecap:butt;stroke-linejoin:miter;stroke-opacity:1" />
      <path
         sodipodi:nodetypes="ccc"
         id="path3336"
         d="M 114.06177,76.110962 C 115.26921,79.253169 115.54275,83.21277 121.51831,83.334486 C 120.2486,81.159661 116.72861,78.052769 114.06177,76.110962 z "
         style="fill:#ffff00;fill-opacity:1;fill-rule:evenodd;stroke:none;stroke-width:1px;stroke-linecap:butt;stroke-linejoin:miter;stroke-opacity:1" />
      <path
         id="path3338"
         d="M 65.375,68 C 64.124754,71.466584 66.711975,75.922768 69.40625,78.6875 C 71.914713,81.261561 76.16898,83.948436 80.28125,85.46875 C 79.827444,85.78009 79.316696,86.138724 78.8125,86.53125 C 77.804108,87.316303 77.575715,88.522807 77.0625,89.5625 C 76.805893,90.082347 76.667012,90.670182 76.78125,91.25 C 76.895488,91.829818 77.260931,92.367671 77.84375,92.84375 C 79.009388,93.795908 81.06672,94.555024 84.5625,95.15625 L 84.75,94.1875 C 81.332223,93.599689 79.372866,92.801032 78.46875,92.0625 C 78.186214,91.831709 77.989801,91.607944 77.875,91.40625 C 77.815719,91.295675 77.771563,91.171944 77.75,91.0625 C 77.687271,90.744118 77.748524,90.382835 77.9375,90 C 78.315451,89.234329 79.757939,88.591758 80.71875,87.84375 C 81.465779,87.262174 82.274993,86.760172 82.875,86.34375 C 91.471217,89.244438 95.508743,91.262725 97.9375,93.9375 C 100.51902,96.780516 100.75,99.737158 100.75,103.6875 C 100.75,107.70482 100.37761,110.10399 100,112.5 C 99.622387,114.89601 99.21875,117.29491 99.21875,121.21875 C 99.218751,126.47437 100.98841,130.4185 102.71875,133.96875 C 104.44909,137.519 106.1394,140.6766 106.1875,144.5 C 106.23602,148.35738 105.07949,150.11942 103.21875,151.15625 C 101.35801,152.19308 98.653679,152.42966 95.75,152.8125 L 95.875,153.8125 C 98.747143,153.43381 101.53744,153.22929 103.6875,152.03125 C 105.83756,150.83321 107.23876,148.54396 107.1875,144.46875 C 107.13582,140.3602 105.34494,137.06015 103.625,133.53125 C 101.90506,130.00235 100.21875,126.25243 100.21875,121.21875 C 100.21875,117.35963 100.59088,115.05391 100.96875,112.65625 C 101.34662,110.25859 101.75,107.76703 101.75,103.6875 C 101.75,99.696387 101.48611,96.363343 98.6875,93.28125 C 95.888888,90.199157 90.94561,87.071436 81.125,83.84375 C 76.86114,82.442373 73.906884,80.473094 71.375,77.875 C 68.843113,75.276903 68.42634,72.032348 69.53125,68.96875 L 65.375,68 z "
         style="opacity:1;color:#000000;fill:#ffff00;fill-opacity:1;fill-rule:evenodd;stroke:none;stroke-width:1px;stroke-linecap:butt;stroke-linejoin:miter;marker:none;marker-start:none;marker-mid:none;marker-end:none;stroke-miterlimit:4;stroke-dasharray:none;stroke-dashoffset:0;stroke-opacity:1;visibility:visible;display:inline;overflow:visible" />
      <path
         sodipodi:nodetypes="ccssccssc"
         id="path3347"
         d="M 93.361635,162.99482 L 93.501506,165.3638 C 100.34103,165.62759 103.09509,169.17009 105.39288,172.87199 C 106.54178,174.72294 107.29515,176.26857 108.10646,177.97393 C 109.39861,180.69002 112.93608,180.07147 114.99548,180.10862 L 115.08104,178.16745 C 113.34332,178.1361 111.06327,178.05689 109.96875,176.71875 C 108.87423,175.38061 107.64403,173.69722 106.75,171.65625 C 103.62977,164.53309 100.54959,163.27205 93.361635,162.99482 z "
         style="opacity:1;color:#000000;fill:#ffff00;fill-opacity:1;fill-rule:evenodd;stroke:none;stroke-width:1px;stroke-linecap:butt;stroke-linejoin:miter;marker:none;marker-start:none;marker-mid:none;marker-end:none;stroke-miterlimit:4;stroke-dasharray:none;stroke-dashoffset:0;stroke-opacity:1;visibility:visible;display:inline;overflow:visible" />
      <path
         sodipodi:nodetypes="cccsc"
         id="path3351"
         d="M 78.055196,100.37202 C 83.45412,106.53143 88.182654,110.74119 96.965973,101.04741 C 97.526443,104.48405 97.736734,108.65325 94.264434,111.0817 C 93.232231,109.5906 93.538434,109.17975 88.378937,109.05554 C 79.94024,108.85238 78.865588,104.23117 78.055196,100.37202 z "
         style="fill:#ffff00;fill-opacity:1;fill-rule:evenodd;stroke:none;stroke-width:1px;stroke-linecap:butt;stroke-linejoin:miter;stroke-opacity:1" />
      <path
         transform="translate(0.192967,0.192967)"
         d="M 88.378934 100.08257 A 2.5085723 2.5085723 0 1 1  83.361789,100.08257 A 2.5085723 2.5085723 0 1 1  88.378934 100.08257 z"
         sodipodi:ry="2.5085723"
         sodipodi:rx="2.5085723"
         sodipodi:cy="100.08257"
         sodipodi:cx="85.870361"
         id="path3353"
         style="opacity:1;color:#000000;fill:#ffff00;fill-opacity:1;fill-rule:evenodd;stroke:none;stroke-width:1px;stroke-linecap:butt;stroke-linejoin:miter;marker:none;marker-start:none;marker-mid:none;marker-end:none;stroke-miterlimit:4;stroke-dasharray:none;stroke-dashoffset:0;stroke-opacity:1;visibility:visible;display:inline;overflow:visible"
         sodipodi:type="arc" />
      <path
         sodipodi:nodetypes="ccsccsc"
         id="path3355"
         d="M 84.96875,109.90625 L 84.84375,110.90625 C 86.984025,111.14033 88.535618,112.16344 89.986332,113.05038 C 91.437046,113.93732 92.100641,114.82928 93,117.28125 L 94,117.21875 C 93.861017,114.3354 92.956428,111.95936 91.258201,110.9211 C 89.559974,109.88284 87.140316,110.14375 84.96875,109.90625 z "
         style="opacity:1;color:#000000;fill:#ffff00;fill-opacity:1;fill-rule:evenodd;stroke:none;stroke-width:1px;stroke-linecap:butt;stroke-linejoin:miter;marker:none;marker-start:none;marker-mid:none;marker-end:none;stroke-miterlimit:4;stroke-dasharray:none;stroke-dashoffset:0;stroke-opacity:1;visibility:visible;display:inline;overflow:visible" />
      <path
         id="path3359"
         d="M 113.40641,135.20987 L 113.40641,138.80707"
         style="fill:none;fill-opacity:0.75;fill-rule:evenodd;stroke:#ffff00;stroke-width:1px;stroke-linecap:round;stroke-linejoin:miter;stroke-opacity:1" />
      <path
         id="path3361"
         d="M 117.57158,134.3579 L 117.57158,141.74162"
         style="fill:none;fill-opacity:0.75;fill-rule:evenodd;stroke:#ffff00;stroke-width:1px;stroke-linecap:round;stroke-linejoin:miter;stroke-opacity:1" />
      <path
         id="path3363"
         d="M 122.58873,133.31661 L 122.58873,139.46971"
         style="fill:none;fill-opacity:0.75;fill-rule:evenodd;stroke:#ffff00;stroke-width:1px;stroke-linecap:round;stroke-linejoin:miter;stroke-opacity:1" />
      <path
         id="path3365"
         d="M 128,133.22194 L 128,139.56437"
         style="fill:none;fill-opacity:0.75;fill-rule:evenodd;stroke:#ffff00;stroke-width:1px;stroke-linecap:round;stroke-linejoin:miter;stroke-opacity:1" />
      <path
         transform="matrix(0.864738,0,0,1,78.41247,3.735552)"
         d="M 67.584002 210.944 A 10.24 15.701333 0 1 1  47.104002,210.944 A 10.24 15.701333 0 1 1  67.584002 210.944 z"
         sodipodi:ry="15.701333"
         sodipodi:rx="10.24"
         sodipodi:cy="210.944"
         sodipodi:cx="57.344002"
         id="path3367"
         style="opacity:1;color:#000000;fill:#ff0000;fill-opacity:1;fill-rule:evenodd;stroke:#000000;stroke-width:1.07536948;stroke-linecap:round;stroke-linejoin:miter;marker:none;marker-start:none;marker-mid:none;marker-end:none;stroke-miterlimit:4;stroke-dasharray:none;stroke-dashoffset:0;stroke-opacity:1;visibility:visible;display:inline;overflow:visible"
         sodipodi:type="arc" />
      <path
         id="path3386"
         style="fill:none;fill-opacity:0.75;fill-rule:evenodd;stroke:#000000;stroke-width:16;stroke-linecap:round;stroke-linejoin:miter;stroke-miterlimit:4;stroke-dasharray:none;stroke-opacity:1"
         d="M 159.40267,177.19467 C 163.49867,184.704 183.35733,240 128,240 C 72.64267,240 92.50133,184.704 96.59733,177.19467"
         sodipodi:nodetypes="czc" />
      <path
         sodipodi:nodetypes="czc"
         d="M 159.40267,177.19467 C 163.49867,184.704 183.35733,240 128,240 C 72.64267,240 92.50133,184.704 96.59733,177.19467"
         style="fill:none;fill-opacity:0.75;fill-rule:evenodd;stroke:#ff0000;stroke-width:14;stroke-linecap:round;stroke-linejoin:miter;stroke-miterlimit:4;stroke-dasharray:none;stroke-opacity:1"
         id="path3369" />
      <path
         style="fill:#ffff00;fill-opacity:1;fill-rule:evenodd;stroke:none;stroke-width:1px;stroke-linecap:butt;stroke-linejoin:miter;stroke-opacity:1"
         d="M 239.78712,71.013717 C 221.50364,70.471211 221.21285,82.36074 207.36137,79.917511 C 220.21312,73.56426 227.85734,61.026871 239.78712,71.013717 z "
         id="path3390"
         sodipodi:nodetypes="ccc" />
      <path
         style="fill:#ffff00;fill-opacity:1;fill-rule:evenodd;stroke:none;stroke-width:1px;stroke-linecap:butt;stroke-linejoin:miter;stroke-opacity:1"
         d="M 207.50336,12.288 C 220.9738,9.6029879 228.62993,16.035699 226.0992,19.00544 C 223.2827,22.310525 211.71547,15.921614 207.50336,12.288 z "
         id="path3392"
         sodipodi:nodetypes="csc" />
      <path
         style="fill:#ffff00;fill-opacity:1;fill-rule:evenodd;stroke:none;stroke-width:1px;stroke-linecap:butt;stroke-linejoin:miter;stroke-opacity:1"
         d="M 189.29528,33.42518 C 189.16576,34.892458 190.9274,38.526065 193.47137,39.520028 C 195.09962,37.381586 192.49625,33.890096 189.29528,33.42518 z "
         id="path3394"
         sodipodi:nodetypes="ccc" />
      <path
         style="fill:#ffff00;fill-opacity:1;fill-rule:evenodd;stroke:none;stroke-width:1px;stroke-linecap:butt;stroke-linejoin:miter;stroke-opacity:1"
         d="M 183.79894,40.004869 C 179.38381,41.787333 171.33486,35.885009 172.59088,33.989518 C 178.42983,33.314433 182.33515,35.896788 183.79894,40.004869 z "
         id="path3396"
         sodipodi:nodetypes="ccc" />
      <path
         style="fill:#ffff00;fill-opacity:1;fill-rule:evenodd;stroke:none;stroke-width:1px;stroke-linecap:butt;stroke-linejoin:miter;stroke-opacity:1"
         d="M 194.36339,44.214955 C 196.8557,45.620689 199.54469,48.790771 197.58012,50.025814 C 195.03934,51.623087 194.63652,46.399995 194.36339,44.214955 z "
         id="path3398"
         sodipodi:nodetypes="csc" />
      <path
         style="fill:#ffff00;fill-opacity:1;fill-rule:evenodd;stroke:none;stroke-width:1px;stroke-linecap:butt;stroke-linejoin:miter;stroke-opacity:1"
         d="M 176.68688,59.959979 C 178.27669,67.240456 172.91068,77.254448 167.91962,73.008924 C 165.66266,71.089102 174.01406,66.886366 176.68688,59.959979 z "
         id="path3400"
         sodipodi:nodetypes="csc" />
      <path
         style="fill:#ffff00;fill-opacity:1;fill-rule:evenodd;stroke:none;stroke-width:1px;stroke-linecap:butt;stroke-linejoin:miter;stroke-opacity:1"
         d="M 154.75416,73.081742 C 150.23667,75.604529 148.90644,79.489403 151.1424,80.887808 C 153.74421,82.515017 155.75701,76.663017 154.75416,73.081742 z "
         id="path3402"
         sodipodi:nodetypes="csc" />
      <path
         style="fill:#ffff00;fill-opacity:1;fill-rule:evenodd;stroke:none;stroke-width:1px;stroke-linecap:butt;stroke-linejoin:miter;stroke-opacity:1"
         d="M 141.93823,76.110962 C 140.73079,79.253169 140.45725,83.21277 134.48169,83.334486 C 135.7514,81.159661 139.27139,78.052769 141.93823,76.110962 z "
         id="path3404"
         sodipodi:nodetypes="ccc" />
      <path
         style="opacity:1;color:#000000;fill:#ffff00;fill-opacity:1;fill-rule:evenodd;stroke:none;stroke-width:1px;stroke-linecap:butt;stroke-linejoin:miter;marker:none;marker-start:none;marker-mid:none;marker-end:none;stroke-miterlimit:4;stroke-dasharray:none;stroke-dashoffset:0;stroke-opacity:1;visibility:visible;display:inline;overflow:visible"
         d="M 190.625,68 C 191.87525,71.466584 189.28803,75.922768 186.59375,78.6875 C 184.08529,81.261561 179.83102,83.948436 175.71875,85.46875 C 176.17256,85.78009 176.6833,86.138724 177.1875,86.53125 C 178.19589,87.316303 178.42429,88.522807 178.9375,89.5625 C 179.19411,90.082347 179.33299,90.670182 179.21875,91.25 C 179.10451,91.829818 178.73907,92.367671 178.15625,92.84375 C 176.99061,93.795908 174.93328,94.555024 171.4375,95.15625 L 171.25,94.1875 C 174.66778,93.599689 176.62713,92.801032 177.53125,92.0625 C 177.81379,91.831709 178.0102,91.607944 178.125,91.40625 C 178.18428,91.295675 178.22844,91.171944 178.25,91.0625 C 178.31273,90.744118 178.25148,90.382835 178.0625,90 C 177.68455,89.234329 176.24206,88.591758 175.28125,87.84375 C 174.53422,87.262174 173.72501,86.760172 173.125,86.34375 C 164.52878,89.244438 160.49126,91.262725 158.0625,93.9375 C 155.48098,96.780516 155.25,99.737158 155.25,103.6875 C 155.25,107.70482 155.62239,110.10399 156,112.5 C 156.37761,114.89601 156.78125,117.29491 156.78125,121.21875 C 156.78125,126.47437 155.01159,130.4185 153.28125,133.96875 C 151.55091,137.519 149.8606,140.6766 149.8125,144.5 C 149.76398,148.35738 150.92051,150.11942 152.78125,151.15625 C 154.64199,152.19308 157.34632,152.42966 160.25,152.8125 L 160.125,153.8125 C 157.25286,153.43381 154.46256,153.22929 152.3125,152.03125 C 150.16244,150.83321 148.76124,148.54396 148.8125,144.46875 C 148.86418,140.3602 150.65506,137.06015 152.375,133.53125 C 154.09494,130.00235 155.78125,126.25243 155.78125,121.21875 C 155.78125,117.35963 155.40912,115.05391 155.03125,112.65625 C 154.65338,110.25859 154.25,107.76703 154.25,103.6875 C 154.25,99.696387 154.51389,96.363343 157.3125,93.28125 C 160.11111,90.199157 165.05439,87.071436 174.875,83.84375 C 179.13886,82.442373 182.09312,80.473094 184.625,77.875 C 187.15689,75.276903 187.57366,72.032348 186.46875,68.96875 L 190.625,68 z "
         id="path3406" />
      <path
         style="opacity:1;color:#000000;fill:#ffff00;fill-opacity:1;fill-rule:evenodd;stroke:none;stroke-width:1px;stroke-linecap:butt;stroke-linejoin:miter;marker:none;marker-start:none;marker-mid:none;marker-end:none;stroke-miterlimit:4;stroke-dasharray:none;stroke-dashoffset:0;stroke-opacity:1;visibility:visible;display:inline;overflow:visible"
         d="M 162.63836,162.99482 L 162.49849,165.3638 C 155.65897,165.62759 152.90491,169.17009 150.60712,172.87199 C 149.45822,174.72294 148.70485,176.26857 147.89354,177.97393 C 146.60139,180.69002 143.06392,180.07147 141.00452,180.10862 L 140.91896,178.16745 C 142.65668,178.1361 144.93673,178.05689 146.03125,176.71875 C 147.12577,175.38061 148.35597,173.69722 149.25,171.65625 C 152.37023,164.53309 155.45041,163.27205 162.63836,162.99482 z "
         id="path3408"
         sodipodi:nodetypes="ccssccssc" />
      <path
         style="fill:#ffff00;fill-opacity:1;fill-rule:evenodd;stroke:none;stroke-width:1px;stroke-linecap:butt;stroke-linejoin:miter;stroke-opacity:1"
         d="M 177.9448,100.37202 C 172.54588,106.53143 167.81735,110.74119 159.03403,101.04741 C 158.47356,104.48405 158.26327,108.65325 161.73557,111.0817 C 162.76777,109.5906 162.46157,109.17975 167.62106,109.05554 C 176.05976,108.85238 177.13441,104.23117 177.9448,100.37202 z "
         id="path3410"
         sodipodi:nodetypes="cccsc" />
      <path
         sodipodi:type="arc"
         style="opacity:1;color:#000000;fill:#ffff00;fill-opacity:1;fill-rule:evenodd;stroke:none;stroke-width:1px;stroke-linecap:butt;stroke-linejoin:miter;marker:none;marker-start:none;marker-mid:none;marker-end:none;stroke-miterlimit:4;stroke-dasharray:none;stroke-dashoffset:0;stroke-opacity:1;visibility:visible;display:inline;overflow:visible"
         id="path3412"
         sodipodi:cx="85.870361"
         sodipodi:cy="100.08257"
         sodipodi:rx="2.5085723"
         sodipodi:ry="2.5085723"
         d="M 88.378934 100.08257 A 2.5085723 2.5085723 0 1 1  83.361789,100.08257 A 2.5085723 2.5085723 0 1 1  88.378934 100.08257 z"
         transform="matrix(-1,0,0,1,255.807,0.192967)" />
      <path
         style="opacity:1;color:#000000;fill:#ffff00;fill-opacity:1;fill-rule:evenodd;stroke:none;stroke-width:1px;stroke-linecap:butt;stroke-linejoin:miter;marker:none;marker-start:none;marker-mid:none;marker-end:none;stroke-miterlimit:4;stroke-dasharray:none;stroke-dashoffset:0;stroke-opacity:1;visibility:visible;display:inline;overflow:visible"
         d="M 171.03125,109.90625 L 171.15625,110.90625 C 169.01598,111.14033 167.46438,112.16344 166.01367,113.05038 C 164.56295,113.93732 163.89936,114.82928 163,117.28125 L 162,117.21875 C 162.13898,114.3354 163.04357,111.95936 164.7418,110.9211 C 166.44003,109.88284 168.85968,110.14375 171.03125,109.90625 z "
         id="path3414"
         sodipodi:nodetypes="ccsccsc" />
      <path
         style="fill:none;fill-opacity:0.75;fill-rule:evenodd;stroke:#ffff00;stroke-width:1px;stroke-linecap:round;stroke-linejoin:miter;stroke-opacity:1"
         d="M 142.59359,135.20987 L 142.59359,138.80707"
         id="path3416" />
      <path
         style="fill:none;fill-opacity:0.75;fill-rule:evenodd;stroke:#ffff00;stroke-width:1px;stroke-linecap:round;stroke-linejoin:miter;stroke-opacity:1"
         d="M 138.42842,134.3579 L 138.42842,141.74162"
         id="path3418" />
      <path
         style="fill:none;fill-opacity:0.75;fill-rule:evenodd;stroke:#ffff00;stroke-width:1px;stroke-linecap:round;stroke-linejoin:miter;stroke-opacity:1"
         d="M 133.41127,133.31661 L 133.41127,139.46971"
         id="path3420" />
    </g>
  </g>
</svg>
