<?xml version="1.0" encoding="UTF-8" standalone="no"?>
<!-- Created with Inkscape (http://www.inkscape.org/) -->
<svg
   xmlns:dc="http://purl.org/dc/elements/1.1/"
   xmlns:cc="http://web.resource.org/cc/"
   xmlns:rdf="http://www.w3.org/1999/02/22-rdf-syntax-ns#"
   xmlns:svg="http://www.w3.org/2000/svg"
   xmlns="http://www.w3.org/2000/svg"
   xmlns:xlink="http://www.w3.org/1999/xlink"
   xmlns:sodipodi="http://inkscape.sourceforge.net/DTD/sodipodi-0.dtd"
   xmlns:inkscape="http://www.inkscape.org/namespaces/inkscape"
   width="600"
   height="600"
   id="svg2"
   sodipodi:version="0.32"
   inkscape:version="0.43"
   version="1.0"
   sodipodi:docbase="C:\Documents and Settings\David Nelson\Archives\Svg"
   sodipodi:docname="Flag_of_Canton_of_Geneva.svg">
  <defs
     id="defs4" />
  <sodipodi:namedview
     id="base"
     pagecolor="#ffffff"
     bordercolor="#666666"
     borderopacity="1.0"
     inkscape:pageopacity="0.0"
     inkscape:pageshadow="2"
     inkscape:zoom="0.62166667"
     inkscape:cx="300"
     inkscape:cy="260.76056"
     inkscape:document-units="px"
     inkscape:current-layer="layer1"
     inkscape:window-width="756"
     inkscape:window-height="540"
     inkscape:window-x="19"
     inkscape:window-y="57"
     showguides="true"
     inkscape:guide-bbox="true" />
  <metadata
     id="metadata7">
    <rdf:RDF>
      <cc:Work
         rdf:about="">
        <dc:format>image/svg+xml</dc:format>
        <dc:type
           rdf:resource="http://purl.org/dc/dcmitype/StillImage" />
      </cc:Work>
    </rdf:RDF>
  </metadata>
  <g
     inkscape:label="Layer 1"
     inkscape:groupmode="layer"
     id="layer1">
    <rect
       y="0"
       x="0"
       height="600"
       width="600"
       id="rect2467"
       style="opacity:1;color:#000000;fill:#ffe000;fill-opacity:1;fill-rule:evenodd;stroke:none;stroke-width:1;stroke-linecap:butt;stroke-linejoin:miter;marker:none;marker-start:none;marker-mid:none;marker-end:none;stroke-miterlimit:4;stroke-dasharray:none;stroke-dashoffset:0;stroke-opacity:1;visibility:visible;display:inline;overflow:visible" />
    <g
       id="g2631">
      <path
         id="path2251"
         d="M 205.21887,29.589844 C 182.89521,30.242684 165.15539,40.879711 165.15539,53.90625 C 165.15539,67.353 184.08341,78.295898 207.41614,78.295898 C 230.74887,78.295898 249.67688,67.353 249.67688,53.90625 C 249.67688,40.4595 230.74887,29.589844 207.41614,29.589844 C 206.68699,29.589844 205.93899,29.568785 205.21887,29.589844 z M 204.99914,37.060547 C 205.78662,37.027861 206.61338,37.060547 207.41614,37.060547 C 224.54163,37.060547 238.47082,44.57355 238.47082,53.90625 C 238.47082,63.238948 224.54163,70.825195 207.41614,70.825195 C 190.29064,70.825195 176.36145,63.23895 176.36145,53.90625 C 176.36145,45.011018 188.98707,37.725178 204.99914,37.060547 z "
         style="color:#000000;fill:#ff0000;fill-opacity:1;fill-rule:evenodd;stroke:#000000;stroke-width:2.34375;stroke-linecap:butt;stroke-linejoin:miter;marker:none;marker-start:none;marker-mid:none;marker-end:none;stroke-miterlimit:4;stroke-dasharray:none;stroke-dashoffset:0;stroke-opacity:1;visibility:visible;display:inline;overflow:visible" />
      <use
         height="256"
         width="256"
         transform="translate(-10.94249,0.59557)"
         id="use2233"
         xlink:href="#path2225"
         y="0"
         x="0" />
      <use
         x="0"
         y="0"
         xlink:href="#path2225"
         id="use2268"
         transform="matrix(-1,0,0,1,425.7748,0.59557)"
         width="256"
         height="256" />
      <path
         transform="scale(2.34375,2.34375)"
         d="M 92.339511 6.2726245 A 3.8419597 3.8419597 0 1 1  84.655591,6.2726245 A 3.8419597 3.8419597 0 1 1  92.339511 6.2726245 z"
         sodipodi:ry="3.8419597"
         sodipodi:rx="3.8419597"
         sodipodi:cy="6.2726245"
         sodipodi:cx="88.497551"
         id="path1350"
         style="color:#000000;fill:#ff0000;fill-opacity:1;fill-rule:evenodd;stroke:#000000;stroke-width:1;stroke-linecap:butt;stroke-linejoin:miter;marker:none;marker-start:none;marker-mid:none;marker-end:none;stroke-miterlimit:4;stroke-dasharray:none;stroke-dashoffset:0;stroke-opacity:1;visibility:visible;display:inline;overflow:visible"
         sodipodi:type="arc" />
      <use
         height="256"
         width="256"
         transform="translate(2.847765e-15,12.10938)"
         id="use2227"
         xlink:href="#path2225"
         y="0"
         x="0" />
      <use
         x="0"
         y="0"
         xlink:href="#path2225"
         id="use2229"
         transform="translate(-7.270814e-8,24.21874)"
         width="256"
         height="256" />
      <use
         height="256"
         width="256"
         transform="translate(2.847765e-15,36.32813)"
         id="use2231"
         xlink:href="#path2225"
         y="0"
         x="0" />
      <path
         transform="scale(2.34375,2.34375)"
         d="M 90.749734 12.499249 A 2.2521832 2.2521832 0 1 1  86.245368,12.499249 A 2.2521832 2.2521832 0 1 1  90.749734 12.499249 z"
         sodipodi:ry="2.2521832"
         sodipodi:rx="2.2521832"
         sodipodi:cy="12.499249"
         sodipodi:cx="88.497551"
         id="path2225"
         style="color:#000000;fill:#ff0000;fill-opacity:1;fill-rule:evenodd;stroke:#000000;stroke-width:1;stroke-linecap:butt;stroke-linejoin:miter;marker:none;marker-start:none;marker-mid:none;marker-end:none;stroke-miterlimit:4;stroke-dasharray:none;stroke-dashoffset:0;stroke-opacity:1;visibility:visible;display:inline;overflow:visible"
         sodipodi:type="arc" />
      <use
         x="0"
         y="0"
         xlink:href="#path2225"
         id="use2239"
         transform="translate(-22.09199,3.385998)"
         width="256"
         height="256" />
      <use
         height="256"
         width="256"
         transform="matrix(-1,0,0,1,436.9243,3.385998)"
         id="use2270"
         xlink:href="#path2225"
         y="0"
         x="0" />
      <use
         height="256"
         width="256"
         transform="translate(-32.60554,7.315877)"
         id="use2241"
         xlink:href="#path2225"
         y="0"
         x="0" />
      <use
         x="0"
         y="0"
         xlink:href="#path2225"
         id="use2272"
         transform="matrix(-1,0,0,1,447.4378,7.315877)"
         width="256"
         height="256" />
      <use
         x="0"
         y="0"
         xlink:href="#path2225"
         id="use2243"
         transform="translate(-41.41127,15.23437)"
         width="256"
         height="256" />
      <use
         height="256"
         width="256"
         transform="matrix(-1,0,0,1,456.2435,15.23437)"
         id="use2274"
         xlink:href="#path2225"
         y="0"
         x="0" />
      <use
         height="256"
         width="256"
         transform="translate(-41.41127,26.95313)"
         id="use2245"
         xlink:href="#path2225"
         y="0"
         x="0" />
      <use
         x="0"
         y="0"
         xlink:href="#path2225"
         id="use2276"
         transform="matrix(-1,0,0,1,456.2435,26.95313)"
         width="256"
         height="256" />
      <use
         x="0"
         y="0"
         xlink:href="#path2225"
         id="use2247"
         transform="translate(-34.37999,36.32813)"
         width="256"
         height="256" />
      <use
         height="256"
         width="256"
         transform="matrix(-1,0,0,1,449.2123,36.32813)"
         id="use2278"
         xlink:href="#path2225"
         y="0"
         x="0" />
      <rect
         ry="3.4511311"
         y="71.125664"
         x="169.56062"
         height="6.9022622"
         width="75.711029"
         id="rect2280"
         style="color:#000000;fill:#ff0000;fill-opacity:1;fill-rule:evenodd;stroke:#000000;stroke-width:2.34374952;stroke-linecap:butt;stroke-linejoin:miter;marker:none;marker-start:none;marker-mid:none;marker-end:none;stroke-miterlimit:4;stroke-dasharray:none;stroke-dashoffset:0;stroke-opacity:1;visibility:visible;display:inline;overflow:visible" />
      <path
         id="path2309"
         d="M 76.245117,34.790039 C 35.380005,54.130695 51.826915,90.93424 64.746094,126.70898 C 49.037679,112.41109 45.281646,92.126027 38.15918,73.535156 C 21.670202,86.989615 21.622024,103.28873 70.019531,166.25977 C 54.00447,149.82724 37.560389,134.82271 24.462891,108.17871 C -0.77696229,113.97371 12.448085,145.69445 47.827148,192.40723 C 36.890906,186.34299 28.513207,178.57477 22.119141,169.48242 C 15.126533,177.20411 17.914401,196.31951 51.342773,210.27832 C 52.809471,210.89077 53.803999,211.81475 53.979492,212.47559 C 53.981466,212.48602 53.977952,212.53851 53.979492,212.54883 C 53.980598,212.55902 53.978827,212.61201 53.979492,212.62207 C 53.979274,212.63187 53.980158,212.68565 53.979492,212.69531 C 53.978377,212.70483 53.981063,212.75918 53.979492,212.76855 C 53.977008,212.77762 53.982438,212.83289 53.979492,212.8418 C 53.971737,212.85896 53.915892,212.89856 53.90625,212.91504 C 53.900953,212.9231 53.912027,212.9804 53.90625,212.98828 C 53.893734,213.00367 53.847469,213.0469 53.833008,213.06152 C 53.824793,213.06844 53.768477,213.12806 53.759766,213.13477 C 53.750555,213.14127 53.696236,213.12848 53.686523,213.13477 C 53.666088,213.14691 53.635753,213.19676 53.613281,213.20801 C 53.578031,213.2242 53.506723,213.26719 53.466797,213.28125 C 53.037952,213.41901 52.32086,213.43847 51.342773,213.28125 C 32.471365,210.24787 27.599817,204.05265 20.727539,198.04688 C 10.339514,188.96865 5.4199219,199.50865 5.4199219,204.19922 C 5.4199221,218.66653 20.977285,235.11302 56.103516,230.56641 C 56.103516,230.56641 56.107863,230.62984 56.103516,230.63965 C 55.826766,231.2092 53.203842,235.7666 41.162109,235.7666 C 30.685983,235.7666 8.6425781,225.86831 8.6425781,244.77539 C 8.6425781,263.60742 52.811522,255.9634 64.96582,244.77539 C 43.804413,267.63762 9.7412109,260.46091 9.7412109,294.94629 C 9.7412105,306.3739 34.361135,329.32697 70.678711,285.49805 C 45.847819,332.35148 -6.5664159,353.88633 14.941406,372.14355 C 29.24888,384.28868 62.039264,328.29012 81.958008,288.13477 C 79.802726,338.49633 16.918945,386.9427 16.918945,413.08594 C 16.918945,433.44804 38.900456,440.5928 50.097656,427.0752 C 67.297983,406.31044 92.891679,361.84045 100.70801,310.25391 C 102.21588,300.30218 103.76185,295.17408 104.88281,293.70117 C 104.89427,293.68676 104.94469,293.64157 104.95605,293.62793 C 104.96732,293.61504 105.01813,293.5668 105.0293,293.55469 C 105.04037,293.54332 105.09157,293.49206 105.10254,293.48145 C 105.1134,293.47158 105.16502,293.41732 105.17578,293.4082 C 105.18634,293.40059 105.23858,293.34183 105.24902,293.33496 C 105.25936,293.32882 105.31204,293.34037 105.32227,293.33496 C 105.33228,293.33102 105.38561,293.26493 105.39551,293.26172 C 105.40529,293.25923 105.45908,293.26348 105.46875,293.26172 C 105.47819,293.26139 105.53267,293.26132 105.54199,293.26172 C 105.5512,293.26282 105.60615,293.25991 105.61523,293.26172 C 105.62408,293.26493 105.67976,293.33105 105.68848,293.33496 C 105.69695,293.34028 105.75338,293.32896 105.76172,293.33496 C 105.77815,293.34837 105.81904,293.39205 105.83496,293.4082 C 105.85845,293.43445 105.88591,293.52234 105.9082,293.55469 C 105.9155,293.56615 105.97429,293.61581 105.98145,293.62793 C 105.98847,293.64073 105.97456,293.68772 105.98145,293.70117 C 105.98819,293.71528 106.04809,293.75965 106.05469,293.77441 C 106.80411,295.56359 106.61764,301.77949 104.58984,310.25391 C 100.03858,329.27416 93.726694,350.9996 81.298828,386.05957 C 71.778984,412.91573 59.912109,431.54325 59.912109,443.11523 C 59.912109,448.35307 61.431047,451.29886 63.574219,452.41699 C 67.395738,454.32989 73.232606,450.69401 76.171875,444.72656 C 88.925505,418.83347 111.58391,352.75891 117.26074,312.74414 C 119.00506,300.44878 120.38596,294.71869 121.21582,293.55469 C 121.2399,293.52309 121.26598,293.43197 121.28906,293.4082 C 121.29664,293.40115 121.35483,293.41441 121.3623,293.4082 C 121.37702,293.39752 121.42128,293.34225 121.43555,293.33496 C 121.44234,293.33384 121.50211,293.33527 121.50879,293.33496 C 121.51523,293.33632 121.5757,293.33278 121.58203,293.33496 C 121.58801,293.33958 121.64941,293.40277 121.65527,293.4082 C 121.67179,293.43169 121.71308,293.5241 121.72852,293.55469 C 122.34626,295.03537 121.99766,302.69355 120.26367,312.74414 C 113.9754,349.19241 93.315628,432.03122 82.763672,445.45898 C 79.470966,449.64907 76.938584,459.52148 88.183594,459.52148 C 116.07058,459.52146 131.91416,430.5994 142.0166,295.89844 C 142.14437,294.18492 142.46574,293.00864 142.89551,292.30957 C 142.94993,292.22576 143.05832,292.0863 143.11523,292.0166 C 143.14397,291.98348 143.23248,291.89981 143.26172,291.87012 C 143.27646,291.85612 143.32012,291.81002 143.33496,291.79688 C 143.39475,291.74761 143.49357,291.68648 143.55469,291.65039 C 143.58538,291.63396 143.67027,291.59037 143.70117,291.57715 C 143.73216,291.5655 143.81654,291.51241 143.84766,291.50391 C 143.87882,291.49695 143.96294,291.5078 143.99414,291.50391 C 144.00974,291.50271 144.05179,291.50435 144.06738,291.50391 C 144.09853,291.50452 144.18282,291.50034 144.21387,291.50391 C 144.29129,291.51642 144.4309,291.54687 144.50684,291.57715 C 144.52194,291.5839 144.56506,291.64296 144.58008,291.65039 C 144.60992,291.66663 144.69715,291.7047 144.72656,291.72363 C 144.78492,291.76416 144.8901,291.81919 144.94629,291.87012 C 145.12689,292.04386 145.31311,292.32823 145.45898,292.60254 C 145.85371,293.38216 146.08461,294.53838 145.97168,295.89844 C 144.08205,318.6563 138.89424,375.94819 136.66992,387.37793 C 133.45008,403.92321 151.56978,414.97057 153.36914,399.53613 C 156.44727,373.13278 157.39746,342.4084 157.39746,292.5293 C 157.39746,283.47452 165.05676,283.94625 165.52734,292.96875 C 165.94742,301.023 166.25767,364.22801 161.86523,381.22559 C 160.29212,387.3131 159.327,393.45703 166.18652,393.45703 C 192.25955,393.45703 202.24134,338.73368 199.29199,303.36914 C 198.85488,298.12784 199.17549,294.65634 199.80469,293.4082 C 199.90972,293.21805 200.04905,293.0389 200.1709,292.96875 C 200.17817,292.96547 200.23682,292.97161 200.24414,292.96875 C 200.25156,292.96673 200.30991,292.8971 200.31738,292.89551 C 200.32495,292.89478 200.38301,292.89581 200.39063,292.89551 C 200.40613,292.89748 200.44819,292.96505 200.46387,292.96875 C 200.47175,292.97102 200.52918,292.96603 200.53711,292.96875 C 200.55305,292.97503 200.59425,292.96071 200.61035,292.96875 C 201.52098,293.51602 202.74005,296.82412 203.68652,303.36914 C 209.48794,343.48697 202.19924,358.61543 202.9541,362.54883 C 202.9619,362.58478 203.0181,362.6613 203.02734,362.69531 C 203.03732,362.72836 203.01587,362.81065 203.02734,362.8418 C 203.03958,362.87198 203.0868,362.95997 203.10059,362.98828 C 203.10788,363.00197 203.16614,363.04828 203.17383,363.06152 C 203.1981,363.09987 203.2191,363.17374 203.24707,363.20801 C 203.25682,363.21898 203.31014,363.27073 203.32031,363.28125 C 203.35211,363.31151 203.43106,363.32815 203.4668,363.35449 C 203.47916,363.36284 203.52723,363.41981 203.54004,363.42773 C 203.57983,363.45026 203.64256,363.48223 203.68652,363.50098 C 203.71678,363.51265 203.80084,363.56416 203.83301,363.57422 C 203.88272,363.58807 203.99857,363.56395 204.05273,363.57422 C 204.12697,363.58636 204.26325,363.64148 204.3457,363.64746 C 204.40912,363.65081 204.49721,363.64746 204.56543,363.64746 C 221.49493,363.64748 214.22884,307.18413 211.52344,286.23047 L 215.55176,290.25879 L 215.18555,273.12012 C 225.12298,316.58011 237.093,351.38224 244.84863,375.87891 C 258.87415,420.17939 276.34277,447.12799 276.34277,478.56445 C 276.34277,531.89555 195.76303,586.18559 181.93359,520.53223 C 138.60107,534.90073 167.98069,572.68066 185.66895,572.68066 C 188.04679,572.68066 189.31935,572.95978 189.84375,573.41309 C 189.86151,573.42952 189.90114,573.46945 189.91699,573.48633 C 189.93189,573.50344 189.9772,573.54202 189.99023,573.55957 C 190.00234,573.57736 190.05319,573.6146 190.06348,573.63281 C 190.06772,573.64214 190.05967,573.69663 190.06348,573.70605 C 190.06684,573.71559 190.13379,573.76966 190.13672,573.7793 C 190.13879,573.78914 190.13507,573.8426 190.13672,573.85254 C 190.13795,573.86257 190.13591,573.91566 190.13672,573.92578 C 190.13671,573.93612 190.13713,573.98859 190.13672,573.99902 C 189.9922,575.86125 183.5912,579.255 181.34766,581.32324 C 230.36475,599.84913 261.16029,556.71968 265.7959,555.0293 C 265.83117,555.01847 265.91044,554.96152 265.94238,554.95605 C 265.95752,554.95467 266.00133,554.95605 266.01563,554.95605 C 268.93167,554.95605 270.54602,555.6698 271.14258,556.78711 C 273.22678,561.00884 261.63323,571.54699 253.71094,577.9541 C 267.56944,582.76024 278.59901,581.53317 284.91211,570.41016 C 287.09377,577.80108 284.80369,583.64084 300,595.01953 L 300,144.14063 C 284.25237,145.35057 281.47777,138.43993 284.32617,128.02734 C 262.66732,124.37398 264.21616,115.11784 274.07227,103.85742 C 268.24573,102.44665 263.28598,102.6578 258.54492,103.41797 C 256.87357,88.444816 247.55904,84.862331 239.64844,79.248047 L 174.90234,79.248047 C 166.22137,83.293343 161.0622,89.7297 158.93555,98.144531 L 198.2666,138.94043 L 174.31641,165.4541 C 220.00444,149.37817 261.51783,191.74805 229.10156,191.74805 C 212.30282,191.74805 207.2448,194.0779 198.48633,205.44434 C 173.1122,188.56607 153.52123,237.59766 125.90332,237.59766 C 96.468834,237.59766 88.897303,200.09766 108.10547,200.09766 C 115.2482,200.09766 114.69656,207.34863 123.2666,207.34863 C 130.19291,207.34864 137.91116,204.27142 135.71777,197.3877 C 131.12167,182.96328 81.654518,88.060852 76.245117,34.790039 z "
         style="fill:#000000;fill-opacity:1;fill-rule:evenodd;stroke:none;stroke-width:1px;stroke-linecap:butt;stroke-linejoin:miter;stroke-opacity:1" />
      <rect
         style="color:#000000;fill:#ff0000;fill-opacity:1;fill-rule:evenodd;stroke:#000000;stroke-width:2.34375;stroke-linecap:butt;stroke-linejoin:miter;marker:none;marker-start:none;marker-mid:none;marker-end:none;stroke-miterlimit:4;stroke-dasharray:none;stroke-dashoffset:0;stroke-opacity:1;visibility:visible;display:inline;overflow:visible"
         id="rect2282"
         width="70.741562"
         height="5.6925588"
         x="172.04535"
         y="77.992363"
         ry="2.8462794" />
      <path
         sodipodi:nodetypes="cccccc"
         id="path2284"
         d="M 228.67267,337.36603 C 211.66476,364.58327 195.43442,392.57808 170.25926,411.62805 C 178.77589,418.96003 190.4837,423.1008 211.0128,418.42031 C 205.55377,432.33961 223.44716,447.28891 225.95577,454.64569 C 232.47736,435.43652 238.58435,416.08915 248.59662,398.04354 L 228.67267,337.36603 z "
         style="fill:#000000;fill-opacity:1;fill-rule:evenodd;stroke:none;stroke-width:1px;stroke-linecap:butt;stroke-linejoin:miter;stroke-opacity:1" />
      <path
         sodipodi:nodetypes="cccc"
         id="path2291"
         d="M 81.420839,481.31878 C 73.273552,485.20235 68.529975,491.35507 65.89568,498.91397 L 83.49086,492.7039 L 81.420839,481.31878 z "
         style="fill:#ff0000;fill-opacity:1;fill-rule:evenodd;stroke:#000000;stroke-width:2.34375px;stroke-linecap:butt;stroke-linejoin:miter;stroke-opacity:1" />
      <path
         sodipodi:nodetypes="ccc"
         id="path2293"
         d="M 72.450748,517.54416 L 75.555778,547.55946 C 39.915277,543.4197 52.796728,522.07992 72.450748,517.54416 z "
         style="fill:#ff0000;fill-opacity:1;fill-rule:evenodd;stroke:#000000;stroke-width:2.34375px;stroke-linecap:butt;stroke-linejoin:miter;stroke-opacity:1" />
      <path
         sodipodi:nodetypes="cccc"
         id="path2295"
         d="M 120.40624,542.03939 C 119.33644,550.03755 107.58894,582.23311 135.24139,576.19477 C 123.80941,560.59352 129.22871,554.6216 129.72134,545.83444 L 120.40624,542.03939 z "
         style="fill:#ff0000;fill-opacity:1;fill-rule:evenodd;stroke:#000000;stroke-width:2.34375px;stroke-linecap:butt;stroke-linejoin:miter;stroke-opacity:1" />
      <path
         sodipodi:nodetypes="cccc"
         id="path2297"
         d="M 213.90221,488.90885 C 221.06575,495.80892 219.85439,502.70899 217.00724,509.60906 C 233.83275,507.19622 231.4498,494.21873 230.46238,482.00878 L 213.90221,488.90885 z "
         style="fill:#ff0000;fill-opacity:1;fill-rule:evenodd;stroke:#000000;stroke-width:2.34375px;stroke-linecap:butt;stroke-linejoin:miter;stroke-opacity:1" />
      <path
         sodipodi:nodetypes="cccccccssccsccsccc"
         id="path2286"
         d="M 211.01074,418.43262 C 202.067,420.47173 194.80583,420.81462 188.74512,419.9707 L 162.01172,477.02637 C 162.72395,473.94516 163.74192,470.94035 160.40039,466.8457 C 133.47816,470.03562 105.57075,470.13356 81.298828,481.27441 L 80.712891,493.5791 C 107.15474,494.76977 127.21217,495.91613 148.68164,493.5791 C 119.60051,505.16372 61.523438,513.71763 61.523438,528.36914 C 61.52344,538.98246 88.275511,534.24455 101.58691,531.00586 C 123.99466,525.55402 132.5132,510.13184 139.59961,510.13184 C 89.834503,570.42476 147.58005,568.73309 139.59961,542.79785 C 157.20141,543.77759 159.82484,526.80848 163.62305,511.23047 C 170.76327,481.94543 194.90242,521.76558 197.82715,495.19043 C 203.9481,503.17997 211.71009,499.50323 214.30664,489.33105 C 240.17065,489.98409 229.51587,474.38965 220.16602,474.38965 C 211.52961,474.38962 206.23141,480.4249 191.89453,477.97852 L 214.81934,437.98828 C 211.03605,431.84377 208.42197,425.03341 211.01074,418.43262 z "
         style="fill:#ff0000;fill-opacity:1;fill-rule:evenodd;stroke:#000000;stroke-width:2.34375px;stroke-linecap:butt;stroke-linejoin:miter;stroke-opacity:1" />
      <path
         sodipodi:nodetypes="cccc"
         id="path2301"
         d="M 194.21476,136.39057 C 170.23173,144.06708 147.23058,161.98325 120.10885,136.92757 C 129.81425,155.04792 142.50747,168.96917 169.69179,162.52454 L 194.21476,136.39057 z "
         style="fill:#ff0000;fill-opacity:1;fill-rule:evenodd;stroke:#000000;stroke-width:2.34375px;stroke-linecap:butt;stroke-linejoin:miter;stroke-opacity:1" />
      <path
         transform="matrix(2.124023,0,0,1.953124,19.11859,18.07028)"
         d="M 92.427835 46.259918 A 5.417016 3.0470715 0 1 1  81.593802,46.259918 A 5.417016 3.0470715 0 1 1  92.427835 46.259918 z"
         sodipodi:ry="3.0470715"
         sodipodi:rx="5.417016"
         sodipodi:cy="46.259918"
         sodipodi:cx="87.010818"
         id="path2305"
         style="color:#000000;fill:#ffffff;fill-opacity:1;fill-rule:evenodd;stroke:none;stroke-width:1;stroke-linecap:butt;stroke-linejoin:miter;marker:none;marker-start:none;marker-mid:none;marker-end:none;stroke-miterlimit:4;stroke-dasharray:none;stroke-dashoffset:0;stroke-opacity:1;visibility:visible;display:inline;overflow:visible"
         sodipodi:type="arc" />
      <path
         transform="matrix(2.578125,0,0,2.578125,-20.11543,-10.40578)"
         d="M 85.825844 46.090637 A 1.6928174 1.6928174 0 1 1  82.440209,46.090637 A 1.6928174 1.6928174 0 1 1  85.825844 46.090637 z"
         sodipodi:ry="1.6928174"
         sodipodi:rx="1.6928174"
         sodipodi:cy="46.090637"
         sodipodi:cx="84.133026"
         id="path2303"
         style="color:#000000;fill:#000000;fill-opacity:1;fill-rule:evenodd;stroke:none;stroke-width:1;stroke-linecap:butt;stroke-linejoin:miter;marker:none;marker-start:none;marker-mid:none;marker-end:none;stroke-miterlimit:4;stroke-dasharray:none;stroke-dashoffset:0;stroke-opacity:1;visibility:visible;display:inline;overflow:visible"
         sodipodi:type="arc" />
      <path
         sodipodi:nodetypes="cscc"
         id="path2307"
         d="M 222.39792,96.984813 C 213.82433,102.04047 200.75768,102.80675 188.43663,102.80675 C 181.43645,102.80675 181.9968,94.26791 191.15353,94.461975 C 192.66213,100.55308 207.88992,98.856921 222.39792,96.984813 z "
         style="fill:#ffffff;fill-opacity:1;fill-rule:evenodd;stroke:none;stroke-width:1px;stroke-linecap:butt;stroke-linejoin:miter;stroke-opacity:1" />
      <path
         sodipodi:nodetypes="ccsccc"
         id="path2299"
         d="M 132.3908,132.26574 C 123.6241,109.43533 133.0198,95.37071 161.03472,96.286181 C 161.03472,96.286181 187.60636,119.04665 198.41155,133.663 C 218.68261,161.08402 179.82953,154.56101 164.17857,174.8823 C 158.69026,159.80168 175.22653,148.05503 191.07591,137.15616 C 174.19353,127.22013 158.2628,114.33397 132.3908,132.26574 z "
         style="fill:#ff0000;fill-opacity:1;fill-rule:evenodd;stroke:#000000;stroke-width:2.34375px;stroke-linecap:butt;stroke-linejoin:miter;stroke-opacity:1" />
    </g>
    <rect
       style="opacity:1;color:#000000;fill:#ff0000;fill-opacity:1;fill-rule:evenodd;stroke:none;stroke-width:1;stroke-linecap:butt;stroke-linejoin:miter;marker:none;marker-start:none;marker-mid:none;marker-end:none;stroke-miterlimit:4;stroke-dasharray:none;stroke-dashoffset:0;stroke-opacity:1;visibility:visible;display:inline;overflow:visible"
       id="rect2413"
       width="300"
       height="600"
       x="300"
       y="0" />
    <g
       id="g2420"
       transform="scale(2.34375,2.34375)">
      <path
         id="rect2383"
         d="M 207.28125,18.34375 L 207.28125,31.84375 L 197.125,31.84375 L 197.125,62.96875 L 197.125,64.1875 L 197.125,95.3125 L 207.28125,95.3125 L 207.28125,108.8125 L 220.5625,108.8125 L 220.5625,102.6875 C 220.5625,99.321551 223.29029,96.593746 226.65625,96.59375 C 230.0222,96.59375 232.71875,99.321546 232.71875,102.6875 L 232.71875,108.8125 L 248.59375,108.8125 L 248.59375,95.40625 L 243.75,95.40625 C 240.38405,95.40625 237.65625,92.709696 237.65625,89.34375 C 237.65625,85.977801 240.38406,83.281244 243.75,83.28125 L 248.59375,83.28125 L 248.59375,82.40625 L 248.59375,69.875 L 220.59375,69.875 L 220.59375,82.40625 L 207.65625,82.40625 L 207.65625,64.1875 L 207.65625,62.96875 L 207.65625,44.75 L 220.59375,44.75 L 220.59375,57.28125 L 248.59375,57.28125 L 248.59375,44.75 L 248.59375,43.875 L 243.75,43.875 C 240.38406,43.875002 237.65625,41.178449 237.65625,37.8125 C 237.65625,34.44655 240.38405,31.75 243.75,31.75 L 248.59375,31.75 L 248.59375,18.34375 L 232.71875,18.34375 L 232.71875,24.46875 C 232.71875,27.8347 230.0222,30.5625 226.65625,30.5625 C 223.29029,30.5625 220.5625,27.834699 220.5625,24.46875 L 220.5625,18.34375 L 207.28125,18.34375 z "
         style="opacity:1;color:#000000;fill:#ffe000;fill-opacity:1;fill-rule:evenodd;stroke:#000000;stroke-width:1;stroke-linecap:butt;stroke-linejoin:miter;marker:none;marker-start:none;marker-mid:none;marker-end:none;stroke-miterlimit:4;stroke-dasharray:none;stroke-dashoffset:0;stroke-opacity:1;visibility:visible;display:inline;overflow:visible" />
      <path
         id="path2340"
         d="M 183.78125,13.03125 L 183.78125,153.40625 C 183.78125,160.01615 179.13752,177.5625 164.21875,177.5625 C 149.29998,177.56251 149.29998,196.71875 164.21875,196.71875 C 179.13752,196.71876 183.78125,214.26509 183.78125,220.875 C 183.78125,227.48491 199.1875,227.48491 199.1875,220.875 C 199.1875,214.26509 203.83123,196.71875 218.75,196.71875 C 233.66876,196.71876 233.66877,177.5625 218.75,177.5625 C 203.83122,177.56251 199.1875,160.01616 199.1875,153.40625 L 199.1875,13.03125 L 183.78125,13.03125 z M 190.8125,169.875 C 190.86777,169.86944 190.91311,169.87924 190.96875,169.875 C 191.14389,169.86166 191.32146,169.875 191.5,169.875 C 195.30885,169.87501 198.375,172.97241 198.375,176.78125 C 198.375,177.94176 198.10056,179.00862 197.59375,179.96875 C 198.54853,179.4692 199.62967,179.1875 200.78125,179.1875 C 204.59009,179.1875 207.6875,182.25366 207.6875,186.0625 C 207.6875,189.87134 204.59009,192.96875 200.78125,192.96875 C 199.6386,192.96875 198.57439,192.67983 197.625,192.1875 C 198.12214,193.14049 198.375,194.2264 198.375,195.375 C 198.37499,199.18384 195.30884,202.28125 191.5,202.28125 C 187.69117,202.28125 184.59375,199.18384 184.59375,195.375 C 184.59375,194.22342 184.87545,193.14228 185.375,192.1875 C 184.42022,192.68705 183.33908,192.96875 182.1875,192.96875 C 178.37866,192.96875 175.28125,189.87134 175.28125,186.0625 C 175.28125,182.25366 178.37866,179.1875 182.1875,179.1875 C 183.33908,179.1875 184.42022,179.4692 185.375,179.96875 C 184.86819,179.00862 184.59375,177.94176 184.59375,176.78125 C 184.59376,173.20768 187.33042,170.22559 190.8125,169.875 z "
         style="fill:#ffe000;fill-opacity:1;fill-rule:evenodd;stroke:#000000;stroke-width:1px;stroke-linecap:butt;stroke-linejoin:miter;stroke-opacity:1" />
      <g
         style="fill:#ffe000;fill-opacity:1"
         id="g2327">
        <path
           sodipodi:type="arc"
           style="opacity:1;color:#000000;fill:#ffe000;fill-opacity:1;fill-rule:evenodd;stroke:#000000;stroke-width:0.93048579;stroke-linecap:butt;stroke-linejoin:miter;marker:none;marker-start:none;marker-mid:none;marker-end:none;stroke-miterlimit:4;stroke-dasharray:none;stroke-dashoffset:0;stroke-opacity:1;visibility:visible;display:inline;overflow:visible"
           id="path2321"
           sodipodi:cx="145.13333"
           sodipodi:cy="186.91096"
           sodipodi:rx="8.8100109"
           sodipodi:ry="8.8100109"
           d="M 153.94334 186.91096 A 8.8100109 8.8100109 0 1 1  136.32332,186.91096 A 8.8100109 8.8100109 0 1 1  153.94334 186.91096 z"
           transform="matrix(1.074707,0,0,1.074707,-10.84254,-13.73182)" />
        <rect
           style="opacity:1;color:#000000;fill:#ffe000;fill-opacity:1;fill-rule:evenodd;stroke:#000000;stroke-width:1.00000012;stroke-linecap:butt;stroke-linejoin:miter;marker:none;marker-start:none;marker-mid:none;marker-end:none;stroke-miterlimit:4;stroke-dasharray:none;stroke-dashoffset:0;stroke-opacity:1;visibility:visible;display:inline;overflow:visible"
           id="rect2315"
           width="6.6244655"
           height="29.163872"
           x="152.83369"
           y="172.56085"
           ry="3.0139511" />
        <rect
           ry="3.0139511"
           y="172.56085"
           x="159.45816"
           height="29.163872"
           width="6.6244655"
           id="rect2319"
           style="opacity:1;color:#000000;fill:#ffe000;fill-opacity:1;fill-rule:evenodd;stroke:#000000;stroke-width:1.00000012;stroke-linecap:butt;stroke-linejoin:miter;marker:none;marker-start:none;marker-mid:none;marker-end:none;stroke-miterlimit:4;stroke-dasharray:none;stroke-dashoffset:0;stroke-opacity:1;visibility:visible;display:inline;overflow:visible" />
      </g>
      <use
         height="256"
         width="256"
         transform="matrix(0,-1,1,0,4.34251,385.4912)"
         id="use2332"
         xlink:href="#g2327"
         y="0"
         x="0" />
      <use
         x="0"
         y="0"
         xlink:href="#g2327"
         id="use2334"
         transform="matrix(-1,0,0,-1,382.9706,374.2854)"
         width="256"
         height="256" />
      <rect
         ry="4.417263"
         y="128.56197"
         x="172.46588"
         height="8.8345261"
         width="38.036804"
         id="rect2375"
         style="opacity:1;color:#000000;fill:#ffe000;fill-opacity:1;fill-rule:evenodd;stroke:#000000;stroke-width:1;stroke-linecap:butt;stroke-linejoin:miter;marker:none;marker-start:none;marker-mid:none;marker-end:none;stroke-miterlimit:4;stroke-dasharray:none;stroke-dashoffset:0;stroke-opacity:1;visibility:visible;display:inline;overflow:visible" />
      <use
         style="fill:#ffe000;fill-opacity:1;stroke-width:1;stroke-miterlimit:4;stroke-dasharray:none"
         height="256"
         width="256"
         transform="translate(0,18.11903)"
         id="use2377"
         xlink:href="#rect2375"
         y="0"
         x="0" />
    </g>
  </g>
</svg>
