<?xml version="1.0"?>
<svg xmlns="http://www.w3.org/2000/svg" viewBox="0 0 1894 1900">
<title>Flagge Aargau</title>
<path d="m1887 1893h-1880l0.072-1886 1880 0.072v1886z"/>
<path d="m1887 1893h-940.2v-1886l940.2 0.072v1886z" fill="#248bcc"/>
<g fill="#fff">
<path d="m935.7 865.9c-45.6-8.5-53.1-39.5-123-39.5-81.3 0-68.9 43-166 43s-87.1-43-168.3-43c-81.3 0-75.3 43-168.7 43-93.5 0-84.4-43-165.6-43-75.57 0-78.22 36-134.6 41.1l-0.006-137c56.39-5 59.04-41.1 134.6-41.1 81.2 0 72.1 43 165.6 43 93.4 0 87.4-43 168.7-43 81.2 0 71.2 43 168.3 43s84.7-43 166-43c69.9 0 77.4 31 123 39.6v136.9z"/>
<path d="m935.7 1049c-45.6-9-53.1-40-123-40-81.3 0-68.9 43-166 43s-87.1-43-168.3-43c-81.3 0-75.3 43-168.7 43-93.5 0-84.4-43-165.6-43-75.57 0-78.22 36-134.6 41l-0.006-136.5c56.39-5.1 59.04-41.1 134.6-41.1 81.2 0 72.1 42.9 165.6 42.9 93.4 0 87.4-42.9 168.7-42.9 81.2 0 71.2 42.9 168.3 42.9s84.7-42.9 166-42.9c69.9 0 77.4 30.9 123 39.5v137.1z"/>
<path d="m935.7 1232c-45.6-9-53.1-40-123-40-81.3 0-68.9 43-166 43s-87.1-43-168.3-43c-81.3 0-75.3 43-168.7 43-93.5 0-84.4-43-165.6-43-75.57 0-78.22 36-134.6 41l-0.006-137c56.39-5 59.04-41 134.6-41 81.2 0 72.1 43 165.6 43 93.4 0 87.4-43 168.7-43 81.2 0 71.2 43 168.3 43s84.7-43 166-43c69.9 0 77.4 31 123 40v137z"/>
<path d="m1628 530.1 54 145.3h142l-112 76.9 42 137.8-126-81.2-126 81.2 44-138.9-113-75.8h142l53-145.3zm-439 0 54 145.3h142l-112 76.9 42 137.8-126-81.2-125 81.2 43-138.9-113.1-75.8h142.1l53-145.3zm220 384.5 54 145.4h142l-113 76 43 139-126-82-126 81 43-138-112-77h142l53-144.4z" stroke="#000" stroke-width="14.14"/>
</g>
<path d="m1887 1893h-1880l0.072-1886 1880 0.072v1886z" stroke="#000" stroke-linecap="square" stroke-miterlimit="10" stroke-width="14.14" fill="none"/>
</svg>