<?xml version="1.0" encoding="UTF-8" standalone="no"?>
<!-- Created with Inkscape (http://www.inkscape.org/) -->
<svg
   xmlns:dc="http://purl.org/dc/elements/1.1/"
   xmlns:cc="http://web.resource.org/cc/"
   xmlns:rdf="http://www.w3.org/1999/02/22-rdf-syntax-ns#"
   xmlns:svg="http://www.w3.org/2000/svg"
   xmlns="http://www.w3.org/2000/svg"
   xmlns:xlink="http://www.w3.org/1999/xlink"
   xmlns:sodipodi="http://inkscape.sourceforge.net/DTD/sodipodi-0.dtd"
   xmlns:inkscape="http://www.inkscape.org/namespaces/inkscape"
   width="600"
   height="600"
   id="svg2"
   sodipodi:version="0.32"
   inkscape:version="0.43"
   version="1.0"
   sodipodi:docbase="C:\Documents and Settings\David Nelson\Archives\Svg"
   sodipodi:docname="Flag_of_Appenzell_Innerrhoden.svg">
  <defs
     id="defs4" />
  <sodipodi:namedview
     id="base"
     pagecolor="#ffffff"
     bordercolor="#666666"
     borderopacity="1.0"
     inkscape:pageopacity="0.0"
     inkscape:pageshadow="2"
     inkscape:zoom="0.62166667"
     inkscape:cx="300"
     inkscape:cy="300"
     inkscape:document-units="px"
     inkscape:current-layer="layer1"
     inkscape:window-width="756"
     inkscape:window-height="540"
     inkscape:window-x="22"
     inkscape:window-y="31" />
  <metadata
     id="metadata7">
    <rdf:RDF>
      <cc:Work
         rdf:about="">
        <dc:format>image/svg+xml</dc:format>
        <dc:type
           rdf:resource="http://purl.org/dc/dcmitype/StillImage" />
      </cc:Work>
    </rdf:RDF>
  </metadata>
  <g
     inkscape:label="Layer 1"
     inkscape:groupmode="layer"
     id="layer1">
    <rect
       style="opacity:1;color:#000000;fill:#ffffff;fill-opacity:1;fill-rule:evenodd;stroke:none;stroke-width:1px;stroke-linecap:butt;stroke-linejoin:miter;marker:none;marker-start:none;marker-mid:none;marker-end:none;stroke-miterlimit:4;stroke-dasharray:none;stroke-dashoffset:0;stroke-opacity:1;visibility:visible;display:inline;overflow:visible"
       id="rect2369"
       width="600"
       height="600"
       x="0"
       y="0" />
    <g
       id="g2371"
       transform="matrix(2.777778,0,0,2.777778,-27.34584,-3.862778)">
      <path
         id="path2324"
         d="M 59.21875,177.375 C 55.947143,177.57057 54.211211,178.82992 53.25,180.625 L 61.4375,180.625 C 61.222347,179.50546 61.082933,178.40341 61.03125,177.375 C 60.383911,177.34467 59.774306,177.34179 59.21875,177.375 z "
         style="fill:#ff0000;fill-opacity:1;fill-rule:evenodd;stroke:none;stroke-width:1px;stroke-linecap:butt;stroke-linejoin:miter;stroke-opacity:1" />
      <path
         id="path2322"
         d="M 60.15625,172.53125 C 57.826968,172.67241 56.144026,173.45484 54.8125,174.59375 L 61.03125,176.21875 C 61.053761,174.54013 61.317749,173.18766 61.875,172.5625 C 61.271077,172.52472 60.690044,172.4989 60.15625,172.53125 z "
         style="fill:#ff0000;fill-opacity:1;fill-rule:evenodd;stroke:none;stroke-width:1px;stroke-linecap:butt;stroke-linejoin:miter;stroke-opacity:1" />
      <path
         sodipodi:nodetypes="ccc"
         id="path2246"
         d="M 108.17932,30.430866 L 109.53156,35.527776 L 110.98782,30.430866"
         style="fill:#ffffff;fill-opacity:1;fill-rule:evenodd;stroke:#000000;stroke-width:1px;stroke-linecap:butt;stroke-linejoin:miter;stroke-opacity:1" />
      <path
         sodipodi:nodetypes="ccssssc"
         id="path2266"
         d="M 124.77063,41.938999 L 125.85639,38.717708 C 123.41088,37.081724 116.95922,37.623833 112.06186,37.585718 C 90.137774,37.415087 95.957702,31.898368 92.61253,31.898368 C 89.971621,31.898368 91.125642,41.517714 101.67016,41.517714 C 109.45333,41.517714 112.53525,40.253858 119.36414,40.253858 C 123.02274,40.253858 123.20063,41.096429 124.77063,41.938999 z "
         style="fill:#ff0000;fill-opacity:1;fill-rule:evenodd;stroke:#000000;stroke-width:1px;stroke-linecap:butt;stroke-linejoin:miter;stroke-opacity:1" />
      <use
         height="216"
         width="216"
         transform="translate(4.056724,0)"
         id="use2250"
         xlink:href="#path2246"
         y="0"
         x="0" />
      <path
         sodipodi:nodetypes="ccc"
         id="path2252"
         d="M 109.73959,44.057299 L 109.84361,39.168426 L 112.23604,44.057299"
         style="fill:#ffffff;fill-opacity:1;fill-rule:evenodd;stroke:#000000;stroke-width:1px;stroke-linecap:butt;stroke-linejoin:miter;stroke-opacity:1" />
      <use
         height="216"
         width="216"
         transform="translate(3.952706,0)"
         id="use2254"
         xlink:href="#path2252"
         y="0"
         x="0" />
      <path
         id="path2294"
         d="M 52.504809,68.932698 C 52.544202,64.313301 51.329607,62.314817 49.927434,59.811082 C 54.098155,61.556919 56.030193,65.382495 56.334051,68.647795"
         style="fill:#ff0000;fill-opacity:1;fill-rule:evenodd;stroke:none;stroke-width:1px;stroke-linecap:butt;stroke-linejoin:miter;stroke-opacity:1" />
      <path
         id="path1352"
         d="M 45.509077,81.755588 C 43.49161,79.752101 40.868768,78.959362 38.071509,78.515459 C 39.932964,76.79723 42.007068,75.33418 45.803634,75.938084"
         style="fill:#ff0000;fill-opacity:1;fill-rule:evenodd;stroke:none;stroke-width:1px;stroke-linecap:butt;stroke-linejoin:miter;stroke-opacity:1" />
      <path
         id="path2315"
         d="M 45.509077,81.755588 C 40.123913,82.299144 39.643158,84.917643 39.249738,87.573091 C 40.612881,86.674139 43.227031,84.782202 45.578264,84.296483"
         style="fill:#ff0000;fill-opacity:1;fill-rule:evenodd;stroke:none;stroke-width:1px;stroke-linecap:butt;stroke-linejoin:miter;stroke-opacity:1" />
      <path
         id="path2354"
         d="M 121.1875,187.53125 C 118.7316,187.6782 116.42245,188.51604 114.6875,190.5 C 117.23934,191.49837 119.98797,192.00621 122.90625,192.4375 C 123.03526,191.03766 123.37268,189.86639 123.90625,189.09375 C 124.15489,188.7337 124.40397,188.18612 124.8125,187.75 C 123.60344,187.55588 122.37795,187.46002 121.1875,187.53125 z "
         style="opacity:1;color:#000000;fill:#ff0000;fill-opacity:1;fill-rule:evenodd;stroke:none;stroke-width:1px;stroke-linecap:butt;stroke-linejoin:miter;marker:none;marker-start:none;marker-mid:none;marker-end:none;stroke-miterlimit:4;stroke-dasharray:none;stroke-dashoffset:0;stroke-opacity:1;visibility:visible;display:inline;overflow:visible" />
      <path
         id="path2365"
         d="M 122.875,192.96875 C 119.32503,193.7722 116.52704,195.26407 115.9375,198.78125 L 123.25,197.09375 C 122.92342,195.67638 122.80972,194.25723 122.875,192.96875 z "
         style="opacity:1;color:#000000;fill:#ff0000;fill-opacity:1;fill-rule:evenodd;stroke:none;stroke-width:1px;stroke-linecap:butt;stroke-linejoin:miter;marker:none;marker-start:none;marker-mid:none;marker-end:none;stroke-miterlimit:4;stroke-dasharray:none;stroke-dashoffset:0;stroke-opacity:1;visibility:visible;display:inline;overflow:visible" />
      <path
         id="path2363"
         d="M 123.4375,197.9375 C 120.60612,200.51492 119.33377,203.36048 119.125,206.375 L 125.0625,201.4375 C 124.34583,200.36711 123.79752,199.17785 123.4375,197.9375 z "
         style="opacity:1;color:#000000;fill:#ff0000;fill-opacity:1;fill-rule:evenodd;stroke:none;stroke-width:1px;stroke-linecap:butt;stroke-linejoin:miter;marker:none;marker-start:none;marker-mid:none;marker-end:none;stroke-miterlimit:4;stroke-dasharray:none;stroke-dashoffset:0;stroke-opacity:1;visibility:visible;display:inline;overflow:visible" />
      <path
         id="path2361"
         d="M 126.25,202.9375 C 123.84432,205.09499 123.86619,207.38974 126.375,209.78125 C 127.57618,207.39083 128.57434,206.04975 129.5625,204.9375 C 128.25727,204.51287 127.14812,203.83401 126.25,202.9375 z "
         style="opacity:1;color:#000000;fill:#ff0000;fill-opacity:1;fill-rule:evenodd;stroke:none;stroke-width:1px;stroke-linecap:butt;stroke-linejoin:miter;marker:none;marker-start:none;marker-mid:none;marker-end:none;stroke-miterlimit:4;stroke-dasharray:none;stroke-dashoffset:0;stroke-opacity:1;visibility:visible;display:inline;overflow:visible" />
      <path
         id="path2359"
         d="M 136.5,204.71875 C 134.42993,205.35249 132.6138,205.52667 131.0625,205.3125 C 131.84981,207.64595 132.79361,210.00737 136.6875,211.34375 C 136.182,208.82762 136.31635,206.75461 136.53125,204.71875 C 136.52129,204.72182 136.50995,204.7157 136.5,204.71875 z "
         style="opacity:1;color:#000000;fill:#ff0000;fill-opacity:1;fill-rule:evenodd;stroke:none;stroke-width:1px;stroke-linecap:butt;stroke-linejoin:miter;marker:none;marker-start:none;marker-mid:none;marker-end:none;stroke-miterlimit:4;stroke-dasharray:none;stroke-dashoffset:0;stroke-opacity:1;visibility:visible;display:inline;overflow:visible" />
      <path
         sodipodi:nodetypes="cssssssssssssssssssssssssssssssssssccccccccsssssssssssssssssssssssssssssssssssccscscsssscsssscssssssssssssssssssssssssssssssssssssssssscccssssssssssssssssssssssssssssssssssssssssssssssssssssssssssss"
         id="path2313"
         d="M 123.91407,189.07937 C 121.10736,193.14365 123.3172,208.89357 136.65246,204.68216 C 137.56616,204.3936 138.07799,203.8542 138.95795,203.63421 C 140.04799,203.3617 140.6104,202.90671 141.8922,202.58626 C 142.87937,202.33947 145.79709,202.69003 146.71276,201.95749 C 147.86383,201.03664 150.12513,199.84686 151.74291,199.44242 C 153.23958,199.06825 153.69469,197.70023 154.67717,196.71775 C 155.16172,196.2332 156.13123,195.46675 156.98266,195.04103 C 157.95406,194.55533 157.9136,193.41959 158.44978,192.52596 C 158.81273,191.92105 160.53533,190.24117 160.75527,189.80129 C 161.20882,188.8942 160.56327,188.5848 159.91691,187.07663 C 159.31189,185.66491 158.82543,184.38743 158.44978,182.88483 C 158.14061,181.64813 157.7264,180.82965 157.40184,179.5314 C 157.06023,178.16498 156.64825,177.0275 155.51553,176.17796 C 154.26158,175.2375 154.04968,174.71595 153.62922,173.03412 C 153.33783,171.86855 152.16209,170.86056 152.16209,169.89027 C 152.16209,168.63104 151.95839,167.80616 151.53333,166.95602 C 151.06197,166.01331 150.31988,164.49212 150.0662,163.60258 C 149.98141,163.30529 149.89663,163.00799 149.81184,162.71069 C 149.81184,162.71069 150.64227,141.73134 149.81184,134.7167 C 149.08443,128.57227 148.75429,126.79754 151.31162,133.93947 C 152.66625,133.8891 153.48876,132.89273 153.24638,130.00323 C 154.12289,130.40774 154.18254,131.4249 154.38054,132.33828 C 155.31586,131.35278 155.9924,130.46198 155.9924,128.3867 C 155.9924,112.19935 143.4598,123.8907 143.4598,81.47625 C 143.4598,80.711949 143.87371,80.268676 144.54661,80.268676 C 145.38194,80.268676 145.63343,80.443804 145.63343,79.544131 C 145.63343,79.342134 145.56685,77.628659 145.63343,77.612013 C 146.15358,77.481976 146.56958,77.476299 147.08252,77.73277 C 147.4954,77.93921 147.93459,78.67174 148.16934,77.73277 C 148.27428,77.31298 148.53998,76.808587 148.41085,76.162924 C 148.28427,75.530027 148.16934,74.90136 148.16934,74.351563 C 148.16934,73.368782 148.8898,73.506261 149.73918,73.506261 C 150.44682,73.506261 150.99013,73.698239 151.6713,73.868533 C 151.9403,73.935783 153.57252,74.441421 152.87888,73.747776 C 152.50282,73.37172 151.74887,72.729736 151.6713,72.419444 C 151.53516,71.874869 151.19597,71.468789 150.94676,70.970356 C 150.66655,70.40994 150.58449,70.220261 150.58449,69.400509 C 150.58449,68.515907 150.27529,68.487527 149.73918,67.95142 C 149.5337,67.745939 148.83065,66.275197 149.73918,66.502332 C 150.60339,66.718383 150.25789,67.305096 150.826,67.589148 C 150.98476,67.668528 152.18786,68.159408 152.5166,67.830663 C 152.74543,67.601834 153.36191,67.280891 153.36191,66.743846 C 153.36191,66.115535 153.55176,64.97919 153.24115,64.449456 C 153.13194,64.263201 153.00162,64.08728 152.91351,63.890691 C 152.67877,63.366931 152.36001,63.236259 151.99442,62.626943 C 151.80507,62.311357 150.83757,61.371184 151.19022,61.018537 C 151.66284,60.545917 152.11655,60.321981 152.45397,59.984561 C 152.76895,59.669578 153.14328,59.226107 153.14328,58.720813 C 153.14328,58.025383 152.68994,57.711632 152.56885,57.227293 C 152.39129,56.517053 152.56885,55.816568 152.56885,55.044455 C 152.56885,54.431729 152.56885,53.819003 152.56885,53.206276 C 152.56885,52.471923 153.14328,52.289565 153.14328,51.712756 C 153.14328,50.891867 153.0967,50.405576 153.25817,49.759691 C 153.37018,49.311662 153.54129,48.539702 153.8326,48.151284 C 154.2117,47.645821 154.29215,47.289942 154.29215,46.542877 C 154.29215,46.070135 154.22542,45.260573 154.06237,44.934471 C 153.86015,44.530023 153.30448,44.24337 153.37306,43.900495 C 153.4791,43.370284 153.75402,42.781964 153.60283,42.177202 C 153.50342,41.779578 153.5612,41.039159 153.37306,40.568796 C 153.19972,40.135442 153.16576,39.442412 152.79863,39.075275 C 152.33016,38.606813 151.88226,38.674535 151.30511,38.385958 C 150.79544,38.131124 150.978,37.90534 150.978,37.117282 C 150.978,36.619441 151.14721,35.894931 151.87461,36.010925 C 158.27703,37.031897 167.2793,21.460429 146.45505,23.758153 C 145.99382,23.178193 145.40647,22.239161 144.7302,21.562895 C 143.76695,20.599642 143.6234,20.603736 143.00535,19.367637 C 142.57945,18.515828 142.47774,18.569085 142.06453,17.9564 C 138.41295,12.542004 131.75282,15.99355 126.47571,17.577587 C 121.61922,19.035367 115.46022,20.258782 106.4405,20.258782 C 106.4405,20.258782 106.4405,21.99283 106.4405,23.612216 C 106.4405,25.390507 107.89986,25.630487 107.93091,27.214053 C 107.96196,28.797619 106.5647,28.704468 106.5647,29.946481 C 106.5647,31.071172 107.71087,31.685299 108.42772,31.685299 C 111.53229,31.685299 118.86063,31.685299 118.86063,31.685299 C 118.86063,31.685299 124.07708,34.631764 124.07708,38.267967 C 124.07708,41.781811 125.52996,43.236018 108.80032,43.236018 C 108.80032,43.236018 107.26651,46.092648 112.89896,46.092648 C 119.25909,46.092648 120.1031,47.21046 121.84146,48.700875 C 109.23998,54.3231 101.62383,62.22433 101.47245,73.538026 C 108.6376,72.017888 111.32887,75.073683 106.88667,75.273664 C 105.95694,75.315519 104.92195,75.222982 104.06786,75.436505 C 103.51093,75.575737 102.77482,75.657691 102.29837,75.657691 C 101.62914,75.657691 101.4737,76.321248 100.75007,76.321248 C 100.19182,76.321248 99.41882,76.875247 98.980588,76.984805 C 98.328708,77.147775 97.693486,77.057747 97.10051,77.205991 C 96.618641,77.326458 96.052922,77.606129 95.441617,77.758955 C 94.850521,77.906729 94.148592,78.192804 93.672132,78.311919 C 92.966182,78.488407 92.648054,78.754291 91.902647,78.754291 C 91.832979,78.754291 90.881622,79.430692 90.686126,79.52844 C 89.93854,79.902233 88.960709,80.691911 88.14249,80.855554 C 87.654756,80.953101 87.412254,81.297926 86.704783,81.297926 C 85.985131,81.297926 85.210243,81.297926 84.492927,81.297926 C 83.790687,81.297926 83.015465,81.941098 82.612848,82.182668 C 81.921015,82.597769 80.862548,82.794315 80.179806,83.067411 C 79.185466,83.465147 78.160784,83.821001 77.1938,84.062747 C 76.579921,84.216216 76.43481,84.394525 75.6455,84.394525 C 74.813405,84.394525 73.889185,84.308288 73.101865,84.505118 C 72.216065,84.726568 71.007406,84.726304 70.115858,84.726304 C 69.415437,84.726304 68.715015,84.726304 68.014594,84.726304 C 67.225671,84.726304 66.391528,84.836897 65.581552,84.836897 C 64.7013,84.836897 64.314688,84.59054 63.701474,84.283932 C 63.209264,84.037827 62.841049,83.776855 62.484952,83.509782 C 61.990688,83.139085 61.795684,82.931107 61.379024,82.514447 C 61.022621,82.158044 60.654846,81.880655 60.383688,81.519111 C 59.856114,80.815679 60.824242,80.413183 61.157838,80.413183 C 61.625251,80.413183 62.092766,81.508889 62.263767,81.85089 C 62.606263,82.535883 63.215967,82.703281 63.701474,83.067411 C 64.387437,83.581884 65.548751,83.620375 66.576887,83.620375 C 67.933333,83.620375 67.844991,83.502355 67.351037,82.514447 C 66.945921,81.704214 66.656363,81.191643 65.91333,80.634369 C 65.526406,80.344176 65.323649,79.38113 64.917995,78.975476 C 64.39678,78.454262 64.047576,77.994465 63.590881,77.537769 C 63.128804,77.075693 62.816731,76.638459 62.816731,75.98947 C 62.816731,75.640786 62.435207,75.115829 62.263767,74.772948 C 62.141615,74.528645 62.119746,74.484908 62.042581,74.330577 L 56.334051,68.647795 L 52.504809,68.932698 L 50.516548,69.826024 L 48.086452,72.624317 L 45.803634,75.938084 L 45.509077,81.755588 L 45.578264,84.296483 C 46.745385,84.055379 47.847724,84.160767 48.700112,84.906093 C 49.184668,85.329788 49.854951,86.083209 50.115813,86.604934 C 50.486272,87.345851 51.171626,86.929043 51.389944,88.020635 C 51.558392,88.862872 52.035533,88.779443 52.805645,88.586915 C 53.499091,88.413554 53.930558,89.361727 54.362916,89.577906 C 54.940088,89.866492 54.929196,90.410074 54.929196,91.135177 C 54.929196,92.016517 54.751128,92.506361 55.495477,92.692448 C 55.897131,92.792862 56.399408,93.356769 56.769608,93.541869 C 57.327788,93.820959 57.783361,94.119531 58.326879,94.391289 C 59.42936,94.94253 59.389188,95.506554 60.16729,96.09013 C 60.854018,96.605176 61.492006,97.273277 61.866131,97.647401 C 62.47302,98.254291 63.427238,98.535091 64.131253,99.063102 C 64.59342,99.409728 65.692018,99.204672 66.254804,99.204672 C 66.994782,99.204672 67.867847,99.346243 68.661496,99.346243 C 69.492264,99.346243 70.200512,99.487813 71.068187,99.487813 C 72.073274,99.487813 72.436728,99.594013 73.050168,100.05409 C 73.917012,100.70423 74.419446,101.04508 75.59843,101.04508 C 76.02171,101.04508 76.185568,99.837523 76.447851,99.487813 C 77.265891,98.397092 79.234752,100.02072 79.845533,100.4788 C 80.341993,100.85115 81.440898,100.86758 81.969084,100.76194 C 82.778271,100.60011 82.790483,100.22369 83.384785,99.629383 C 83.991766,99.022402 84.457398,99.549029 84.942056,99.912523 C 85.457701,100.29926 85.878028,100.82686 86.357757,101.18665 C 87.104925,101.74703 87.491878,100.76038 87.631888,100.62037 C 88.218558,100.0337 87.449305,99.629383 88.764449,99.629383 C 89.855925,99.629383 90.325257,99.208209 91.171141,100.05409 C 91.608297,100.49125 92.017603,101.15052 92.728412,101.32822 C 93.415127,101.4999 93.395566,99.993569 94.002542,99.629383 C 94.488623,99.337734 95.633981,99.610841 96.126094,99.487813 C 96.864291,99.303263 97.347159,100.62037 98.108075,100.62037 C 98.684103,100.62037 98.691753,99.611986 99.099066,99.204672 C 99.39185,98.911888 100.45388,99.015912 100.63579,99.063102 C 101.18629,99.205913 101.84827,99.979794 101.84827,100.4103 C 101.84827,104.23288 122.30191,128.07068 122.19097,133.95556 C 122.18541,134.25057 121.95796,134.50009 121.84146,134.77236 C 121.30465,136.02686 120.96078,136.90632 120.35104,138.1258 C 119.92404,138.97979 120.16474,140.51477 120.16474,141.47923 C 120.16474,142.41074 120.16474,143.34225 120.16474,144.27376 C 120.16474,145.34039 120.10688,146.06619 119.79214,146.69569 C 119.42946,147.42104 119.41953,148.28786 119.41953,149.30391 C 119.41953,150.33728 119.23323,151.05677 119.23323,151.91214 C 119.23323,152.99058 118.1145,152.9178 119.79214,153.58886 C 120.72262,153.96105 120.53734,155.35653 120.53734,156.38339 C 120.53734,157.42562 120.05854,157.84771 120.53734,158.80531 C 121.15693,160.04448 122.77297,157.81065 122.77297,160.10942 C 122.77297,161.34079 122.02776,161.30636 122.02776,162.53135 C 122.02776,163.60175 122.73295,164.50063 123.14557,165.32588 C 123.29907,165.63287 124.04484,163.15472 124.07708,163.09025 C 124.81756,161.60929 125.38119,162.93228 125.38119,164.02176 C 125.38119,165.10923 125.09565,165.68631 125.56749,166.62999 C 126.02281,167.54062 126.58877,167.83757 127.43051,168.67931 C 127.86378,169.11258 128.37702,170.67298 128.54833,171.10124 C 129.21593,172.77026 129.85244,171.67426 129.85244,170.35603 C 129.85244,169.64593 131.35318,170.76994 131.52916,171.47384 C 131.68617,172.1019 131.09136,173.08387 131.24194,173.68618 C 131.46293,174.57013 132.63603,175.19769 133.57848,175.38618 C 135.00282,175.67105 133.42856,173.55954 135.06889,175.19988 C 135.4989,175.62989 135.90899,176.88008 136.1867,177.4355 C 136.40079,177.86367 137.64944,178.12534 138.04972,178.92592 C 138.40088,179.62824 138.40379,180.39779 138.98123,180.97524 C 139.85737,181.85137 140.94026,182.00276 141.77576,182.83826 C 141.86359,182.92608 142.00864,183.60417 142.12508,183.80082 C 142.5383,184.4987 142.41235,185.16715 142.7849,185.91224 C 143.16237,186.66718 142.93296,187.47653 143.04882,188.28759 C 143.18045,189.20897 143.27187,189.82095 142.91686,190.53097 C 142.50692,191.35086 143.01495,192.21263 142.12508,191.32276 C 141.67033,190.86801 141.46013,189.85063 141.33329,189.3433 C 141.15539,188.63169 140.65664,187.85802 140.40955,187.36384 C 139.92832,186.40138 138.8826,186.0442 137.63831,186.0442 C 136.12965,186.0442 136.28119,185.82752 134.86707,185.12046 C 134.03187,184.70286 133.03439,184.66585 132.22779,184.98849 C 131.33921,185.34392 130.23456,185.68475 129.32458,185.91224 C 128.56594,186.1019 128.13484,186.4736 127.21316,186.70402 C 126.14777,186.97037 125.9321,186.83152 125.10174,187.49581 C 124.51472,187.96542 124.21545,188.64295 123.91407,189.07937 z "
         style="fill:#000000;fill-opacity:1;fill-rule:evenodd;stroke:none;stroke-width:1px;stroke-linecap:butt;stroke-linejoin:miter;stroke-opacity:1" />
      <path
         id="path2309"
         d="M 45.803634,75.938084 C 44.243348,73.526447 42.163527,71.594381 38.071509,71.519727 C 41.040506,68.564067 44.537908,70.364049 48.086452,72.624317"
         style="fill:#ff0000;fill-opacity:1;fill-rule:evenodd;stroke:none;stroke-width:1px;stroke-linecap:butt;stroke-linejoin:miter;stroke-opacity:1" />
      <path
         id="path2305"
         d="M 48.086452,72.624317 C 46.876747,69.323351 44.559396,66.760816 42.195309,64.229438 C 45.362364,64.240398 47.895316,64.300147 50.516548,69.826024"
         style="fill:#ff0000;fill-opacity:1;fill-rule:evenodd;stroke:none;stroke-width:1px;stroke-linecap:butt;stroke-linejoin:miter;stroke-opacity:1" />
      <path
         sodipodi:nodetypes="ccc"
         id="path2227"
         d="M 135.5036,20.13458 C 130.61601,20.718431 128.36502,23.185566 125.6917,25.351034 C 130.68172,24.41213 135.30967,24.10683 138.98123,25.475235"
         style="fill:none;fill-opacity:0.75;fill-rule:evenodd;stroke:#ff0000;stroke-width:1px;stroke-linecap:butt;stroke-linejoin:miter;stroke-opacity:1" />
      <path
         sodipodi:nodetypes="csc"
         id="path2229"
         d="M 119.13697,48.381056 C 140.2838,50.727842 144.52682,43.027487 144.52682,35.743576 C 144.52682,28.986631 149.12227,25.863364 149.12227,25.863364"
         style="fill:none;fill-opacity:0.75;fill-rule:evenodd;stroke:#ffffff;stroke-width:1.5;stroke-linecap:butt;stroke-linejoin:miter;stroke-miterlimit:4;stroke-dasharray:none;stroke-opacity:1" />
      <path
         sodipodi:nodetypes="ccc"
         id="path2231"
         d="M 141.26654,14.461687 L 147.90665,23.144909 C 155.88615,22.594235 147.7581,8.60634 141.26654,14.461687 z "
         style="fill:#000000;fill-opacity:1;fill-rule:evenodd;stroke:none;stroke-width:1px;stroke-linecap:butt;stroke-linejoin:miter;stroke-opacity:1" />
      <path
         id="path2242"
         d="M 52.65625,26.25 C 52.988397,26.34674 53.441385,26.315566 53.6875,26.46875 C 54.398176,26.911081 54.954767,27.590036 55.34375,28.5625 C 55.862172,29.858555 55.53125,29.865812 55.53125,31.46875 C 55.53125,32.301137 54.912157,33.949313 55.34375,34.8125 C 55.817279,35.759559 56.374999,36.044607 56.375,37.5 C 56.375,38.353517 56.039443,40.035346 56.78125,40.40625 C 57.360508,40.69588 58.258493,41.877715 58.4375,42.59375 C 58.570432,43.125476 59.280452,43.708882 59.90625,44.375 C 60.725162,45.246679 62.867607,44.938579 62.96875,45.65625 C 63.125882,46.771213 62.823825,47.948826 63.5625,48.6875 C 64.020554,49.145554 64.785802,50.049456 65,50.90625 C 65.183321,51.639534 65.145351,52.648077 65.78125,53.125 C 66.629111,53.760897 67.225231,54.394056 67.0625,54.8125 C 66.562747,56.097527 68.000164,57.37746 68.8125,56.75 C 69.45003,56.257561 69.571652,58.705413 70.625,58.96875 C 71.928065,59.294516 72.505725,59.480195 73.0625,60.59375 C 73.632072,61.732893 74.032858,61.875803 75.09375,62.40625 C 76.532751,63.125751 76.356183,63.368621 77.09375,64.84375 C 77.773255,66.20276 78.553415,65.375995 79.71875,66.25 C 80.308409,66.692244 81.140527,67.874801 81.53125,68.65625 C 82.390111,70.373972 83.583131,68.489384 84.375,69.28125 C 84.659615,69.565865 85.596423,71.133477 86.1875,71.28125 C 86.785511,71.430752 88.725252,71.321175 89,71.6875 C 89.237867,72.004656 90.624999,73.494351 90.625,73.90625 C 90.625,74.961151 90.972675,76.183576 91.84375,75.3125 C 91.970654,75.185596 93.08668,73.55543 93.65625,74.125 C 94.633941,75.102691 94.19531,75.125002 95.65625,75.125 C 96.775829,75.125 97.523643,75.132775 98.5,74.9375 C 98.836378,74.870224 99.163625,74.786023 99.5,74.71875 C 100.54224,68.400353 101.93169,62.131762 106.15625,56.34375 C 103.40018,52.926025 99.082316,50.470817 94.53125,48.625 C 86.273474,45.275819 76.799836,41.394248 74.125,40.0625 C 68.595106,37.309271 68.875003,31.425602 68.875,27.09375 C 68.875,24.332676 68.448489,19.201453 67.21875,14.78125 C 65.544246,15.320013 63.779844,15.822679 62.375,16.4375 C 60.262286,17.362115 58.461961,18.391839 57,19.5 C 55.538039,20.608161 54.418354,21.819443 53.65625,23.125 C 53.275198,23.777778 53.009381,24.451526 52.8125,25.15625 C 52.714059,25.508612 52.707497,25.884327 52.65625,26.25 z "
         style="fill:#000000;fill-opacity:1;fill-rule:evenodd;stroke:none;stroke-width:1px;stroke-linecap:butt;stroke-linejoin:miter;stroke-opacity:1" />
      <path
         id="path2233"
         d="M 52.65625,26.25 C 52.707497,25.884327 52.714059,25.508612 52.8125,25.15625 C 53.009381,24.451526 53.275198,23.777778 53.65625,23.125 C 54.418354,21.819443 55.538039,20.608161 57,19.5 C 58.461961,18.391839 60.262286,17.362115 62.375,16.4375 C 63.779844,15.822679 65.544246,15.320013 67.21875,14.78125 C 66.290032,11.443042 64.976639,8.4501403 62.71875,7.4375 C 63.757222,10.633221 63.764744,14.090861 62.625,16.28125 C 61.253451,13.767307 59.53819,9.8532613 55.78125,9.34375 C 57.287544,11.656266 58.880324,15.562151 59.21875,17.9375 C 57.05048,14.052507 54.286467,13.319564 51.5625,14.65625 C 54.770125,15.908738 55.759786,17.701412 56.3125,19.96875 C 55.22254,18.597868 50.469281,17.841578 48.03125,19.78125 C 52.18526,19.577109 52.826127,21.103162 54.03125,22.125 C 51.397953,22.49915 49.305696,24.284242 48.15625,25.8125 C 48.15625,25.8125 50.817919,25.714571 52.65625,26.25 z "
         style="fill:#ff0000;fill-opacity:1;fill-rule:evenodd;stroke:none;stroke-width:1px;stroke-linecap:butt;stroke-linejoin:miter;stroke-opacity:1" />
      <path
         sodipodi:nodetypes="cc"
         id="path2235"
         d="M 62.457719,20.10353 C 63.179442,27.442263 68.804247,38.825538 61.619361,41.481675"
         style="fill:none;fill-opacity:0.75;fill-rule:evenodd;stroke:#ffffff;stroke-width:1.5;stroke-linecap:butt;stroke-linejoin:miter;stroke-miterlimit:4;stroke-dasharray:none;stroke-opacity:1" />
      <path
         sodipodi:nodetypes="cc"
         id="path2244"
         d="M 130.61783,26.881815 C 131.97272,31.487839 136.02839,30.006853 136.47547,27.870768"
         style="fill:none;fill-opacity:0.75;fill-rule:evenodd;stroke:#ffffff;stroke-width:2.5;stroke-linecap:round;stroke-linejoin:miter;stroke-miterlimit:4;stroke-dasharray:none;stroke-opacity:1" />
      <path
         sodipodi:nodetypes="cc"
         id="path2258"
         d="M 148.42015,31.746751 C 148.67142,30.88699 149.54013,30.438851 150.66314,30.160248"
         style="opacity:1;color:#000000;fill:none;fill-opacity:0.75;fill-rule:evenodd;stroke:#ff0000;stroke-width:1px;stroke-linecap:butt;stroke-linejoin:miter;marker:none;marker-start:none;marker-mid:none;marker-end:none;stroke-miterlimit:4;stroke-dasharray:none;stroke-dashoffset:0;stroke-opacity:1;visibility:visible;display:inline;overflow:visible" />
      <path
         sodipodi:nodetypes="cc"
         id="path2260"
         d="M 147.32601,33.497376 C 149.27888,33.773231 150.57661,33.131887 151.81198,32.403236"
         style="opacity:1;color:#000000;fill:none;fill-opacity:0.75;fill-rule:evenodd;stroke:#ff0000;stroke-width:1px;stroke-linecap:butt;stroke-linejoin:miter;marker:none;marker-start:none;marker-mid:none;marker-end:none;stroke-miterlimit:4;stroke-dasharray:none;stroke-dashoffset:0;stroke-opacity:1;visibility:visible;display:inline;overflow:visible" />
      <path
         sodipodi:nodetypes="cc"
         id="path2262"
         d="M 120.73848,91.018877 C 118.67554,98.248876 111.54982,100.84114 101.48232,100.53744"
         style="opacity:1;color:#000000;fill:none;fill-opacity:0.75;fill-rule:evenodd;stroke:#ffffff;stroke-width:1.5;stroke-linecap:butt;stroke-linejoin:miter;marker:none;marker-start:none;marker-mid:none;marker-end:none;stroke-miterlimit:4;stroke-dasharray:none;stroke-dashoffset:0;stroke-opacity:1;visibility:visible;display:inline;overflow:visible" />
      <path
         transform="matrix(0.707107,0.707107,-0.707107,0.707107,63.96439,-101.5247)"
         d="M 156.42884 26.449511 A 1.8955196 0.93227142 0 1 1  152.63781,26.449511 A 1.8955196 0.93227142 0 1 1  156.42884 26.449511 z"
         sodipodi:ry="0.93227142"
         sodipodi:rx="1.8955196"
         sodipodi:cy="26.449511"
         sodipodi:cx="154.53333"
         id="path2264"
         style="opacity:1;color:#000000;fill:#ffffff;fill-opacity:1;fill-rule:evenodd;stroke:none;stroke-width:1.5;stroke-linecap:butt;stroke-linejoin:miter;marker:none;marker-start:none;marker-mid:none;marker-end:none;stroke-miterlimit:4;stroke-dasharray:none;stroke-dashoffset:0;stroke-opacity:1;visibility:visible;display:inline;overflow:visible"
         sodipodi:type="arc" />
      <path
         sodipodi:nodetypes="cscsssssssssssssssssssscssssss"
         id="path2319"
         d="M 67.487871,189.98294 C 61.396971,189.11141 59.324494,172.80349 62.485664,172.20663 C 65.646834,171.60977 67.890393,174.54499 70.983756,174.63156 C 73.761007,176.43826 77.912878,172.71315 79.733971,175.96397 C 80.60463,177.51818 84.576861,178.5941 82.296193,175.8804 C 80.163239,173.34245 79.490583,169.7351 78.31556,166.71901 C 77.349759,164.23995 79.994929,161.05256 76.300079,159.73033 C 73.864852,158.85886 78.428666,155.67982 76.104335,153.51434 C 74.583158,152.09712 73.413359,147.49302 76.442577,145.14427 C 79.286247,142.93938 73.586012,141.54293 77.158495,139.80608 C 78.65151,139.08022 80.288897,135.13502 79.221741,134.80683 C 75.578998,133.68654 82.147333,131.50211 80.989979,128.99021 C 80.087733,127.03199 83.749194,126.50494 84.554963,124.13955 C 85.432549,121.56333 88.993689,119.65848 91.859267,118.80008 C 95.531403,117.70008 99.536134,117.246 103.3456,117.63389 C 107.16839,118.02313 111.67413,117.33952 113.93176,121.48964 C 115.56818,124.49781 117.4712,127.3411 119.01797,130.41717 C 120.21874,132.80515 121.63694,137.90321 117.22738,137.22534 C 114.26178,136.76944 110.99017,138.28009 108.29599,139.58932 C 105.6088,140.89515 105.05947,142.48135 102.43344,145.20174 C 99.119551,148.6347 97.461705,151.53487 97.064885,154.93479 C 96.492308,159.84059 96.615266,164.65287 96.131791,169.46954 C 95.743227,173.34065 99.173745,175.91142 98.268053,179.95058 C 97.797992,182.04693 98.944898,184.16926 99.87025,186.09233 C 99.900265,186.2481 99.930281,186.40387 99.960296,186.55964 C 100.05468,187.04948 99.184616,187.28071 98.786594,187.43992 C 98.224844,187.66462 97.435976,188.01742 96.830424,188.32019 C 96.765218,188.35279 96.765218,188.4506 96.732615,188.51581 C 96.512989,188.95506 95.211866,189.09067 94.874253,189.39609 C 91.752618,192.22006 77.331313,191.39141 67.487871,189.98294 z "
         style="fill:#000000;fill-opacity:1;fill-rule:evenodd;stroke:none;stroke-width:1px;stroke-linecap:butt;stroke-linejoin:miter;stroke-opacity:1" />
      <path
         id="path2332"
         d="M 61.5,181.3125 C 55.995391,182.0891 55.343687,184.83304 54.6875,187.125 C 57.113322,185.78343 59.724556,184.90503 62.5625,184.59375 C 62.155297,183.54813 61.842618,182.4387 61.59375,181.3125 C 61.5601,181.31705 61.533294,181.3078 61.5,181.3125 z "
         style="opacity:1;color:#000000;fill:#ff0000;fill-opacity:1;fill-rule:evenodd;stroke:none;stroke-width:1px;stroke-linecap:butt;stroke-linejoin:miter;marker:none;marker-start:none;marker-mid:none;marker-end:none;stroke-miterlimit:4;stroke-dasharray:none;stroke-dashoffset:0;stroke-opacity:1;visibility:visible;display:inline;overflow:visible" />
      <path
         id="path2334"
         d="M 62.65625,184.96875 C 59.322301,186.33658 57.799328,188.35821 59.34375,191.5 C 60.523826,189.87272 61.632876,188.22133 63.9375,187.34375 C 63.472945,186.64413 63.075888,185.8303 62.71875,184.96875 C 62.70199,184.97556 62.67292,184.96191 62.65625,184.96875 z "
         style="opacity:1;color:#000000;fill:#ff0000;fill-opacity:1;fill-rule:evenodd;stroke:none;stroke-width:1px;stroke-linecap:butt;stroke-linejoin:miter;marker:none;marker-start:none;marker-mid:none;marker-end:none;stroke-miterlimit:4;stroke-dasharray:none;stroke-dashoffset:0;stroke-opacity:1;visibility:visible;display:inline;overflow:visible" />
      <path
         id="path2342"
         d="M 64.5625,188.15625 C 62.953529,190.08822 61.802504,192.05974 64.375,194.53125 C 64.861816,192.51109 66.164675,191.00507 68,190.0625 C 67.824533,190.03816 67.672733,189.99347 67.5,189.96875 C 66.391266,189.8101 65.3976,189.15001 64.5625,188.15625 z "
         style="opacity:1;color:#000000;fill:#ff0000;fill-opacity:1;fill-rule:evenodd;stroke:none;stroke-width:1px;stroke-linecap:butt;stroke-linejoin:miter;marker:none;marker-start:none;marker-mid:none;marker-end:none;stroke-miterlimit:4;stroke-dasharray:none;stroke-dashoffset:0;stroke-opacity:1;visibility:visible;display:inline;overflow:visible" />
      <path
         id="path2347"
         d="M 110.96875,123.09375 C 110.32979,123.12498 109.83925,123.30832 109.59375,123.5 C 109.57786,123.51337 109.54503,123.54886 109.53125,123.5625 C 109.51853,123.57625 109.47932,123.61107 109.46875,123.625 C 109.45927,123.63899 109.44479,123.67343 109.4375,123.6875 C 109.43132,123.70159 109.41019,123.73591 109.40625,123.75 C 109.40343,123.76406 109.40679,123.79853 109.40625,123.8125 C 109.40646,123.81729 109.40582,123.83895 109.40625,123.84375 C 109.40689,123.84855 109.40539,123.87019 109.40625,123.875 C 109.40732,123.87982 109.40496,123.90141 109.40625,123.90625 C 109.40775,123.9111 109.43579,123.93264 109.4375,123.9375 C 109.43962,123.94238 109.43517,123.96386 109.4375,123.96875 C 109.44003,123.97366 109.46601,123.99508 109.46875,124 C 110.05408,124.98223 114.63312,126.26941 118.53125,129.53125 C 117.65208,127.87458 116.70397,126.26199 115.75,124.65625 C 115.73512,124.6469 115.7336,124.63424 115.71875,124.625 C 113.74993,123.39915 112.09244,123.03883 110.96875,123.09375 z "
         style="opacity:1;color:#000000;fill:#ff0000;fill-opacity:1;fill-rule:evenodd;stroke:none;stroke-width:1px;stroke-linecap:butt;stroke-linejoin:miter;marker:none;marker-start:none;marker-mid:none;marker-end:none;stroke-miterlimit:4;stroke-dasharray:none;stroke-dashoffset:0;stroke-opacity:1;visibility:visible;display:inline;overflow:visible" />
    </g>
  </g>
</svg>
