<?xml version="1.0" encoding="UTF-8" standalone="no"?>
<!-- Created with Inkscape (http://www.inkscape.org/) -->
<svg
   xmlns:dc="http://purl.org/dc/elements/1.1/"
   xmlns:cc="http://web.resource.org/cc/"
   xmlns:rdf="http://www.w3.org/1999/02/22-rdf-syntax-ns#"
   xmlns:svg="http://www.w3.org/2000/svg"
   xmlns="http://www.w3.org/2000/svg"
   xmlns:sodipodi="http://inkscape.sourceforge.net/DTD/sodipodi-0.dtd"
   xmlns:inkscape="http://www.inkscape.org/namespaces/inkscape"
   id="svg7486"
   sodipodi:version="0.32"
   inkscape:version="0.42"
   width="600.00000px"
   height="600.00000px"
   sodipodi:docbase="/home/jynus/documentos/imagenes/svg"
   sodipodi:docname="Flag of Canton of Basel Land.svg">
  <metadata
     id="metadata7491">
    <rdf:RDF>
      <cc:Work
         rdf:about="">
        <dc:format>image/svg+xml</dc:format>
        <dc:type
           rdf:resource="http://purl.org/dc/dcmitype/StillImage" />
      </cc:Work>
    </rdf:RDF>
  </metadata>
  <defs
     id="defs7489" />
  <sodipodi:namedview
     inkscape:window-height="738"
     inkscape:window-width="1016"
     inkscape:pageshadow="2"
     inkscape:pageopacity="0.0"
     borderopacity="1.0"
     bordercolor="#666666"
     pagecolor="#ffffff"
     id="base"
     inkscape:zoom="0.92456660"
     inkscape:cx="255.59731"
     inkscape:cy="315.74664"
     inkscape:window-x="0"
     inkscape:window-y="0"
     inkscape:current-layer="svg7486" />
  <rect
     style="opacity:1.0000000;fill:#ffffff;fill-opacity:1.0000000;fill-rule:nonzero;stroke:none;stroke-width:24.833969;stroke-linejoin:miter;stroke-miterlimit:4.0000000;stroke-dasharray:none;stroke-opacity:1.0000000"
     id="rect9685"
     width="600.00000"
     height="600.00000"
     x="0.0000000"
     y="0.0000000" />
  <path
     style="fill:#ff0000;fill-opacity:1.0000000;fill-rule:evenodd;stroke:#000000;stroke-width:2.0000000;stroke-linecap:butt;stroke-linejoin:miter;stroke-opacity:1.0000000;stroke-miterlimit:4.0000000;stroke-dasharray:none"
     d="M 137.36166,563.22601 C 137.36166,563.22601 181.54526,287.86950 193.60422,180.34392 C 139.52483,167.63527 178.73239,117.34143 204.42010,138.16200 C 211.71714,126.15334 210.36883,126.80532 218.48074,116.53023 C 189.81866,85.704975 227.13344,53.257344 252.00997,81.919423 C 259.58109,78.133867 259.58108,76.241087 270.39696,71.103545 C 258.49950,32.436780 314.47167,22.702489 316.90524,61.369254 C 335.56263,58.935681 326.90992,59.206078 345.02652,61.369254 C 352.32724,11.616214 406.72919,31.045720 389.37162,70.021957 C 403.16187,76.511484 405.05465,76.781880 413.16656,83.001011 C 445.07340,52.446155 477.52102,100.03602 439.12466,120.85659 C 447.23657,136.26922 441.62440,136.63784 445.61419,144.65152 C 490.77049,148.70748 477.52103,197.37892 438.04308,188.99662 C 432.09434,199.00131 434.25752,197.37894 426.14561,206.30203 C 453.72610,237.93848 411.27378,270.65650 388.29004,233.34172 C 340.42978,241.45363 323.12437,213.87314 308.25254,199.81250 L 328.80270,177.09915 C 388.29003,220.09227 398.33975,158.91534 394.77956,151.14105 C 368.28066,93.276106 316.58786,123.89756 300.68142,157.63057 C 290.49488,179.23331 285.53919,190.61900 287.70237,247.40236 C 291.59871,349.68119 322.31318,566.47078 322.31318,566.47078 C 294.55243,532.22050 272.19961,501.21498 261.74426,453.98564 L 230.37821,570.79713 L 199.01216,451.82247 C 191.44105,496.52810 169.80929,531.49944 137.36166,563.22601 z "
     id="path7495"
     sodipodi:nodetypes="cccccccccccccccccsssccccc" />
  <path
     style="fill:#000000;fill-opacity:1.0000000;fill-rule:evenodd;stroke:#000000;stroke-width:2.0000000;stroke-linecap:butt;stroke-linejoin:miter;stroke-opacity:1.0000000;stroke-miterlimit:4.0000000;stroke-dasharray:none"
     d="M 230.37821,571.87872 C 230.37821,571.87872 238.40754,297.48802 242.27568,221.44425 C 244.04819,186.59851 242.55489,157.42802 272.56014,120.85659 C 300.40480,86.918562 362.30880,86.143452 392.61638,116.53024 C 406.43133,130.38129 414.37272,137.91673 414.24814,163.03851 C 414.18388,175.99617 400.12263,193.44730 379.63733,195.48615 C 358.97383,197.54274 328.80270,177.09915 328.80270,177.09915 C 328.80270,177.09915 356.10824,201.66072 378.55575,201.97567 C 401.67143,202.30000 419.55622,185.71256 421.81926,167.36486 C 425.17275,140.17626 411.12585,122.09078 396.94274,110.04071 C 358.66461,77.519343 294.66321,83.489775 267.15219,115.44864 C 240.36264,146.56939 235.91900,184.03382 233.62297,221.44425 C 226.32280,340.39004 230.37821,571.87872 230.37821,571.87872 z "
     id="path8223"
     sodipodi:nodetypes="cssssscsssssc" />
  <rect
     style="opacity:1.0000000;fill:#ff0000;fill-opacity:1.0000000;fill-rule:nonzero;stroke:#000000;stroke-width:2.0000000;stroke-linejoin:miter;stroke-miterlimit:4.0000000;stroke-dasharray:none;stroke-opacity:1.0000000"
     id="rect8951"
     width="158.99341"
     height="20.550169"
     x="158.99341"
     y="211.54678" />
  <rect
     style="opacity:1.0000000;fill:#ff0000;fill-opacity:1.0000000;fill-rule:nonzero;stroke:#000000;stroke-width:2.0000000;stroke-linejoin:miter;stroke-miterlimit:4.0000000;stroke-dasharray:none;stroke-opacity:1.0000000"
     id="rect9679"
     width="158.99341"
     height="20.550169"
     x="157.08658"
     y="268.92661" />
  <rect
     style="opacity:1.0000000;fill:#ff0000;fill-opacity:1.0000000;fill-rule:nonzero;stroke:#000000;stroke-width:2.0000000;stroke-linejoin:miter;stroke-miterlimit:4.0000000;stroke-dasharray:none;stroke-opacity:1.0000000"
     id="rect9683"
     width="191.44106"
     height="36.773987"
     x="141.68800"
     y="232.26013" />
</svg>
