<svg xmlns="http://www.w3.org/2000/svg" viewBox="-121.6 -449.4 842.4 1049.4"><path fill="#FFF" d="M1.4-.8h597.4v597.4H1.4z"/><g fill="#ED0A71"><path d="M126.4 308.4h110.1l33 218.4-43.6-50.5-43.6 50.5-43.6-50.5-43.6 50.5 31.3-218.4zM116.2 253.3h131.1c8.9 0 16.1 6.6 16.1 14.7s-7.2 14.7-16.1 14.7H116.2c-8.9 0-16.1-6.6-16.1-14.7s7.2-14.7 16.1-14.7zM134.9 232.9h93.5c8.9 0 16.1 3.7 16.1 8.3 0 4.6-7.2 8.3-16.1 8.3h-93.5c-8.9 0-16.1-3.7-16.1-8.3 0-4.6 7.2-8.3 16.1-8.3zM134.1 286.2h93.5c8.9 0 16.1 3.7 16.1 8.3 0 4.6-7.2 8.3-16.1 8.3h-93.5c-8.9 0-16.1-3.7-16.1-8.3 0-4.6 7.2-8.3 16.1-8.3zM134.6 229.5h89.9s-10.4-87.4-41.3-128.5c-31.1-41.3-108.9-32.8-134.9 0-25.9 32.8-15.3 79.3 1.6 97.8 17 18.7 53 13.9 60.8 1.3s13.7-28.3 0-43.1c-6.4-6.9-18.7-8.5-22.8-4.1-3.9 4.2-3.5 5-5.6 10.8 9 .9 9.8 4.5 10.4 8.9.5 4.1-2.9 14.4-14.1 6.5-11.4-8.1-7.1-31.2 2.8-38.5 9.7-7.2 24.2-8 34.9-.9 11.6 7.6 16.5 14.1 21.1 33.9 4.7 20.3-2.8 55.9-2.8 55.9zM300.1-.8h298.7v85.3H300.1zM300.1 169.9h298.7v85.3H300.1zM300.1 340.6h298.7v85.3H300.1zM300.1 511.2h298.7v85.3H300.1z"/></g><path fill="#F4A42E" d="M660-368.7c-33.7 0-60.9 28.8-60.9 64.2 0 23 11.5 43.1 28.8 54.5-36.6 53.3-88.2 115.1-141.4 133-70 23.6-135.3-121.4-167.4-207.6 23.8-8.7 41.2-32.4 41.2-60.6 0-35.4-27.2-64.2-60.8-64.2-33.5 0-60.7 28.7-60.7 64.2 0 28.2 17.3 51.9 41.2 60.6-32.1 86.1-97.3 231.2-167.4 207.6C59.4-135 7.7-196.8-28.8-250.1-11.6-261.5 0-281.5 0-304.5c0-35.4-27.3-64.2-60.8-64.2s-60.7 28.8-60.7 64.2c0 35.5 27.3 64.3 60.7 64.3.7 0 1.2-.2 1.8-.2L-1.4 19.3 600 21.7l58.2-262.2c.6 0 1.2.2 1.8.2 33.4 0 60.7-28.7 60.7-64.3 0-35.3-27.2-64.1-60.7-64.1z"/></svg>