<?xml version="1.0" encoding="utf-8"?>
<!-- Generator: Adobe Illustrator 18.0.0, SVG Export Plug-In . SVG Version: 6.00 Build 0)  -->
<!DOCTYPE svg PUBLIC "-//W3C//DTD SVG 1.1//EN" "http://www.w3.org/Graphics/SVG/1.1/DTD/svg11.dtd">
<svg version="1.1" id="Ebene_1" xmlns="http://www.w3.org/2000/svg" xmlns:xlink="http://www.w3.org/1999/xlink" x="0px" y="0px"
	 viewBox="0 0 333.4 333.4" enable-background="new 0 0 333.4 333.4" xml:space="preserve">
<circle fill="#AA6553" cx="166.7" cy="166.7" r="166.7"/>
<g>
	<g>
		<g>
			<path fill="#FFFFFF" d="M285.4,115.4c-11.1,0-20.2,9.5-20.2,21.2c0,7.6,3.8,14.3,9.5,18c-12.1,17.6-29.2,38.1-46.8,44
				c-23.2,7.8-44.8-40.2-55.4-68.7c7.9-2.9,13.6-10.7,13.6-20c0-11.7-9-21.2-20.1-21.2C155,88.8,146,98.3,146,110
				c0,9.3,5.7,17.2,13.6,20c-10.6,28.5-32.2,76.5-55.4,68.7c-17.6-5.9-34.7-26.4-46.8-44c5.7-3.8,9.5-10.4,9.5-18
				c0-11.7-9-21.2-20.1-21.2c-11.1,0-20.1,9.5-20.1,21.2c0,11.8,9,21.3,20.1,21.3c0.2,0,0.4-0.1,0.6-0.1l19.1,86l199,0.8l19.3-86.7
				c0.2,0,0.4,0.1,0.6,0.1c11.1,0,20.1-9.5,20.1-21.3C305.5,125,296.5,115.4,285.4,115.4z"/>
		</g>
	</g>
</g>
</svg>
