<?xml version="1.0" encoding="utf-8"?>
<!-- Generator: Adobe Illustrator 15.0.0, SVG Export Plug-In  -->
<!DOCTYPE svg PUBLIC "-//W3C//DTD SVG 1.1//EN" "http://www.w3.org/Graphics/SVG/1.1/DTD/svg11.dtd" [
	<!ENTITY ns_flows "http://ns.adobe.com/Flows/1.0/">
]>
<svg version="1.1"
	 xmlns="http://www.w3.org/2000/svg" xmlns:xlink="http://www.w3.org/1999/xlink" xmlns:a="http://ns.adobe.com/AdobeSVGViewerExtensions/3.0/"
	 x="0px" y="0px" width="333px" height="333px" viewBox="0 0 333 333" enable-background="new 0 0 333 333" xml:space="preserve">
<defs>
</defs>
<g>
	<defs>
		<rect id="SVGID_1_" x="0" width="333.385" height="333.385"/>
	</defs>
	<clipPath id="SVGID_2_">
		<use xlink:href="#SVGID_1_"  overflow="visible"/>
	</clipPath>
	<path clip-path="url(#SVGID_2_)" fill="#F4A42E" d="M333.385,166.692c0,92.063-74.631,166.692-166.692,166.692S0,258.755,0,166.692
		C0,74.63,74.631,0,166.693,0S333.385,74.63,333.385,166.692"/>
	<path clip-path="url(#SVGID_2_)" fill="#FFFFFF" d="M285.408,115.448c-11.136,0-20.153,9.524-20.153,21.24
		c0,7.621,3.804,14.256,9.532,18.026c-12.104,17.62-29.184,38.083-46.788,44.011c-23.167,7.807-44.767-40.171-55.399-68.684
		c7.882-2.877,13.622-10.73,13.622-20.045c0-11.716-9.006-21.228-20.104-21.228c-11.076,0-20.093,9.512-20.093,21.228
		c0,9.315,5.728,17.156,13.622,20.045c-10.608,28.513-32.185,76.49-55.387,68.684c-17.581-5.928-34.696-26.391-46.776-44.011
		c5.705-3.77,9.52-10.393,9.52-18.026c0-11.716-9.03-21.24-20.129-21.24c-11.075,0-20.093,9.524-20.093,21.24
		c0,11.75,9.018,21.262,20.093,21.262c0.227,0,0.383-0.058,0.598-0.081l19.079,85.958l198.996,0.791l19.262-86.749
		c0.192,0.012,0.383,0.081,0.61,0.081c11.063,0,20.081-9.512,20.081-21.262C305.489,124.972,296.47,115.448,285.408,115.448"/>
</g>
</svg>
