<svg xmlns="http://www.w3.org/2000/svg" viewBox="-121.6 -449.4 842.4 1049.4"><path fill="#FFC425" d="M0 0h600.013v600.013H0z"/><path fill="#ED0A71" stroke="#102B4E" stroke-width="1.1719" d="M155.412 124.45l-9.14 11.017c-20.86-25.313-45.236-22.266-71.018-31.875-33.985-12.657-34.22-53.205 5.39-55.783-22.03 13.36-28.124 25.078-2.577 36.562 18.047 8.204 58.36 12.422 77.345 40.08z"/><path fill="#102B4E" d="M219.164 285.47c4.453-37.5 6.328-72.657-17.58-89.298-50.86 12.656-67.97 44.297-83.204 44.297-12.656 0-17.578-9.376-7.734-16.876 4.22-3.047 13.36-8.438 16.875-26.25l-7.733 1.17c-15.47 3.048-19.688-13.124-22.266-23.905-12.187 13.358-23.906-.94-30.938-5.86 2.344 14.062-7.03 19.218-19.687 12.42 5.156 11.252-6.33 14.064-13.595 18.986 20.392 12.89-.937 22.032 21.33 34.454-.47 32.813 50.39 75.002 65.625 55.782 4.454 4.22 8.907 7.97 11.954-.468 4.218 5.156 7.733 5.39 11.015 0 5.156 4.218 9.844 6.093 13.125-.47 4.22 3.048 8.438 6.33 11.485-1.405 4.922 5.858 9.375 8.436 11.015-.47 5.39 4.922 11.016 9.61 14.063 0 6.33 5.86 10.547 5.625 12.657-.47 6.797 6.095 12.422 8.44 13.594-1.64z"/><path fill="#ED0A71" d="M25.332 205.078c12.187-2.578 25.78 3.047 26.016-3.516 0-10.312-17.11-11.953-26.016 3.516zM37.285 180.703c14.766 2.812 17.578 15 23.438 11.72 9.14-5.158-7.266-19.455-23.438-11.72zM53.457 165.233c14.766 8.673 15.938 23.907 25.548 18.75 12.422-6.562 0-20.625-25.548-18.75zM92.13 160.78c3.047 13.83-11.72 34.688 4.687 34.688 14.766-.234 11.485-24.844-4.687-34.688zM127.99 183.28c-7.5 11.954-29.063 14.767-19.688 26.72 6.797 8.203 24.14-8.203 19.688-26.72z"/><path fill="none" stroke="#FFF" stroke-width="3.5157" stroke-linecap="round" d="M87.208 226.875c0 25.782 19.22 19.923 19.22 41.017"/><path fill="#FFF" stroke="#000" stroke-width="1.1719" d="M102.208 74.528l-.47 20.39 11.486-16.17M129.002 85.91l-.47 20.392L140.02 90.13M153.706 96.675l-.47 20.39 11.486-16.17M104.552 122.108l5.86-9.61 1.64 14.532M126.08 133.49l5.86-9.61 1.64 14.532"/><path fill="#102B4E" d="M435.028 464.77c1.172 21.564-16.172 15.47-30.47 27.19-5.86 4.687-18.28 20.156-36.797 6.562 2.11 3.28 4.688 6.094 8.907 7.97-15 10.077-31.64 13.827-49.688 12.655l-6.798-7.97c.703-4.92-1.407-8.436-12.89-7.968l1.405-11.954c2.11-3.75 4.922-7.735-3.28-11.016l-3.283-7.734c15.235-6.563 16.407-11.954 9.61-17.58l3.984-7.733c7.5-1.64 15.47-3.047 15.938-10.08l14.063.47c4.92 3.28 4.687 17.11 5.86 18.047 1.405 1.407 2.342 2.578 4.452 2.578 2.812 0 4.687-1.64 7.03-2.578 1.876-.703 3.282-2.344 5.626-2.11 2.344 0 3.516.235 5.157-.702 1.172-.703.234-3.516.703-3.75-10.547-12.89-31.407-36.33-38.673-60.47-7.266-25.08.938-50.158 38.673-55.08 46.64-6.094 11.25-24.844-66.564-26.72 7.266-12.656 8.438-25.312 7.5-36.094-1.875 8.438-2.813 17.11-9.844 23.204.938 3.985-.47 8.203-4.22 12.188 1.642 5.39-.233 11.484-6.327 12.422 2.344 3.984 3.516 7.735-4.453 9.61 4.22 7.5-.235 10.078-6.797 11.25 4.922 7.266.234 9.61-4.454 11.953 3.046 7.5-2.58 9.376-7.266 11.955 4.453 4.218.937 11.953-4.454 9.14.938 5.39-3.046 9.844-6.797 10.782 2.344 9.14-2.578 11.016-7.968 12.422.468 6.093-3.047 10.312-7.735 11.015-9.375 31.64-26.25-4.22-42.892 8.906-11.484 9.142-32.578 0-39.375-12.89-3.75-7.265-9.844-13.594-22.266-18.28l-2.58-7.267c4.455-4.22 2.814-8.438-3.046-12.89l-.467-8.204c5.39-3.048 11.72-5.86 9.375-11.017l.47-6.797c5.858-2.344 12.89-.47 16.64-8.907l11.953.468c5.392 6.797 10.782 6.094 16.173 2.578 0 0 14.297 15.47 14.297 20.86 0 4.22-4.687 4.922-4.687 12.188 0 25.547 32.813-8.203 32.813-96.096 0-33.985-10.313-115.08-92.815-115.08-31.17 0-39.374-6.563-42.656-18.516-3.047-11.25.938-23.204 14.297-13.36 20.627 15 28.596 15 37.502 4.688 15.47-18.048-1.406-26.25-11.72-34.69-10.077-7.968-51.562-8.905-35.86-34.453-.233-7.03 2.814-12.656 10.548-15.937-.234-15.938 18.75-21.798 27.423-9.61 11.72 16.407 25.782 7.5 44.298 7.5 18.517 0 30.236 3.28 43.36 22.5 7.735 11.25 14.064 6.33 7.5 0-8.202-7.734-14.296-14.765-14.296-20.86 0-5.624 11.953-6.796 18.985-6.796 18.515 0 40.312 17.344 25.78 39.844 23.204 0 35.626 23.438 16.876 42.658 20.156-1.64 35.86 3.515 43.83 20.625 8.905-1.17 18.046.94 28.124 7.032l-4.218 7.5c57.188 15.704 251.02 168.05 167.816 174.614 3.75 3.75 9.61 7.265 3.75 13.125 1.406 3.517 7.734 7.267 1.875 10.782 4.22 3.985 7.03 7.97 1.875 12.423 3.516 3.515 5.86 7.265 2.344 11.953 4.453 3.516 4.922 7.03 1.875 10.78 2.812 3.283 4.687 7.267 3.047 13.127 3.984 2.578 3.047 8.203 1.17 10.78 3.048 3.986 7.267 7.736 3.517 14.298 5.626 5.39 7.736 10.782 3.517 16.173 3.75 3.047 8.203 9.844 4.22 16.64 5.155 4.454 7.265 9.61 4.218 16.642 5.156 3.28 6.093 9.61 5.39 15 9.61 4.922 14.532 39.376-5.86 39.376-3.28 0-13.593 11.016-22.265 23.203-9.61 13.36-18.282 27.188-27.657 27.188-10.547 0-22.5-13.36-28.594-13.36-7.033 0-8.674 3.516-8.674 3.516l-12.187-4.92c-1.408-4.22-4.22-6.563-8.44-6.798l-3.046-11.015c2.813-4.22 4.453-8.204-1.406-9.61l-3.282-10.313c2.58-3.75 8.204-7.734 1.407-11.484l.703-10.782c4.687-11.25 21.094 1.875 19.22-10.547l1.874-9.14c10.782-.47 21.094-1.64 28.36 25.313 9.61 35.392 27.188 6.797 12.657-9.61-35.626-40.313-49.69-94.69-68.908-147.893.233 2.578 2.577 10.078 2.108 11.485-.703 2.812 1.172 4.218 1.407 7.968.234 5.39-.235 10.08-2.344 13.36-1.406 2.344-.234 5.39-1.406 7.5-.937 1.875-3.515 3.985-2.812 7.032.703 2.578.234 6.562.937 9.844.468 2.577.468 5.155 0 7.5-.47 2.343-.704 5.624.468 7.968.703 1.406 1.172 6.562 2.813 7.5 3.282 1.64 3.282 3.047 3.282 7.03 0 3.75 3.28 4.22 3.28 6.095 0 3.047 2.814 4.453 2.814 6.563 0 3.516 1.875 2.812.937 7.03-.468 2.345-2.578 2.58-3.28 4.69l-.235 1.405z"/><path fill="#ED0A71" d="M129.162 385.316c10.078-.703 26.72 2.813 23.204-6.797-3.047-7.97-19.454-6.33-23.204 6.796zM123.068 366.097c10.078-.703 26.016 4.922 26.72-5.156.937-7.734-21.564-14.062-26.72 5.157zM129.865 342.893c16.407.235 23.907 14.766 27.188 3.047 1.64-6.093-18.047-16.64-27.188-3.047zM148.615 320.862c14.063 8.437 18.985 24.14 27.423 15.47 4.687-4.454-10.782-26.017-27.423-15.47zM190.335 318.284c.703 7.265-11.016 22.97 2.813 26.016 6.094 1.406 14.53-16.876-2.813-26.016z"/><path fill="#FFF" d="M204.867 77.575c0 7.032-5.86 12.89-12.89 12.89s-12.892-5.858-12.892-12.89 5.86-12.89 12.89-12.89c7.267.234 12.892 5.86 12.892 12.89z"/><path fill="#102B4E" d="M194.788 71.716c0 4.453-3.75 8.203-8.203 8.203-4.453 0-8.203-3.75-8.203-8.204s3.75-8.203 8.203-8.203 8.203 3.75 8.203 8.203z"/><path fill="#FFF" d="M197.835 53.903c5.625 13.828 12.657 39.14 18.282 40.782-3.516-14.766-3.985-40.548-18.282-40.782zM266.04 89.53c-10.313 8.67-32.345 3.983-27.188 16.17 6.328 15.704 28.828-1.874 27.188-16.17z"/><path fill="#ED0A71" d="M321.353 426.333c14.063 8.437 7.032 26.25 23.673 21.563 11.72-3.282-7.032-32.11-23.673-21.563zM297.68 456.333c15.47-4.453 26.486 7.735 26.486-2.343 0-13.594-26.25-11.016-26.485 2.343zM292.994 483.287c13.594-5.156 23.906 3.75 23.906-8.203 0-11.954-23.672-5.39-23.906 8.203zM298.853 512.116c10.078-11.72 23.204-12.188 18.047-20.86-5.156-8.438-22.97.703-18.047 20.86zM322.057 534.382c4.687-11.016 13.594-20.39 5.86-24.376-11.72-6.328-20.626 12.657-5.86 24.376zM456.825 581.024c1.406-12.657 15.704-16.64 3.75-23.673-11.72-6.56-21.094 11.25-3.75 23.674zM430.34 568.133c10.08-11.72 21.563-14.766 16.407-23.438-5.157-8.672-21.33 3.047-16.407 23.438zM421.668 548.68c10.078-11.72 26.016-13.83 20.86-22.5-5.156-8.673-25.547 2.108-20.86 22.5zM422.137 517.975c13.828-5.156 24.844 1.407 24.844-10.312 0-11.954-23.437-7.97-24.843 10.312zM437.606 485.63c16.172 6.33 16.172 16.642 24.14 11.25 10.548-7.5-4.218-24.843-24.14-11.25z"/><path fill="#FFF" d="M334.48 473.912c26.25 18.985 42.89-2.578 63.047-7.97-22.735-1.64-38.204 16.642-63.048 7.97z"/><path fill="#ED0A71" d="M0 305.632v294.38h367.977L0 305.633z"/><g><path fill="#ED0A71" d="M0 305.632v294.38h367.977L0 305.633z"/></g><path fill="#ED0A71" d="M425 343.7l-3.8-11.8c-7.2-3.7-18.1-2.4-26.2 5.3 10.5-.9 19.3-2.5 30 6.5z"/><g><path fill="#ED0A71" d="M600 294.4V0H232l368 294.4z"/></g><g><path fill="#989593" d="M660-368.7c-33.7 0-60.9 28.8-60.9 64.2 0 23 11.5 43.1 28.8 54.5-36.6 53.3-88.2 115.1-141.4 133-70 23.6-135.3-121.4-167.4-207.6 23.8-8.7 41.2-32.4 41.2-60.6 0-35.4-27.2-64.2-60.8-64.2-33.5 0-60.7 28.7-60.7 64.2 0 28.2 17.3 51.9 41.2 60.6-32.1 86.1-97.3 231.2-167.4 207.6C59.4-135 7.7-196.8-28.8-250.1-11.6-261.5 0-281.5 0-304.5c0-35.4-27.3-64.2-60.8-64.2s-60.7 28.8-60.7 64.2c0 35.5 27.3 64.3 60.7 64.3.7 0 1.2-.2 1.8-.2L-1.4 19.3 600 21.7l58.2-262.2c.6 0 1.2.2 1.8.2 33.4 0 60.7-28.7 60.7-64.3 0-35.3-27.2-64.1-60.7-64.1z"/></g></svg>