<svg xmlns="http://www.w3.org/2000/svg" viewBox="-121.6 -449.4 842.4 1049.4"><path fill="#FFF" d="M596.8 600L-3.1-1.9h599.9"/><path fill="#159AB0" d="M596.8 600H-3.1V-1.9"/><path fill="#FFD730" d="M490.4 427.5s-.7-4.5.7-6.8 1.8-8.4 1.6-10.2c-.3-1.8.7-2.4-9.2-3.7 8.4-4 22.9 1 25.9 3.2 3 2.1 5.4 16.8 9.4 19-1.6 3.6-8.7 2.8-8.7 2.8l-19.7-4.3z"/><path fill="none" stroke="#010202" stroke-width="3.552" d="M490.4 427.5s-.7-4.5.7-6.8 1.8-8.4 1.6-10.2c-.3-1.8.7-2.4-9.2-3.7 8.4-4 22.9 1 25.9 3.2 3 2.1 5.4 16.8 9.4 19-1.6 3.6-8.7 2.8-8.7 2.8l-19.7-4.3z"/><path fill="#E8423F" d="M155.1 225.7c-1.6-.6-8-2-9.7.9-9.4 16 6 51.4 20.4 58.5 7.8 3.8 7.9 1.1 7.9.3-.3-10.1-28.9-40.5-18.6-59.7"/><path fill="none" stroke="#102B4E" stroke-width="3.552" d="M155.1 225.7c-1.6-.6-8-2-9.7.9-9.4 16 6 51.4 20.4 58.5 7.8 3.8 7.9 1.1 7.9.3-.3-10.1-28.9-40.5-18.6-59.7z"/><path fill="#FFD730" d="M253.6 433.2c-25.8 3.6-66.2 29.5-66.2 29.5s-19 12.5-19.6 26c-.6 13.5 6.3 16.5 6.3 16.5s17.9 15.3 13.3 26.2c-12.7 8.3-36.9 12.6-45.4 6.7-8.7-6.1-.8-14.7-2.6-20.6-3.8-12.4-15.4-14.4-18.6-11.5-2 1.8 6.9 4.1 5 10.9-2.2 7.9-12.1.1-19.2-.9s-11.3 5.5-11.3 5.5 6.7-.2 8.5.6c1.8.8 4 6.6 1.6 9.3-3.7 4-17.1 2.6-20.8 15.7 5.4-4 8.6-3.1 9.3-2.8 5.5 1.8.8 11.1 13.5 13.1-7.7 2.9-10.1 3.9-11.7 5 8.5-1.8 9.1 7.9 15.5 8.3 6.5.4 10.6-1.7 11.9-1.2 56.9 23.4 118.8-29.6 121.8-36.5.7-1.7-11.5-8.5-14.3-11.3-1.6-1.6-4.6-12.9-4.4-13.6 3-11 .8-13.2 1.8-14.6 4.8-6.8 51.2-19.2 51.2-19.2s-20.5-33-25.6-41.1"/><path fill="none" stroke="#010202" stroke-width="3.552" d="M253.6 433.2c-25.8 3.6-66.2 29.5-66.2 29.5s-19 12.5-19.6 26c-.6 13.5 6.3 16.5 6.3 16.5s17.9 15.3 13.3 26.2c-12.7 8.3-36.9 12.6-45.4 6.7-8.7-6.1-.8-14.7-2.6-20.6-3.8-12.4-15.4-14.4-18.6-11.5-2 1.8 6.9 4.1 5 10.9-2.2 7.9-12.1.1-19.2-.9s-11.3 5.5-11.3 5.5 6.7-.2 8.5.6c1.8.8 4 6.6 1.6 9.3-3.7 4-17.1 2.6-20.8 15.7 5.4-4 8.6-3.1 9.3-2.8 5.5 1.8.8 11.1 13.5 13.1-7.7 2.9-10.1 3.9-11.7 5 8.5-1.8 9.1 7.9 15.5 8.3 6.5.4 10.6-1.7 11.9-1.2 56.9 23.4 118.8-29.6 121.8-36.5.7-1.7-11.5-8.5-14.3-11.3-1.6-1.6-4.6-12.9-4.4-13.6 3-11 .8-13.2 1.8-14.6 4.8-6.8 51.2-19.2 51.2-19.2s-20.5-33-25.6-41.1z"/><path fill="none" stroke="#102B4E" stroke-width="3.552" stroke-miterlimit="17" d="M253.6 433.2c-25.8 3.6-66.2 29.5-66.2 29.5s-19 12.5-19.6 26c-.6 13.5 6.3 16.5 6.3 16.5s17.9 15.3 13.3 26.2c-12.7 8.3-36.9 12.6-45.4 6.7-8.7-6.1-.8-14.7-2.6-20.6-3.8-12.4-15.4-14.4-18.6-11.5-2 1.8 6.9 4.1 5 10.9-2.2 7.9-12.1.1-19.2-.9s-11.3 5.5-11.3 5.5 6.7-.2 8.5.6c1.8.8 4 6.6 1.6 9.3-3.7 4-17.1 2.6-20.8 15.7 5.4-4 8.6-3.1 9.3-2.8 5.5 1.8.8 11.1 13.5 13.1-7.7 2.9-10.1 3.9-11.7 5 8.5-1.8 9.1 7.9 15.5 8.3 6.5.4 10.6-1.7 11.9-1.2 56.9 23.4 118.8-29.6 121.8-36.5.7-1.7-11.5-8.5-14.3-11.3-1.6-1.6-4.6-12.9-4.4-13.6 3-11 .8-13.2 1.8-14.6 4.8-6.8 51.2-19.2 51.2-19.2s-20.5-33-25.6-41.1z"/><path fill="none" stroke="#102B4E" stroke-width="3.552" d="M118.3 520.1s-.4 20.6 11.9 29.5c12.3 8.9 20.4 4.6 34.9 24.2m-61.9-39.9s.4 4.2 8.7 5.6c-1.4 4.2 5.2 25.2 12.3 29.8"/><path fill="#FFC425" d="M218.9 348.9v-.4c-.1.2-.1.3 0 .4m0 0c0 .2 0 .2 0 0m195.7 103.9c-15.3-22.4-47.2-39.8-63.8-45.8-20-15.1-24.2-15.2-30.1-19.5 2.9-19.6-13.6-43.4-13.6-43.4s-7.6-8.8-24.6-8.8c4.5 3.5 22.4 17.9 17.8 21.3-20.4-35.7-50.1-23.8-50.1-23.8s12.2 2.3 15.5 9.5c3.3 7.3 15.8 35.1 29.3 47.9 4.3 4.1 13.1 10.7 24.4 14.7 27.6 9.8 67.1 34 75.5 44.8 4.3 5.6 7.1 13.4 7 16.2-.1 2.8-3.1 5.4-7.1 4.8-5.2-.6-67.1-40.7-67.1-40.7s-13.4-9.7-40.5-16.3c-17.7-24-69.7-48.6-80.7-57.7-.1.1-.2.2-.2.3 5.8-7 10.2-14.5 13.4-21.2-.9 7.1-.8 11.8-.7 13.4.1-2.6 27-29.9 21.9-42.4 19.5-7.7 17-9.9 16.1-17.4-.7.3-2.2.2-4 0 1.3.1 2.7.1 4 0 0-10-24.5-15.2-23.8-16.5.7-1.3 7.9 1.9 9.4.5.6-.5-30.7-37.6-37.8-36.6-2.7.9-4.2 3.4-7.2 1.7-3.1-1.7-10.4-9.1-13.2-9.5.2 1-3.3 3.7-3.3 3.7s-4.2 1.4-7.5 3.8c-3.4 2.4-3.1 10.6.2 13.9.2.2-2.8 8.8-2.8 8.8s5.2-7 6.1-7c.9 0 10.6 6.1 11 11.8.7 10.3-17 26.1-17.7 26.2-3.6.6-10.6-12.5-12.4-13.4-.7-.3-3.4-2.9-7 10.3-.3 1 .7 3.3 2.5 6.2s-14.5-10.1-28.9-11.3c2.4.2 4.6.5 6.3 1.1-5-10.6-15.1-51-10.3-72.6 32.7-12.4 29.3-17.5 28.9-23.7 4.9-6.1-2.7-13.4-2.7-13.4l-2.9 8.2s-3.3 2.2-7.4-.7c-4.1-2.9-1.4-13.9-3.2-20.1-1.7-6.2-8.8-12.5-8.8-12.5s1.6 4.9 1.9 6.4c.3 1.5-.6 4.3-6.4 4-5.8-.3-5.5-6.4-8.8-9.2-3.2-2.9-9.7-4.5-9.7-4.5s4.3 9.5 3.3 10.9c-2.9.3-6.6 8.8-9 9.5-2.4.7-9.3-10.1-14.7-2.8 6.7-.8 7.3 2.9 7.4 4.2.4 4.6-10.8 22.3-2 27.6-8.5 19.7.2 31.5.2 31.5s-6.6 32.8-7.3 71c1 .6 1.7 1.5 2.3 2.4-20.4-17.7-33-71.9-31.9-78.6.6-3.5 1.4-4.8 1.4-4.8s2.6.4 5.3-.4c2.7-.7 3.5-1.4 3.5-1.4s7.7-.7 9.7-1.3c2-.6 9.4-14.8 5.5-24.2-1.1 2.3-2.5 7.7-5.7 8.5-3.2.8-2.8-2.1-7.8-4.2 1.5-14.8-12.8-30.6-12.8-30.6s4.8 9.9 1.6 11.7c-3.2 1.8-8.7 3.4-8.7 3.4l-1.7 17.1c.3-3.6.5-8.9.5-15.8-2-4.5-6.1-12-11.6-18.2 2.5 4.1 5.6 11.2-.9 20.5.2.6.7 2 4.5 10.3-4.3-7.6-20.1-17.5-20.1-17.5s4 15-3.9 23.6c5.6 2.5 1.6 51.9 15.6 54.4 3.6 7.4 7.5 96.1 26.1 119.6 2.3.1 20.7-.1 20.7-.1l-3.5.9s23.9 26.6 32.7 33.3c12.1 9.2 63.7 17.6 98.9 21.2 35.3 3.6 52.7 16.4 53.9 14.7.6-1.4-8.1-11.6-6.4-12.1 3.7-1.1 21.2 48.9 35.7 61.1 14.5 12.2 49 15.7 51.1 27.3 1.7 9.1-3.5 33.2-17.7 31.3-2.1-.3-8.4-23-12-24.6-3.6-1.7-13.2-3.7-21.7 1.1 1.5.4 10.2 2.5 13.5 3.2 3 3-2.1 9.1-3.9 9.7-4 1.5-7.2.5-10.4 1.2-8.6 1.8-13.8 13.7-13.8 13.7s15.6.5 16.3 8.9c8.4-4.7 11.1-8.4 16.9-4.8-19 4.3-20.5 8.9-23.7 22.3 7.2-3.8 11.4-7 13.5-5.5 2.1 1.5 4.6 3.1 7.8 1.9.6-.2 1.3-.6 2.1-1-1.6 1.1-2.9 2.1-3.2 2.8-1 2.2.4 12.8 1.8 14.2.6-1.4 2.2-6.8 5.7-6.9 3.6-.1 15.6 2 17.4-.6 1.7-2.6-1.3.2 2.5-4.1 3.8-4.4 18.9-10.9 22.7-13.6 4.4-9 37.9-45.5 36.3-69.8-22.8-4.2-22.3-9-25-13-15.7-3.6-38.2-37.6-42.4-43.9 6.2 6.4 62 42.3 76.1 46.4 17.9 4.6 35.9-13.4 22.4-33.1M246.7 288.1c-3.6-.3-7.3-.2-9.7 1.2 2.8-1.6 6.1-1.5 9.7-1.2m-71.6 89.2c1.2-.3 2.4-.7 3.5-1.1-1.1.4-2.3.8-3.5 1.1"/><path fill="none" stroke="#010202" stroke-width="3.552" d="M218.9 348.9v-.4c-.1.2-.1.3 0 .4zm0 0c0 .2 0 .2 0 0zm195.7 103.9c-15.3-22.4-47.2-39.8-63.8-45.8-20-15.1-24.2-15.2-30.1-19.5 2.9-19.6-13.6-43.4-13.6-43.4s-7.6-8.8-24.6-8.8c4.5 3.5 22.4 17.9 17.8 21.3-20.4-35.7-50.1-23.8-50.1-23.8s12.2 2.3 15.5 9.5c3.3 7.3 15.8 35.1 29.3 47.9 4.3 4.1 13.1 10.7 24.4 14.7 27.6 9.8 67.1 34 75.5 44.8 4.3 5.6 7.1 13.4 7 16.2-.1 2.8-3.1 5.4-7.1 4.8-5.2-.6-67.1-40.7-67.1-40.7s-13.4-9.7-40.5-16.3c-17.7-24-69.7-48.6-80.7-57.7-.1.1-.2.2-.2.3 5.8-7 10.2-14.5 13.4-21.2-.9 7.1-.8 11.8-.7 13.4.1-2.6 27-29.9 21.9-42.4 19.5-7.7 17-9.9 16.1-17.4-.7.3-2.2.2-4 0 1.3.1 2.7.1 4 0 0-10-24.5-15.2-23.8-16.5.7-1.3 7.9 1.9 9.4.5.6-.5-30.7-37.6-37.8-36.6-2.7.9-4.2 3.4-7.2 1.7-3.1-1.7-10.4-9.1-13.2-9.5.2 1-3.3 3.7-3.3 3.7s-4.2 1.4-7.5 3.8c-3.4 2.4-3.1 10.6.2 13.9.2.2-2.8 8.8-2.8 8.8s5.2-7 6.1-7c.9 0 10.6 6.1 11 11.8.7 10.3-17 26.1-17.7 26.2-3.6.6-10.6-12.5-12.4-13.4-.7-.3-3.4-2.9-7 10.3-.3 1 .7 3.3 2.5 6.2s-14.5-10.1-28.9-11.3c2.4.2 4.6.5 6.3 1.1-5-10.6-15.1-51-10.3-72.6 32.7-12.4 29.3-17.5 28.9-23.7 4.9-6.1-2.7-13.4-2.7-13.4l-2.9 8.2s-3.3 2.2-7.4-.7c-4.1-2.9-1.4-13.9-3.2-20.1-1.7-6.2-8.8-12.5-8.8-12.5s1.6 4.9 1.9 6.4c.3 1.5-.6 4.3-6.4 4-5.8-.3-5.5-6.4-8.8-9.2-3.2-2.9-9.7-4.5-9.7-4.5s4.3 9.5 3.3 10.9c-2.9.3-6.6 8.8-9 9.5-2.4.7-9.3-10.1-14.7-2.8 6.7-.8 7.3 2.9 7.4 4.2.4 4.6-10.8 22.3-2 27.6-8.5 19.7.2 31.5.2 31.5s-6.6 32.8-7.3 71c1 .6 1.7 1.5 2.3 2.4-20.4-17.7-33-71.9-31.9-78.6.6-3.5 1.4-4.8 1.4-4.8s2.6.4 5.3-.4c2.7-.7 3.5-1.4 3.5-1.4s7.7-.7 9.7-1.3c2-.6 9.4-14.8 5.5-24.2-1.1 2.3-2.5 7.7-5.7 8.5-3.2.8-2.8-2.1-7.8-4.2 1.5-14.8-12.8-30.6-12.8-30.6s4.8 9.9 1.6 11.7c-3.2 1.8-8.7 3.4-8.7 3.4l-1.7 17.1c.3-3.6.5-8.9.5-15.8-2-4.5-6.1-12-11.6-18.2 2.5 4.1 5.6 11.2-.9 20.5.2.6.7 2 4.5 10.3-4.3-7.6-20.1-17.5-20.1-17.5s4 15-3.9 23.6c5.6 2.5 1.6 51.9 15.6 54.4 3.6 7.4 7.5 96.1 26.1 119.6 2.3.1 20.7-.1 20.7-.1l-3.5.9s23.9 26.6 32.7 33.3c12.1 9.2 63.7 17.6 98.9 21.2 35.3 3.6 52.7 16.4 53.9 14.7.6-1.4-8.1-11.6-6.4-12.1 3.7-1.1 21.2 48.9 35.7 61.1 14.5 12.2 49 15.7 51.1 27.3 1.7 9.1-3.5 33.2-17.7 31.3-2.1-.3-8.4-23-12-24.6-3.6-1.7-13.2-3.7-21.7 1.1 1.5.4 10.2 2.5 13.5 3.2 3 3-2.1 9.1-3.9 9.7-4 1.5-7.2.5-10.4 1.2-8.6 1.8-13.8 13.7-13.8 13.7s15.6.5 16.3 8.9c8.4-4.7 11.1-8.4 16.9-4.8-19 4.3-20.5 8.9-23.7 22.3 7.2-3.8 11.4-7 13.5-5.5 2.1 1.5 4.6 3.1 7.8 1.9.6-.2 1.3-.6 2.1-1-1.6 1.1-2.9 2.1-3.2 2.8-1 2.2.4 12.8 1.8 14.2.6-1.4 2.2-6.8 5.7-6.9 3.6-.1 15.6 2 17.4-.6 1.7-2.6-1.3.2 2.5-4.1 3.8-4.4 18.9-10.9 22.7-13.6 4.4-9 37.9-45.5 36.3-69.8-22.8-4.2-22.3-9-25-13-15.7-3.6-38.2-37.6-42.4-43.9 6.2 6.4 62 42.3 76.1 46.4 17.9 4.6 35.9-13.4 22.4-33.1zM246.7 288.1c-3.6-.3-7.3-.2-9.7 1.2 2.8-1.6 6.1-1.5 9.7-1.2zm-71.6 89.2c1.2-.3 2.4-.7 3.5-1.1-1.1.4-2.3.8-3.5 1.1z"/><path fill="none" stroke="#110A0E" stroke-width="2.784" d="M285.5 538.5c11.3 1.2 31.1 14.6 28 5.3m17.2-278.3c-1.1 3.5-1 3.9 4.9 9.9-10.7 20.7-3 36-3 36"/><path fill="none" stroke="#102B4E" stroke-width="3.552" d="M87.2 225c8.5-1.3 17-12.9 26.4-27.6 9.3-14.7 19.6-18 22.5-17.6m-49.5 13.1s18.2-19.3 31-23.1c-4.9-13.1.7-12.3.7-12.3m-56.1 34.8s-11.5 11.8-12.1 25.4"/><path fill="#E8423F" d="M235.2 448.1s20.4 10.2 27.7 9.9c-1.3-3.6-5.3-11.6-5.3-11.6s-7.8-4.4-22.4 1.7"/><path fill="none" stroke="#102B4E" stroke-width="3.552" d="M235.2 448.1s20.4 10.2 27.7 9.9c-1.3-3.6-5.3-11.6-5.3-11.6s-7.8-4.4-22.4 1.7z"/><path fill="#FFC425" d="M478.6 273.4c-3.1-1.7-34.7-6.9-50.4-4.5-15.7 2.4-18.5 18.2-19.6 25.3-1 7.2 1.1 18.3-21.4 14.2-9.5-1.7-21.7-13.7-21.6-19.8.1-8.5 10.6-12 10.8-18.6.1-2 .2-18.5-12.5-18.5-1.1 3.5 4.7 12.9-3.1 13.7-7.5.8-13.7-10-20.1-14.1-4.9-3.1-11.5-.9-11.5-.9l8.6 5.4s-.2 7.3-3.4 9c-6 3.2-18.4-7.3-29.7 5.2 7.3-.9 9.5 1.1 11.5 1.6 2.2 5.4-2.7 15.1 5.9 18.9-1.8-.2-13.9-1.1-13.7-.6 7.3 2.4 6.1 8.9 6.1 8.9s2.8 8.9 15.9 10.6c20.7 28.3 76.3 50.3 112.6 48.3-.5-29 8.9-37.1 26.1-40 1.5-6.6 9.2-42.7 9.5-44.1"/><path fill="#FFD730" d="M191.7 71.5c-.4 1.4-4.5 15.1 3.6 28.8.2-.4-.1-2.5-.1-2.5s5.1-3.6 7.1-7.6c.9-1.9 7.8-4.5 11.6-9.2 3.9-5.8.8-18.2-6.9-25 .5 5.9 1.9 9.5.9 10.5-3.9 4.3-15.8 3.7-16.2 5"/><path fill="none" stroke="#102B4E" stroke-width="3.552" d="M191.7 71.5c-.4 1.4-4.5 15.1 3.6 28.8.2-.4-.1-2.5-.1-2.5s5.1-3.6 7.1-7.6c.9-1.9 7.8-4.5 11.6-9.2 3.9-5.8.8-18.2-6.9-25 .5 5.9 1.9 9.5.9 10.5-3.9 4.3-15.8 3.7-16.2 5z"/><path fill="#E8423F" d="M362 35c-1.8-.2-9 0-10.1 3.7-5.8 21 19.8 57.2 36.9 61.2 9.2 2.2 8.6-1 8.4-1.9-2.8-11.4-41-38.2-35.2-63"/><path fill="none" stroke="#010202" stroke-width="3.552" d="M362 35c-1.8-.2-9 0-10.1 3.7-5.8 21 19.8 57.2 36.9 61.2 9.2 2.2 8.6-1 8.4-1.9-2.8-11.4-41-38.2-35.2-63z"/><path fill="none" stroke="#102B4E" stroke-width="2.784" d="M362 35c-1.8-.2-9 0-10.1 3.7-5.8 21 19.8 57.2 36.9 61.2 9.2 2.2 8.6-1 8.4-1.9-2.8-11.4-41-38.2-35.2-63z"/><path fill="none" stroke="#102B4E" stroke-width="3.552" d="M478.6 273.4c-3.1-1.7-34.7-6.9-50.4-4.5-15.7 2.4-18.5 18.2-19.6 25.3-1 7.2 1.1 18.3-21.4 14.2-9.5-1.7-21.7-13.7-21.6-19.8.1-8.5 10.6-12 10.8-18.6.1-2 .2-18.5-12.5-18.5-1.1 3.5 4.7 12.9-3.1 13.7-7.5.8-13.7-10-20.1-14.1-4.9-3.1-11.5-.9-11.5-.9l8.6 5.4s-.2 7.3-3.4 9c-6 3.2-18.4-7.3-29.7 5.2 7.3-.9 9.5 1.1 11.5 1.6 2.2 5.4-2.7 15.1 5.9 18.9-1.8-.2-13.9-1.1-13.7-.6 7.3 2.4 6.1 8.9 6.1 8.9s2.8 8.9 15.9 10.6c20.7 28.3 76.3 50.3 112.6 48.3-.5-29 8.9-37.1 26.1-40 1.5-6.6 9.2-42.7 9.5-44.1z"/><path fill="#E8423F" d="M436.5 279.7c11.8-.1 26 .5 29.5 6.3 0 2.4.9 7.8 1.3 11.6-5.8-.9-30.8-16.6-30.8-17.9"/><path fill="#FFC425" d="M582.5 296.2c-1.2-11.7-13.6-42.6-43.8-88.8-21.3-32.6-23.1-49.4-19.2-63.7 19.6-2.9 45.5-29.4 44.8-45.5-.7-16.1-10.4-24.3-10.4-24.3s-5.5 34.7-12.8 32.8c2.5-3.5 10-14.7 10.1-30.4.1-15.7-22.1-29.6-25.3-29.9 2.1 2.9 10.8 11.9 8.5 18.9-2.2 7-8.1 15-16 25.4-8 10.6-18.4 28-19.7 44.6-1.3 16.5 7.8 36.2 11.9 48.1 4.4 12.6 34.1 60.8 34.1 60.8s35.6 53.7 23.6 63.6c-3.7 3-19.2 2.1-27.9-9.9-8.1-11.3-7-10.8-14-21.3-9.9-14.8-16.1-13.7-16.5-15.5-31.8-53.5-76.3-83.2-82.8-87.1 0 0 10.3-10.1 13.4-21.2-.2 3.9-1 13.9-1 13.9s28.7-32.2 25.4-49c37.1-3.3 23.4-21.1 20.3-22.8.2-2.1-21.2-11.2-21.2-13.3 0 0 .5-.3 1.2-.6 7 2.1 8.7 1.7 8.6.6-.1-1.1-29.2-34-41.3-36.3-4 2.8-4.7 1.2-7.4 1.7-4 .6-13.9-12.5-19-12.7-.5 2-5.1 4.4-5.1 4.4s-10 3-12 6.7 1.7 12.4 1.7 12.4l-1.6 8.3s5.3-6.6 5.6-7.1c2.7 4 11.4 3.6 13.5 15.2 2.1 11.5-6.7 15.4-10.1 22.3-3.4 6.9-6.9 4.4-9.8 3.9-4.3-.7-14.4-10.8-14.8-10.8-4.5 0-6.9 11.8-6.8 13.4 1.3-.5 1.9 4.3 3.2 4.9.6.3 1.5.8 2.4 1.4-15.6-10.4-41.3-7.8-41.1-7.1.2.8 7 3.5 6.6 5.3-.3 1.2-12.2-1.8-28.2 3.9.2-.1.4-.1.5-.2 0 0-28.4-29.4-20.8-50.4 9.6-2.2 17.1-1.3 22.8-3.6 9.4-3.7 13.9-14.7 13.8-19.9-9.2 10-12 7.5-13.5 6.8-5.7-2.6.5-17.3 0-22.6-.5-5.3-7.5-11.5-7.5-11.5s2.2 7.8-9.2 11.5c-5.4 1.7-9.8-6.2-13.5-9.5-3.8-3.3-10.9-3.8-10.9-3.8s5.7 8.6 4 10.8c-3.7.1-7 6.1-11.9 7.2-4.9 1.1-9.7-9.9-18.1-2.7 6.3-.6 6.8 1.2 7.4 2.3 2.9 4.8-1.6 6.2-3.6 24.9-.8 8.1-.1 16.8.7 23.8 2 16 13.9 34.2 20.7 71.3 0 0 .1.1.2.1-25.1-10.3-53.2-17.4-67.8-32-15.1-15.1-13.1-38.6-11.2-42.2 0-1.2-10.1-16.6-29.4-18.9 10.2 8.3 8.9 5.7 1.4 17.5 5 5.5 7.6 11 9.1 14.9-1.4-2.9-4-7.1-8.9-12.8-5.2-1.6-13.5-1.9-24.2.9 14.3 2.5 11.6 18.9 11.6 18.9s3.7 2.5 11 6.3c-8-3.4-32.3 1.6-32.3 1.6s19.6 1.7 17.9 13.9c9.9 6.6 21.4 19.8 26.6 22.6 2 1.2 1.1 2.2 11 4.3 36 43.4 93.4 78.4 99.7 80.8 7.3-1.6 20-1.1 20-1.1s-5.3.7-10.8 1.3c9.6 12.5 43.2 14.8 86.6 20 58.3 6.9 81.4 39.5 84.7 40 1.1-2.8-2-4.4-2.3-14.7 9.7 16.1-1.8 63.9 15.6 81.8 16.6 17.2 40.2 32.1 46.2 40.2 1.9 2.5 4.3 7.8 3 22.5-.6 6.7-5.5 10.4-10.4 19.1-3.1 1.5-7.1 1.9-12.3 0-29.9-10.8-38.8 4.9-38.8 4.9s18.1-1.9 17.5 8.7c1.5-.3 3.3-.5 5.1-.5-4.3 1.5-8.4 5-11 12.4 7.8-4.5 14.9 4.6 18.3 9.1 3.4 4.6 7.3.6 7.3.6s9.3-10.8 17.1-11c-.8.5-23.5 6.1-17.7 31.1 3-15.7 21.1-3.7 25.6-9.7.3-1.2-.1-4.5 2.4-7.9 2.5-3.4 17.1-8.5 17.1-8.5s14.4-23.5 15.2-37.2c.2-3.8 3.6-22.5 4-55.4-24.8-2.2-26-18.6-28.3-36.5-1.6-12.3-5.6-21.2-7.9-25.6 4.7 7.3 18.2 24.8 38.4 20.1 13.8-3.2 13.9-17.5 12.7-29.2M375.2 111.6c-.4-.4-.8-.7-1.2-1 .4.4.8.7 1.2 1m-1.8-1.4c-.4-.3-.8-.6-1.2-.8.4.2.8.5 1.2.8"/><g fill="none" stroke-width="3.552"><path stroke="#010202" d="M582.5 296.2c-1.2-11.7-13.6-42.6-43.8-88.8-21.3-32.6-23.1-49.4-19.2-63.7 19.6-2.9 45.5-29.4 44.8-45.5-.7-16.1-10.4-24.3-10.4-24.3s-5.5 34.7-12.8 32.8c2.5-3.5 10-14.7 10.1-30.4.1-15.7-22.1-29.6-25.3-29.9 2.1 2.9 10.8 11.9 8.5 18.9-2.2 7-8.1 15-16 25.4-8 10.6-18.4 28-19.7 44.6-1.3 16.5 7.8 36.2 11.9 48.1 4.4 12.6 34.1 60.8 34.1 60.8s35.6 53.7 23.6 63.6c-3.7 3-19.2 2.1-27.9-9.9-8.1-11.3-7-10.8-14-21.3-9.9-14.8-16.1-13.7-16.5-15.5-31.8-53.5-76.3-83.2-82.8-87.1 0 0 10.3-10.1 13.4-21.2-.2 3.9-1 13.9-1 13.9s28.7-32.2 25.4-49c37.1-3.3 23.4-21.1 20.3-22.8.2-2.1-21.2-11.2-21.2-13.3 0 0 .5-.3 1.2-.6 7 2.1 8.7 1.7 8.6.6-.1-1.1-29.2-34-41.3-36.3-4 2.8-4.7 1.2-7.4 1.7-4 .6-13.9-12.5-19-12.7-.5 2-5.1 4.4-5.1 4.4s-10 3-12 6.7 1.7 12.4 1.7 12.4l-1.6 8.3s5.3-6.6 5.6-7.1c2.7 4 11.4 3.6 13.5 15.2 2.1 11.5-6.7 15.4-10.1 22.3-3.4 6.9-6.9 4.4-9.8 3.9-4.3-.7-14.4-10.8-14.8-10.8-4.5 0-6.9 11.8-6.8 13.4 1.3-.5 1.9 4.3 3.2 4.9.6.3 1.5.8 2.4 1.4-15.6-10.4-41.3-7.8-41.1-7.1.2.8 7 3.5 6.6 5.3-.3 1.2-12.2-1.8-28.2 3.9.2-.1.4-.1.5-.2 0 0-28.4-29.4-20.8-50.4 9.6-2.2 17.1-1.3 22.8-3.6 9.4-3.7 13.9-14.7 13.8-19.9-9.2 10-12 7.5-13.5 6.8-5.7-2.6.5-17.3 0-22.6-.5-5.3-7.5-11.5-7.5-11.5s2.2 7.8-9.2 11.5c-5.4 1.7-9.8-6.2-13.5-9.5-3.8-3.3-10.9-3.8-10.9-3.8s5.7 8.6 4 10.8c-3.7.1-7 6.1-11.9 7.2-4.9 1.1-9.7-9.9-18.1-2.7 6.3-.6 6.8 1.2 7.4 2.3 2.9 4.8-1.6 6.2-3.6 24.9-.8 8.1-.1 16.8.7 23.8 2 16 13.9 34.2 20.7 71.3 0 0 .1.1.2.1-25.1-10.3-53.2-17.4-67.8-32-15.1-15.1-13.1-38.6-11.2-42.2 0-1.2-10.1-16.6-29.4-18.9 10.2 8.3 8.9 5.7 1.4 17.5 5 5.5 7.6 11 9.1 14.9-1.4-2.9-4-7.1-8.9-12.8-5.2-1.6-13.5-1.9-24.2.9 14.3 2.5 11.6 18.9 11.6 18.9s3.7 2.5 11 6.3c-8-3.4-32.3 1.6-32.3 1.6s19.6 1.7 17.9 13.9c9.9 6.6 21.4 19.8 26.6 22.6 2 1.2 1.1 2.2 11 4.3 36 43.4 93.4 78.4 99.7 80.8 7.3-1.6 20-1.1 20-1.1s-5.3.7-10.8 1.3c9.6 12.5 43.2 14.8 86.6 20 58.3 6.9 81.4 39.5 84.7 40 1.1-2.8-2-4.4-2.3-14.7 9.7 16.1-1.8 63.9 15.6 81.8 16.6 17.2 40.2 32.1 46.2 40.2 1.9 2.5 4.3 7.8 3 22.5-.6 6.7-5.5 10.4-10.4 19.1-3.1 1.5-7.1 1.9-12.3 0-29.9-10.8-38.8 4.9-38.8 4.9s18.1-1.9 17.5 8.7c1.5-.3 3.3-.5 5.1-.5-4.3 1.5-8.4 5-11 12.4 7.8-4.5 14.9 4.6 18.3 9.1 3.4 4.6 7.3.6 7.3.6s9.3-10.8 17.1-11c-.8.5-23.5 6.1-17.7 31.1 3-15.7 21.1-3.7 25.6-9.7.3-1.2-.1-4.5 2.4-7.9 2.5-3.4 17.1-8.5 17.1-8.5s14.4-23.5 15.2-37.2c.2-3.8 3.6-22.5 4-55.4-24.8-2.2-26-18.6-28.3-36.5-1.6-12.3-5.6-21.2-7.9-25.6 4.7 7.3 18.2 24.8 38.4 20.1 13.8-3.2 13.9-17.5 12.7-29.2zM375.2 111.6c-.4-.4-.8-.7-1.2-1 .4.4.8.7 1.2 1zm-1.8-1.4c-.4-.3-.8-.6-1.2-.8.4.2.8.5 1.2.8z"/><path stroke="#102B4E" stroke-miterlimit="16" d="M427.2 174c6.6 3.9 51 33.6 82.8 87.1.4 1.8 6.6.7 16.5 15.5 7 10.5 5.9 10 14 21.3 8.7 12.1 24.2 13 27.8 9.9 12-9.9-23.6-63.6-23.6-63.6s-29.8-48.2-34.1-60.8c-4.1-11.9-13.2-31.6-11.9-48.1 1.3-16.6 11.6-34.1 19.7-44.6 8-10.4 13.8-18.5 16-25.4 2.2-7-6.5-16-8.5-18.9 3.2.2 25.4 14.1 25.3 29.9-.1 15.7-7.6 26.9-10.1 30.4 7.2 2 12.8-32.8 12.8-32.8s9.7 8.2 10.4 24.3c.7 16.1-25.1 42.7-44.8 45.5-4 14.3-2.2 31.1 19.2 63.7 30.2 46.2 42.6 77 43.8 88.8 1.2 11.7 1.1 26-12.8 29.2-25.3 5.9-40.2-23.2-40.2-23.2s7.4 10.7 9.7 28.7c2.3 17.9 3.5 34.4 28.3 36.5-.3 32.9-3.7 51.7-3.9 55.4-.8 13.6-15.2 37.2-15.2 37.2s-14.6 5.1-17.1 8.5c-2.5 3.4-2.2 6.8-2.4 7.9-4.5 6.1-22.6-6-25.6 9.7-5.9-24.9 16.8-30.6 17.7-31.1-7.8.1-17.1 10.9-17.1 10.9s-3.9 4-7.3-.6c-3.4-4.5-10.5-13.6-18.3-9.1 7.1-20.2 26.2-11.6 26.2-11.6s-12.9-1.7-20.4-.3c.5-10.6-17.5-8.7-17.5-8.7s8.9-15.7 38.8-4.9c5.1 1.9 9.2 1.5 12.3 0 4.9-8.7 9.8-12.4 10.4-19.1 1.2-14.7-1.1-20-3-22.5-6-8.1-29.6-23-46.2-40.2-17.4-17.9-5.9-65.7-15.6-81.8.3 10.3 3.4 11.9 2.3 14.7-3.4-.5-26.4-33.1-84.7-40-43.4-5.1-77-7.5-86.6-20 5.5-.6 10.8-1.3 10.8-1.3s-12.8-.5-20 1.1c-6.4-2.4-63.8-37.4-99.7-80.8-9.9-2.1-9-3.1-11-4.3-5.1-2.8-16.7-16.1-26.6-22.6 1.8-12.2-17.9-13.9-17.9-13.9s26.6-5.6 33.3-1.1c-8-4.1-12-6.8-12-6.8s2.8-16.4-11.6-18.9c10.7-2.8 19.1-2.5 24.2-.9 11.7 13.6 10.5 18.6 10.5 18.6s-1.2-10.3-10.6-20.7c7.4-11.9 8.7-9.3-1.4-17.5 19.3 2.4 29.4 17.7 29.4 18.9-1.9 3.5-4 27 11.2 42.2 20.7 20.7 68.7 26.3 96.7 47.7 18.6 14.2 15.9 36.7-2.8 38.5 7.9 7.4 41.4 5.8 41.4 5.8s-6.4 6-8.5 8c2.8 2.1 39.7 7.1 62.7-19.7-3.2 7.3-5.1 11-5.1 11s9.4 1.3 39.9-31.1z"/></g><path fill="none" stroke="#102B4E" stroke-width="3.552" stroke-miterlimit="9" d="M296.8 199.9c7.9 7.4 41.4 5.8 41.4 5.8s-6.4 6-8.5 8c2.8 2.1 39.7 7.1 62.7-19.7-3.2 7.3-5.1 11-5.1 11s9.4 1.4 39.8-31c0 0 10.3-10.1 13.4-21.2-.2 3.9-1 13.9-1 13.9s28.7-32.2 25.4-49c37.1-3.3 23.4-21.1 20.3-22.8-1-.2-10.5 0-18.7-.4s-10.7 7.8-10.7 7.8-5.6 13.5-18 29.6c-18.3 24.1-47.6-7.2-62.6-20.3-15-13.1-44.3-10.2-44.1-9.4.2.8 7 3.5 6.6 5.3-.4 1.8-24-5.1-49.6 16.2 1.2 0 13.1-.2 12.7 3.1-.2 1.6-16.6 3.5-22 22.4 1.2.4 14.7 7.4 20.8 12.1 18.7 14.3 16 36.8-2.8 38.6"/><path fill="none" stroke="#102B4E" stroke-width="3.552" d="M278.8 149.3c5.5-18.9 21.8-20.9 22-22.4.4-3.3-11.5-3.1-12.7-3.1 7.7-6.4 15.2-10.2 21.9-12.5 0 0-28.4-29.4-20.8-50.4 9.6-2.2 17.2-1.3 22.8-3.6 9.4-3.7 13.9-14.7 13.8-19.9-9.2 10-12 7.5-13.5 6.8-5.7-2.6.5-17.3 0-22.6-.5-5.3-7.5-11.5-7.5-11.5s2.2 7.8-9.2 11.5c-5.4 1.7-9.8-6.2-13.5-9.5-3.8-3.3-10.9-3.8-10.9-3.8s5.7 8.6 4 10.8c-3.7.1-7 6.1-11.9 7.2-4.9 1.1-9.7-9.9-18.1-2.7 6.3-.6 6.8 1.2 7.4 2.3 2.9 4.8-1.6 6.2-3.6 24.9-.8 8.1-.1 16.8.7 23.8 2 16 13.9 34.2 20.7 71.3 1 .3 8.4 3.4 8.4 3.4z"/><path fill="none" stroke="#102B4E" stroke-width="2.784" stroke-miterlimit="5" d="M485.2 94.8c0 .4-10.5 0-18.7-.4s-10.7 7.8-10.7 7.8-5.6 13.5-18 29.6c-18.3 24.1-47.6-7.2-62.6-20.3-1.6-1.4-4.1-3.1-5.3-3.7-1.3-.6-1.9-5.4-3.2-4.9-.1-1.6 2.3-13.4 6.8-13.4.4 0 10.4 10.1 14.7 10.8 2.9.5 6.4 3 9.8-3.9 3.4-6.9 12.2-10.7 10.1-22.3-2-11.5-10.7-11.1-13.4-15.1-.3.5-5.6 7.1-5.6 7.1l1.6-8.3s-3.7-8.7-1.7-12.4c2-3.7 12-6.7 12-6.7s4.6-2.4 5.1-4.4c5 .3 15 13.3 19 12.7 2.6-.5 3.3 1.1 7.4-1.7 12.1 2.3 41.2 35.2 41.3 36.3.1 1.1-1.6 1.5-8.6-.6-.7.3-1.2.6-1.2.6 0 2 21.4 11.1 21.2 13.2z"/><path fill="#102B4E" d="M427.8 55.2c1.6.2 16.7 4.1 19.5 21.9-.6 1-19.5-2.9-19.5-8.5 0-6.4 6.5-7.8 0-13.4"/><path fill="none" stroke="#102B4E" stroke-width="3.552" d="M84.1 303.3s1.5-7.9 17.2-6.2c1.6-2.9-10.1-5.2-9.9-6.1.2-.9 16.9-7.9 28.3-5.3-2.4-1.8-4.1-2.6-7.4-2.9 5.8-2.4 14-1.9 18.5-.5-5-10.5-15.1-51-10.3-72.6 32.7-12.4 29.3-17.5 28.9-23.7 4.9-6.1-2.7-13.4-2.7-13.4l-2.9 8.2s-3.3 2.2-7.4-.7c-4.1-2.9-1.4-13.9-3.2-20.1-1.7-6.2-8.8-12.5-8.8-12.5s1.6 4.9 1.9 6.4c.3 1.5-.6 4.3-6.4 4-5.8-.3-5.5-6.4-8.8-9.2-3.2-2.9-9.7-4.5-9.7-4.5s4.3 9.4 3.3 10.9c-2.9.3-6.6 8.8-9 9.5-2.4.7-9.3-10.1-14.7-2.8 6.7-.8 7.3 2.9 7.4 4.2.4 4.6-10.8 22.3-2 27.6-8.5 19.7.2 31.5.2 31.5s-6.6 32.7-7.3 71c3.9 2.4 4.8 7.2 4.8 7.2zM291.9 21c.8 3.6-7.4 6.5-11.2 13.8-16.9 4.2-28.5 17.8-31.9 26.7m5 27.9c3.2-1.6 23.5-43.3 40.8-50.9 9.4-4.1 8.6.9 15.6-3.6m126.3 244.8c11.8-.1 26 .5 29.5 6.3 0 2.4.9 7.8 1.3 11.6-5.8-.9-30.8-16.6-30.8-17.9z"/><path fill="none" stroke="#102B4E" stroke-width="3.552" stroke-miterlimit="17" d="M170.8 258.5s5.2-7 6.1-7c.9 0 10.6 6.1 11 11.8.7 10.3-17 26.1-17.7 26.2-3.6.6-10.6-12.5-12.4-13.4-.7-.3-3.4-2.9-7 10.3-1.1 4 18.4 27.8 26.1 34.5 25.2 22.1 46.9-11.8 49.5-14.4 7.6-7.5 5.4-14.2 10.6-17.1 5.4-3.1 12.7 0 19.9-.5 0-10-24.5-15.2-23.8-16.5.7-1.3 7.9 1.9 9.4.5.6-.5-30.7-37.6-37.8-36.6-2.7.9-4.2 3.4-7.2 1.7-3.1-1.7-10.4-9.1-13.2-9.5.2 1-3.3 3.7-3.3 3.7s-4.2 1.4-7.6 3.8c-3.4 2.4-3.1 10.6.2 13.9.2 0-2.8 8.6-2.8 8.6z"/><path fill="none" stroke="#102B4E" stroke-width="3.552" stroke-miterlimit="7" d="M153.4 292.5c5.4 8.7 17.8 23.3 23.5 28.3 25.2 22.1 46.9-11.8 49.5-14.4 7.6-7.5 5.4-14.3 10.6-17.1 5.4-3.1 17.4.4 19.9-.5.9 7.5 3.4 9.7-16.1 17.4 5.1 12.6-22.2 40.2-21.9 42.4.2 2.3-.6-3 .8-13.4-7.3 15.5-21.2 35.7-44.4 42.2.6-1.2 2.5-4.6 4.6-9.9-31.9 31.1-64.2 19.7-64.2 19.7s2.3-1.9 8-6.8c-21.2-1-30.4-3.7-50-19.5 12.2-1.7 17.6-13.6 19-24.8 1.4-11.2-3.8-13-6.6-19.2-2.7-6.2-2-13.5-2-13.5s1.5-7.9 17.2-6.2c1.6-2.9-10.1-5.2-9.9-6.1.2-.9 16.9-7.9 28.3-5.3-2.4-1.8-5.4-3.2-8.6-3.5 17-7.2 42.3 10.2 42.3 10.2z"/><path fill="none" stroke="#102B4E" stroke-width="3.552" stroke-miterlimit="10" d="M206.5 356c-7.3 8.7-17.9 17.6-31.3 21.3.6-1.2 2.5-4.6 4.6-9.9-31.9 31.1-64.2 19.7-64.2 19.7s2.3-1.9 8-6.8c-21.2-1-30.4-3.7-50-19.5 12.2-1.7 17.6-13.6 19-24.8 1.4-11.2-3.8-13-6.6-19.2-2.7-6.2-2-13.5-2-13.5s-.2-3-2.1-5c-20.4-17.7-33-71.9-31.9-78.6.6-3.5 1.4-4.8 1.4-4.8s2.6.4 5.3-.4c2.7-.7 3.5-1.4 3.5-1.4s7.7-.7 9.7-1.3c2-.6 9.4-14.8 5.5-24.2-1.1 2.3-2.5 7.7-5.7 8.5-3.2.8-2.8-2.1-7.8-4.2 1.5-14.8-12.8-30.6-12.8-30.6s4.8 9.9 1.6 11.7c-3.2 1.8-8.7 3.4-8.7 3.4l-2 22.5s1-7.3 1-21.3c-2-4.5-6.1-12-11.6-18.2 1.5 4.5 5.6 11.2-.9 20.5.3.6.8 2.2 5.4 12.1-2.5-7.8-20.9-19.2-20.9-19.2s4 15-3.9 23.6c5.6 2.5 1.6 51.9 15.6 54.4 3.6 7.4 7.5 96.1 26.1 119.6 2.3.1 20.7-.1 20.7-.1l-3.5.9s23.9 26.6 32.7 33.3c12.1 9.2 63.7 17.6 98.9 21.2 35.3 3.6 52.7 16.4 53.9 14.7.6-1.4-2.4-9.1-6.4-12.1 5.5.2 21.2 48.9 35.7 61.1 14.5 12.2 49 15.7 51.1 27.3 1.7 9.1-3.5 33.2-17.7 31.3-2.1-.3-8.4-23-12-24.6-3.6-1.7-13.2-3.7-21.7 1.1 1.5.4 10.2 2.4 13.5 3.2 3 3-2.1 9.1-3.9 9.7-4 1.5-7.2.5-10.4 1.2-8.6 1.8-13.8 13.7-13.8 13.7s15.6.5 16.3 8.9c8.4-4.7 11.1-8.4 16.9-4.8-19 4.3-20.5 8.9-23.7 22.3 7.2-3.8 11.4-7 13.5-5.5 2.1 1.5 4.6 3.1 7.8 1.9 3.3-1.2 11-6 11-6s-11 5.6-12.1 7.8c-1 2.2.4 12.8 1.8 14.2.6-1.4 2.2-6.8 5.7-6.9 3.6-.1 15.6 2 17.4-.6 1.7-2.6-1.3.2 2.5-4.1 3.8-4.4 18.9-10.9 22.7-13.6 4.4-9 37.9-45.5 36.3-69.8-22.7-4.2-22.3-9-25-13-16.6-3.8-40.8-41.7-43-44.7 0 3 61.8 42.9 76.7 47.2 17.1 5 35.1-13 21.7-32.7-15.3-22.4-47.2-39.8-63.8-45.8-20-15.1-24.2-15.2-30.1-19.5 2.8-19.6-13.6-43.4-13.6-43.4s-7.6-8.7-24.6-8.8c4.5 3.5 22.4 17.9 17.8 21.3-20.5-35.7-50.1-23.8-50.1-23.8s12.2 2.3 15.5 9.5c3.3 7.3 15.8 35 29.3 47.9 4.3 4.1 13.1 10.7 24.4 14.7 27.6 9.8 67.2 34 75.5 44.8 4.3 5.6 7.1 13.4 7 16.2-.1 2.8-3.1 5.4-7.1 4.8-5.2-.6-67.1-40.6-67.1-40.6s-13.4-9.7-40.5-16.3c-17.6-24.2-69.5-48.8-80.5-57.9z"/><path fill="#102B4E" d="M203.4 247.7c15.1 4 17.9 19.7 18.1 21.5-1.6.5-16.1-2.6-17.7-8.2-1.5-5.3 7.5-9.2-.4-13.3"/><path fill="none" stroke="#102B4E" stroke-width="3.552" d="M368 337.1c.9-20.1-17.2-31.5-21-46.1-2.6-10.4 6.9-27.4 6.9-27.4"/><g><path fill="#989593" d="M660-368.7c-33.7 0-60.9 28.8-60.9 64.2 0 23 11.5 43.1 28.8 54.5-36.6 53.3-88.2 115.1-141.4 133-70 23.6-135.3-121.4-167.4-207.6 23.8-8.7 41.2-32.4 41.2-60.6 0-35.4-27.2-64.2-60.8-64.2-33.5 0-60.7 28.7-60.7 64.2 0 28.2 17.3 51.9 41.2 60.6-32.1 86.1-97.3 231.2-167.4 207.6C59.4-135 7.7-196.8-28.8-250.1-11.6-261.5 0-281.5 0-304.5c0-35.4-27.3-64.2-60.8-64.2s-60.7 28.8-60.7 64.2c0 35.5 27.3 64.3 60.7 64.3.7 0 1.2-.2 1.8-.2L-1.4 19.3 600 21.7l58.2-262.2c.6 0 1.2.2 1.8.2 33.4 0 60.7-28.7 60.7-64.3 0-35.3-27.2-64.1-60.7-64.1z"/></g></svg>