<?xml version="1.0" encoding="utf-8"?>
<!-- Generator: Adobe Illustrator 15.0.0, SVG Export Plug-In . SVG Version: 6.00 Build 0)  -->
<!DOCTYPE svg PUBLIC "-//W3C//DTD SVG 1.1//EN" "http://www.w3.org/Graphics/SVG/1.1/DTD/svg11.dtd">
<svg version="1.1" id="Ebene_1" xmlns="http://www.w3.org/2000/svg" xmlns:xlink="http://www.w3.org/1999/xlink" x="0px" y="0px"
	 width="612px" height="612.001px" viewBox="0 90 612 612.001" enable-background="new 0 90 612 612.001" xml:space="preserve">
<circle fill="#989593" cx="306" cy="396" r="306"/>
<g>
	<g>
		<g>
			<path fill="#FFFFFF" d="M523.889,301.832c-20.375,0-37.079,17.438-37.079,38.916c0,13.95,6.976,26.249,17.438,33.041
				c-22.211,32.308-53.601,69.938-85.908,80.769c-42.586,14.317-82.236-73.793-101.693-126.108
				c14.501-5.323,24.964-19.642,24.964-36.713c0-21.477-16.521-38.915-36.896-38.915c-20.192,0.184-36.713,17.622-36.713,39.099
				c0,17.071,10.463,31.573,24.965,36.713c-19.458,52.315-59.107,140.426-101.694,126.108
				c-32.307-10.831-63.696-48.461-85.907-80.769c10.463-6.976,17.438-19.091,17.438-33.041c0-21.478-16.521-38.916-36.896-38.916
				c-20.375,0-36.896,17.438-36.896,38.916c0,21.66,16.521,39.099,36.896,39.099c0.367,0,0.734-0.184,1.102-0.184l35.061,157.864
				l365.291,1.469l35.428-159.149c0.367,0,0.733,0.184,1.101,0.184c20.376,0,36.896-17.438,36.896-39.099
				C560.785,319.454,544.265,301.832,523.889,301.832z"/>
		</g>
	</g>
</g>
</svg>
