<svg xmlns="http://www.w3.org/2000/svg" viewBox="0 0 400 400"><path fill="#FFF" d="M197 172h114v228H197z"/><path fill="#00AEEF" d="M83 172h114v228H83z"/><path fill="#F4A42E" d="M334.9 29.9c-12.8 0-23.2 11-23.2 24.5 0 8.8 4.4 16.4 11 20.8-14 20.3-33.6 43.9-53.9 50.7-26.7 9-51.6-46.3-63.8-79.1 9.1-3.3 15.7-12.3 15.7-23.1 0-13.5-10.4-24.5-23.2-24.5-12.8 0-23.1 10.9-23.1 24.5 0 10.7 6.6 19.8 15.7 23.1-12.2 32.8-37.1 88.1-63.8 79.1-20.3-6.9-40-30.4-53.9-50.7 6.6-4.3 11-12 11-20.7C83.4 41 73 30 60.2 30S37 40.9 37 54.3c0 13.5 10.4 24.5 23.1 24.5.3 0 .5-.1.7-.1l22 99 229.2.9 22.2-99.9c.2 0 .5.1.7.1 12.7 0 23.1-10.9 23.1-24.5 0-13.4-10.4-24.4-23.1-24.4z"/></svg>