<svg xmlns="http://www.w3.org/2000/svg" viewBox="-121.6 -449.4 842.4 1049.4"><path fill="#FFF" d="M-.4-4.4h600v300H-.4z"/><path fill="#159AB0" d="M-.4 295.6h600v300H-.4z"/><g fill="#FFC425"><path d="M129.7 87.4l-2.5 23.2H68.4v-1.8h2.2c1.9 0 3.5-.3 4.6-1 .8-.5 1.5-1.2 2-2.3.4-.8.5-2.8.5-6.2V55.7c0-3.4-.2-5.5-.5-6.3-.4-.8-1.1-1.6-2.2-2.2-1.1-.6-2.6-1-4.4-1h-2.2v-1.8h35.3v1.8h-2.9c-1.9 0-3.5.3-4.6 1-.8.5-1.5 1.2-2 2.3-.4.8-.5 2.8-.5 6.2v42.2c0 3.4.2 5.5.6 6.5s1.2 1.6 2.3 2.1c.8.3 2.8.4 5.9.4h5.5c3.5 0 6.4-.6 8.8-1.9 2.3-1.2 4.4-3.2 6.1-5.9 1.7-2.7 3.3-6.6 4.9-11.8-.1.1 1.9.1 1.9.1zM169.9 108.8v1.8h-34.6v-1.8h2.2c1.9 0 3.5-.3 4.6-1 .8-.5 1.5-1.2 2-2.3.4-.8.5-2.8.5-6.2V55.7c0-3.4-.2-5.5-.5-6.3-.4-.8-1.1-1.6-2.2-2.2-1.1-.6-2.6-1-4.4-1h-2.2v-1.8h34.6v1.8h-2.2c-1.9 0-3.5.3-4.6 1-.8.5-1.5 1.2-2 2.3-.4.8-.5 2.8-.5 6.2v43.6c0 3.4.2 5.5.6 6.3.4.8 1.1 1.6 2.2 2.2 1.1.6 2.6 1 4.4 1h2.1zM216.6 75.5c6.3 1.5 10.7 3.2 13.2 5.3 3.6 3 5.5 6.8 5.5 11.5 0 5-2 9.1-6 12.4-4.9 3.9-12.1 5.9-21.4 5.9h-33.6v-1.8c3.1 0 5.1-.3 6.2-.9 1.1-.6 1.9-1.3 2.3-2.2.4-.9.7-3.2.7-6.7V56c0-3.6-.2-5.8-.7-6.8-.4-.9-1.2-1.7-2.3-2.2-1.1-.6-3.2-.8-6.2-.8v-1.8H206c7.6 0 13 .7 16.1 2 3.2 1.4 5.6 3.4 7.5 6.1 1.8 2.7 2.7 5.5 2.7 8.6 0 3.2-1.2 6-3.5 8.5s-6.3 4.5-12.2 5.9zM198.9 78V101.6c0 1.8.4 3.1 1.3 4 .9.9 2.2 1.3 4 1.3 2.6 0 5-.6 7.2-1.7 2.2-1.2 3.9-2.8 5.1-5s1.8-4.6 1.8-7.3c0-3.1-.7-5.9-2.1-8.3-1.4-2.5-3.4-4.2-5.9-5.2-2.7-.9-6.5-1.4-11.4-1.4zm0-3.8c4.6 0 8-.5 10.2-1.6 2.2-1 3.9-2.5 5.1-4.4 1.2-1.9 1.8-4.3 1.8-7.2s-.6-5.3-1.7-7.2c-1.2-1.9-2.8-3.3-5-4.3s-5.6-1.4-10.4-1.4v26.1zM266.1 48.2v27h1.3c4.2 0 7.2-1.3 9.1-4 1.9-2.6 3.1-6.5 3.6-11.7h1.9v34.7h-1.9c-.4-3.8-1.2-6.9-2.5-9.3-1.3-2.4-2.7-4-4.4-4.9s-4.1-1.2-7.2-1.2v18.7c0 3.6.2 5.9.5 6.7.3.8.9 1.5 1.7 2 .8.5 2.2.8 4.1.8h4c6.2 0 11.1-1.4 14.9-4.3 3.7-2.9 6.4-7.2 8-13.1h1.8l-3 21h-57.2v-1.8h2.2c1.9 0 3.5-.3 4.6-1 .8-.5 1.5-1.2 2-2.3.4-.8.5-2.8.5-6.2V55.7c0-3-.1-4.8-.2-5.5-.3-1.1-.9-2-1.8-2.6-1.2-.9-2.9-1.4-5.1-1.4h-2.2v-1.8h55.4V64h-1.9c-.9-4.8-2.3-8.2-4-10.3-1.7-2.1-4.1-3.6-7.3-4.6-1.8-.6-5.2-.9-10.3-.9h-6.6zM332.1 80.5V99c0 3.6.2 5.8.7 6.8.4.9 1.2 1.7 2.3 2.2 1.1.6 3.2.8 6.2.8v1.8h-33.9v-1.8c3.1 0 5.1-.3 6.2-.9 1.1-.6 1.9-1.3 2.3-2.2.4-.9.7-3.2.7-6.7V56c0-3.6-.2-5.8-.7-6.8s-1.2-1.7-2.3-2.2c-1.1-.6-3.2-.8-6.2-.8v-1.8h30.8c8 0 13.9.6 17.6 1.7 3.7 1.1 6.7 3.1 9.1 6.1 2.3 3 3.5 6.5 3.5 10.5 0 4.9-1.8 8.9-5.3 12.1-2.2 2-5.4 3.5-9.4 4.5l15.9 22.4c2.1 2.9 3.6 4.7 4.4 5.4 1.3 1 2.9 1.6 4.6 1.7v1.8h-20.9l-21.3-30.2h-4.3zm0-32.5v29h2.8c4.5 0 7.9-.4 10.2-1.2s4-2.3 5.3-4.5c1.3-2.2 1.9-5 1.9-8.5 0-5-1.2-8.8-3.5-11.2-2.4-2.4-6.2-3.6-11.4-3.6h-5.3zM437.3 44.4v17.9h-1.8c-1-4.1-2.2-7.1-3.5-8.9-1.3-1.8-3-3.2-5.2-4.3-1.2-.6-3.4-.9-6.5-.9h-4.9v51.1c0 3.4.2 5.5.6 6.3.4.8 1.1 1.6 2.2 2.2 1.1.6 2.6 1 4.5 1h2.2v1.8h-34.7v-1.8h2.2c1.9 0 3.5-.3 4.6-1 .8-.5 1.5-1.2 2-2.3.4-.8.5-2.8.5-6.2V48.2h-4.8c-4.5 0-7.7.9-9.7 2.8-2.8 2.6-4.6 6.4-5.4 11.3h-1.9V44.4h59.6zM468.2 48.2v27h1.3c4.2 0 7.2-1.3 9.1-4 1.9-2.6 3.1-6.5 3.6-11.7h1.9v34.7h-1.9c-.4-3.8-1.2-6.9-2.5-9.3-1.3-2.4-2.7-4-4.4-4.9s-4.1-1.2-7.2-1.2v18.7c0 3.6.2 5.9.5 6.7.3.8.9 1.5 1.7 2 .8.5 2.2.8 4.1.8h4c6.2 0 11.1-1.4 14.9-4.3 3.7-2.9 6.4-7.2 8-13.1h1.8l-3 21h-57.2v-1.8h2.2c1.9 0 3.5-.3 4.6-1 .8-.5 1.5-1.2 2-2.3.4-.8.5-2.8.5-6.2V55.7c0-3-.1-4.8-.2-5.5-.3-1.1-.9-2-1.8-2.6-1.2-.9-2.9-1.4-5.1-1.4h-2.2v-1.8h55.4V64h-1.9c-.9-4.8-2.3-8.2-4-10.3-1.7-2.1-4.1-3.6-7.3-4.6-1.8-.6-5.2-.9-10.3-.9h-6.6zm20.9-26.4l-16.2 16.9h-4.2l5.7-16.9h14.7z"/></g><g fill="none" stroke="#102B4E" stroke-width="2"><path d="M129.7 87.4l-2.5 23.2H68.4v-1.8h2.2c1.9 0 3.5-.3 4.6-1 .8-.5 1.5-1.2 2-2.3.4-.8.5-2.8.5-6.2V55.7c0-3.4-.2-5.5-.5-6.3-.4-.8-1.1-1.6-2.2-2.2-1.1-.6-2.6-1-4.4-1h-2.2v-1.8h35.3v1.8h-2.9c-1.9 0-3.5.3-4.6 1-.8.5-1.5 1.2-2 2.3-.4.8-.5 2.8-.5 6.2v42.2c0 3.4.2 5.5.6 6.5s1.2 1.6 2.3 2.1c.8.3 2.8.4 5.9.4h5.5c3.5 0 6.4-.6 8.8-1.9 2.3-1.2 4.4-3.2 6.1-5.9 1.7-2.7 3.3-6.6 4.9-11.8-.1.1 1.9.1 1.9.1zM169.9 108.8v1.8h-34.6v-1.8h2.2c1.9 0 3.5-.3 4.6-1 .8-.5 1.5-1.2 2-2.3.4-.8.5-2.8.5-6.2V55.7c0-3.4-.2-5.5-.5-6.3-.4-.8-1.1-1.6-2.2-2.2-1.1-.6-2.6-1-4.4-1h-2.2v-1.8h34.6v1.8h-2.2c-1.9 0-3.5.3-4.6 1-.8.5-1.5 1.2-2 2.3-.4.8-.5 2.8-.5 6.2v43.6c0 3.4.2 5.5.6 6.3.4.8 1.1 1.6 2.2 2.2 1.1.6 2.6 1 4.4 1h2.1zM216.6 75.5c6.3 1.5 10.7 3.2 13.2 5.3 3.6 3 5.5 6.8 5.5 11.5 0 5-2 9.1-6 12.4-4.9 3.9-12.1 5.9-21.4 5.9h-33.6v-1.8c3.1 0 5.1-.3 6.2-.9 1.1-.6 1.9-1.3 2.3-2.2.4-.9.7-3.2.7-6.7V56c0-3.6-.2-5.8-.7-6.8-.4-.9-1.2-1.7-2.3-2.2-1.1-.6-3.2-.8-6.2-.8v-1.8H206c7.6 0 13 .7 16.1 2 3.2 1.4 5.6 3.4 7.5 6.1 1.8 2.7 2.7 5.5 2.7 8.6 0 3.2-1.2 6-3.5 8.5s-6.3 4.5-12.2 5.9zM198.9 78V101.6c0 1.8.4 3.1 1.3 4 .9.9 2.2 1.3 4 1.3 2.6 0 5-.6 7.2-1.7 2.2-1.2 3.9-2.8 5.1-5s1.8-4.6 1.8-7.3c0-3.1-.7-5.9-2.1-8.3-1.4-2.5-3.4-4.2-5.9-5.2-2.7-.9-6.5-1.4-11.4-1.4zm0-3.8c4.6 0 8-.5 10.2-1.6 2.2-1 3.9-2.5 5.1-4.4 1.2-1.9 1.8-4.3 1.8-7.2s-.6-5.3-1.7-7.2c-1.2-1.9-2.8-3.3-5-4.3s-5.6-1.4-10.4-1.4v26.1zM266.1 48.2v27h1.3c4.2 0 7.2-1.3 9.1-4 1.9-2.6 3.1-6.5 3.6-11.7h1.9v34.7h-1.9c-.4-3.8-1.2-6.9-2.5-9.3-1.3-2.4-2.7-4-4.4-4.9s-4.1-1.2-7.2-1.2v18.7c0 3.6.2 5.9.5 6.7.3.8.9 1.5 1.7 2 .8.5 2.2.8 4.1.8h4c6.2 0 11.1-1.4 14.9-4.3 3.7-2.9 6.4-7.2 8-13.1h1.8l-3 21h-57.2v-1.8h2.2c1.9 0 3.5-.3 4.6-1 .8-.5 1.5-1.2 2-2.3.4-.8.5-2.8.5-6.2V55.7c0-3-.1-4.8-.2-5.5-.3-1.1-.9-2-1.8-2.6-1.2-.9-2.9-1.4-5.1-1.4h-2.2v-1.8h55.4V64h-1.9c-.9-4.8-2.3-8.2-4-10.3-1.7-2.1-4.1-3.6-7.3-4.6-1.8-.6-5.2-.9-10.3-.9h-6.6zM332.1 80.5V99c0 3.6.2 5.8.7 6.8.4.9 1.2 1.7 2.3 2.2 1.1.6 3.2.8 6.2.8v1.8h-33.9v-1.8c3.1 0 5.1-.3 6.2-.9 1.1-.6 1.9-1.3 2.3-2.2.4-.9.7-3.2.7-6.7V56c0-3.6-.2-5.8-.7-6.8s-1.2-1.7-2.3-2.2c-1.1-.6-3.2-.8-6.2-.8v-1.8h30.8c8 0 13.9.6 17.6 1.7 3.7 1.1 6.7 3.1 9.1 6.1 2.3 3 3.5 6.5 3.5 10.5 0 4.9-1.8 8.9-5.3 12.1-2.2 2-5.4 3.5-9.4 4.5l15.9 22.4c2.1 2.9 3.6 4.7 4.4 5.4 1.3 1 2.9 1.6 4.6 1.7v1.8h-20.9l-21.3-30.2h-4.3zm0-32.5v29h2.8c4.5 0 7.9-.4 10.2-1.2s4-2.3 5.3-4.5c1.3-2.2 1.9-5 1.9-8.5 0-5-1.2-8.8-3.5-11.2-2.4-2.4-6.2-3.6-11.4-3.6h-5.3zM437.3 44.4v17.9h-1.8c-1-4.1-2.2-7.1-3.5-8.9-1.3-1.8-3-3.2-5.2-4.3-1.2-.6-3.4-.9-6.5-.9h-4.9v51.1c0 3.4.2 5.5.6 6.3.4.8 1.1 1.6 2.2 2.2 1.1.6 2.6 1 4.5 1h2.2v1.8h-34.7v-1.8h2.2c1.9 0 3.5-.3 4.6-1 .8-.5 1.5-1.2 2-2.3.4-.8.5-2.8.5-6.2V48.2h-4.8c-4.5 0-7.7.9-9.7 2.8-2.8 2.6-4.6 6.4-5.4 11.3h-1.9V44.4h59.6zM468.2 48.2v27h1.3c4.2 0 7.2-1.3 9.1-4 1.9-2.6 3.1-6.5 3.6-11.7h1.9v34.7h-1.9c-.4-3.8-1.2-6.9-2.5-9.3-1.3-2.4-2.7-4-4.4-4.9s-4.1-1.2-7.2-1.2v18.7c0 3.6.2 5.9.5 6.7.3.8.9 1.5 1.7 2 .8.5 2.2.8 4.1.8h4c6.2 0 11.1-1.4 14.9-4.3 3.7-2.9 6.4-7.2 8-13.1h1.8l-3 21h-57.2v-1.8h2.2c1.9 0 3.5-.3 4.6-1 .8-.5 1.5-1.2 2-2.3.4-.8.5-2.8.5-6.2V55.7c0-3-.1-4.8-.2-5.5-.3-1.1-.9-2-1.8-2.6-1.2-.9-2.9-1.4-5.1-1.4h-2.2v-1.8h55.4V64h-1.9c-.9-4.8-2.3-8.2-4-10.3-1.7-2.1-4.1-3.6-7.3-4.6-1.8-.6-5.2-.9-10.3-.9h-6.6zm20.9-26.4l-16.2 16.9h-4.2l5.7-16.9h14.7z"/></g><g fill="#FFC425"><path d="M257.5 139.8V160h1c3.1 0 5.4-1 6.8-3 1.4-2 2.3-4.9 2.7-8.8h1.4v26H268c-.3-2.8-.9-5.2-1.9-7s-2-3-3.3-3.6-3.1-.9-5.4-.9v14c0 2.7.1 4.4.3 5 .2.6.7 1.1 1.3 1.5.6.4 1.7.6 3.1.6h3c4.6 0 8.4-1.1 11.2-3.2 2.8-2.1 4.8-5.4 6-9.8h1.4l-2.2 15.8h-42.9v-1.4h1.6c1.4 0 2.6-.3 3.5-.8.6-.3 1.1-.9 1.5-1.8.3-.6.4-2.1.4-4.6v-32.7c0-2.2-.1-3.6-.2-4.1-.2-.9-.7-1.5-1.4-2-.9-.7-2.2-1-3.8-1h-1.6V137h41.6v14.7h-1.4c-.7-3.6-1.7-6.2-3-7.7-1.3-1.6-3.1-2.7-5.4-3.4-1.4-.4-3.9-.7-7.7-.7l-5.2-.1zM334.4 137v13.4h-1.3c-.8-3.1-1.6-5.3-2.6-6.7-1-1.4-2.3-2.4-3.9-3.2-.9-.4-2.6-.7-4.9-.7H318v38.3c0 2.5.1 4.1.4 4.8s.8 1.2 1.6 1.7 1.9.7 3.4.7h1.6v1.4h-26v-1.4h1.6c1.4 0 2.6-.3 3.5-.8.6-.3 1.1-.9 1.5-1.8.3-.6.4-2.1.4-4.6v-38.3h-3.6c-3.3 0-5.8.7-7.3 2.1-2.1 2-3.5 4.8-4 8.5h-1.4V137h44.7z"/></g><path fill="none" stroke="#102B4E" stroke-width="2" d="M257.5 139.8V160h1c3.1 0 5.4-1 6.8-3 1.4-2 2.3-4.9 2.7-8.8h1.4v26H268c-.3-2.8-.9-5.2-1.9-7s-2-3-3.3-3.6-3.1-.9-5.4-.9v14c0 2.7.1 4.4.3 5 .2.6.7 1.1 1.3 1.5.6.4 1.7.6 3.1.6h3c4.6 0 8.4-1.1 11.2-3.2 2.8-2.1 4.8-5.4 6-9.8h1.4l-2.2 15.8h-42.9v-1.4h1.6c1.4 0 2.6-.3 3.5-.8.6-.3 1.1-.9 1.5-1.8.3-.6.4-2.1.4-4.6v-32.7c0-2.2-.1-3.6-.2-4.1-.2-.9-.7-1.5-1.4-2-.9-.7-2.2-1-3.8-1h-1.6V137h41.6v14.7h-1.4c-.7-3.6-1.7-6.2-3-7.7-1.3-1.6-3.1-2.7-5.4-3.4-1.4-.4-3.9-.7-7.7-.7l-5.2-.1zM334.4 137v13.4h-1.3c-.8-3.1-1.6-5.3-2.6-6.7-1-1.4-2.3-2.4-3.9-3.2-.9-.4-2.6-.7-4.9-.7H318v38.3c0 2.5.1 4.1.4 4.8s.8 1.2 1.6 1.7 1.9.7 3.4.7h1.6v1.4h-26v-1.4h1.6c1.4 0 2.6-.3 3.5-.8.6-.3 1.1-.9 1.5-1.8.3-.6.4-2.1.4-4.6v-38.3h-3.6c-3.3 0-5.8.7-7.3 2.1-2.1 2-3.5 4.8-4 8.5h-1.4V137h44.7z"/><g fill="#FFC425"><path d="M145.1 250.7V269c0 3.6.2 5.8.7 6.8s1.2 1.7 2.3 2.2c1.1.6 3.2.8 6.2.8v1.8h-33.6v-1.8c3.1 0 5.1-.3 6.2-.9 1.1-.6 1.9-1.3 2.3-2.2.4-.9.7-3.2.7-6.7v-43c0-3.6-.2-5.8-.7-6.8s-1.2-1.7-2.3-2.2c-1.1-.6-3.2-.8-6.2-.8v-1.8h28.9c9.5 0 16.3 1.7 20.5 5.1 4.1 3.4 6.2 7.6 6.2 12.7 0 4.3-1.3 8-4 11-2.7 3.1-6.3 5.1-11 6.2-3.3.9-8.7 1.3-16.2 1.3zm0-32.5v28.6c1.1.1 1.9.1 2.4.1 4 0 7-1.2 9.2-3.5 2.1-2.4 3.2-6 3.2-11 0-4.9-1.1-8.5-3.2-10.8-2.1-2.3-5.4-3.4-9.6-3.4h-2zM213.4 261.8H190l-2.8 6.4c-.9 2.1-1.4 3.9-1.4 5.3 0 1.9.7 3.2 2.2 4.1.9.5 3 .9 6.5 1.2v1.8h-22v-1.8c2.4-.4 4.3-1.3 5.9-3 1.5-1.6 3.4-4.9 5.7-10l23.7-52.8h.9l23.9 54.3c2.3 5.1 4.1 8.4 5.6 9.7 1.1 1 2.7 1.6 4.7 1.8v1.8h-32v-1.8h1.3c2.6 0 4.4-.4 5.4-1.1.7-.5 1.1-1.3 1.1-2.2 0-.6-.1-1.2-.3-1.8-.1-.3-.6-1.5-1.5-3.7l-3.5-8.2zm-1.7-3.6l-9.9-22.8-10.2 22.8h20.1zM299.6 214.4v17.9h-1.8c-1-4.1-2.2-7.1-3.5-8.9-1.3-1.8-3-3.2-5.2-4.3-1.2-.6-3.4-.9-6.5-.9h-4.9v51.1c0 3.4.2 5.5.6 6.3.4.8 1.1 1.6 2.2 2.2 1.1.6 2.6 1 4.5 1h2.2v1.8h-34.7v-1.8h2.2c1.9 0 3.5-.3 4.6-1 .8-.5 1.5-1.2 2-2.3.4-.8.5-2.8.5-6.2v-51.1H257c-4.5 0-7.7.9-9.7 2.8-2.8 2.6-4.6 6.4-5.4 11.3H240v-17.9h59.6zM329.8 250.5V269c0 3.6.2 5.8.7 6.8.4.9 1.2 1.7 2.3 2.2 1.1.6 3.2.8 6.2.8v1.8h-33.9v-1.8c3.1 0 5.1-.3 6.2-.9 1.1-.6 1.9-1.3 2.3-2.2.4-.9.7-3.2.7-6.7v-43c0-3.6-.2-5.8-.7-6.8s-1.2-1.7-2.3-2.2c-1.1-.6-3.2-.8-6.2-.8v-1.8h30.8c8 0 13.9.6 17.6 1.7 3.7 1.1 6.7 3.1 9.1 6.1 2.3 3 3.5 6.5 3.5 10.5 0 4.9-1.8 8.9-5.3 12.1-2.2 2-5.4 3.5-9.4 4.5l15.9 22.4c2.1 2.9 3.6 4.7 4.4 5.4 1.3 1 2.9 1.6 4.6 1.7v1.8h-20.9l-21.3-30.2h-4.3zm0-32.5v29h2.8c4.5 0 7.9-.4 10.2-1.2s4-2.3 5.3-4.5c1.3-2.2 1.9-5 1.9-8.5 0-5-1.2-8.8-3.5-11.2-2.4-2.4-6.2-3.6-11.4-3.6h-5.3zM412.1 278.8v1.8h-34.6v-1.8h2.2c1.9 0 3.5-.3 4.6-1 .8-.5 1.5-1.2 2-2.3.4-.8.5-2.8.5-6.2v-43.6c0-3.4-.2-5.5-.5-6.3-.4-.8-1.1-1.6-2.2-2.2-1.1-.6-2.6-1-4.4-1h-2.2v-1.8h34.6v1.8h-2.2c-1.9 0-3.5.3-4.6 1-.8.5-1.5 1.2-2 2.3-.4.8-.5 2.8-.5 6.2v43.6c0 3.4.2 5.5.6 6.3.4.8 1.1 1.6 2.2 2.2 1.1.6 2.6 1 4.4 1h2.1zM441.6 218.2v27h1.3c4.2 0 7.2-1.3 9.1-4 1.9-2.6 3.1-6.5 3.6-11.7h1.9v34.7h-1.9c-.4-3.8-1.2-6.9-2.5-9.3-1.3-2.4-2.7-4-4.4-4.9-1.7-.8-4.1-1.2-7.2-1.2v18.7c0 3.6.2 5.9.5 6.7.3.8.9 1.5 1.7 2 .8.5 2.2.8 4.1.8h4c6.2 0 11.1-1.4 14.9-4.3 3.7-2.9 6.4-7.2 8-13.1h1.8l-3 21h-57.2v-1.8h2.2c1.9 0 3.5-.3 4.6-1 .8-.5 1.5-1.2 2-2.3.4-.8.5-2.8.5-6.2v-43.6c0-3-.1-4.8-.2-5.5-.3-1.1-.9-2-1.8-2.6-1.2-.9-2.9-1.4-5.1-1.4h-2.2v-1.8h55.4V234h-1.9c-.9-4.8-2.3-8.2-4-10.3-1.7-2.1-4.1-3.6-7.3-4.6-1.8-.6-5.2-.9-10.3-.9h-6.6z"/></g><g fill="none" stroke="#102B4E" stroke-width="2"><path d="M145.1 250.7V269c0 3.6.2 5.8.7 6.8s1.2 1.7 2.3 2.2c1.1.6 3.2.8 6.2.8v1.8h-33.6v-1.8c3.1 0 5.1-.3 6.2-.9 1.1-.6 1.9-1.3 2.3-2.2.4-.9.7-3.2.7-6.7v-43c0-3.6-.2-5.8-.7-6.8s-1.2-1.7-2.3-2.2c-1.1-.6-3.2-.8-6.2-.8v-1.8h28.9c9.5 0 16.3 1.7 20.5 5.1 4.1 3.4 6.2 7.6 6.2 12.7 0 4.3-1.3 8-4 11-2.7 3.1-6.3 5.1-11 6.2-3.3.9-8.7 1.3-16.2 1.3zm0-32.5v28.6c1.1.1 1.9.1 2.4.1 4 0 7-1.2 9.2-3.5 2.1-2.4 3.2-6 3.2-11 0-4.9-1.1-8.5-3.2-10.8-2.1-2.3-5.4-3.4-9.6-3.4h-2zM213.4 261.8H190l-2.8 6.4c-.9 2.1-1.4 3.9-1.4 5.3 0 1.9.7 3.2 2.2 4.1.9.5 3 .9 6.5 1.2v1.8h-22v-1.8c2.4-.4 4.3-1.3 5.9-3 1.5-1.6 3.4-4.9 5.7-10l23.7-52.8h.9l23.9 54.3c2.3 5.1 4.1 8.4 5.6 9.7 1.1 1 2.7 1.6 4.7 1.8v1.8h-32v-1.8h1.3c2.6 0 4.4-.4 5.4-1.1.7-.5 1.1-1.3 1.1-2.2 0-.6-.1-1.2-.3-1.8-.1-.3-.6-1.5-1.5-3.7l-3.5-8.2zm-1.7-3.6l-9.9-22.8-10.2 22.8h20.1zM299.6 214.4v17.9h-1.8c-1-4.1-2.2-7.1-3.5-8.9-1.3-1.8-3-3.2-5.2-4.3-1.2-.6-3.4-.9-6.5-.9h-4.9v51.1c0 3.4.2 5.5.6 6.3.4.8 1.1 1.6 2.2 2.2 1.1.6 2.6 1 4.5 1h2.2v1.8h-34.7v-1.8h2.2c1.9 0 3.5-.3 4.6-1 .8-.5 1.5-1.2 2-2.3.4-.8.5-2.8.5-6.2v-51.1H257c-4.5 0-7.7.9-9.7 2.8-2.8 2.6-4.6 6.4-5.4 11.3H240v-17.9h59.6zM329.8 250.5V269c0 3.6.2 5.8.7 6.8.4.9 1.2 1.7 2.3 2.2 1.1.6 3.2.8 6.2.8v1.8h-33.9v-1.8c3.1 0 5.1-.3 6.2-.9 1.1-.6 1.9-1.3 2.3-2.2.4-.9.7-3.2.7-6.7v-43c0-3.6-.2-5.8-.7-6.8s-1.2-1.7-2.3-2.2c-1.1-.6-3.2-.8-6.2-.8v-1.8h30.8c8 0 13.9.6 17.6 1.7 3.7 1.1 6.7 3.1 9.1 6.1 2.3 3 3.5 6.5 3.5 10.5 0 4.9-1.8 8.9-5.3 12.1-2.2 2-5.4 3.5-9.4 4.5l15.9 22.4c2.1 2.9 3.6 4.7 4.4 5.4 1.3 1 2.9 1.6 4.6 1.7v1.8h-20.9l-21.3-30.2h-4.3zm0-32.5v29h2.8c4.5 0 7.9-.4 10.2-1.2s4-2.3 5.3-4.5c1.3-2.2 1.9-5 1.9-8.5 0-5-1.2-8.8-3.5-11.2-2.4-2.4-6.2-3.6-11.4-3.6h-5.3zM412.1 278.8v1.8h-34.6v-1.8h2.2c1.9 0 3.5-.3 4.6-1 .8-.5 1.5-1.2 2-2.3.4-.8.5-2.8.5-6.2v-43.6c0-3.4-.2-5.5-.5-6.3-.4-.8-1.1-1.6-2.2-2.2-1.1-.6-2.6-1-4.4-1h-2.2v-1.8h34.6v1.8h-2.2c-1.9 0-3.5.3-4.6 1-.8.5-1.5 1.2-2 2.3-.4.8-.5 2.8-.5 6.2v43.6c0 3.4.2 5.5.6 6.3.4.8 1.1 1.6 2.2 2.2 1.1.6 2.6 1 4.4 1h2.1zM441.6 218.2v27h1.3c4.2 0 7.2-1.3 9.1-4 1.9-2.6 3.1-6.5 3.6-11.7h1.9v34.7h-1.9c-.4-3.8-1.2-6.9-2.5-9.3-1.3-2.4-2.7-4-4.4-4.9-1.7-.8-4.1-1.2-7.2-1.2v18.7c0 3.6.2 5.9.5 6.7.3.8.9 1.5 1.7 2 .8.5 2.2.8 4.1.8h4c6.2 0 11.1-1.4 14.9-4.3 3.7-2.9 6.4-7.2 8-13.1h1.8l-3 21h-57.2v-1.8h2.2c1.9 0 3.5-.3 4.6-1 .8-.5 1.5-1.2 2-2.3.4-.8.5-2.8.5-6.2v-43.6c0-3-.1-4.8-.2-5.5-.3-1.1-.9-2-1.8-2.6-1.2-.9-2.9-1.4-5.1-1.4h-2.2v-1.8h55.4V234h-1.9c-.9-4.8-2.3-8.2-4-10.3-1.7-2.1-4.1-3.6-7.3-4.6-1.8-.6-5.2-.9-10.3-.9h-6.6z"/></g><g><path fill="#AA6553" d="M660-368.7c-33.7 0-60.9 28.8-60.9 64.2 0 23 11.5 43.1 28.8 54.5-36.6 53.3-88.2 115.1-141.4 133-70 23.6-135.3-121.4-167.4-207.6 23.8-8.7 41.2-32.4 41.2-60.6 0-35.4-27.2-64.2-60.8-64.2-33.5 0-60.7 28.7-60.7 64.2 0 28.2 17.3 51.9 41.2 60.6-32.1 86.1-97.3 231.2-167.4 207.6C59.4-135 7.7-196.8-28.8-250.1-11.6-261.5 0-281.5 0-304.5c0-35.4-27.3-64.2-60.8-64.2s-60.7 28.8-60.7 64.2c0 35.5 27.3 64.3 60.7 64.3.7 0 1.2-.2 1.8-.2L-1.4 19.3 600 21.7l58.2-262.2c.6 0 1.2.2 1.8.2 33.4 0 60.7-28.7 60.7-64.3 0-35.3-27.2-64.1-60.7-64.1z"/></g></svg>