<svg xmlns="http://www.w3.org/2000/svg" viewBox="-121.6 -449.4 842.4 1049.4"><path fill="#159AB0" d="M-.4 0h600v600H-.4z"/><path fill="#FFF" stroke="#102B4E" stroke-width="3" d="M287.1 21.5h25v557h-25z"/><path fill="#FFF" stroke="#102B4E" stroke-width="3" d="M294.6 130.5h10c6.9 0 12.5 5.6 12.5 12.5v375c0 6.9-5.6 12.5-12.5 12.5h-10c-6.9 0-12.5-5.6-12.5-12.5V143c0-6.9 5.6-12.5 12.5-12.5zM242.6 130.5c6.9 0 12.5 5.6 12.5 12.5v375c0 6.9-5.6 12.5-12.5 12.5s-12.5-5.6-12.5-12.5V143c0-6.9 5.6-12.5 12.5-12.5zM268.6 130.5c6.9 0 12.5 5.6 12.5 12.5v375c0 6.9-5.6 12.5-12.5 12.5s-12.5-5.6-12.5-12.5V143c0-6.9 5.6-12.5 12.5-12.5zM330.6 130.5c6.9 0 12.5 5.6 12.5 12.5v375c0 6.9-5.6 12.5-12.5 12.5s-12.5-5.6-12.5-12.5V143c0-6.9 5.6-12.5 12.5-12.5zM356.6 130.5c6.9 0 12.5 5.6 12.5 12.5v375c0 6.9-5.6 12.5-12.5 12.5s-12.5-5.6-12.5-12.5V143c0-6.9 5.6-12.5 12.5-12.5z"/><path fill="#159AB0" stroke="#102B4E" stroke-width="3" d="M230.6 166.5h138c2.8 0 5 2.2 5 5v22c0 2.8-2.2 5-5 5h-138c-2.8 0-5-2.2-5-5v-22c0-2.7 2.2-5 5-5zM230.6 466.5h138c2.8 0 5 2.2 5 5v22c0 2.8-2.2 5-5 5h-138c-2.8 0-5-2.2-5-5v-22c0-2.7 2.2-5 5-5z"/><path fill="#159AB0" stroke="#102B4E" stroke-width="3" stroke-linejoin="round" d="M225.6 218v50l148 177v-50l-148-177z"/><path fill="#FFF" stroke="#102B4E" stroke-width="3" d="M325.6 86c7-1 7-9 0-11-40-8-69-28-96-59-18 40-18 74 0 110 25-24 56-37 96-40z"/><path fill="#FFF" stroke="#102B4E" stroke-width="3" d="M316.6 70v20c-12 3-22 6-34 5V59c12 1 22 7 34 11z"/><g><path fill="#F4A42E" d="M660-368.7c-33.7 0-60.9 28.8-60.9 64.2 0 23 11.5 43.1 28.8 54.5-36.6 53.3-88.2 115.1-141.4 133-70 23.6-135.3-121.4-167.4-207.6 23.8-8.7 41.2-32.4 41.2-60.6 0-35.4-27.2-64.2-60.8-64.2-33.5 0-60.7 28.7-60.7 64.2 0 28.2 17.3 51.9 41.2 60.6-32.1 86.1-97.3 231.2-167.4 207.6C59.4-135 7.7-196.8-28.8-250.1-11.6-261.5 0-281.5 0-304.5c0-35.4-27.3-64.2-60.8-64.2s-60.7 28.8-60.7 64.2c0 35.5 27.3 64.3 60.7 64.3.7 0 1.2-.2 1.8-.2L-1.4 19.3 600 21.7l58.2-262.2c.6 0 1.2.2 1.8.2 33.4 0 60.7-28.7 60.7-64.3 0-35.3-27.2-64.1-60.7-64.1z"/></g></svg>