<svg xmlns="http://www.w3.org/2000/svg" viewBox="-121.6 -449.4 842.4 1049.4"><path fill="#102B4E" d="M1.4 0h595.8v600H1.4z"/><path fill="#00AEEF" d="M300.5 0h296.8v600H300.5z"/><path fill="#FFF" d="M515.7 167.5l16.9 45.8h44.8L542 237.6l13.5 43.5-39.8-25.6-39.8 25.6 13.8-43.8-35.8-24h44.9M377 167.5l16.9 45.8h44.9l-35.4 24.3 13.5 43.5-39.9-25.6-39.4 25.6 13.4-43.8-35.7-24h44.9M446.5 288.9l16.9 45.8h44.8l-35.7 24 13.8 43.8-39.8-25.6-39.8 25.3 13.5-43.5-35.4-24.3h44.8M296.9 273.5c-14.4-2.7-16.8-12.5-38.8-12.5-25.7 0-21.8 13.6-52.4 13.6S178.2 261 152.5 261c-25.7 0-23.8 13.6-53.3 13.6-29.5 0-26.6-13.6-52.3-13.6C23 261 20 272.4 2.2 274v-43.3c17.8-1.6 20.9-13 44.7-13 25.7 0 22.8 13.6 52.3 13.6 29.5 0 27.6-13.6 53.3-13.6 25.7 0 22.5 13.6 53.2 13.6s26.7-13.6 52.4-13.6c22.1 0 24.4 9.8 38.8 12.5v43.3zM296.9 331.3c-14.4-2.7-16.8-12.5-38.8-12.5-25.7 0-21.8 13.6-52.4 13.6s-27.5-13.6-53.2-13.6c-25.7 0-23.8 13.6-53.3 13.6-29.5 0-26.6-13.6-52.3-13.6-23.9 0-26.9 11.4-44.7 13v-43.2c17.8-1.6 20.9-13 44.7-13 25.7 0 22.8 13.6 52.3 13.6 29.5 0 27.6-13.6 53.3-13.6 25.7 0 22.5 13.6 53.2 13.6s26.7-13.6 52.4-13.6c22.1 0 24.4 9.8 38.8 12.5v43.2zM296.9 389c-14.4-2.7-16.8-12.5-38.8-12.5-25.7 0-21.8 13.6-52.4 13.6s-27.5-13.6-53.2-13.6c-25.7 0-23.8 13.6-53.3 13.6-29.5 0-26.6-13.6-52.3-13.6-23.9 0-26.9 11.4-44.7 13v-43.3c17.8-1.6 20.9-13 44.7-13 25.7 0 22.8 13.6 52.3 13.6 29.5 0 27.6-13.6 53.3-13.6 25.7 0 22.5 13.6 53.2 13.6s26.7-13.6 52.4-13.6c22.1 0 24.4 9.8 38.8 12.5V389z"/><path fill="none" stroke="#102B4E" stroke-width="3.552" d="M446.5 288.9l16.9 45.9h44.8l-35.7 24 13.8 43.8-39.8-25.6-39.8 25.3 13.5-43.5-35.4-24.3h44.8l16.9-45.6zM377 167.5l16.9 45.9h44.9l-35.4 24.3 13.5 43.5-39.9-25.7-39.5 25.6 13.5-43.9-35.7-23.9h44.9l16.8-45.8zm138.7 0l16.9 45.9h44.8L542 237.6l13.5 43.5-39.8-25.6-39.8 25.6 13.8-43.9-35.8-23.9h44.9l16.9-45.8z"/><path fill="#989593" d="M660-368.7c-33.7 0-60.9 28.8-60.9 64.2 0 23 11.5 43.1 28.8 54.5-36.6 53.3-88.2 115.1-141.4 133-70 23.6-135.3-121.4-167.4-207.6 23.8-8.7 41.2-32.4 41.2-60.6 0-35.4-27.2-64.2-60.8-64.2-33.5 0-60.7 28.7-60.7 64.2 0 28.2 17.3 51.9 41.2 60.6-32.1 86.1-97.3 231.2-167.4 207.6C59.4-135 7.7-196.8-28.8-250.1-11.6-261.5 0-281.5 0-304.5c0-35.4-27.3-64.2-60.8-64.2s-60.7 28.8-60.7 64.2c0 35.5 27.3 64.3 60.7 64.3.7 0 1.2-.2 1.8-.2L-1.4 19.3 600 21.7l58.2-262.2c.6 0 1.2.2 1.8.2 33.4 0 60.7-28.7 60.7-64.3 0-35.3-27.2-64.1-60.7-64.1z"/></svg>