<svg xmlns="http://www.w3.org/2000/svg" width="611.854" height="762.385" viewBox="-121.527 -434.592 611.854 762.385"><path fill="#102B4E" d="M-32.24-108.105h432.845v435.897H-32.24z"/><path fill="#00AEEF" d="M185.054-108.105h215.624v435.897H185.054z"/><path fill="#FFF" d="M341.396 13.583l12.277 33.273h32.547L360.502 64.51l9.808 31.603-28.914-18.6-28.915 18.6 10.026-31.82-26.008-17.437h32.62M240.63 13.583l12.278 33.273h32.62L259.81 64.51l9.807 31.603-28.986-18.6-28.623 18.6 9.734-31.82-25.934-17.437h32.62M291.122 101.78l12.278 33.273h32.547L310.01 152.49l10.026 31.82-28.914-18.6-28.915 18.382 9.808-31.603-25.718-17.655h32.547M182.44 90.592c-10.463-1.962-12.206-9.08-28.19-9.08-18.67 0-15.837 9.88-38.067 9.88s-19.98-9.88-38.65-9.88-17.29 9.88-38.722 9.88S19.488 81.51.817 81.51c-17.363 0-19.543 8.28-32.475 9.443V59.498c12.933-1.163 15.185-9.445 32.476-9.445 18.67 0 16.563 9.88 37.995 9.88s20.053-9.88 38.724-9.88 16.346 9.88 38.65 9.88 19.396-9.88 38.067-9.88c16.057 0 17.728 7.12 28.19 9.082v31.457zM182.44 132.583c-10.463-1.962-12.206-9.08-28.19-9.08-18.67 0-15.837 9.88-38.067 9.88s-19.98-9.88-38.65-9.88-17.29 9.88-38.722 9.88-19.323-9.88-37.994-9.88c-17.363 0-19.543 8.28-32.475 9.443V101.56c12.933-1.16 15.185-9.443 32.476-9.443 18.67 0 16.563 9.88 37.995 9.88s20.053-9.88 38.724-9.88 16.346 9.88 38.65 9.88 19.396-9.88 38.067-9.88c16.057 0 17.728 7.12 28.19 9.08v31.386zM182.44 174.502c-10.463-1.962-12.206-9.08-28.19-9.08-18.67 0-15.837 9.88-38.067 9.88s-19.98-9.88-38.65-9.88-17.29 9.88-38.722 9.88-19.323-9.88-37.994-9.88c-17.363 0-19.543 8.28-32.475 9.443v-31.457c12.933-1.163 15.185-9.444 32.476-9.444 18.67 0 16.563 9.88 37.995 9.88s20.053-9.88 38.724-9.88 16.346 9.88 38.65 9.88 19.396-9.88 38.067-9.88c16.057 0 17.728 7.12 28.19 9.08v31.458z"/><path fill="none" stroke="#102B4E" stroke-width="3.552" d="M291.122 101.78l12.277 33.346h32.546l-25.936 17.436 10.025 31.82-28.914-18.598-28.914 18.38 9.808-31.603-25.718-17.652h32.547l12.28-33.13zm-50.49-88.197l12.276 33.347h32.62L259.81 64.583l9.808 31.603-28.986-18.67-28.697 18.598 9.808-31.894-25.936-17.363h32.62l12.204-33.274zm100.764 0l12.277 33.347h32.547l-25.718 17.58 9.808 31.603-28.914-18.6-28.915 18.6 10.026-31.894-26.008-17.364h32.62l12.278-33.273z"/><path fill="#AA6553" d="M446.23-375.964c-24.483 0-44.244 20.923-44.244 46.64 0 16.71 8.354 31.314 20.923 39.596-26.59 38.722-64.078 83.62-102.728 96.624-50.854 17.145-98.295-88.197-121.615-150.82 17.29-6.32 29.932-23.54 29.932-44.026 0-25.718-19.762-46.64-44.172-46.64-24.338 0-44.1 20.85-44.1 46.64 0 20.487 12.57 37.705 29.933 44.025-23.32 62.55-70.687 167.965-121.615 150.82-38.65-13.077-76.21-57.975-102.727-96.697 12.496-8.28 20.923-22.812 20.923-39.52 0-25.72-19.832-46.642-44.17-46.642-24.337 0-44.098 20.923-44.098 46.64 0 25.792 19.833 46.715 44.098 46.715.51 0 .872-.145 1.308-.145l41.847 188.67L402.64-92.34l42.28-190.487c.437 0 .873.146 1.31.146 24.264 0 44.098-20.852 44.098-46.715 0-25.646-19.76-46.57-44.1-46.57z"/></svg>