<svg xmlns="http://www.w3.org/2000/svg" viewBox="-121.6 -449.4 842.4 1049.4"><path fill="#FFD730" d="M.9 1.4H599V600H.9z"/><path fill="none" stroke="#102B4E" stroke-width="3.552" stroke-miterlimit="10" d="M105.5 139.8s16.4 13.3 28 14.5c7 .7 12.9-10.2 11-10.5-5.1-.9-26.7-16-33.8-21.9-1.9-1.7-5.2 17.9-5.2 17.9z"/><path fill="#FFD730" d="M145.2 157s-42.8-21.8-45-24.2c-2.2-2.4-3.7 20.9 5.2 30.8 5.1 5.7 23.2-2.4 36.4 2.8 3.3 1.2 3.4-9.4 3.4-9.4"/><path fill="#102B4E" d="M135.6 140.2c-.8.9-6.1 7.8-6.1 7.8l2 16.5s7.4 2.5 7.4 3-4.4 4.8-4.7 6.7c2.8 8.7 11.7 2.7 19.5 4.8 7.7 2 21.2 18.6 21.2 18.6l15.4 18.1s7.3 7.2 13.2 15.9c7.5 11 5.4 36.4 8.3 40.7 2.1 3 5.5 13.9 11.4 16.4 6.2 2.6 12.5-7.1 12.5-7.5 0-2.7-1.8-5-1.8-7.3s3-7.2 5.4-11.2c3.2-5.2-10.6-37-11.5-40.5-.1-5.9-2.4-11.4-2.4-11.4s-4.9-7.3-6.7-9.2c-1.8-1.8-7.8-3.7-9.3-4.5-1.5-.8-17.2-17.6-19.7-20-2.5-2.4-22.2-17.6-25-17.4-4.8-3.5-12.5-24.2-29.1-19.5"/><path fill="none" stroke="#102B4E" stroke-width="3.552" d="M352 428.5c.3 1.6 5.7 40.8 5.9 41.9.1 1.2-8.8 12.9-20.6 11.9-7.7-.7-12.1-14.5-10.3-28.5 1.7-14 21.2-26.4 25-25.3z"/><path fill="#FFD730" d="M384.8 468.2c-8.5-12.6-25.9-37.8-25.9-37.8s-16.5 2.9-15.2 28.6c1.3 25.6 33.2 23.5 41.1 9.2"/><path fill="none" stroke="#102B4E" stroke-width="3.552" d="M384.8 468.2c-8.5-12.6-25.9-37.8-25.9-37.8s-16.5 2.9-15.2 28.6c1.3 25.6 33.2 23.5 41.1 9.2z"/><path fill="none" stroke="#102B4E" stroke-width="3.552" stroke-miterlimit="10" d="M58 342.1l-6.3 30s-26.1 3.8-23.8 1.5c2.2-2.2 13-24 15.5-25.3C46 347 58 342.1 58 342.1zM145.2 157s-42.8-21.8-45-24.2c-2.2-2.4-3.7 20.9 5.2 30.8 5.1 5.7 23.2-2.4 36.4 2.8 3.3 1.2 3.4-9.4 3.4-9.4z"/><path fill="#FFD730" d="M56.6 339.8s18.4.5 17.2.3c-1.2-.2 4.3 23.8 3.7 25.2-.5 1.4-19.9 18.3-33.1 15.3-1.8-.4 12.2-40.8 12.2-40.8"/><path fill="none" stroke="#102B4E" stroke-width="3.552" stroke-miterlimit="10" d="M56.6 339.8s18.4.5 17.2.3c-1.2-.2 4.3 23.8 3.7 25.2-.5 1.4-19.9 18.3-33.1 15.3-1.8-.4 12.2-40.8 12.2-40.8z"/><path fill="none" stroke="#102B4E" stroke-width="3.552" d="M181 550.4s13-.9 15.2 1.9c2.3 2.9-18.8 21.3-18.8 21.3s-21.4 1.4-22.7-.6c-1.3-2 26.3-22.6 26.3-22.6z"/><path fill="#FFD730" d="M197.8 546.9l9.5 3.3s2.5 24-.8 27.6c-3.3 3.6-22.5 11.6-38.8 4.8-3.9-1.6 30.1-35.7 30.1-35.7"/><path fill="none" stroke="#102B4E" stroke-width="3.552" d="M506.3 544c4.3-3.1 9.1-6.6 16.3-7l-1.1 33.4s-22.6 9.9-23.3 8.4c-.6-1.4 4.5-32.1 8.1-34.8zm-308.5 2.9l9.5 3.3s2.5 24-.8 27.6c-3.3 3.6-22.5 11.6-38.8 4.8-3.9-1.6 30.1-35.7 30.1-35.7z"/><path fill="#FFD730" d="M522.3 528.2s-12 50.6-11 52.1 31.1-12.1 32.4-22c1.3-9.8-7.8-32.1-7.8-32.1l-13.6 2z"/><path fill="none" stroke="#102B4E" stroke-width="3.552" d="M522.3 528.2s-12 50.6-11 52.1 31.1-12.1 32.4-22c1.3-9.8-7.8-32.1-7.8-32.1l-13.6 2z"/><path fill="#102B4E" d="M557.7 290.2c.6-16.9-13.6-18-22.5-9.2-.6-1.3-14.8-11.1-24 9.7-19.7-2.5-17.1 14.5-17.1 14.5s-16.1-3.6-14.6 18.1c-7.2 1.1-6.2 5.9-6.2 5.9s3 30.3-24.6 35.7c-10.6-16.2-40.6-24.4-61.7-34.7-13.8-6.7-23.3-14.7-21.7-17.5 8.8-15.4 5.4-18.7 5.4-18.7s15.1-6.8 12.6-15.9c14.6-4.2 10.2-15.3 12.8-18.3 2.6-3 15.4-1.5 9.4-17.5-1.1-2.7-16.9-7.9-22.9-15.8-1.2 0-2.3.1-2.3.1s-.5-11.2-5.5-11.5c-5-.4-12.2 7.8-18.2 7.6-2.9-.1-12.2-.5-14.7-.8-2.5-.4-11.6 6.6-11.6 6.6s-20.3-4.4-26 6.4c-14.8-6.6-22.3 5.4-22.3 5.4s-18.9-5.5-22.2 15.4c-21.6 3.5-20.2 13.9-19.8 18.6.5 4.7 2.7 4.7 1.1 9.5-7.8 1.9-15.7 10.4-15.7 10.4s-46.4-7-57.9-9.3c-15-3.1-17-5.7-19.9-8-2.9-2.3-9.9-3-19.9 2.7-4.3 2.4-15.5 14.3-26.4 24.3-13.2 12.1-26.5 24-37.1 23.8-6.4-.1-17.9 10.4-16.9 18.1.9 7.7 31.6 3.9 31.6.7-.1-3.2 2-4.9 2-4.9s8.9 12.9 16.3 1.4 17.6-29.5 17.6-29.5 9-14.3 20.9-11.1c11.8 3.2 70.7 12.7 80.2 25.1 1.5 2-2 8.9 2.1 14.5 3 4.1 10.8 2.2 12.8 4.8 3.3 4.2 11.5 25.1 32.6 8.7 5.3 11.2 80.1 33 73.8 31.4-29.5-6.9-27.4 2.6-33.2.3-5.8-2.3-20.8-10.2-25.6 6.6-12.1-3-17.8-2.3-26.1 13-1.7.8-22 4.2-16.8 24.3-12.4 6.8-9.2 17.1 2 28.5-1.4 11-4.6 19.8 15.9 22.2 1.2 1.8 3.6 9.6 21 8.7 3.2 5.2-.6 7.5-.6 7.5s-46.9 31.4-67.5 32.5c-8.3.4-7.9 1-10.1 2.7-2.1 1.8-8 14.8-8 14.8s-2.3 3.5 1 5.2c3.3 1.6 11.5 4.5 17.3 4.9 1.7.1 4.2-.5 5.3-4.2 1.1-3.7 8.9-6.7 10.1 4.2.1 1.1 7-.3 7.5-1.2 5.1-7.6 9-19.1 31-27.4 18.2-6.9 51.7-17.9 54.3-19.5 2.6-1.6 3.8-11.1 1.5-14.1-2.3-3.1-8.1-10.3-8.1-10.3s21.3-6.9 23.1-7.7c-15.8-22.6 6.3-51.9 27.9-47.4-.5.8-6.5 6.7 4.8 13.9-7.8 15.5 12.3 18.9 12.3 18.9s.7 9.7 2.9 11.3c2.1 1.6 2.3 1.7 19.1.7 4.9-.3 14.1 16.5 31.9-.2 3.7 9 24.8 12.6 28.5-.1 20.7 10.6 28.4-9.9 26.9-13.4 2.5-.1 2.5-.4 3.7-2.5 9.9 5.1 11.3 14.6 15.9 27.2 5.3 14.3 10.4 30.4 10.4 30.4s1 6.6-.4 7.4c-3 1.9-5.9 9.1-3.1 16.8 18.9 9.1 28.6 1.1 28.9-.4.2-1.5 1.2-6.2 2.6-7.3 1.4-1.1 9.2-4.4 9-6.1-.3-1.7-2.3-4.3-5.5-7.6-3.6-1.4-5.6-5.8-8.5-7.4-4.8-2.5-21.2-51.5-22.9-58.8-1.7-7.3 4.8-25.9-6-27.8-9.8-1.8-13.7 8.2-19.9 2.9-1.8-1.7 4.1-3.1-.7-9.7-.9-1.2-4.8-5.3-12-3.8 2.5-14.4-15.8-15.7-15.8-15.7s2.9-7.1-8.5-23.8c29.9 1.9 26.9-8.3 31.9-9.5 2.5-.6 24.3 6.1 26.7-8.9 3.2 0 18.8 2.2 22.3-13.4 16.3 3.7 19.4-13.8 19.4-13.8s21.9-3.8 11.3-19.5c8.7-6.5 9.3-18.4-6.6-20.1M362.5 422.1c-3.4 3.8-8.8 6-9.2 4.9 1.7-11-3.5-25-12.7-35.6 10.9 1.3 25.9 26.2 21.9 30.7"/><path fill="none" stroke="#102B4E" stroke-width="3.552" d="M413.4 100.7c2.7-4.2 4.3-9.2 4.3-14.7 0-14.3-10.8-25.8-24.2-25.8-.6 0-1.3.1-1.9.1 4.8-6 5.9-14.2 1.9-20.6-5.1-8.4-16.7-10.7-25.9-5.1-.6.3-1.1.7-1.6 1.1-.3-2.6-1.1-5.1-2.7-7.3-5.4-7.9-17-9.3-25.9-3.2-1 .7-1.8 1.4-2.7 2.2-5.6-7.3-16.8-8.5-25.4-2.6-2.5 1.7-4.5 3.9-6 6.2-5.4-2.7-12-2.6-17.1.9-7 4.9-9 14.5-4.9 22.3-4.4-.2-8.8 1.2-12 4.5-6.4 6.4-5.8 17.3 1.3 24.3.4.4.9.8 1.3 1.2-.2.2-.5.4-.7.7-6 6.1-5.9 16.1.3 22.2 4.5 4.5 11 5.7 16.5 3.7-2 5.5-1 11.6 3.2 15.6 5.8 5.8 15.6 5.3 21.8-1 1.1-1.1 2-2.4 2.8-3.7 5.3 6.3 14.4 7.4 20.4 2.5 5.5-4.5 6.5-12.6 2.6-19 16.1-12.4-6.6-32.8-20-20.1 6.8 2.9 6.6 10.1 2 13.3-.9.3-1.8.8-2.6 1.3-1.6.5-3.6.6-5.7.1-13.7-3-8.1-22.1-8.1-22.1s13.6-21.9 39-9.1c4.9 2.4 40.1 10.9 15.5 76.3 16.5 14.8 36.5 32 36.5 32 3.2 2.3 21.9-38.2 25.4-41.9 3.6-3.7 5.8-8.9 5.8-14.7.2-9.1-5.4-16.8-13.2-19.6zM293.3 85.5c-5.3-47.1 113.5-49.2 83.3 52.7"/><path fill="#FFD730" d="M551.2 218.9c7.1-4.4 11.3-12.5 10.2-21.1-1-7.5-5.9-13.6-12.5-16.6 1.7-3.6 2.5-7.6 1.9-11.7-1.5-11.4-12.2-19.4-24.2-18.5 1.1-2.4 1.6-5 1.2-7.7-1.1-8.5-10.1-14.3-20-13-5.3.7-9.8 3.3-12.6 6.9-3.5-9.3-13.6-15.3-24.5-13.8-6.9.9-12.7 4.6-16.3 9.8-5.3-3.3-12.4-4.8-19.9-3.8-14.5 1.9-25 12.6-23.5 23.8.5 3.6 2.2 6.8 4.7 9.4l-21.8 14.3 20.4 27.4s29.1-21.7 54.1-20.7c28.1 1.1 41.8 13 40.8 35.2-.9 19.3-21.8 19.3-26 9.8-4.2-9.5 4.9-14.4 4.9-14.4-12.7-11.7-25.4-2.1-27.2 5.8-4.1-1-8.5-.1-11.9 2.6-6 4.9-6.6 14.2-1.2 20.7 1 1.2 2.1 2.3 3.4 3.1-3.4 5.3-3 12.9 1.7 18.6 5.6 6.9 15.2 8.2 21.5 3.1.2-.1.3-.2.4-.4.6 1.4 1.4 2.7 2.4 3.9 5.6 6.9 15.5 8 22.1 2.6 2.6-2.2 4.3-5 5.1-8.1.4.4.8.9 1.3 1.3 7.6 7 19.6 6.4 26.7-1.4 4.8-5.3 6.1-12.5 4.1-18.7 1 0 2-.1 3-.2 11.3-1.5 19.5-9.8 18.3-18.6-.7-3.9-3.1-7.3-6.6-9.6"/><path fill="none" stroke="#102B4E" stroke-width="3.552" d="M474.3 231.3c13.7 30.2 65 7.4 40.1-37.3-16.3-29.1-66.1-27.2-88.6-6.7m125.4 31.6c7.1-4.4 11.3-12.5 10.2-21.1-1-7.5-5.9-13.6-12.5-16.6 1.7-3.6 2.5-7.6 1.9-11.7-1.5-11.4-12.2-19.4-24.2-18.5 1.1-2.4 1.6-5 1.2-7.7-1.1-8.5-10.1-14.3-20-13-5.3.7-9.8 3.3-12.6 6.9-3.5-9.3-13.6-15.3-24.5-13.8-6.9.9-12.7 4.6-16.3 9.8-5.3-3.3-12.4-4.8-19.9-3.8-14.5 1.9-25 12.6-23.5 23.8.5 3.6 2.2 6.8 4.7 9.4l-21.8 14.3 20.4 27.4s29.1-21.7 54.1-20.7c28.1 1.1 41.8 13 40.8 35.2-.9 19.3-21.8 19.3-26 9.8-4.2-9.5 4.9-14.4 4.9-14.4-12.7-11.7-25.4-2.1-27.2 5.8-4.1-1-8.5-.1-11.9 2.6-6 4.9-6.6 14.2-1.2 20.7 1 1.2 2.1 2.3 3.4 3.1-3.4 5.3-3 12.9 1.7 18.6 5.6 6.9 15.2 8.2 21.5 3.1.2-.1.3-.2.4-.4.6 1.4 1.4 2.7 2.4 3.9 5.6 6.9 15.5 8 22.1 2.6 2.6-2.2 4.3-5 5.1-8.1.4.4.8.9 1.3 1.3 7.6 7 19.6 6.4 26.7-1.4 4.8-5.3 6.1-12.5 4.1-18.7 1 0 2-.1 3-.2 11.3-1.5 19.5-9.8 18.3-18.6-.7-3.9-3.1-7.3-6.6-9.6z"/><path fill="#FFD730" d="M394.2 173.7c3.4 4 10.9 3.1 16.8-1.9s8-12.3 4.6-16.3c-3.4-4-10.9-3.1-16.8 1.9-5.9 5.1-8 12.3-4.6 16.3M368.8 150c3.5 4.1 11.2 3.4 17.1-1.6 5.9-5 7.9-12.5 4.3-16.6-3.5-4.1-11.2-3.4-17.1 1.6-5.8 5-7.8 12.5-4.3 16.6M414 196.1c3.5 4.1 11.2 3.3 17.3-1.8 6-5.1 8.1-12.6 4.6-16.7s-11.2-3.3-17.3 1.8c-6.1 5.1-8.1 12.5-4.6 16.7"/><path fill="none" stroke="#102B4E" stroke-width="3.552" d="M414 196.1c3.5 4.1 11.2 3.3 17.3-1.8 6-5.1 8.1-12.6 4.6-16.7s-11.2-3.3-17.3 1.8c-6.1 5.1-8.1 12.5-4.6 16.7zM368.8 150c3.5 4.1 11.2 3.4 17.1-1.6 5.9-5 7.9-12.5 4.3-16.6-3.5-4.1-11.2-3.4-17.1 1.6-5.8 5-7.8 12.5-4.3 16.6zm25.4 23.7c3.4 4 10.9 3.1 16.8-1.9s8-12.3 4.6-16.3c-3.4-4-10.9-3.1-16.8 1.9-5.9 5.1-8 12.3-4.6 16.3z"/><path fill="#FFD730" d="M353.2 143c7.6-15.5 3.9-31.6 3.9-31.6s25.8 11.2 14.6 43.9c-1.3-1.1-12-9-18.5-12.3M415.4 206.1c17.1-9.7 41.3-5.6 41.3-5.6s-18.4-25.8-49-6c1.2.9 5.2 5.4 7.7 11.6"/><path fill="none" stroke="#102B4E" stroke-width="3.552" d="M415.4 206.1c17.1-9.7 41.3-5.6 41.3-5.6s-18.4-25.8-49-6c1.2.9 5.2 5.4 7.7 11.6zM353.2 143c7.6-15.5 3.9-31.6 3.9-31.6s25.8 11.2 14.6 43.9c-1.3-1.1-12-9-18.5-12.3z"/><path fill="#040304" d="M310.6 201.4c-3.1 2.5-48.8 18.1-60.4 4-12.4-15.2 3.8-32.5 6.2-31.3 2.4 1.2 3.3 19.6 15.5 22.9 12.2 3.3 34.9 1 34.9 1l3.8 3.4z"/><path fill="#FFD730" d="M366.7 177.3c5.6 6.6 17.8 5.5 27.2-2.6 9.4-8 12.5-19.9 6.9-26.5-5.6-6.6-17.8-5.5-27.3 2.6-9.3 8-12.4 19.9-6.8 26.5"/><path fill="#FFD730" d="M390.5 193.4c4.7 5.5 15.4 4.1 24-3.2s11.7-17.7 7.1-23.2c-4.7-5.5-15.4-4.1-24 3.2s-11.8 17.7-7.1 23.2"/><path fill="none" stroke="#102B4E" stroke-width="3.552" d="M390.5 193.4c4.7 5.5 15.4 4.1 24-3.2s11.7-17.7 7.1-23.2c-4.7-5.5-15.4-4.1-24 3.2s-11.8 17.7-7.1 23.2zm-23.8-16.1c5.6 6.6 17.8 5.5 27.2-2.6 9.4-8 12.5-19.9 6.9-26.5-5.6-6.6-17.8-5.5-27.3 2.6-9.3 8-12.4 19.9-6.8 26.5z"/><path fill="#FFD730" d="M346.8 150.3c34.6 17.9 54.9 50.1 60.5 61.7 4.1-2 5.7-5.2 9.6-6.9-13.5-27.2-39.1-53-63-64.4-2 3.4-4.5 6.3-7.1 9.6"/><path fill="none" stroke="#102B4E" stroke-width="3.552" d="M346.8 150.3c34.6 17.9 54.9 50.1 60.5 61.7 4.1-2 5.7-5.2 9.6-6.9-13.5-27.2-39.1-53-63-64.4-2 3.4-4.5 6.3-7.1 9.6z"/><path fill="#102B4E" d="M377.2 165.3c13.8 12.4 27.4 29.6 32 42.9-.6.8 1.9-.6.8 0 5.1 1.8 6.1 3 11.6 7.6 2.8 2.3 5.4 4.2 6.9 8.5 1 3 1.1 6.1 1.2 9.2.6 10.3-2.5 19.9-7 22.6-6.1 3.6-6.6-4-9.9-9.3-6.5-10.6-24.7-17.5-30-26-1.4-2.2-4-12.9-4-12.9s-15.7 10.7-25.4 11.8c-9.7 1.2-14.7-5.9-32.9-5.3-6.4 5.4-12.7 7.6-18.1 9.8-5.5 2.3-8.5-6.9-16.2-11.6 2.9-2.2 23.9 1.5 24.4-11-3.1 2.5-48.8 18.1-60.4 4-12.4-15.2 3.8-32.5 6.2-31.3 2.4 1.2 3.3 19.6 15.5 22.9 12.2 3.3 34.9 1 34.9 1s-.8-.4-1.4-.8c-.4 1.5-30.2-.5-30.2-.5s-4.1-7.5-1.3-11.8c1.1-1.4 1.3-1.4 1.3-1.4l2.9-5.8s1.8-2.3 4.3-1.4c2.5 1 8 .8 8 .8s24.4-19.2 32.5-16.1c.7-6.2 11.1-21.5 26.7-14.5.9-.5 0 .6.8.9 2.2-.1 14.7 6.8 26.8 17.7"/><path fill="#E8423F" d="M250 189.4c-.3 1.2-.4 2.4-.4 3.6 0 3.6 1.2 6.9 3.7 9.9 8.7 10.8 43.7.8 55-3.2-10.5 3.2-30.3 2.4-38.1.7-9-1.7-14.5-13.7-15.6-20.3-1.6 2-3.8 5.3-4.6 9.3"/><path fill="#FFD730" d="M348.7 179.2c-3 1.2-6.3-.1-7.4-3-1.1-2.8.4-6 3.3-7.2 3-1.2 6.3.1 7.4 3 1.2 2.8-.3 6-3.3 7.2"/><path fill="#FFD730" d="M350.8 171.9c-.6-.5-6.1-4-8.5-3.7-.7-.7-4.1-2.5-2.3-3.3 1-.4 2.8-.6 3.2-.6.4 0 4.4.6 5.3.6 3.8.5 11.7 5.9 10.2 15.6-.3 1.9-6.1-7.2-7.9-8.6M290.8 182.7l2.3-.7 2 1v1l-1 2.1-1.6 1.6-2.8 1.7h-1.6l-1-.6-.7-1.4 1-1.7"/><g><path fill="#F4A42E" d="M660-368.7c-33.7 0-60.9 28.8-60.9 64.2 0 23 11.5 43.1 28.8 54.5-36.6 53.3-88.2 115.1-141.4 133-70 23.6-135.3-121.4-167.4-207.6 23.8-8.7 41.2-32.4 41.2-60.6 0-35.4-27.2-64.2-60.8-64.2-33.5 0-60.7 28.7-60.7 64.2 0 28.2 17.3 51.9 41.2 60.6-32.1 86.1-97.3 231.2-167.4 207.6C59.4-135 7.7-196.8-28.8-250.1-11.6-261.5 0-281.5 0-304.5c0-35.4-27.3-64.2-60.8-64.2s-60.7 28.8-60.7 64.2c0 35.5 27.3 64.3 60.7 64.3.7 0 1.2-.2 1.8-.2L-1.4 19.3 600 21.7l58.2-262.2c.6 0 1.2.2 1.8.2 33.4 0 60.7-28.7 60.7-64.3 0-35.3-27.2-64.1-60.7-64.1z"/></g></svg>