<svg xmlns="http://www.w3.org/2000/svg" viewBox="-121.6 -449.4 842.4 1049.4"><path fill="#ED0A71" d="M301.3-1h299.5v601H301.3z"/><path fill="#FFF" d="M1.8-1h299.5v601H1.8zM465 67.5l17 46.3h45.2l-35.7 24.5 13.7 43.9-40.2-25.8-39.8 25.8 13.6-44.2-36.1-24.2H448"/><path fill="none" stroke="#102B4E" stroke-width="3.552" d="M465 67.5l17 46.3h45.2l-35.7 24.5 13.7 43.9-40.2-25.8-39.8 25.8 13.6-44.2-36.1-24.2H448z"/><path fill="#FFF" d="M465 180.1l17 46.3h45.2l-35.7 24.5 13.7 43.9-40.2-25.9-39.8 25.9 13.6-44.3-36.1-24.1H448"/><path fill="none" stroke="#102B4E" stroke-width="3.552" d="M465 180.1l17 46.3h45.2l-35.7 24.5 13.7 43.9-40.2-25.9-39.8 25.9 13.6-44.3-36.1-24.1H448z"/><path fill="#FFF" d="M465 292.6l17 46.3h45.2l-35.7 24.5 13.7 43.9-40.2-25.8-39.8 25.8 13.6-44.2-36.1-24.2H448"/><path fill="none" stroke="#102B4E" stroke-width="3.552" d="M465 292.6l17 46.3h45.2l-35.7 24.5 13.7 43.9-40.2-25.8-39.8 25.8 13.6-44.2-36.1-24.2H448z"/><path fill="#FFF" d="M465 405.2l17 46.3h45.2L491.5 476l13.7 43.9L465 494l-39.8 25.9 13.6-44.2-36.1-24.2H448"/><path fill="none" stroke="#102B4E" stroke-width="3.552" d="M465 405.2l17 46.3h45.2L491.5 476l13.7 43.9L465 494l-39.8 25.9 13.6-44.2-36.1-24.2H448z"/><path fill="#ED0A71" d="M137.8 67.5l17 46.3h45.3l-35.8 24.5 13.6 43.9-40.1-25.8-39.9 25.8 13.6-44.2-36-24.2h45.2"/><path fill="none" stroke="#102B4E" stroke-width="3.552" d="M137.8 67.5l17 46.3h45.3l-35.8 24.5 13.6 43.9-40.1-25.8-39.9 25.8 13.6-44.2-36-24.2h45.2z"/><path fill="#ED0A71" d="M137.8 180.1l17 46.3h45.3l-35.8 24.5 13.6 43.9-40.1-25.9-39.9 25.9 13.6-44.3-36-24.1h45.2"/><path fill="none" stroke="#102B4E" stroke-width="3.552" d="M137.8 180.1l17 46.3h45.3l-35.8 24.5 13.6 43.9-40.1-25.9-39.9 25.9 13.6-44.3-36-24.1h45.2z"/><path fill="#ED0A71" d="M137.8 292.6l17 46.3h45.3l-35.8 24.5 13.6 43.9-40.1-25.8-39.9 25.8 13.6-44.2-36-24.2h45.2"/><path fill="none" stroke="#102B4E" stroke-width="3.552" d="M137.8 292.6l17 46.3h45.3l-35.8 24.5 13.6 43.9-40.1-25.8-39.9 25.8 13.6-44.2-36-24.2h45.2z"/><path fill="#ED0A71" d="M137.8 405.2l17 46.3h45.3L164.3 476l13.6 43.9-40.1-25.9-39.9 25.9 13.6-44.2-36-24.2h45.2"/><path fill="none" stroke="#102B4E" stroke-width="3.552" d="M137.8 405.2l17 46.3h45.3L164.3 476l13.6 43.9-40.1-25.9-39.9 25.9 13.6-44.2-36-24.2h45.2z"/><path fill="#ED0A71" d="M301.3 108.8l-40.2 25.6 13.7-43.9L239 66h45.3l17-46"/><path fill="#FFF" d="M301.3 20l17 46.3h45.3l-36.1 24.2 14 44.2-40.2-25.9"/><path fill="none" stroke="#102B4E" stroke-width="3.552" d="M301.3 20l17 46.3h45.3l-36.1 24.2 14 44.2-40.2-25.9-40.2 25.6 13.7-43.9L239 66h45.3z"/><path fill="#ED0A71" d="M301.3 221.4l-40.2 25.5 13.7-43.9-35.8-24.5h45.3l17-45.9"/><path fill="#FFF" d="M301.3 132.6l17 46.2h45.3L327.5 203l14 44.3-40.2-25.9"/><path fill="none" stroke="#102B4E" stroke-width="3.552" d="M301.3 132.6l17 46.2h45.3L327.5 203l14 44.3-40.2-25.9-40.2 25.5 13.7-43.9-35.8-24.5h45.3z"/><path fill="#ED0A71" d="M301.3 334l-40.2 25.5 13.7-43.9-35.8-24.5h45.3l17-46"/><path fill="#FFF" d="M301.3 245.1l17 46.3h45.3l-36.1 24.2 14 44.2-40.2-25.8"/><path fill="none" stroke="#102B4E" stroke-width="3.552" d="M301.3 245.1l17 46.3h45.3l-36.1 24.2 14 44.2-40.2-25.8-40.2 25.5 13.7-43.9-35.8-24.5h45.3z"/><path fill="#ED0A71" d="M301.3 446.5L261.1 472l13.7-43.8-35.8-24.6h45.3l17-45.9"/><path fill="#FFF" d="M301.3 357.7l17 46.3h45.3l-36.1 24.2 14 44.2-40.2-25.9"/><path fill="none" stroke="#102B4E" stroke-width="3.552" d="M301.3 357.7l17 46.3h45.3l-36.1 24.2 14 44.2-40.2-25.9-40.2 25.5 13.7-43.8-35.8-24.6h45.3z"/><path fill="#ED0A71" d="M301.3 559.1l-40.2 25.5 13.7-43.9-35.8-24.5h45.3l17-45.9"/><path fill="#FFF" d="M301.3 470.3l17 46.2h45.3l-36.1 24.2 14 44.2-40.2-25.8"/><path fill="none" stroke="#102B4E" stroke-width="3.552" d="M301.3 470.3l17 46.2h45.3l-36.1 24.2 14 44.2-40.2-25.8-40.2 25.5 13.7-43.9-35.8-24.5h45.3z"/><path fill="none" stroke="#102B4E" stroke-width="3.552" stroke-miterlimit="10" d="M301.3-.9V600"/><g><path fill="#F4A42E" d="M660-368.7c-33.7 0-60.9 28.8-60.9 64.2 0 23 11.5 43.1 28.8 54.5-36.6 53.3-88.2 115.1-141.4 133-70 23.6-135.3-121.4-167.4-207.6 23.8-8.7 41.2-32.4 41.2-60.6 0-35.4-27.2-64.2-60.8-64.2-33.5 0-60.7 28.7-60.7 64.2 0 28.2 17.3 51.9 41.2 60.6-32.1 86.1-97.3 231.2-167.4 207.6C59.4-135 7.7-196.8-28.8-250.1-11.6-261.5 0-281.5 0-304.5c0-35.4-27.3-64.2-60.8-64.2s-60.7 28.8-60.7 64.2c0 35.5 27.3 64.3 60.7 64.3.7 0 1.2-.2 1.8-.2L-1.4 19.3 600 21.7l58.2-262.2c.6 0 1.2.2 1.8.2 33.4 0 60.7-28.7 60.7-64.3 0-35.3-27.2-64.1-60.7-64.1z"/></g></svg>