<?xml version="1.0" encoding="utf-8"?>
<!-- Generator: Adobe Illustrator 15.0.0, SVG Export Plug-In . SVG Version: 6.00 Build 0)  -->
<!DOCTYPE svg PUBLIC "-//W3C//DTD SVG 1.1//EN" "http://www.w3.org/Graphics/SVG/1.1/DTD/svg11.dtd">
<svg version="1.1" id="Ebene_1" xmlns="http://www.w3.org/2000/svg" xmlns:xlink="http://www.w3.org/1999/xlink" x="0px" y="0px"
	 width="335.502px" height="185.586px" viewBox="0 0 335.502 185.586" enable-background="new 0 0 335.502 185.586"
	 xml:space="preserve">
<g>
	<defs>
		<rect id="SVGID_1_" width="335.502" height="400.586"/>
	</defs>
	<clipPath id="SVGID_2_">
		<use xlink:href="#SVGID_1_"  overflow="visible"/>
	</clipPath>
	<g clip-path="url(#SVGID_2_)">
		<defs>
			<rect id="SVGID_3_" width="335.502" height="400.586"/>
		</defs>
		<clipPath id="SVGID_4_">
			<use xlink:href="#SVGID_3_"  overflow="visible"/>
		</clipPath>
		<path clip-path="url(#SVGID_4_)" fill="#989593" d="M309.69,33.077c-13.319,0-24.108,11.393-24.108,25.409
			c0,9.117,4.551,17.054,11.404,21.564c-14.48,21.079-34.911,45.558-55.973,52.649c-27.714,9.339-53.553-48.056-66.272-82.165
			c9.428-3.442,16.296-12.836,16.296-23.979c0-14.015-10.774-25.395-24.051-25.395c-13.249,0-24.037,11.379-24.037,25.395
			c0,11.143,6.853,20.524,16.297,23.979c-12.691,34.109-38.502,91.504-66.259,82.165c-21.032-7.091-41.507-31.57-55.957-52.649
			c6.824-4.509,11.388-12.433,11.388-21.564c0-14.016-10.802-25.409-24.08-25.409c-13.249,0-24.037,11.393-24.037,25.409
			c0,14.057,10.788,25.436,24.037,25.436c0.272,0,0.458-0.07,0.716-0.097l22.823,102.829l238.056,0.946l23.043-103.776
			c0.229,0.015,0.458,0.098,0.73,0.098c13.233,0,24.021-11.379,24.021-25.437C333.713,44.47,322.926,33.077,309.69,33.077"/>
	</g>
</g>
</svg>
