<?xml version="1.0" encoding="utf-8"?>
<!-- Generator: Adobe Illustrator 15.0.0, SVG Export Plug-In . SVG Version: 6.00 Build 0)  -->
<!DOCTYPE svg PUBLIC "-//W3C//DTD SVG 1.1//EN" "http://www.w3.org/Graphics/SVG/1.1/DTD/svg11.dtd">
<svg version="1.1" id="Ebene_1" xmlns="http://www.w3.org/2000/svg" xmlns:xlink="http://www.w3.org/1999/xlink" x="0px" y="0px"
	 width="334.502px" height="185.836px" viewBox="0 0 334.502 185.836" enable-background="new 0 0 334.502 185.836"
	 xml:space="preserve">
<g>
	<defs>
		<rect id="SVGID_1_" x="-1" width="335.502" height="400.586"/>
	</defs>
	<clipPath id="SVGID_2_">
		<use xlink:href="#SVGID_1_"  overflow="visible"/>
	</clipPath>
	<g clip-path="url(#SVGID_2_)">
		<defs>
			<rect id="SVGID_3_" x="-1" width="335.502" height="400.586"/>
		</defs>
		<clipPath id="SVGID_4_">
			<use xlink:href="#SVGID_3_"  overflow="visible"/>
		</clipPath>
		<path clip-path="url(#SVGID_4_)" fill="#AA6553" d="M310.399,32.656c-13.357,0-24.174,11.424-24.174,25.478
			c0,9.142,4.562,17.101,11.434,21.623c-14.519,21.137-35.006,45.682-56.124,52.793c-27.79,9.364-53.7-48.187-66.454-82.389
			c9.454-3.451,16.342-12.871,16.342-24.045c0-14.053-10.805-25.464-24.117-25.464c-13.285,0-24.102,11.41-24.102,25.464
			c0,11.174,6.871,20.58,16.34,24.045c-12.725,34.202-38.607,91.753-66.439,82.389c-21.09-7.111-41.62-31.656-56.11-52.793
			c6.844-4.522,11.42-12.467,11.42-21.623c0-14.054-10.832-25.478-24.146-25.478c-13.285,0-24.102,11.424-24.102,25.478
			c0,14.095,10.817,25.505,24.102,25.505c0.273,0,0.459-0.069,0.718-0.097L47.872,186.65l238.705,0.949l23.106-104.058
			c0.229,0.014,0.459,0.097,0.731,0.097c13.271,0,24.088-11.41,24.088-25.505C334.487,44.08,323.67,32.656,310.399,32.656"/>
	</g>
</g>
</svg>
