<?xml version="1.0" encoding="utf-8"?>
<!-- Generator: Adobe Illustrator 15.0.0, SVG Export Plug-In . SVG Version: 6.00 Build 0)  -->
<!DOCTYPE svg PUBLIC "-//W3C//DTD SVG 1.1//EN" "http://www.w3.org/Graphics/SVG/1.1/DTD/svg11.dtd">
<svg version="1.1" id="Ebene_1" xmlns="http://www.w3.org/2000/svg" xmlns:xlink="http://www.w3.org/1999/xlink" x="0px" y="0px"
	 width="335.502px" height="185.919px" viewBox="0 0 335.502 185.919" enable-background="new 0 0 335.502 185.919"
	 xml:space="preserve">
<g>
	<defs>
		<rect id="SVGID_1_" width="335.502" height="400.586"/>
	</defs>
	<clipPath id="SVGID_2_">
		<use xlink:href="#SVGID_1_"  overflow="visible"/>
	</clipPath>
	<g clip-path="url(#SVGID_2_)">
		<defs>
			<rect id="SVGID_3_" width="335.502" height="400.586"/>
		</defs>
		<clipPath id="SVGID_4_">
			<use xlink:href="#SVGID_3_"  overflow="visible"/>
		</clipPath>
		<path clip-path="url(#SVGID_4_)" fill="#F4A42E" d="M311.315,32.115c-13.403,0-24.259,11.464-24.259,25.567
			c0,9.173,4.579,17.16,11.475,21.699c-14.57,21.21-35.129,45.841-56.321,52.976c-27.886,9.398-53.886-48.355-66.685-82.676
			c9.487-3.463,16.396-12.916,16.396-24.129c0-14.102-10.84-25.553-24.199-25.553c-13.333,0-24.188,11.45-24.188,25.553
			c0,11.213,6.896,20.652,16.398,24.129c-12.77,34.321-38.742,92.074-66.671,82.676c-21.163-7.135-41.765-31.766-56.305-52.976
			c6.867-4.538,11.459-12.511,11.459-21.699c0-14.103-10.869-25.567-24.23-25.567C10.855,32.115,0,43.579,0,57.682
			c0,14.144,10.855,25.594,24.186,25.594c0.274,0,0.461-0.07,0.72-0.098l22.966,103.47l239.537,0.952l23.188-104.422
			c0.229,0.015,0.46,0.098,0.733,0.098c13.317,0,24.172-11.45,24.172-25.594C335.487,43.579,324.632,32.115,311.315,32.115"/>
	</g>
</g>
</svg>
